<?xml version="1.0" encoding="UTF-8" standalone="no"?><!DOCTYPE svg PUBLIC "-//W3C//DTD SVG 1.1//EN" "http://www.w3.org/Graphics/SVG/1.1/DTD/svg11.dtd"><svg width="100%" height="100%" viewBox="0 0 400 100" version="1.1" xmlns="http://www.w3.org/2000/svg" xmlns:xlink="http://www.w3.org/1999/xlink" xml:space="preserve" xmlns:serif="http://www.serif.com/" style="fill-rule:evenodd;clip-rule:evenodd;"><g><path id="Card-background" d="M156.024,6.8c0.001,-2.649 -2.136,-4.8 -4.769,-4.8l-62.459,0c-2.633,0 -4.771,2.151 -4.772,4.8l-0.024,86.4c0,2.649 2.137,4.8 4.77,4.8l62.458,0c2.633,0 4.772,-2.151 4.772,-4.8l0.024,-86.4Z" style="fill:url(#_Radial1);stroke:#646464;stroke-width:0.11px;"/><path id="Clubs" d="M120.17,15.66c-9.304,-0.001 -16.96,7.279 -16.96,16.126c0.007,3.881 1.488,7.632 4.168,10.559c-0.778,-0.117 -1.564,-0.179 -2.351,-0.185c-8.723,0 -15.9,6.835 -15.9,15.143c0,8.308 7.177,15.143 15.9,15.143c4.616,-0.003 9.01,-1.921 12.026,-5.249c2.494,7.29 -3.489,12.953 -6.272,17.591l18.172,0c-2.799,-4.666 -8.837,-10.368 -6.226,-17.721c3.015,3.403 7.457,5.373 12.132,5.379c8.723,0 15.9,-6.835 15.9,-15.143c0,-8.307 -7.177,-15.143 -15.9,-15.143c-0.607,0.006 -1.213,0.045 -1.816,0.117c2.635,-2.92 4.085,-6.642 4.088,-10.49c0,-8.847 -7.657,-16.127 -16.961,-16.127Z" style="fill:url(#_Linear2);stroke:#000;stroke-width:0.15px;"/><g id="Center-Text"><path d="M113.281,61.533l13.911,-0.001l0,-3.265l-9.324,0l7.851,-9.188c0.982,-1.166 1.473,-2.5 1.473,-4c-0.022,-1.875 -0.697,-3.422 -2.025,-4.64c-1.306,-1.229 -3.008,-1.854 -5.106,-1.875c-1.875,0.021 -3.455,0.635 -4.738,1.844c-1.272,1.239 -1.953,2.807 -2.042,4.703l3.482,0c0.123,-1.042 0.513,-1.849 1.172,-2.422c0.636,-0.573 1.434,-0.86 2.394,-0.86c1.082,0.021 1.919,0.349 2.511,0.985c0.569,0.635 0.854,1.38 0.854,2.234c0,0.323 -0.045,0.667 -0.134,1.031c-0.134,0.386 -0.385,0.802 -0.754,1.25l-9.525,11.125l0,3.078Z" style="fill:none;"/><path d="M113.281,61.533l13.911,-0.001l0,-3.265l-9.324,0l7.851,-9.188c0.982,-1.166 1.473,-2.5 1.473,-4c-0.022,-1.875 -0.697,-3.422 -2.025,-4.64c-1.306,-1.229 -3.008,-1.854 -5.106,-1.875c-1.875,0.021 -3.455,0.635 -4.738,1.844c-1.272,1.239 -1.953,2.807 -2.042,4.703l3.482,0c0.123,-1.042 0.513,-1.849 1.172,-2.422c0.636,-0.573 1.434,-0.86 2.394,-0.86c1.082,0.021 1.919,0.349 2.511,0.985c0.569,0.635 0.854,1.38 0.854,2.234c0,0.323 -0.045,0.667 -0.134,1.031c-0.134,0.386 -0.385,0.802 -0.754,1.25l-9.525,11.125l0,3.078Z" style="fill:#fff;fill-rule:nonzero;"/></g></g><g><path id="Card-background1" serif:id="Card-background" d="M75.999,6.8c0.001,-2.649 -2.136,-4.8 -4.769,-4.8l-62.459,0c-2.633,0 -4.771,2.151 -4.772,4.8l-0.024,86.4c-0.001,2.649 2.136,4.8 4.769,4.8l62.459,0c2.633,0 4.771,-2.151 4.772,-4.8l0.024,-86.4Z" style="fill:url(#_Radial3);stroke:#646464;stroke-width:0.11px;"/><path id="Clubs1" serif:id="Clubs" d="M40.145,15.66c-9.305,-0.001 -16.961,7.279 -16.961,16.126c0.008,3.881 1.488,7.632 4.168,10.559c-0.777,-0.117 -1.564,-0.179 -2.351,-0.185c-8.723,0 -15.9,6.835 -15.9,15.143c0,8.308 7.178,15.143 15.9,15.143c4.616,-0.003 9.01,-1.921 12.026,-5.249c2.495,7.29 -3.489,12.953 -6.271,17.591l18.172,0c-2.8,-4.666 -8.838,-10.368 -6.226,-17.721c3.014,3.403 7.456,5.373 12.132,5.379c8.722,0 15.9,-6.835 15.9,-15.143c0,-8.307 -7.178,-15.143 -15.9,-15.143c-0.608,0.006 -1.214,0.045 -1.816,0.117c2.634,-2.92 4.085,-6.642 4.087,-10.49c0,-8.847 -7.656,-16.127 -16.96,-16.127Z" style="fill:url(#_Linear4);stroke:#000;stroke-width:0.15px;"/><g id="Center-Text1" serif:id="Center-Text"><path d="M36.821,53.376l3.532,-9.953l0.067,0l3.533,9.953l-7.132,0Zm10.078,8.156l3.901,0l-8.873,-22.781l-3.097,0l-8.873,22.781l3.917,0l1.876,-5.093l9.257,0l1.892,5.093Z" style="fill:none;"/><path d="M36.821,53.376l3.532,-9.953l0.067,0l3.533,9.953l-7.132,0Zm10.078,8.156l3.901,0l-8.873,-22.781l-3.097,0l-8.873,22.781l3.917,0l1.876,-5.093l9.257,0l1.892,5.093Z" style="fill:#fff;fill-rule:nonzero;"/></g></g><g><path id="Card-background2" serif:id="Card-background" d="M236.024,6.8c0.001,-2.649 -2.136,-4.8 -4.769,-4.8l-62.459,0c-2.633,0 -4.771,2.151 -4.772,4.8l-0.024,86.4c0,2.649 2.137,4.8 4.77,4.8l62.458,0c2.633,0 4.772,-2.151 4.772,-4.8l0.024,-86.4Z" style="fill:url(#_Radial5);stroke:#646464;stroke-width:0.11px;"/><path id="Clubs2" serif:id="Clubs" d="M200.17,15.66c-9.304,-0.001 -16.96,7.279 -16.96,16.126c0.007,3.881 1.488,7.632 4.168,10.559c-0.778,-0.117 -1.564,-0.179 -2.351,-0.185c-8.723,0 -15.9,6.835 -15.9,15.143c0,8.308 7.177,15.143 15.9,15.143c4.616,-0.003 9.01,-1.921 12.026,-5.249c2.494,7.29 -3.489,12.953 -6.272,17.591l18.172,0c-2.799,-4.666 -8.837,-10.368 -6.226,-17.721c3.015,3.403 7.457,5.373 12.132,5.379c8.723,0 15.9,-6.835 15.9,-15.143c0,-8.307 -7.177,-15.143 -15.9,-15.143c-0.607,0.006 -1.213,0.045 -1.816,0.117c2.635,-2.92 4.085,-6.642 4.088,-10.49c0,-8.847 -7.657,-16.127 -16.961,-16.127Z" style="fill:url(#_Linear6);stroke:#000;stroke-width:0.15px;"/><path d="M198.203,51.236l1.473,0c1.082,0 1.975,0.307 2.678,0.921c0.715,0.636 1.083,1.532 1.105,2.688c-0.022,1.135 -0.39,2.01 -1.105,2.625c-0.703,0.656 -1.568,0.984 -2.595,0.984c-0.959,0 -1.73,-0.244 -2.31,-0.734c-0.569,-0.469 -1.01,-1.083 -1.322,-1.844l-3.499,0c0.379,1.896 1.211,3.344 2.494,4.344c1.284,1 2.757,1.5 4.42,1.5c2.154,-0.021 3.917,-0.661 5.29,-1.922c1.395,-1.229 2.104,-2.911 2.126,-5.047c0,-0.958 -0.218,-1.875 -0.653,-2.75c-0.457,-0.875 -1.2,-1.625 -2.226,-2.25c1.004,-0.635 1.702,-1.359 2.092,-2.172c0.335,-0.812 0.502,-1.656 0.502,-2.531c-0.022,-1.729 -0.658,-3.229 -1.908,-4.5c-1.306,-1.302 -3.069,-1.963 -5.29,-1.984c-1.752,0.021 -3.259,0.604 -4.52,1.75c-1.284,1.156 -2.015,2.578 -2.193,4.265l3.499,0c0.223,-0.937 0.658,-1.63 1.305,-2.078c0.614,-0.448 1.295,-0.672 2.043,-0.672c1.038,0.021 1.886,0.329 2.544,0.922c0.659,0.615 0.999,1.401 1.022,2.36c0,0.948 -0.33,1.718 -0.988,2.312c-0.659,0.615 -1.585,0.922 -2.779,0.922l-1.205,0l0,2.891Z" style="fill:none;"/><path d="M198.203,51.236l1.473,0c1.082,0 1.975,0.307 2.678,0.921c0.715,0.636 1.083,1.532 1.105,2.688c-0.022,1.135 -0.39,2.01 -1.105,2.625c-0.703,0.656 -1.568,0.984 -2.595,0.984c-0.959,0 -1.73,-0.244 -2.31,-0.734c-0.569,-0.469 -1.01,-1.083 -1.322,-1.844l-3.499,0c0.379,1.896 1.211,3.344 2.494,4.344c1.284,1 2.757,1.5 4.42,1.5c2.154,-0.021 3.917,-0.661 5.29,-1.922c1.395,-1.229 2.104,-2.911 2.126,-5.047c0,-0.958 -0.218,-1.875 -0.653,-2.75c-0.457,-0.875 -1.2,-1.625 -2.226,-2.25c1.004,-0.635 1.702,-1.359 2.092,-2.172c0.335,-0.812 0.502,-1.656 0.502,-2.531c-0.022,-1.729 -0.658,-3.229 -1.908,-4.5c-1.306,-1.302 -3.069,-1.963 -5.29,-1.984c-1.752,0.021 -3.259,0.604 -4.52,1.75c-1.284,1.156 -2.015,2.578 -2.193,4.265l3.499,0c0.223,-0.937 0.658,-1.63 1.305,-2.078c0.614,-0.448 1.295,-0.672 2.043,-0.672c1.038,0.021 1.886,0.329 2.544,0.922c0.659,0.615 0.999,1.401 1.022,2.36c0,0.948 -0.33,1.718 -0.988,2.312c-0.659,0.615 -1.585,0.922 -2.779,0.922l-1.205,0l0,2.891Z" style="fill:#fff;fill-rule:nonzero;"/></g><g><path id="Card-background3" serif:id="Card-background" d="M316.024,6.8c0.001,-2.649 -2.136,-4.8 -4.769,-4.8l-62.459,0c-2.633,0 -4.771,2.151 -4.772,4.8l-0.024,86.4c0,2.649 2.137,4.8 4.77,4.8l62.458,0c2.633,0 4.772,-2.151 4.772,-4.8l0.024,-86.4Z" style="fill:url(#_Radial7);stroke:#646464;stroke-width:0.11px;"/><path id="Clubs3" serif:id="Clubs" d="M280.17,15.66c-9.304,-0.001 -16.96,7.279 -16.96,16.126c0.007,3.881 1.488,7.632 4.168,10.559c-0.778,-0.117 -1.564,-0.179 -2.351,-0.185c-8.723,0 -15.9,6.835 -15.9,15.143c0,8.308 7.177,15.143 15.9,15.143c4.616,-0.003 9.01,-1.921 12.026,-5.249c2.494,7.29 -3.489,12.953 -6.272,17.591l18.172,0c-2.799,-4.666 -8.837,-10.368 -6.226,-17.721c3.015,3.403 7.457,5.373 12.132,5.379c8.723,0 15.9,-6.835 15.9,-15.143c0,-8.307 -7.177,-15.143 -15.9,-15.143c-0.607,0.006 -1.213,0.045 -1.816,0.117c2.635,-2.92 4.085,-6.642 4.088,-10.49c0,-8.847 -7.657,-16.127 -16.961,-16.127Z" style="fill:url(#_Linear8);stroke:#000;stroke-width:0.15px;"/><g id="Center-Text2" serif:id="Center-Text"><path d="M272.594,58.142l10.179,0l0,3.39l3.499,0l0,-3.39l1.942,0l0,-3.078l-1.942,0l0,-6.547l-3.499,0l0,6.547l-6.379,0l8.254,-16.313l-3.901,0l-8.153,16.313l0,3.078Z" style="fill:none;"/><path d="M272.594,58.142l10.179,0l0,3.39l3.499,0l0,-3.39l1.942,0l0,-3.078l-1.942,0l0,-6.547l-3.499,0l0,6.547l-6.379,0l8.254,-16.313l-3.901,0l-8.153,16.313l0,3.078Z" style="fill:#fff;fill-rule:nonzero;"/></g></g><g><path id="Card-background4" serif:id="Card-background" d="M396.024,6.8c0.001,-2.649 -2.136,-4.8 -4.769,-4.8l-62.459,0c-2.633,0 -4.771,2.151 -4.772,4.8l-0.024,86.4c0,2.649 2.137,4.8 4.77,4.8l62.458,0c2.633,0 4.772,-2.151 4.772,-4.8l0.024,-86.4Z" style="fill:url(#_Radial9);stroke:#646464;stroke-width:0.11px;"/><path id="Clubs4" serif:id="Clubs" d="M360.17,15.66c-9.304,-0.001 -16.96,7.279 -16.96,16.126c0.007,3.881 1.488,7.632 4.168,10.559c-0.778,-0.117 -1.564,-0.179 -2.351,-0.185c-8.723,0 -15.9,6.835 -15.9,15.143c0,8.308 7.177,15.143 15.9,15.143c4.616,-0.003 9.01,-1.921 12.026,-5.249c2.494,7.29 -3.489,12.953 -6.272,17.591l18.172,0c-2.799,-4.666 -8.837,-10.368 -6.226,-17.721c3.015,3.403 7.457,5.373 12.132,5.379c8.723,0 15.9,-6.835 15.9,-15.143c0,-8.307 -7.177,-15.143 -15.9,-15.143c-0.607,0.006 -1.213,0.045 -1.816,0.117c2.635,-2.92 4.085,-6.642 4.088,-10.49c0,-8.847 -7.657,-16.127 -16.961,-16.127Z" style="fill:url(#_Linear10);stroke:#000;stroke-width:0.15px;"/><g id="Center-Text3" serif:id="Center-Text"><path d="M353.883,51.064l3.298,0c0.413,-0.698 0.882,-1.188 1.407,-1.469c0.524,-0.271 1.104,-0.406 1.741,-0.406c0.714,0 1.311,0.094 1.791,0.281c0.48,0.229 0.842,0.536 1.088,0.922c0.458,0.812 0.675,1.87 0.653,3.172c0,0.531 -0.011,1.078 -0.034,1.64c-0.044,0.573 -0.167,1.105 -0.368,1.594c-0.19,0.49 -0.524,0.886 -1.004,1.188c-0.503,0.312 -1.172,0.468 -2.009,0.468c-1.953,-0.02 -3.12,-0.906 -3.499,-2.656l-3.499,0c0.335,2.094 1.2,3.609 2.595,4.547c1.373,0.917 2.885,1.375 4.537,1.375c1.227,-0.021 2.288,-0.287 3.18,-0.797c0.916,-0.489 1.613,-1.031 2.093,-1.625c0.547,-0.604 0.938,-1.297 1.172,-2.078c0.223,-0.792 0.335,-1.927 0.335,-3.406c0,-0.959 -0.034,-1.766 -0.101,-2.422c-0.067,-0.646 -0.178,-1.193 -0.334,-1.641c-0.302,-0.823 -0.793,-1.547 -1.474,-2.172c-0.457,-0.468 -1.054,-0.864 -1.791,-1.187c-0.781,-0.292 -1.641,-0.448 -2.578,-0.469c-1.462,0 -2.762,0.417 -3.901,1.25l0,-5.156l9.71,0l0,-3.266l-13.008,0l0,12.313Z" style="fill:none;"/><path d="M353.883,51.064l3.298,0c0.413,-0.698 0.882,-1.188 1.407,-1.469c0.524,-0.271 1.104,-0.406 1.741,-0.406c0.714,0 1.311,0.094 1.791,0.281c0.48,0.229 0.842,0.536 1.088,0.922c0.458,0.812 0.675,1.87 0.653,3.172c0,0.531 -0.011,1.078 -0.034,1.64c-0.044,0.573 -0.167,1.105 -0.368,1.594c-0.19,0.49 -0.524,0.886 -1.004,1.188c-0.503,0.312 -1.172,0.468 -2.009,0.468c-1.953,-0.02 -3.12,-0.906 -3.499,-2.656l-3.499,0c0.335,2.094 1.2,3.609 2.595,4.547c1.373,0.917 2.885,1.375 4.537,1.375c1.227,-0.021 2.288,-0.287 3.18,-0.797c0.916,-0.489 1.613,-1.031 2.093,-1.625c0.547,-0.604 0.938,-1.297 1.172,-2.078c0.223,-0.792 0.335,-1.927 0.335,-3.406c0,-0.959 -0.034,-1.766 -0.101,-2.422c-0.067,-0.646 -0.178,-1.193 -0.334,-1.641c-0.302,-0.823 -0.793,-1.547 -1.474,-2.172c-0.457,-0.468 -1.054,-0.864 -1.791,-1.187c-0.781,-0.292 -1.641,-0.448 -2.578,-0.469c-1.462,0 -2.762,0.417 -3.901,1.25l0,-5.156l9.71,0l0,-3.266l-13.008,0l0,12.313Z" style="fill:#fff;fill-rule:nonzero;"/></g></g><defs><radialGradient id="_Radial1" cx="0" cy="0" r="1" gradientUnits="userSpaceOnUse" gradientTransform="matrix(63.432,48.6678,-35.6829,47.7578,120.012,50)"><stop offset="0" style="stop-color:#fff;stop-opacity:1"/><stop offset="1" style="stop-color:#dcdcdc;stop-opacity:1"/></radialGradient><linearGradient id="_Linear2" x1="0" y1="0" x2="1" y2="0" gradientUnits="userSpaceOnUse" gradientTransform="matrix(-0.605725,46.9438,-46.9438,-0.605725,120.473,15.205)"><stop offset="0" style="stop-color:#737373;stop-opacity:1"/><stop offset="1" style="stop-color:#000;stop-opacity:1"/></linearGradient><radialGradient id="_Radial3" cx="0" cy="0" r="1" gradientUnits="userSpaceOnUse" gradientTransform="matrix(63.432,48.6678,-35.6829,47.7578,39.9867,50)"><stop offset="0" style="stop-color:#fff;stop-opacity:1"/><stop offset="1" style="stop-color:#dcdcdc;stop-opacity:1"/></radialGradient><linearGradient id="_Linear4" x1="0" y1="0" x2="1" y2="0" gradientUnits="userSpaceOnUse" gradientTransform="matrix(-0.605725,46.9438,-46.9438,-0.605725,40.4473,15.205)"><stop offset="0" style="stop-color:#737373;stop-opacity:1"/><stop offset="1" style="stop-color:#000;stop-opacity:1"/></linearGradient><radialGradient id="_Radial5" cx="0" cy="0" r="1" gradientUnits="userSpaceOnUse" gradientTransform="matrix(63.432,48.6678,-35.6829,47.7578,200.012,50)"><stop offset="0" style="stop-color:#fff;stop-opacity:1"/><stop offset="1" style="stop-color:#dcdcdc;stop-opacity:1"/></radialGradient><linearGradient id="_Linear6" x1="0" y1="0" x2="1" y2="0" gradientUnits="userSpaceOnUse" gradientTransform="matrix(-0.605725,46.9438,-46.9438,-0.605725,200.473,15.205)"><stop offset="0" style="stop-color:#737373;stop-opacity:1"/><stop offset="1" style="stop-color:#000;stop-opacity:1"/></linearGradient><radialGradient id="_Radial7" cx="0" cy="0" r="1" gradientUnits="userSpaceOnUse" gradientTransform="matrix(63.432,48.6678,-35.6829,47.7578,280.012,50)"><stop offset="0" style="stop-color:#fff;stop-opacity:1"/><stop offset="1" style="stop-color:#dcdcdc;stop-opacity:1"/></radialGradient><linearGradient id="_Linear8" x1="0" y1="0" x2="1" y2="0" gradientUnits="userSpaceOnUse" gradientTransform="matrix(-0.605725,46.9438,-46.9438,-0.605725,280.473,15.205)"><stop offset="0" style="stop-color:#737373;stop-opacity:1"/><stop offset="1" style="stop-color:#000;stop-opacity:1"/></linearGradient><radialGradient id="_Radial9" cx="0" cy="0" r="1" gradientUnits="userSpaceOnUse" gradientTransform="matrix(63.432,48.6678,-35.6829,47.7578,360.012,50)"><stop offset="0" style="stop-color:#fff;stop-opacity:1"/><stop offset="1" style="stop-color:#dcdcdc;stop-opacity:1"/></radialGradient><linearGradient id="_Linear10" x1="0" y1="0" x2="1" y2="0" gradientUnits="userSpaceOnUse" gradientTransform="matrix(-0.605725,46.9438,-46.9438,-0.605725,360.473,15.205)"><stop offset="0" style="stop-color:#737373;stop-opacity:1"/><stop offset="1" style="stop-color:#000;stop-opacity:1"/></linearGradient></defs></svg>