<?xml version="1.0" encoding="UTF-8" standalone="no"?><!DOCTYPE svg PUBLIC "-//W3C//DTD SVG 1.1//EN" "http://www.w3.org/Graphics/SVG/1.1/DTD/svg11.dtd"><svg width="100%" height="100%" viewBox="0 0 144 193" version="1.1" xmlns="http://www.w3.org/2000/svg" xmlns:xlink="http://www.w3.org/1999/xlink" xml:space="preserve" style="fill-rule:evenodd;clip-rule:evenodd;"><path id="Card-background" d="M143.997,9.6c0.002,-5.298 -4.272,-9.6 -9.538,-9.6l-124.918,0c-5.266,0 -9.542,4.302 -9.544,9.6l-0.048,172.8c-0.001,5.298 4.273,9.6 9.539,9.6l124.917,0c5.266,0 9.543,-4.302 9.544,-9.6l0.048,-172.8Z" style="fill:url(#_Radial1);stroke:#646464;stroke-width:0.22px;"/><path id="Diamonds" d="M72.771,166.807l49.907,-69.282l-50.35,-69.898l-49.908,69.282l50.351,69.898Z" style="fill:url(#_Linear2);stroke:#640000;stroke-width:0.2px;"/><g id="Center-Text" transform="matrix(0.233905,0,0,0.218311,72.7568,119.065)"><path d="M-59.19,-58.403c0.191,19.181 6.346,33.973 18.465,44.375c11.357,10.306 24.908,15.555 40.653,15.746c16.223,-0.191 30.013,-5.44 41.369,-15.746c11.547,-10.402 17.511,-25.194 17.893,-44.375l0,-19.038c0.191,-20.136 -4.39,-34.88 -13.742,-44.232c-9.543,-9.161 -21.185,-13.742 -34.927,-13.742c-12.31,-0.19 -25.575,1.957 -39.794,6.442l0,-19.611c0.382,-20.899 10.116,-31.539 29.201,-31.921c13.551,0.191 22.665,6.012 27.341,17.464l30.776,0c-2.958,-15.365 -9.781,-27.15 -20.47,-35.357c-10.974,-8.016 -23.523,-12.024 -37.647,-12.024c-15.745,0 -29.296,5.153 -40.653,15.459c-12.119,10.402 -18.274,25.242 -18.465,44.518l0,92.042Zm29.917,-18.752c0.382,-20.899 10.116,-31.539 29.201,-31.921c18.991,0.382 28.772,11.022 29.345,31.921l0,17.034c-0.573,21.09 -10.354,31.731 -29.345,31.922c-19.085,-0.191 -28.819,-10.832 -29.201,-31.922l0,-17.034Z" style="fill:none;"/><path d="M-59.19,-58.403c0.191,19.181 6.346,33.973 18.465,44.375c11.357,10.306 24.908,15.555 40.653,15.746c16.223,-0.191 30.013,-5.44 41.369,-15.746c11.547,-10.402 17.511,-25.194 17.893,-44.375l0,-19.038c0.191,-20.136 -4.39,-34.88 -13.742,-44.232c-9.543,-9.161 -21.185,-13.742 -34.927,-13.742c-12.31,-0.19 -25.575,1.957 -39.794,6.442l0,-19.611c0.382,-20.899 10.116,-31.539 29.201,-31.921c13.551,0.191 22.665,6.012 27.341,17.464l30.776,0c-2.958,-15.365 -9.781,-27.15 -20.47,-35.357c-10.974,-8.016 -23.523,-12.024 -37.647,-12.024c-15.745,0 -29.296,5.153 -40.653,15.459c-12.119,10.402 -18.274,25.242 -18.465,44.518l0,92.042Zm29.917,-18.752c0.382,-20.899 10.116,-31.539 29.201,-31.921c18.991,0.382 28.772,11.022 29.345,31.921l0,17.034c-0.573,21.09 -10.354,31.731 -29.345,31.922c-19.085,-0.191 -28.819,-10.832 -29.201,-31.922l0,-17.034Z" style="fill:#fff;fill-rule:nonzero;"/></g><defs><radialGradient id="_Radial1" cx="0" cy="0" r="1" gradientUnits="userSpaceOnUse" gradientTransform="matrix(126.864,97.3356,-71.3658,95.5156,71.9734,96)"><stop offset="0%" style="stop-color:#fff;stop-opacity:1"/><stop offset="100%" style="stop-color:#dcdcdc;stop-opacity:1"/></radialGradient><linearGradient id="_Linear2" x1="0" y1="0" x2="1" y2="0" gradientUnits="userSpaceOnUse" gradientTransform="matrix(-1.00824,141.778,-102.133,-1.87515,71.8727,27.2082)"><stop offset="0%" style="stop-color:#e00000;stop-opacity:1"/><stop offset="100%" style="stop-color:#810000;stop-opacity:1"/></linearGradient></defs></svg>