<?xml version="1.0" encoding="UTF-8" standalone="no"?><!DOCTYPE svg PUBLIC "-//W3C//DTD SVG 1.1//EN" "http://www.w3.org/Graphics/SVG/1.1/DTD/svg11.dtd"><svg width="100%" height="100%" viewBox="0 0 144 193" version="1.1" xmlns="http://www.w3.org/2000/svg" xmlns:xlink="http://www.w3.org/1999/xlink" xml:space="preserve" style="fill-rule:evenodd;clip-rule:evenodd;"><path id="Card-background" d="M143.997,9.6c0.002,-5.298 -4.272,-9.6 -9.538,-9.6l-124.918,0c-5.266,0 -9.542,4.302 -9.544,9.6l-0.048,172.8c-0.001,5.298 4.273,9.6 9.539,9.6l124.917,0c5.266,0 9.543,-4.302 9.544,-9.6l0.048,-172.8Z" style="fill:url(#_Radial1);stroke:#646464;stroke-width:0.22px;"/><path id="Diamonds" d="M72.771,166.807l49.907,-69.282l-50.35,-69.898l-49.908,69.282l50.351,69.898Z" style="fill:url(#_Linear2);stroke:#640000;stroke-width:0.2px;"/><g id="Center-Text" transform="matrix(0.233905,0,0,0.218311,72.7568,119.065)"><path d="M-29.846,-150.731c0.191,-9.925 3.293,-17.416 9.305,-22.474c5.916,-4.867 12.74,-7.3 20.469,-7.3c8.017,0 14.983,2.433 20.9,7.3c5.821,5.058 8.827,12.549 9.018,22.474c-0.191,9.638 -3.197,16.986 -9.018,22.044c-5.917,5.249 -12.883,7.873 -20.9,7.873c-7.729,0 -14.553,-2.624 -20.469,-7.873c-6.012,-5.058 -9.114,-12.406 -9.305,-22.044Zm-33.782,89.752c0.191,18.799 6.537,33.829 19.039,45.09c11.928,11.547 26.768,17.416 44.517,17.607c17.846,-0.191 32.924,-6.06 45.234,-17.607c12.12,-11.261 18.275,-26.291 18.466,-45.09c-0.191,-20.136 -8.398,-35.787 -24.621,-46.952c6.203,-5.439 11.261,-11.69 15.173,-18.752c3.722,-6.584 5.583,-14.41 5.583,-23.475c-0.191,-17.369 -5.869,-31.731 -17.034,-43.087c-11.07,-11.261 -25.337,-16.986 -42.801,-17.177c-17.177,0.191 -31.205,5.916 -42.084,17.177c-11.547,11.356 -17.416,25.718 -17.607,43.087c0,9.065 2.052,16.891 6.155,23.475c3.531,7.062 8.398,13.313 14.601,18.752c-16.223,11.165 -24.43,26.816 -24.621,46.952Zm29.918,-0.287c0.19,-9.734 3.626,-17.654 10.306,-23.762c6.394,-6.012 14.171,-9.113 23.332,-9.304c9.448,0.191 17.369,3.292 23.762,9.304c6.49,6.108 9.83,14.028 10.02,23.762c-0.19,9.543 -3.53,17.368 -10.02,23.476c-6.393,6.394 -14.314,9.591 -23.762,9.591c-9.161,0 -16.938,-3.197 -23.332,-9.591c-6.68,-6.108 -10.116,-13.933 -10.306,-23.476Z" style="fill:none;"/><path d="M-29.846,-150.731c0.191,-9.925 3.293,-17.416 9.305,-22.474c5.916,-4.867 12.74,-7.3 20.469,-7.3c8.017,0 14.983,2.433 20.9,7.3c5.821,5.058 8.827,12.549 9.018,22.474c-0.191,9.638 -3.197,16.986 -9.018,22.044c-5.917,5.249 -12.883,7.873 -20.9,7.873c-7.729,0 -14.553,-2.624 -20.469,-7.873c-6.012,-5.058 -9.114,-12.406 -9.305,-22.044Zm-33.782,89.752c0.191,18.799 6.537,33.829 19.039,45.09c11.928,11.547 26.768,17.416 44.517,17.607c17.846,-0.191 32.924,-6.06 45.234,-17.607c12.12,-11.261 18.275,-26.291 18.466,-45.09c-0.191,-20.136 -8.398,-35.787 -24.621,-46.952c6.203,-5.439 11.261,-11.69 15.173,-18.752c3.722,-6.584 5.583,-14.41 5.583,-23.475c-0.191,-17.369 -5.869,-31.731 -17.034,-43.087c-11.07,-11.261 -25.337,-16.986 -42.801,-17.177c-17.177,0.191 -31.205,5.916 -42.084,17.177c-11.547,11.356 -17.416,25.718 -17.607,43.087c0,9.065 2.052,16.891 6.155,23.475c3.531,7.062 8.398,13.313 14.601,18.752c-16.223,11.165 -24.43,26.816 -24.621,46.952Zm29.918,-0.287c0.19,-9.734 3.626,-17.654 10.306,-23.762c6.394,-6.012 14.171,-9.113 23.332,-9.304c9.448,0.191 17.369,3.292 23.762,9.304c6.49,6.108 9.83,14.028 10.02,23.762c-0.19,9.543 -3.53,17.368 -10.02,23.476c-6.393,6.394 -14.314,9.591 -23.762,9.591c-9.161,0 -16.938,-3.197 -23.332,-9.591c-6.68,-6.108 -10.116,-13.933 -10.306,-23.476Z" style="fill:#fff;fill-rule:nonzero;"/></g><defs><radialGradient id="_Radial1" cx="0" cy="0" r="1" gradientUnits="userSpaceOnUse" gradientTransform="matrix(126.864,97.3356,-71.3658,95.5156,71.9734,96)"><stop offset="0%" style="stop-color:#fff;stop-opacity:1"/><stop offset="100%" style="stop-color:#dcdcdc;stop-opacity:1"/></radialGradient><linearGradient id="_Linear2" x1="0" y1="0" x2="1" y2="0" gradientUnits="userSpaceOnUse" gradientTransform="matrix(-1.00824,141.778,-102.133,-1.87515,71.8727,27.2082)"><stop offset="0%" style="stop-color:#e00000;stop-opacity:1"/><stop offset="100%" style="stop-color:#810000;stop-opacity:1"/></linearGradient></defs></svg>