<?xml version="1.0" encoding="UTF-8" standalone="no"?><!DOCTYPE svg PUBLIC "-//W3C//DTD SVG 1.1//EN" "http://www.w3.org/Graphics/SVG/1.1/DTD/svg11.dtd"><svg width="100%" height="100%" viewBox="0 0 658 578" version="1.1" xmlns="http://www.w3.org/2000/svg" xmlns:xlink="http://www.w3.org/1999/xlink" xml:space="preserve" xmlns:serif="http://www.serif.com/" style="fill-rule:evenodd;clip-rule:evenodd;"><g><path id="Card-background" d="M246.046,23.434c-9.754,-8.348 -24.449,-7.208 -32.797,2.548l-198.004,231.417c-8.346,9.755 -7.204,24.455 2.549,32.804l318.091,272.317c9.752,8.35 24.449,7.208 32.795,-2.547l198.004,-231.416c8.347,-9.755 7.205,-24.456 -2.547,-32.806l-318.091,-272.317l0,0Z" style="fill:url(#_Radial1);stroke:#646464;stroke-width:0.53px;"/><path id="path7930" d="M190.433,205.284c-23.231,27.151 -21.103,67.669 4.715,89.76c11.343,9.666 25.985,14.712 41.217,14.201c-2.283,1.975 -4.425,4.113 -6.409,6.395c-21.78,25.456 -19.754,63.466 4.489,84.209c24.242,20.742 62.11,16.866 83.89,-8.589c11.515,-13.48 16.889,-31.089 14.707,-48.2c27.503,10.922 29.088,42.522 35.676,62.222l45.371,-53.028c-20.606,-3.48 -52.32,-0.098 -67.259,-26.077c17.459,-0.3 34.298,-8.344 45.99,-21.972c21.778,-25.453 19.752,-63.467 -4.49,-84.208c-24.243,-20.744 -62.111,-16.864 -83.89,8.589c-1.5,1.788 -2.896,3.654 -4.191,5.592c-1.944,-14.978 -9.186,-28.506 -20.407,-38.12c-25.818,-22.09 -66.178,-17.925 -89.409,9.226l0,0Z" style="fill:url(#_Linear2);stroke:#000;stroke-width:0.58px;"/><path id="path7975" d="M83.614,294.054c-3.985,4.659 -3.48,11.731 1.12,15.667c2.021,1.723 4.606,2.649 7.273,2.61c-0.393,0.336 -0.763,0.702 -1.102,1.094c-3.735,4.366 -3.257,11.001 1.061,14.695c4.319,3.696 10.948,3.142 14.683,-1.223c1.976,-2.313 2.86,-5.367 2.423,-8.356c4.858,1.994 5.24,7.507 6.458,10.963l7.784,-9.098c-3.624,-0.673 -9.175,-0.186 -11.879,-4.764c3.061,0.004 5.986,-1.343 7.994,-3.681c3.735,-4.366 3.257,-11.001 -1.063,-14.697c-4.317,-3.694 -10.946,-3.14 -14.681,1.225c-0.259,0.306 -0.498,0.627 -0.718,0.962c-0.391,-2.618 -1.704,-5.001 -3.703,-6.712c-4.6,-3.935 -11.664,-3.343 -15.65,1.315Z" style="fill:url(#_Linear3);stroke:#000;stroke-width:0.1px;"/><path id="path79751" d="M497.598,293.59c-3.986,4.658 -11.05,5.254 -15.649,1.319c-2.015,-1.73 -3.33,-4.141 -3.703,-6.784c-0.273,0.442 -0.577,0.861 -0.912,1.26c-3.735,4.366 -10.364,4.919 -14.682,1.225c-4.32,-3.696 -4.798,-10.331 -1.063,-14.696c1.981,-2.311 4.858,-3.657 7.881,-3.686c-2.72,-4.493 -8.227,-4.016 -11.832,-4.686l7.784,-9.098c1.228,3.478 1.606,9.038 6.547,11.001c-0.478,-3.024 0.401,-6.124 2.4,-8.467c3.737,-4.368 10.364,-4.919 14.684,-1.224c4.317,3.695 4.797,10.327 1.06,14.695c-0.263,0.301 -0.543,0.587 -0.839,0.858c2.647,-0.019 5.205,0.909 7.204,2.62c4.6,3.936 5.105,11.005 1.12,15.663l0,0Z" style="fill:url(#_Linear4);stroke:#000;stroke-width:0.1px;"/><path d="M67.016,295.496l3.4,-3.974l-7.984,-6.831l-0.898,-8.741l18.928,3.831l4.031,-4.712l-23.815,-4.307l-3.155,-17.242l-4.03,4.71l4.272,22.344l-0.061,0.072l-13.504,-11.554l-3.4,3.973l26.216,22.431Z" style="fill:#090707;fill-rule:nonzero;"/><path d="M513.832,291.356l-3.402,3.975l7.984,6.831l0.899,8.742l-18.929,-3.831l-4.03,4.71l23.816,4.306l3.155,17.246l4.031,-4.712l-4.273,-22.342l0.061,-0.072l13.504,11.554l3.401,-3.975l-26.217,-22.432l0,0Z" style="fill-rule:nonzero;"/><g id="Suits"><path d="M296.786,336.363l8.743,-10.218l-19.16,-16.394l-1.481,-21.769l46.474,7.97l10.365,-12.114l-58.518,-8.745l-6.339,-42.824l-10.365,12.114l8.673,55.472l-0.159,0.185l-32.409,-27.729l-8.743,10.218l62.919,53.834Z" style="fill:none;"/><path d="M296.786,336.363l8.743,-10.218l-19.16,-16.394l-1.481,-21.769l46.474,7.97l10.365,-12.114l-58.518,-8.745l-6.339,-42.824l-10.365,12.114l8.673,55.472l-0.159,0.185l-32.409,-27.729l-8.743,10.218l62.919,53.834Z" style="fill:#fff;fill-rule:nonzero;"/></g></g><g><path id="Card-background1" serif:id="Card-background" d="M456.835,20.713c-5.842,-11.432 -19.865,-15.971 -31.298,-10.126l-271.182,138.635c-11.431,5.844 -15.97,19.872 -10.129,31.304l190.501,372.892c5.84,11.434 19.865,15.972 31.296,10.128l271.182,-138.635c11.431,-5.844 15.97,-19.873 10.131,-31.306l-190.501,-372.892l0,0Z" style="fill:url(#_Radial5);stroke:#646464;stroke-width:0.53px;"/><path id="path7647" d="M278.984,208.227c-15.524,7.776 -27.114,23.803 -26.814,54.436c0.864,88.182 190.658,117.412 208.452,154.247l0.412,0.807c0,0 0.168,-0.502 0.206,-0.614c0.11,0.034 0.616,0.194 0.616,0.194l-0.412,-0.807c-15.898,-31.098 68.011,-206.958 -2.963,-259.298c-70.923,-52.304 -101.4,45.641 -103.374,52.306c-4.275,-1.5 -46.986,-15.867 -76.123,-1.271l0,0Z" style="fill:url(#_Linear6);stroke:url(#_Linear7);stroke-width:0.58px;"/><path id="path8171" d="M195.586,217.853c-2.467,1.237 -4.319,3.77 -4.296,8.589c0.061,13.876 30.131,18.316 32.923,24.096l0.065,0.127c0,0 0.025,-0.078 0.031,-0.098c0.018,0.008 0.098,0.032 0.098,0.032l-0.065,-0.128c-2.495,-4.88 10.958,-32.621 -0.252,-40.797c-11.202,-8.172 -16.116,7.267 -16.434,8.317c-0.677,-0.233 -7.437,-2.457 -12.07,-0.138l0,0Z" style="fill:url(#_Linear8);stroke:url(#_Linear9);stroke-width:0.1px;"/><path id="path5021" d="M575.286,367.748c-2.448,1.276 -5.584,1.295 -9.478,-1.547c-11.212,-8.175 2.799,-35.148 -0.252,-40.798l-0.064,-0.125c0,0 0.078,0.026 0.096,0.03c0.006,-0.017 0.033,-0.096 0.033,-0.096l0.064,0.125c2.495,4.881 32.86,10.221 32.923,24.096c0.064,13.866 -15.328,8.81 -16.365,8.453c-0.209,0.683 -2.364,7.465 -6.957,9.862l0,0Z" style="fill:url(#_Linear10);stroke:url(#_Linear11);stroke-width:0.1px;"/><path d="M189.11,203.449l17.509,-8.951l-2.251,-4.403l-11.736,5.999l3.549,-17.441c0.431,-2.207 0.129,-4.32 -0.905,-6.342c-1.32,-2.514 -3.237,-4.166 -5.75,-4.955c-2.489,-0.818 -5.063,-0.566 -7.718,0.756c-2.346,1.235 -3.909,3.081 -4.692,5.537c-0.747,2.488 -0.523,5.04 0.672,7.655l4.382,-2.241c-0.562,-1.484 -0.626,-2.823 -0.193,-4.019c0.405,-1.184 1.211,-2.083 2.419,-2.7c1.378,-0.669 2.658,-0.763 3.84,-0.287c1.155,0.49 2.026,1.31 2.615,2.463c0.223,0.435 0.404,0.928 0.543,1.477c0.097,0.606 0.067,1.329 -0.088,2.171l-4.318,21.13l2.122,4.151Z" style="fill:#a30000;fill-rule:nonzero;"/><path d="M601.109,371.099l-17.509,8.951l2.251,4.404l11.735,-5.999l-3.547,17.443c-0.432,2.205 -0.13,4.318 0.904,6.342c1.32,2.512 3.237,4.164 5.747,4.954c2.491,0.817 5.065,0.565 7.721,-0.757c2.346,-1.235 3.909,-3.079 4.69,-5.534c0.749,-2.491 0.524,-5.044 -0.671,-7.658l-4.382,2.241c0.563,1.484 0.628,2.825 0.194,4.021c-0.405,1.181 -1.213,2.082 -2.419,2.698c-1.378,0.669 -2.657,0.765 -3.84,0.289c-1.155,-0.492 -2.026,-1.313 -2.615,-2.465c-0.223,-0.436 -0.404,-0.928 -0.542,-1.475c-0.098,-0.606 -0.071,-1.331 0.084,-2.172l4.321,-21.131l-2.122,-4.152l0,0Z" style="fill:#a30000;fill-rule:nonzero;"/><g id="Suits1" serif:id="Suits"><path d="M388.199,327.587l45.025,-23.018l-5.403,-10.569l-30.18,15.429l10.21,-42.726c1.249,-5.401 0.632,-10.529 -1.849,-15.383c-3.175,-6.032 -7.92,-9.921 -14.235,-11.668c-6.26,-1.817 -12.802,-1.024 -19.628,2.38c-6.033,3.17 -10.127,7.772 -12.282,13.806c-2.067,6.117 -1.677,12.317 1.171,18.601l11.27,-5.762c-1.326,-3.574 -1.398,-6.833 -0.214,-9.777c1.11,-2.907 3.219,-5.154 6.326,-6.742c3.538,-1.724 6.79,-2.047 9.756,-0.969c2.893,1.115 5.046,3.054 6.46,5.819c0.534,1.045 0.959,2.231 1.273,3.559c0.204,1.469 0.081,3.233 -0.371,5.292l-12.422,51.766l5.093,9.962Z" style="fill:none;"/><path d="M388.199,327.587l45.025,-23.018l-5.403,-10.569l-30.18,15.429l10.21,-42.726c1.249,-5.401 0.632,-10.529 -1.849,-15.383c-3.175,-6.032 -7.92,-9.921 -14.235,-11.668c-6.26,-1.817 -12.802,-1.024 -19.628,2.38c-6.033,3.17 -10.127,7.772 -12.282,13.806c-2.067,6.117 -1.677,12.317 1.171,18.601l11.27,-5.762c-1.326,-3.574 -1.398,-6.833 -0.214,-9.777c1.11,-2.907 3.219,-5.154 6.326,-6.742c3.538,-1.724 6.79,-2.047 9.756,-0.969c2.893,1.115 5.046,3.054 6.46,5.819c0.534,1.045 0.959,2.231 1.273,3.559c0.204,1.469 0.081,3.233 -0.371,5.292l-12.422,51.766l5.093,9.962Z" style="fill:#fff;fill-rule:nonzero;"/></g></g><defs><radialGradient id="_Radial1" cx="0" cy="0" r="1" gradientUnits="userSpaceOnUse" gradientTransform="matrix(380.309,-81.6814,62.7473,282.684,290.965,292.978)"><stop offset="0" style="stop-color:#fff;stop-opacity:1"/><stop offset="1" style="stop-color:#dcdcdc;stop-opacity:1"/></radialGradient><linearGradient id="_Linear2" x1="0" y1="0" x2="1" y2="0" gradientUnits="userSpaceOnUse" gradientTransform="matrix(135.476,118.977,-118.977,135.476,189.862,203.265)"><stop offset="0" style="stop-color:#737373;stop-opacity:1"/><stop offset="1" style="stop-color:#000;stop-opacity:1"/></linearGradient><linearGradient id="_Linear3" x1="0" y1="0" x2="1" y2="0" gradientUnits="userSpaceOnUse" gradientTransform="matrix(24.1449,21.1841,-21.1841,24.1449,83.5082,293.702)"><stop offset="0" style="stop-color:#737373;stop-opacity:1"/><stop offset="1" style="stop-color:#000;stop-opacity:1"/></linearGradient><linearGradient id="_Linear4" x1="0" y1="0" x2="1" y2="0" gradientUnits="userSpaceOnUse" gradientTransform="matrix(-24.6639,-20.5776,20.5776,-24.6639,497.964,293.642)"><stop offset="0" style="stop-color:#737373;stop-opacity:1"/><stop offset="1" style="stop-color:#000;stop-opacity:1"/></linearGradient><radialGradient id="_Radial5" cx="0" cy="0" r="1" gradientUnits="userSpaceOnUse" gradientTransform="matrix(382.773,69.2188,-49.5702,285.29,395.78,287.066)"><stop offset="0" style="stop-color:#fff;stop-opacity:1"/><stop offset="1" style="stop-color:#dcdcdc;stop-opacity:1"/></radialGradient><linearGradient id="_Linear6" x1="0" y1="0" x2="1" y2="0" gradientUnits="userSpaceOnUse" gradientTransform="matrix(105.992,194.554,-194.554,105.992,339.819,178.58)"><stop offset="0" style="stop-color:#e00000;stop-opacity:1"/><stop offset="1" style="stop-color:#560000;stop-opacity:1"/></linearGradient><linearGradient id="_Linear7" x1="0" y1="0" x2="1" y2="0" gradientUnits="userSpaceOnUse" gradientTransform="matrix(105.992,194.554,-194.554,105.992,339.819,178.58)"><stop offset="0" style="stop-color:#e00000;stop-opacity:1"/><stop offset="1" style="stop-color:#560000;stop-opacity:1"/></linearGradient><linearGradient id="_Linear8" x1="0" y1="0" x2="1" y2="0" gradientUnits="userSpaceOnUse" gradientTransform="matrix(16.643,30.5239,-30.5239,16.643,205.257,213.138)"><stop offset="0" style="stop-color:#e00000;stop-opacity:1"/><stop offset="1" style="stop-color:#560000;stop-opacity:1"/></linearGradient><linearGradient id="_Linear9" x1="0" y1="0" x2="1" y2="0" gradientUnits="userSpaceOnUse" gradientTransform="matrix(16.643,30.5239,-30.5239,16.643,205.257,213.138)"><stop offset="0" style="stop-color:#e00000;stop-opacity:1"/><stop offset="1" style="stop-color:#560000;stop-opacity:1"/></linearGradient><linearGradient id="_Linear10" x1="0" y1="0" x2="1" y2="0" gradientUnits="userSpaceOnUse" gradientTransform="matrix(-14.9964,-31.3657,31.3657,-14.9964,584.771,362.671)"><stop offset="0" style="stop-color:#e00000;stop-opacity:1"/><stop offset="1" style="stop-color:#560000;stop-opacity:1"/></linearGradient><linearGradient id="_Linear11" x1="0" y1="0" x2="1" y2="0" gradientUnits="userSpaceOnUse" gradientTransform="matrix(-14.9964,-31.3657,31.3657,-14.9964,584.771,362.671)"><stop offset="0" style="stop-color:#e00000;stop-opacity:1"/><stop offset="1" style="stop-color:#560000;stop-opacity:1"/></linearGradient></defs></svg>