<?xml version="1.0" encoding="UTF-8" standalone="no"?><!DOCTYPE svg PUBLIC "-//W3C//DTD SVG 1.1//EN" "http://www.w3.org/Graphics/SVG/1.1/DTD/svg11.dtd"><svg width="100%" height="100%" viewBox="0 0 250 250" version="1.1" xmlns="http://www.w3.org/2000/svg" xmlns:xlink="http://www.w3.org/1999/xlink" xml:space="preserve" xmlns:serif="http://www.serif.com/" style="fill-rule:evenodd;clip-rule:evenodd;stroke-linejoin:round;stroke-miterlimit:1.41421;"><clipPath id="_clip1"><rect id="lock-2" x="-0.111" y="2.791" width="250" height="250"/></clipPath><g clip-path="url(#_clip1)"><g><path d="M188.416,69.925l-26.318,-38.79c-19.344,-28.511 -58.285,-35.982 -86.81,-16.63c-28.518,19.349 -35.974,58.299 -16.63,86.81l26.318,38.79c-14.281,9.689 -18.004,29.124 -8.315,43.405l43.862,64.65c9.689,14.281 29.124,18.004 43.405,8.315l103.44,-70.18c14.281,-9.689 18.004,-29.124 8.315,-43.405l-43.863,-64.65c-9.689,-14.281 -29.123,-18.004 -43.404,-8.315Zm-2.738,93.372l14.504,21.377c2.424,3.573 1.495,8.427 -2.079,10.851c-3.574,2.425 -8.427,1.495 -10.851,-2.079l-14.504,-21.377c-5.319,0.327 -10.68,-1.826 -13.892,-6.561c-4.849,-7.147 -2.983,-16.858 4.157,-21.703c7.141,-4.844 16.854,-2.989 21.703,4.158c3.212,4.735 3.232,10.511 0.962,15.334Zm-23.122,-75.827l-51.72,35.09l-26.318,-38.79c-9.68,-14.268 -5.947,-33.728 8.315,-43.405c14.256,-9.671 33.725,-5.953 43.405,8.315l26.318,38.79Z" style="fill:#8193a6;fill-rule:nonzero;"/><g id="Refresh"><path d="M178.816,152.349c0.102,0.157 0.202,0.316 0.295,0.478c0.183,0.32 0.346,0.652 0.488,0.992c0.467,1.123 0.694,2.341 0.667,3.557c-0.029,1.303 -0.349,2.596 -0.933,3.761c-0.551,1.099 -1.335,2.077 -2.287,2.855c-0.889,0.725 -1.918,1.277 -3.015,1.609c-1.054,0.32 -2.167,0.437 -3.265,0.347c-1.052,-0.087 -2.088,-0.363 -3.043,-0.813c-0.842,-0.397 -1.621,-0.929 -2.296,-1.571c-0.62,-0.59 -1.153,-1.271 -1.578,-2.013c-0.435,-0.759 -0.755,-1.583 -0.946,-2.436c-0.216,-0.967 -0.267,-1.97 -0.15,-2.954c0.12,-1.015 0.416,-2.007 0.874,-2.92c0.452,-0.9 1.059,-1.721 1.789,-2.415c0.241,-0.23 0.496,-0.446 0.762,-0.647c0.119,-0.09 0.24,-0.175 0.362,-0.26l1.107,1.61c-0.075,0.052 -0.075,0.051 -0.15,0.104c-0.071,0.052 -0.071,0.052 -0.141,0.104c-0.297,0.227 -0.577,0.474 -0.835,0.745c-0.536,0.564 -0.974,1.221 -1.289,1.933c-0.321,0.727 -0.515,1.509 -0.571,2.302c-0.054,0.771 0.023,1.55 0.229,2.295c0.182,0.66 0.466,1.291 0.836,1.868c0.342,0.533 0.758,1.02 1.234,1.44c0.521,0.458 1.112,0.836 1.746,1.117c0.752,0.332 1.563,0.528 2.384,0.576c0.828,0.048 1.664,-0.055 2.454,-0.306c0.852,-0.269 1.648,-0.709 2.333,-1.283c0.731,-0.613 1.329,-1.379 1.746,-2.237c0.444,-0.912 0.682,-1.922 0.692,-2.937c0.01,-0.946 -0.179,-1.891 -0.553,-2.759c-0.114,-0.264 -0.244,-0.521 -0.39,-0.768c-0.075,-0.128 -0.155,-0.252 -0.237,-0.374l-0.272,-0.402l1.616,-1.097c0.113,0.166 0.226,0.332 0.337,0.499Z" style="fill:#8193a6;fill-rule:nonzero;"/><path d="M169.835,154.765l-5.209,-7.677l8.522,-1.356l-3.313,9.033Z" style="fill:#8193a6;"/></g></g></g></svg>