<?xml version="1.0" encoding="UTF-8" standalone="no"?><!DOCTYPE svg PUBLIC "-//W3C//DTD SVG 1.1//EN" "http://www.w3.org/Graphics/SVG/1.1/DTD/svg11.dtd"><svg width="100%" height="100%" viewBox="0 0 100 100" version="1.1" xmlns="http://www.w3.org/2000/svg" xmlns:xlink="http://www.w3.org/1999/xlink" xml:space="preserve" xmlns:serif="http://www.serif.com/" style="fill-rule:evenodd;clip-rule:evenodd;stroke-linejoin:round;stroke-miterlimit:1.41421;"><path d="M49.879,24.714c1.378,-0.873 7.684,-3.205 10.771,-3.168c11.538,0.141 17.929,7.172 30.347,7.205c5.011,0.014 9.003,-4.069 9.003,-4.069c0,0 -2.146,9.946 -2.238,16.661c-0.071,5.112 -1.627,13.495 -2.168,15.21c-3.056,9.668 -15.697,21.213 -29.163,21.349c-11.404,0.115 -11.694,-2.641 -16.384,-2.709c-4.245,-0.062 -6.102,2.971 -17.009,2.677c-8.118,-0.22 -24.766,-6.368 -29.07,-22.166c-1.07,-3.929 -1.53,-12.827 -2.298,-18.787c-0.459,-3.557 -1.67,-12.352 -1.67,-12.352c0,0 3.734,4.318 9.225,4.201c13.146,-0.28 18.96,-7.13 29.399,-7.265c3.518,-0.046 10.024,2.331 11.255,3.213c-0.328,0.208 -0.376,0.333 -0.036,0.323c0.322,-0.009 0.305,-0.13 0.036,-0.323Zm-37.564,23.527c0,0 14.237,-6.184 23.29,-2.438c6.479,2.681 7.132,10.903 7.132,10.903c0,0 -9.992,1.628 -16.33,0.674c-8.446,-1.271 -14.092,-9.139 -14.092,-9.139Zm75.354,0c0,0 -14.237,-6.184 -23.29,-2.438c-6.479,2.681 -7.132,10.903 -7.132,10.903c0,0 9.991,1.628 16.329,0.674c8.447,-1.271 14.093,-9.139 14.093,-9.139Z" style="fill:#9c0000;"/></svg>