<?xml version="1.0" encoding="UTF-8" standalone="no"?><!DOCTYPE svg PUBLIC "-//W3C//DTD SVG 1.1//EN" "http://www.w3.org/Graphics/SVG/1.1/DTD/svg11.dtd"><svg width="100%" height="100%" viewBox="0 0 144 193" version="1.1" xmlns="http://www.w3.org/2000/svg" xmlns:xlink="http://www.w3.org/1999/xlink" xml:space="preserve" style="fill-rule:evenodd;clip-rule:evenodd;"><path id="Card-background" d="M143.997,9.6c0.002,-5.298 -4.272,-9.6 -9.538,-9.6l-124.918,0c-5.266,0 -9.542,4.302 -9.544,9.6l-0.048,172.8c-0.001,5.298 4.273,9.6 9.539,9.6l124.917,0c5.266,0 9.543,-4.302 9.544,-9.6l0.048,-172.8Z" style="fill:url(#_Radial1);stroke:#646464;stroke-width:0.22px;"/><g id="Diamonds"><path id="rect3362" d="M72.532,155.313l42.966,-59.646l-43.202,-59.975l-42.966,59.646l43.202,59.975Z" style="fill:url(#_Linear2);stroke:url(#_Linear3);stroke-width:0.14px;"/><path id="rect6977" d="M16.405,51.744l7.157,-9.959l-7.196,-10.014l-7.157,9.959l7.196,10.014Z" style="fill:url(#_Linear4);stroke:#640000;stroke-width:0.03px;"/><path id="rect4360" d="M127.765,141.451l7.158,9.959l-7.197,10.014l-7.157,-9.959l7.196,-10.014Z" style="fill:url(#_Linear5);stroke:#640000;stroke-width:0.03px;"/></g><g id="Red-Text"><path d="M12.237,26.454l8.115,0l0,-2.041l-5.439,0l4.58,-5.742c0.573,-0.73 0.859,-1.563 0.859,-2.5c-0.013,-1.172 -0.407,-2.139 -1.182,-2.901c-0.761,-0.768 -1.754,-1.159 -2.978,-1.172c-1.094,0.013 -2.015,0.398 -2.764,1.153c-0.742,0.774 -1.139,1.754 -1.191,2.939l2.031,0c0.072,-0.651 0.3,-1.155 0.684,-1.513c0.371,-0.359 0.836,-0.538 1.396,-0.538c0.632,0.013 1.12,0.219 1.465,0.616c0.332,0.397 0.498,0.862 0.498,1.396c0,0.202 -0.026,0.417 -0.078,0.645c-0.078,0.241 -0.225,0.501 -0.44,0.781l-5.556,6.953l0,1.924Z" style="fill:#a30000;fill-rule:nonzero;"/><path d="M132.13,165.447l-8.115,0l0,2.041l5.439,0l-4.58,5.743c-0.573,0.729 -0.859,1.562 -0.859,2.5c0.013,1.171 0.407,2.138 1.181,2.9c0.762,0.768 1.755,1.159 2.979,1.172c1.094,-0.013 2.015,-0.397 2.763,-1.152c0.743,-0.775 1.14,-1.755 1.192,-2.94l-2.031,0c-0.072,0.651 -0.3,1.156 -0.684,1.514c-0.371,0.358 -0.837,0.537 -1.396,0.537c-0.632,-0.013 -1.12,-0.218 -1.465,-0.615c-0.332,-0.398 -0.498,-0.863 -0.498,-1.397c0,-0.202 0.026,-0.417 0.078,-0.644c0.078,-0.241 0.224,-0.502 0.439,-0.782l5.557,-6.953l0,-1.924Z" style="fill:#a30000;fill-rule:nonzero;"/></g><g id="Center-Text" transform="matrix(0.233905,0,0,0.218311,72.0368,112.825)"><path d="M-45.681,0l89.215,0l0,-22.438l-59.799,0l50.351,-63.127c6.299,-8.016 9.448,-17.177 9.448,-27.483c-0.143,-12.883 -4.473,-23.512 -12.991,-31.886c-8.374,-8.445 -19.288,-12.74 -32.744,-12.883c-12.024,0.143 -22.151,4.366 -30.382,12.669c-8.159,8.517 -12.525,19.288 -13.098,32.314l22.331,0c0.787,-7.157 3.292,-12.704 7.515,-16.64c4.079,-3.937 9.197,-5.905 15.352,-5.905c6.942,0.143 12.31,2.398 16.104,6.764c3.65,4.366 5.475,9.483 5.475,15.352c0,2.219 -0.286,4.581 -0.859,7.086c-0.859,2.648 -2.469,5.511 -4.831,8.588l-61.087,76.439l0,21.15Z" style="fill:none;"/><path d="M-45.681,0l89.215,0l0,-22.438l-59.799,0l50.351,-63.127c6.299,-8.016 9.448,-17.177 9.448,-27.483c-0.143,-12.883 -4.473,-23.512 -12.991,-31.886c-8.374,-8.445 -19.288,-12.74 -32.744,-12.883c-12.024,0.143 -22.151,4.366 -30.382,12.669c-8.159,8.517 -12.525,19.288 -13.098,32.314l22.331,0c0.787,-7.157 3.292,-12.704 7.515,-16.64c4.079,-3.937 9.197,-5.905 15.352,-5.905c6.942,0.143 12.31,2.398 16.104,6.764c3.65,4.366 5.475,9.483 5.475,15.352c0,2.219 -0.286,4.581 -0.859,7.086c-0.859,2.648 -2.469,5.511 -4.831,8.588l-61.087,76.439l0,21.15Z" style="fill:#fff;fill-rule:nonzero;"/></g><defs><radialGradient id="_Radial1" cx="0" cy="0" r="1" gradientUnits="userSpaceOnUse" gradientTransform="matrix(126.864,97.3356,-71.3658,95.5156,71.9734,96)"><stop offset="0%" style="stop-color:#fff;stop-opacity:1"/><stop offset="100%" style="stop-color:#dcdcdc;stop-opacity:1"/></radialGradient><linearGradient id="_Linear2" x1="0" y1="0" x2="1" y2="0" gradientUnits="userSpaceOnUse" gradientTransform="matrix(0.649222,119.114,-119.114,0.649222,72.0282,35.4239)"><stop offset="0%" style="stop-color:#e00000;stop-opacity:1"/><stop offset="100%" style="stop-color:#560000;stop-opacity:1"/></linearGradient><linearGradient id="_Linear3" x1="0" y1="0" x2="1" y2="0" gradientUnits="userSpaceOnUse" gradientTransform="matrix(-54.8234,-72.2122,52.0178,-76.1069,-50.1075,185.702)"><stop offset="0%" style="stop-color:#e00000;stop-opacity:1"/><stop offset="100%" style="stop-color:#560000;stop-opacity:1"/></linearGradient><linearGradient id="_Linear4" x1="0" y1="0" x2="1" y2="0" gradientUnits="userSpaceOnUse" gradientTransform="matrix(-0.168869,20.3461,-14.6221,-0.234974,16.3007,31.711)"><stop offset="0%" style="stop-color:#e00000;stop-opacity:1"/><stop offset="100%" style="stop-color:#810000;stop-opacity:1"/></linearGradient><linearGradient id="_Linear5" x1="0" y1="0" x2="1" y2="0" gradientUnits="userSpaceOnUse" gradientTransform="matrix(0.207377,14.3416,-14.3416,0.207377,127.849,142.278)"><stop offset="0%" style="stop-color:#e00000;stop-opacity:1"/><stop offset="100%" style="stop-color:#810000;stop-opacity:1"/></linearGradient></defs></svg>