<?xml version="1.0" encoding="UTF-8" standalone="no"?><!DOCTYPE svg PUBLIC "-//W3C//DTD SVG 1.1//EN" "http://www.w3.org/Graphics/SVG/1.1/DTD/svg11.dtd"><svg width="100%" height="100%" viewBox="0 0 144 193" version="1.1" xmlns="http://www.w3.org/2000/svg" xmlns:xlink="http://www.w3.org/1999/xlink" xml:space="preserve" style="fill-rule:evenodd;clip-rule:evenodd;"><path id="Card-background" d="M143.997,9.6c0.002,-5.298 -4.272,-9.6 -9.538,-9.6l-124.918,0c-5.266,0 -9.542,4.302 -9.544,9.6l-0.048,172.8c-0.001,5.298 4.273,9.6 9.539,9.6l124.917,0c5.266,0 9.543,-4.302 9.544,-9.6l0.048,-172.8Z" style="fill:url(#_Radial1);stroke:#646464;stroke-width:0.22px;"/><g id="Hearts"><path id="path7647" d="M44.333,45.091c-7.348,-0.057 -14.803,3.568 -20.591,14.617c-16.662,31.808 49.225,77.122 48.834,93.606l0,0.365c0,0 0.161,-0.149 0.196,-0.182c0.035,0.032 0.195,0.182 0.195,0.182l0,-0.365c0,-14.078 65.496,-61.798 48.834,-93.606c-16.649,-31.784 -47.001,-2.223 -49.029,-0.194c-1.322,-1.322 -14.649,-14.315 -28.439,-14.423l0,0Z" style="fill:url(#_Linear2);stroke:url(#_Linear3);stroke-width:0.24px;"/><path id="path8171" d="M11.911,32.963c-1.139,-0.009 -2.295,0.574 -3.192,2.349c-2.584,5.11 7.631,12.39 7.571,15.038l0,0.059c0,0 0.024,-0.024 0.03,-0.03c0.005,0.006 0.03,0.03 0.03,0.03l0,-0.059c0,-2.262 10.154,-9.928 7.571,-15.038c-2.581,-5.107 -7.287,-0.357 -7.601,-0.031c-0.205,-0.213 -2.271,-2.3 -4.409,-2.318l0,0Z" style="fill:url(#_Linear4);stroke:url(#_Linear5);stroke-width:0.04px;"/><path id="path5021" d="M123.271,159.365c-1.139,0.009 -2.295,-0.573 -3.192,-2.349c-2.584,-5.11 7.631,-12.389 7.571,-15.038l0,-0.058c0,0 0.024,0.024 0.03,0.029c0.005,-0.005 0.03,-0.029 0.03,-0.029l0,0.058c0,2.262 10.154,9.928 7.571,15.038c-2.581,5.107 -7.287,0.358 -7.601,0.032c-0.205,0.212 -2.271,2.299 -4.409,2.317l0,0Z" style="fill:url(#_Linear6);stroke:url(#_Linear7);stroke-width:0.04px;"/></g><g id="Red-Text"><path d="M14.356,16.171c0.013,-0.677 0.225,-1.188 0.635,-1.534c0.403,-0.332 0.869,-0.498 1.396,-0.498c0.547,0 1.022,0.166 1.426,0.498c0.397,0.346 0.602,0.857 0.615,1.534c-0.013,0.657 -0.218,1.159 -0.615,1.504c-0.404,0.358 -0.879,0.537 -1.426,0.537c-0.527,0 -0.993,-0.179 -1.396,-0.537c-0.41,-0.345 -0.622,-0.847 -0.635,-1.504Zm-2.305,6.123c0.013,1.282 0.446,2.308 1.299,3.076c0.814,0.788 1.826,1.188 3.037,1.201c1.218,-0.013 2.246,-0.413 3.086,-1.201c0.827,-0.768 1.247,-1.794 1.26,-3.076c-0.013,-1.374 -0.573,-2.442 -1.68,-3.203c0.423,-0.372 0.768,-0.798 1.035,-1.28c0.254,-0.449 0.381,-0.983 0.381,-1.601c-0.013,-1.185 -0.4,-2.165 -1.162,-2.94c-0.755,-0.768 -1.728,-1.159 -2.92,-1.172c-1.172,0.013 -2.129,0.404 -2.871,1.172c-0.788,0.775 -1.188,1.755 -1.201,2.94c0,0.618 0.14,1.152 0.42,1.601c0.241,0.482 0.573,0.908 0.996,1.28c-1.107,0.761 -1.667,1.829 -1.68,3.203Zm2.041,-0.02c0.013,-0.664 0.248,-1.204 0.703,-1.621c0.437,-0.41 0.967,-0.622 1.592,-0.635c0.645,0.013 1.185,0.225 1.621,0.635c0.443,0.417 0.671,0.957 0.684,1.621c-0.013,0.651 -0.241,1.185 -0.684,1.602c-0.436,0.436 -0.976,0.654 -1.621,0.654c-0.625,0 -1.155,-0.218 -1.592,-0.654c-0.455,-0.417 -0.69,-0.951 -0.703,-1.602Z" style="fill:#a30000;fill-rule:nonzero;"/><path d="M130.011,175.731c-0.013,0.677 -0.225,1.188 -0.635,1.533c-0.404,0.332 -0.869,0.498 -1.397,0.498c-0.546,0 -1.022,-0.166 -1.425,-0.498c-0.397,-0.345 -0.603,-0.856 -0.616,-1.533c0.013,-0.658 0.219,-1.159 0.616,-1.504c0.403,-0.358 0.879,-0.537 1.425,-0.537c0.528,0 0.993,0.179 1.397,0.537c0.41,0.345 0.622,0.846 0.635,1.504Zm2.304,-6.123c-0.013,-1.283 -0.446,-2.308 -1.298,-3.077c-0.814,-0.787 -1.827,-1.188 -3.038,-1.201c-1.217,0.013 -2.246,0.414 -3.085,1.201c-0.827,0.769 -1.247,1.794 -1.26,3.077c0.013,1.373 0.573,2.441 1.679,3.203c-0.423,0.371 -0.768,0.797 -1.035,1.279c-0.254,0.449 -0.381,0.983 -0.381,1.602c0.013,1.184 0.401,2.164 1.163,2.939c0.755,0.768 1.728,1.159 2.919,1.172c1.172,-0.013 2.129,-0.404 2.872,-1.172c0.787,-0.775 1.188,-1.755 1.201,-2.939c0,-0.619 -0.14,-1.153 -0.42,-1.602c-0.241,-0.482 -0.573,-0.908 -0.996,-1.279c1.107,-0.762 1.666,-1.83 1.679,-3.203Zm-2.041,0.019c-0.013,0.664 -0.247,1.204 -0.703,1.621c-0.436,0.41 -0.967,0.622 -1.592,0.635c-0.644,-0.013 -1.184,-0.225 -1.621,-0.635c-0.442,-0.417 -0.67,-0.957 -0.683,-1.621c0.013,-0.651 0.241,-1.185 0.683,-1.601c0.437,-0.437 0.977,-0.655 1.621,-0.655c0.625,0 1.156,0.218 1.592,0.655c0.456,0.416 0.69,0.95 0.703,1.601Z" style="fill:#a30000;fill-rule:nonzero;"/></g><g id="Center-Text" transform="matrix(0.233905,0,0,0.218311,72.0368,112.825)"><path d="M-22.384,-113.048c0.143,-7.444 2.469,-13.062 6.978,-16.856c4.438,-3.65 9.555,-5.475 15.352,-5.475c6.012,0 11.237,1.825 15.675,5.475c4.366,3.794 6.62,9.412 6.763,16.856c-0.143,7.229 -2.397,12.74 -6.763,16.533c-4.438,3.936 -9.663,5.905 -15.675,5.905c-5.797,0 -10.914,-1.969 -15.352,-5.905c-4.509,-3.793 -6.835,-9.304 -6.978,-16.533Zm-25.337,67.313c0.143,14.1 4.903,25.373 14.279,33.818c8.946,8.66 20.076,13.062 33.388,13.205c13.384,-0.143 24.693,-4.545 33.926,-13.205c9.089,-8.445 13.706,-19.718 13.849,-33.818c-0.143,-15.101 -6.299,-26.839 -18.466,-35.213c4.652,-4.08 8.446,-8.768 11.38,-14.064c2.791,-4.939 4.187,-10.807 4.187,-17.607c-0.143,-13.026 -4.402,-23.798 -12.776,-32.315c-8.302,-8.445 -19.002,-12.74 -32.1,-12.883c-12.883,0.143 -23.404,4.438 -31.563,12.883c-8.66,8.517 -13.062,19.289 -13.205,32.315c0,6.8 1.539,12.668 4.616,17.607c2.649,5.296 6.299,9.984 10.951,14.064c-12.167,8.374 -18.323,20.112 -18.466,35.213Zm22.438,-0.214c0.143,-7.301 2.72,-13.241 7.73,-17.822c4.795,-4.509 10.628,-6.835 17.499,-6.978c7.086,0.143 13.026,2.469 17.822,6.978c4.867,4.581 7.372,10.521 7.515,17.822c-0.143,7.157 -2.648,13.026 -7.515,17.606c-4.796,4.796 -10.736,7.193 -17.822,7.193c-6.871,0 -12.704,-2.397 -17.499,-7.193c-5.01,-4.58 -7.587,-10.449 -7.73,-17.606Z" style="fill:none;"/><path d="M-22.384,-113.048c0.143,-7.444 2.469,-13.062 6.978,-16.856c4.438,-3.65 9.555,-5.475 15.352,-5.475c6.012,0 11.237,1.825 15.675,5.475c4.366,3.794 6.62,9.412 6.763,16.856c-0.143,7.229 -2.397,12.74 -6.763,16.533c-4.438,3.936 -9.663,5.905 -15.675,5.905c-5.797,0 -10.914,-1.969 -15.352,-5.905c-4.509,-3.793 -6.835,-9.304 -6.978,-16.533Zm-25.337,67.313c0.143,14.1 4.903,25.373 14.279,33.818c8.946,8.66 20.076,13.062 33.388,13.205c13.384,-0.143 24.693,-4.545 33.926,-13.205c9.089,-8.445 13.706,-19.718 13.849,-33.818c-0.143,-15.101 -6.299,-26.839 -18.466,-35.213c4.652,-4.08 8.446,-8.768 11.38,-14.064c2.791,-4.939 4.187,-10.807 4.187,-17.607c-0.143,-13.026 -4.402,-23.798 -12.776,-32.315c-8.302,-8.445 -19.002,-12.74 -32.1,-12.883c-12.883,0.143 -23.404,4.438 -31.563,12.883c-8.66,8.517 -13.062,19.289 -13.205,32.315c0,6.8 1.539,12.668 4.616,17.607c2.649,5.296 6.299,9.984 10.951,14.064c-12.167,8.374 -18.323,20.112 -18.466,35.213Zm22.438,-0.214c0.143,-7.301 2.72,-13.241 7.73,-17.822c4.795,-4.509 10.628,-6.835 17.499,-6.978c7.086,0.143 13.026,2.469 17.822,6.978c4.867,4.581 7.372,10.521 7.515,17.822c-0.143,7.157 -2.648,13.026 -7.515,17.606c-4.796,4.796 -10.736,7.193 -17.822,7.193c-6.871,0 -12.704,-2.397 -17.499,-7.193c-5.01,-4.58 -7.587,-10.449 -7.73,-17.606Z" style="fill:#fff;fill-rule:nonzero;"/></g><defs><radialGradient id="_Radial1" cx="0" cy="0" r="1" gradientUnits="userSpaceOnUse" gradientTransform="matrix(126.864,97.3356,-71.3658,95.5156,71.9734,96)"><stop offset="0%" style="stop-color:#fff;stop-opacity:1"/><stop offset="100%" style="stop-color:#dcdcdc;stop-opacity:1"/></radialGradient><linearGradient id="_Linear2" x1="0" y1="0" x2="1" y2="0" gradientUnits="userSpaceOnUse" gradientTransform="matrix(2.46125,89.2726,-93.7296,2.34421,72.9672,45.6127)"><stop offset="0%" style="stop-color:#e00000;stop-opacity:1"/><stop offset="100%" style="stop-color:#560000;stop-opacity:1"/></linearGradient><linearGradient id="_Linear3" x1="0" y1="0" x2="1" y2="0" gradientUnits="userSpaceOnUse" gradientTransform="matrix(2.46125,89.2726,-93.7296,2.34421,72.9672,45.6127)"><stop offset="0%" style="stop-color:#e00000;stop-opacity:1"/><stop offset="100%" style="stop-color:#560000;stop-opacity:1"/></linearGradient><linearGradient id="_Linear4" x1="0" y1="0" x2="1" y2="0" gradientUnits="userSpaceOnUse" gradientTransform="matrix(0.381581,14.342,-14.342,0.381581,16.3501,33.0472)"><stop offset="0%" style="stop-color:#e00000;stop-opacity:1"/><stop offset="100%" style="stop-color:#560000;stop-opacity:1"/></linearGradient><linearGradient id="_Linear5" x1="0" y1="0" x2="1" y2="0" gradientUnits="userSpaceOnUse" gradientTransform="matrix(0.381581,14.342,-14.342,0.381581,16.3501,33.0472)"><stop offset="0%" style="stop-color:#e00000;stop-opacity:1"/><stop offset="100%" style="stop-color:#560000;stop-opacity:1"/></linearGradient><linearGradient id="_Linear6" x1="0" y1="0" x2="1" y2="0" gradientUnits="userSpaceOnUse" gradientTransform="matrix(0.0377273,11.834,-11.834,0.0377273,127.9,143.425)"><stop offset="0%" style="stop-color:#e00000;stop-opacity:1"/><stop offset="100%" style="stop-color:#560000;stop-opacity:1"/></linearGradient><linearGradient id="_Linear7" x1="0" y1="0" x2="1" y2="0" gradientUnits="userSpaceOnUse" gradientTransform="matrix(0.381581,-14.342,-14.342,-0.381581,127.71,159.281)"><stop offset="0%" style="stop-color:#e00000;stop-opacity:1"/><stop offset="100%" style="stop-color:#560000;stop-opacity:1"/></linearGradient></defs></svg>