<?xml version="1.0" encoding="UTF-8" standalone="no"?><!DOCTYPE svg PUBLIC "-//W3C//DTD SVG 1.1//EN" "http://www.w3.org/Graphics/SVG/1.1/DTD/svg11.dtd"><svg width="100%" height="100%" viewBox="0 0 144 193" version="1.1" xmlns="http://www.w3.org/2000/svg" xmlns:xlink="http://www.w3.org/1999/xlink" xml:space="preserve" style="fill-rule:evenodd;clip-rule:evenodd;"><path id="Card-background" d="M143.997,9.6c0.002,-5.298 -4.272,-9.6 -9.538,-9.6l-124.918,0c-5.266,0 -9.542,4.302 -9.544,9.6l-0.048,172.8c-0.001,5.298 4.273,9.6 9.539,9.6l124.917,0c5.266,0 9.543,-4.302 9.544,-9.6l0.048,-172.8Z" style="fill:url(#_Radial1);stroke:#646464;stroke-width:0.22px;"/><g id="Clubs"><path id="path7975" d="M127.714,160.956c-2.53,0 -4.612,-2.055 -4.612,-4.553c0.002,-1.096 0.405,-2.155 1.134,-2.981c-0.212,0.033 -0.425,0.05 -0.64,0.052c-2.371,0 -4.323,-1.93 -4.323,-4.275c0,0 0,0 0,0c0,-2.346 1.952,-4.276 4.323,-4.276c0,0 0,0 0,0c1.256,0.001 2.45,0.542 3.27,1.482c0.679,-2.058 -0.948,-3.657 -1.705,-4.967l4.941,0c-0.761,1.318 -2.403,2.928 -1.693,5.004c0.82,-0.961 2.028,-1.517 3.299,-1.519c0,0 0,0 0,0c2.372,0 4.323,1.93 4.323,4.276c0,0 0,0 0,0c0,2.345 -1.951,4.275 -4.323,4.275c-0.165,-0.002 -0.33,-0.013 -0.494,-0.033c0.716,0.825 1.111,1.876 1.111,2.962c0,2.498 -2.081,4.553 -4.611,4.553l0,0Z" style="fill:url(#_Linear2);stroke:#000;stroke-width:0.04px;"/><path id="path7930" d="M72.995,40.95c-14.746,0 -26.88,11.538 -26.88,25.56c0,0 0,0 0,0c0.012,6.15 2.358,12.095 6.605,16.734c-1.232,-0.186 -2.477,-0.284 -3.725,-0.294c-13.825,0 -25.2,10.833 -25.2,24c0,13.166 11.375,24 25.2,24c7.316,-0.006 14.279,-3.045 19.059,-8.32c3.954,11.554 -5.529,20.529 -9.939,27.88l28.8,0c-4.437,-7.395 -14.006,-16.432 -9.868,-28.086c4.778,5.394 11.818,8.516 19.228,8.526c13.824,0 25.2,-10.834 25.2,-24c0,-13.167 -11.376,-24 -25.2,-24c-0.963,0.009 -1.923,0.072 -2.878,0.186c4.175,-4.628 6.474,-10.528 6.478,-16.626c0,0 0,0 0,0c0,-14.022 -12.134,-25.56 -26.88,-25.56l0,0Z" style="fill:url(#_Linear3);stroke:#000;stroke-width:0.24px;"/><path id="path79751" d="M16.502,31.272c-2.53,0 -4.612,2.056 -4.612,4.554c0.002,1.096 0.405,2.155 1.133,2.981c-0.211,-0.033 -0.425,-0.051 -0.639,-0.052c-2.371,0 -4.323,1.93 -4.323,4.275c0,0 0,0 0,0c0,2.346 1.952,4.276 4.323,4.276c0,0 0,0 0,0c1.255,-0.001 2.45,-0.543 3.27,-1.482c0.678,2.058 -0.948,3.657 -1.705,4.966l4.941,0c-0.761,-1.317 -2.403,-2.927 -1.693,-5.003c0.82,0.961 2.027,1.517 3.299,1.519c0,0 0,0 0,0c2.371,0 4.323,-1.93 4.323,-4.276c0,0 0,0 0,0c0,-2.345 -1.952,-4.275 -4.323,-4.275c-0.165,0.001 -0.33,0.012 -0.494,0.033c0.716,-0.825 1.111,-1.876 1.111,-2.962c0,-2.498 -2.081,-4.554 -4.611,-4.554l0,0Z" style="fill:url(#_Linear4);stroke:#000;stroke-width:0.04px;"/></g><g id="Black-Text"><path d="M17.989,23.915c-0.397,0.332 -0.928,0.498 -1.592,0.498c-0.508,0 -0.944,-0.108 -1.309,-0.322c-0.371,-0.183 -0.67,-0.42 -0.898,-0.713c-0.28,-0.306 -0.466,-0.707 -0.557,-1.201c-0.104,-0.495 -0.156,-1.443 -0.156,-2.842c0,-1.4 0.052,-2.354 0.156,-2.862c0.091,-0.481 0.277,-0.875 0.557,-1.181c0.228,-0.293 0.527,-0.537 0.898,-0.733c0.365,-0.188 0.801,-0.289 1.309,-0.302c0.514,0.013 0.96,0.114 1.338,0.302c0.358,0.196 0.644,0.44 0.859,0.733c0.28,0.306 0.472,0.7 0.576,1.181c0.098,0.508 0.147,1.462 0.147,2.862c0,1.504 -0.068,2.496 -0.205,2.978l-1.66,-1.318l-1.28,1.474l1.817,1.446Zm1.767,1.416l1.797,1.445l1.28,-1.484l-1.875,-1.494c0.195,-0.326 0.335,-0.782 0.419,-1.368c0.066,-0.586 0.098,-1.617 0.098,-3.095c0,-1.654 -0.042,-2.761 -0.127,-3.321c-0.091,-0.559 -0.257,-1.012 -0.498,-1.357c-0.332,-0.658 -0.872,-1.244 -1.621,-1.758c-0.755,-0.521 -1.699,-0.788 -2.832,-0.801c-1.12,0.013 -2.054,0.28 -2.803,0.801c-0.761,0.514 -1.315,1.1 -1.66,1.758c-0.215,0.345 -0.374,0.798 -0.478,1.357c-0.098,0.56 -0.147,1.667 -0.147,3.321c0,1.627 0.049,2.728 0.147,3.301c0.052,0.305 0.117,0.559 0.195,0.761c0.085,0.196 0.179,0.401 0.283,0.615c0.345,0.658 0.899,1.237 1.66,1.739c0.749,0.521 1.683,0.794 2.803,0.82c1.4,-0.026 2.52,-0.439 3.359,-1.24Z" style="fill:#010101;fill-rule:nonzero;"/><path d="M126.378,167.986c0.397,-0.332 0.928,-0.498 1.592,-0.498c0.508,0 0.944,0.108 1.308,0.323c0.371,0.182 0.671,0.42 0.899,0.713c0.28,0.306 0.465,0.706 0.556,1.201c0.105,0.495 0.157,1.442 0.157,2.842c0,1.399 -0.052,2.353 -0.157,2.861c-0.091,0.482 -0.276,0.875 -0.556,1.181c-0.228,0.293 -0.528,0.538 -0.899,0.733c-0.364,0.189 -0.8,0.29 -1.308,0.303c-0.515,-0.013 -0.961,-0.114 -1.338,-0.303c-0.358,-0.195 -0.645,-0.44 -0.86,-0.733c-0.279,-0.306 -0.472,-0.699 -0.576,-1.181c-0.097,-0.508 -0.146,-1.462 -0.146,-2.861c0,-1.504 0.068,-2.497 0.205,-2.979l1.66,1.318l1.279,-1.474l-1.816,-1.446Zm-1.768,-1.416l-1.797,-1.445l-1.279,1.484l1.875,1.495c-0.195,0.325 -0.335,0.781 -0.42,1.367c-0.065,0.586 -0.097,1.618 -0.097,3.096c0,1.653 0.042,2.76 0.127,3.32c0.091,0.56 0.257,1.012 0.498,1.357c0.332,0.658 0.872,1.244 1.621,1.758c0.755,0.521 1.699,0.788 2.832,0.801c1.12,-0.013 2.054,-0.28 2.802,-0.801c0.762,-0.514 1.316,-1.1 1.661,-1.758c0.214,-0.345 0.374,-0.797 0.478,-1.357c0.098,-0.56 0.147,-1.667 0.147,-3.32c0,-1.628 -0.049,-2.728 -0.147,-3.301c-0.052,-0.306 -0.117,-0.56 -0.195,-0.762c-0.085,-0.195 -0.179,-0.4 -0.283,-0.615c-0.345,-0.658 -0.899,-1.237 -1.661,-1.738c-0.748,-0.521 -1.682,-0.795 -2.802,-0.821c-1.4,0.026 -2.52,0.44 -3.36,1.24Z" style="fill:#030303;fill-rule:nonzero;"/></g><g id="Center-Text" transform="matrix(0.233905,0,0,0.218311,72.0368,112.825)"><path d="M17.553,-27.913c-4.366,3.65 -10.199,5.475 -17.499,5.475c-5.583,0 -10.378,-1.181 -14.386,-3.543c-4.08,-2.004 -7.372,-4.616 -9.877,-7.837c-3.078,-3.364 -5.118,-7.765 -6.12,-13.205c-1.145,-5.439 -1.717,-15.853 -1.717,-31.241c0,-15.388 0.572,-25.874 1.717,-31.456c1.002,-5.296 3.042,-9.627 6.12,-12.99c2.505,-3.221 5.797,-5.905 9.877,-8.052c4.008,-2.076 8.803,-3.185 14.386,-3.328c5.654,0.143 10.557,1.252 14.708,3.328c3.936,2.147 7.085,4.831 9.447,8.052c3.078,3.363 5.189,7.694 6.334,12.99c1.074,5.582 1.611,16.068 1.611,31.456c0,16.533 -0.752,27.448 -2.255,32.744l-18.251,-14.493l-14.064,16.211l19.969,15.889Zm19.432,15.567l19.754,15.889l14.064,-16.319l-20.613,-16.425c2.147,-3.579 3.686,-8.589 4.616,-15.031c0.716,-6.441 1.074,-17.785 1.074,-34.032c0,-18.18 -0.465,-30.347 -1.396,-36.502c-1.002,-6.155 -2.827,-11.129 -5.475,-14.923c-3.65,-7.229 -9.591,-13.67 -17.821,-19.324c-8.303,-5.726 -18.681,-8.661 -31.134,-8.804c-12.311,0.143 -22.581,3.078 -30.812,8.804c-8.374,5.654 -14.458,12.095 -18.251,19.324c-2.362,3.794 -4.115,8.768 -5.261,14.923c-1.073,6.155 -1.61,18.322 -1.61,36.502c0,17.893 0.537,29.989 1.61,36.287c0.573,3.364 1.289,6.155 2.148,8.374c0.93,2.147 1.968,4.402 3.113,6.763c3.793,7.229 9.877,13.599 18.251,19.11c8.231,5.726 18.501,8.732 30.812,9.018c15.388,-0.286 27.698,-4.831 36.931,-13.634Z" style="fill:none;"/><path d="M17.553,-27.913c-4.366,3.65 -10.199,5.475 -17.499,5.475c-5.583,0 -10.378,-1.181 -14.386,-3.543c-4.08,-2.004 -7.372,-4.616 -9.877,-7.837c-3.078,-3.364 -5.118,-7.765 -6.12,-13.205c-1.145,-5.439 -1.717,-15.853 -1.717,-31.241c0,-15.388 0.572,-25.874 1.717,-31.456c1.002,-5.296 3.042,-9.627 6.12,-12.99c2.505,-3.221 5.797,-5.905 9.877,-8.052c4.008,-2.076 8.803,-3.185 14.386,-3.328c5.654,0.143 10.557,1.252 14.708,3.328c3.936,2.147 7.085,4.831 9.447,8.052c3.078,3.363 5.189,7.694 6.334,12.99c1.074,5.582 1.611,16.068 1.611,31.456c0,16.533 -0.752,27.448 -2.255,32.744l-18.251,-14.493l-14.064,16.211l19.969,15.889Zm19.432,15.567l19.754,15.889l14.064,-16.319l-20.613,-16.425c2.147,-3.579 3.686,-8.589 4.616,-15.031c0.716,-6.441 1.074,-17.785 1.074,-34.032c0,-18.18 -0.465,-30.347 -1.396,-36.502c-1.002,-6.155 -2.827,-11.129 -5.475,-14.923c-3.65,-7.229 -9.591,-13.67 -17.821,-19.324c-8.303,-5.726 -18.681,-8.661 -31.134,-8.804c-12.311,0.143 -22.581,3.078 -30.812,8.804c-8.374,5.654 -14.458,12.095 -18.251,19.324c-2.362,3.794 -4.115,8.768 -5.261,14.923c-1.073,6.155 -1.61,18.322 -1.61,36.502c0,17.893 0.537,29.989 1.61,36.287c0.573,3.364 1.289,6.155 2.148,8.374c0.93,2.147 1.968,4.402 3.113,6.763c3.793,7.229 9.877,13.599 18.251,19.11c8.231,5.726 18.501,8.732 30.812,9.018c15.388,-0.286 27.698,-4.831 36.931,-13.634Z" style="fill:#fff;fill-rule:nonzero;"/></g><defs><radialGradient id="_Radial1" cx="0" cy="0" r="1" gradientUnits="userSpaceOnUse" gradientTransform="matrix(126.864,97.3356,-71.3658,95.5156,71.9734,96)"><stop offset="0%" style="stop-color:#fff;stop-opacity:1"/><stop offset="100%" style="stop-color:#dcdcdc;stop-opacity:1"/></radialGradient><linearGradient id="_Linear2" x1="0" y1="0" x2="1" y2="0" gradientUnits="userSpaceOnUse" gradientTransform="matrix(0.0338068,11.641,-11.641,0.0338068,127.842,142.222)"><stop offset="0%" style="stop-color:#737373;stop-opacity:1"/><stop offset="100%" style="stop-color:#000;stop-opacity:1"/></linearGradient><linearGradient id="_Linear3" x1="0" y1="0" x2="1" y2="0" gradientUnits="userSpaceOnUse" gradientTransform="matrix(-0.96,74.4,-74.4,-0.96,73.4748,40.2296)"><stop offset="0%" style="stop-color:#737373;stop-opacity:1"/><stop offset="100%" style="stop-color:#000;stop-opacity:1"/></linearGradient><linearGradient id="_Linear4" x1="0" y1="0" x2="1" y2="0" gradientUnits="userSpaceOnUse" gradientTransform="matrix(-0.164698,13.2543,-13.2543,-0.164698,16.5841,31.1441)"><stop offset="0%" style="stop-color:#737373;stop-opacity:1"/><stop offset="100%" style="stop-color:#000;stop-opacity:1"/></linearGradient></defs></svg>