<?xml version="1.0" encoding="UTF-8" standalone="no"?><!DOCTYPE svg PUBLIC "-//W3C//DTD SVG 1.1//EN" "http://www.w3.org/Graphics/SVG/1.1/DTD/svg11.dtd"><svg width="100%" height="100%" viewBox="0 0 300 39" version="1.1" xmlns="http://www.w3.org/2000/svg" xmlns:xlink="http://www.w3.org/1999/xlink" xml:space="preserve" style="fill-rule:evenodd;clip-rule:evenodd;stroke-linejoin:round;stroke-miterlimit:1.41421;"><rect id="Layer1" x="0" y="0.021" width="299.883" height="38.985" style="fill:url(#_Linear1);"/><rect x="29.075" y="0.021" width="2.999" height="38.985" style="fill:url(#_Linear2);"/><rect x="0" y="0.021" width="2.999" height="38.985" style="fill:url(#_Linear3);"/><rect x="59.063" y="0.021" width="2.999" height="38.985" style="fill:url(#_Linear4);"/><rect x="89.051" y="0.021" width="2.999" height="38.985" style="fill:url(#_Linear5);"/><rect x="119.04" y="0.021" width="2.999" height="38.985" style="fill:url(#_Linear6);"/><rect x="149.028" y="0.021" width="2.999" height="38.985" style="fill:url(#_Linear7);"/><rect x="179.016" y="0.021" width="2.999" height="38.985" style="fill:url(#_Linear8);"/><rect x="209.005" y="0.021" width="2.999" height="38.985" style="fill:url(#_Linear9);"/><rect x="238.993" y="0.021" width="2.999" height="38.985" style="fill:url(#_Linear10);"/><rect x="268.981" y="0.021" width="2.999" height="38.985" style="fill:url(#_Linear11);"/><path d="M12.409,34.268l0,-3.452l-3.413,0l0,3.452l3.413,0Zm4.284,0l0,-3.452l-3.414,0l0,3.452l3.414,0Zm4.284,0l0,-3.452l-3.413,0l0,3.452l3.413,0Zm-12.852,-4.332l0,-3.451l-3.414,0l0,3.451l3.414,0Zm17.137,0l0,-3.451l-3.414,0l0,3.451l3.414,0Zm-17.137,-4.331l0,-3.452l-3.414,0l0,3.452l3.414,0Zm4.284,0l0,-3.452l-3.413,0l0,3.452l3.413,0Zm12.853,0l0,-3.452l-3.414,0l0,3.452l3.414,0Zm-17.137,-4.332l0,-3.452l-3.414,0l0,3.452l3.414,0Zm8.568,0l0,-3.452l-3.414,0l0,3.452l3.414,0Zm8.569,0l0,-3.452l-3.414,0l0,3.452l3.414,0Zm-17.137,-4.332l0,-3.451l-3.414,0l0,3.451l3.414,0Zm12.852,0l0,-3.451l-3.413,0l0,3.451l3.413,0Zm4.285,0l0,-3.451l-3.414,0l0,3.451l3.414,0Zm-17.137,-4.331l0,-3.452l-3.414,0l0,3.452l3.414,0Zm17.137,0l0,-3.452l-3.414,0l0,3.452l3.414,0Zm-12.853,-4.332l0,-3.452l-3.413,0l0,3.452l3.413,0Zm4.284,0l0,-3.452l-3.414,0l0,3.452l3.414,0Zm4.284,0l0,-3.452l-3.413,0l0,3.452l3.413,0Zm-20.951,30.728l0,-38.985l29.988,0l0,38.985l-29.988,0l0,0Z" style="fill:url(#_Linear12);fill-rule:nonzero;"/><path d="M42.458,34.268l0,-3.452l-3.414,0l0,3.452l3.414,0Zm4.284,0l0,-3.452l-3.414,0l0,3.452l3.414,0Zm4.284,0l0,-3.452l-3.414,0l0,3.452l3.414,0Zm-4.284,-4.332l0,-3.451l-3.414,0l0,3.451l3.414,0Zm0,-4.331l0,-3.452l-3.414,0l0,3.452l3.414,0Zm0,-4.332l0,-3.452l-3.414,0l0,3.452l3.414,0Zm0,-4.332l0,-3.451l-3.414,0l0,3.451l3.414,0Zm-4.284,-4.331l0,-3.452l-3.414,0l0,3.452l3.414,0Zm4.284,0l0,-3.452l-3.414,0l0,3.452l3.414,0Zm0,-4.332l0,-3.452l-3.414,0l0,3.452l3.414,0Zm-16.668,30.728l0,-38.985l29.989,0l0,38.985l-29.989,0l0,0Z" style="fill:url(#_Linear13);fill-rule:nonzero;"/><path d="M68.162,34.268l0,-3.452l-3.414,0l0,3.452l3.414,0Zm4.284,0l0,-3.452l-3.414,0l0,3.452l3.414,0Zm4.284,0l0,-3.452l-3.414,0l0,3.452l3.414,0Zm4.284,0l0,-3.452l-3.413,0l0,3.452l3.413,0Zm4.284,0l0,-3.452l-3.414,0l0,3.452l3.414,0Zm-17.136,-4.332l0,-3.451l-3.414,0l0,3.451l3.414,0Zm4.284,-4.331l0,-3.452l-3.414,0l0,3.452l3.414,0Zm4.284,-4.332l0,-3.452l-3.414,0l0,3.452l3.414,0Zm4.284,0l0,-3.452l-3.413,0l0,3.452l3.413,0Zm4.284,-4.332l0,-3.451l-3.414,0l0,3.451l3.414,0Zm-17.136,-4.331l0,-3.452l-3.414,0l0,3.452l3.414,0Zm17.136,0l0,-3.452l-3.414,0l0,3.452l3.414,0Zm-12.852,-4.332l0,-3.452l-3.414,0l0,3.452l3.414,0Zm4.284,0l0,-3.452l-3.414,0l0,3.452l3.414,0Zm4.284,0l0,-3.452l-3.413,0l0,3.452l3.413,0Zm-20.951,30.728l0,-38.985l29.988,0l0,38.985l-29.988,0l0,0Z" style="fill:url(#_Linear14);fill-rule:nonzero;"/><path d="M102.434,34.268l0,-3.452l-3.413,0l0,3.452l3.413,0Zm4.285,0l0,-3.452l-3.414,0l0,3.452l3.414,0Zm4.284,0l0,-3.452l-3.414,0l0,3.452l3.414,0Zm-12.852,-4.332l0,-3.451l-3.415,0l0,3.451l3.415,0Zm17.136,0l0,-3.451l-3.414,0l0,3.451l3.414,0Zm0,-4.331l0,-3.452l-3.414,0l0,3.452l3.414,0Zm-8.568,-4.332l0,-3.452l-3.414,0l0,3.452l3.414,0Zm4.284,0l0,-3.452l-3.414,0l0,3.452l3.414,0Zm4.284,-4.332l0,-3.451l-3.414,0l0,3.451l3.414,0Zm-17.136,-4.331l0,-3.452l-3.415,0l0,3.452l3.415,0Zm17.136,0l0,-3.452l-3.414,0l0,3.452l3.414,0Zm-12.853,-4.332l0,-3.452l-3.413,0l0,3.452l3.413,0Zm4.285,0l0,-3.452l-3.414,0l0,3.452l3.414,0Zm4.284,0l0,-3.452l-3.414,0l0,3.452l3.414,0Zm-20.952,30.728l0,-38.985l29.988,0l0,38.985l-29.988,0l0,0Z" style="fill:url(#_Linear15);fill-rule:nonzero;"/><path d="M140.991,34.247l0,-3.452l-3.414,0l0,3.452l3.414,0Zm0,-4.332l0,-3.451l-3.414,0l0,3.451l3.414,0Zm0,-4.331l0,-3.452l-3.414,0l0,3.452l3.414,0Zm-12.852,-4.332l0,-3.452l-3.414,0l0,3.452l3.414,0Zm4.284,0l0,-3.452l-3.414,0l0,3.452l3.414,0Zm4.284,0l0,-3.452l-3.414,0l0,3.452l3.414,0Zm4.284,0l0,-3.452l-3.414,0l0,3.452l3.414,0Zm4.284,0l0,-3.452l-3.414,0l0,3.452l3.414,0Zm-17.136,-4.331l0,-3.452l-3.414,0l0,3.452l3.414,0Zm12.852,0l0,-3.452l-3.414,0l0,3.452l3.414,0Zm-8.568,-4.332l0,-3.452l-3.414,0l0,3.452l3.414,0Zm8.568,0l0,-3.452l-3.414,0l0,3.452l3.414,0Zm-4.284,-4.332l0,-3.452l-3.414,0l0,3.452l3.414,0Zm4.284,0l0,-3.452l-3.414,0l0,3.452l3.414,0Zm-20.952,30.728l0,-38.985l29.989,0l0,38.985l-29.989,0l0,0Z" style="fill:url(#_Linear16);fill-rule:nonzero;"/><path d="M158.127,34.268l0,-3.452l-3.414,0l0,3.452l3.414,0Zm4.284,0l0,-3.452l-3.414,0l0,3.452l3.414,0Zm4.284,0l0,-3.452l-3.414,0l0,3.452l3.414,0Zm4.284,0l0,-3.452l-3.413,0l0,3.452l3.413,0Zm4.284,-4.332l0,-3.451l-3.414,0l0,3.451l3.414,0Zm0,-4.331l0,-3.452l-3.414,0l0,3.452l3.414,0Zm-17.136,-4.332l0,-3.452l-3.414,0l0,3.452l3.414,0Zm4.284,0l0,-3.452l-3.414,0l0,3.452l3.414,0Zm4.284,0l0,-3.452l-3.414,0l0,3.452l3.414,0Zm4.284,0l0,-3.452l-3.413,0l0,3.452l3.413,0Zm-12.852,-4.332l0,-3.451l-3.414,0l0,3.451l3.414,0Zm0,-4.331l0,-3.452l-3.414,0l0,3.452l3.414,0Zm0,-4.332l0,-3.452l-3.414,0l0,3.452l3.414,0Zm4.284,0l0,-3.452l-3.414,0l0,3.452l3.414,0Zm4.284,0l0,-3.452l-3.414,0l0,3.452l3.414,0Zm4.284,0l0,-3.452l-3.413,0l0,3.452l3.413,0Zm4.284,0l0,-3.452l-3.414,0l0,3.452l3.414,0Zm-25.235,30.728l0,-38.985l29.988,0l0,38.985l-29.988,0Z" style="fill:url(#_Linear17);fill-rule:nonzero;"/><path d="M192.399,34.268l0,-3.452l-3.413,0l0,3.452l3.413,0Zm4.285,0l0,-3.452l-3.414,0l0,3.452l3.414,0Zm4.284,0l0,-3.452l-3.414,0l0,3.452l3.414,0Zm-12.853,-4.332l0,-3.451l-3.414,0l0,3.451l3.414,0Zm17.137,0l0,-3.451l-3.414,0l0,3.451l3.414,0Zm-17.137,-4.331l0,-3.452l-3.414,0l0,3.452l3.414,0Zm17.137,0l0,-3.452l-3.414,0l0,3.452l3.414,0Zm-17.137,-4.332l0,-3.452l-3.414,0l0,3.452l3.414,0Zm4.284,0l0,-3.452l-3.413,0l0,3.452l3.413,0Zm4.285,0l0,-3.452l-3.414,0l0,3.452l3.414,0Zm4.284,0l0,-3.452l-3.414,0l0,3.452l3.414,0Zm-12.853,-4.332l0,-3.451l-3.414,0l0,3.451l3.414,0Zm0,-4.331l0,-3.452l-3.414,0l0,3.452l3.414,0Zm17.137,0l0,-3.452l-3.414,0l0,3.452l3.414,0Zm-12.853,-4.332l0,-3.452l-3.413,0l0,3.452l3.413,0Zm4.285,0l0,-3.452l-3.414,0l0,3.452l3.414,0Zm4.284,0l0,-3.452l-3.414,0l0,3.452l3.414,0Zm-20.952,30.728l0,-38.985l29.988,0l0,38.985l-29.988,0l0,0Z" style="fill:url(#_Linear18);fill-rule:nonzero;"/><path d="M226.672,34.268l0,-3.452l-3.414,0l0,3.452l3.414,0Zm0,-4.332l0,-3.451l-3.414,0l0,3.451l3.414,0Zm0,-4.331l0,-3.452l-3.414,0l0,3.452l3.414,0Zm4.284,-4.332l0,-3.452l-3.414,0l0,3.452l3.414,0Zm4.284,-4.332l0,-3.451l-3.414,0l0,3.451l3.414,0Zm-17.136,-4.331l0,-3.452l-3.414,0l0,3.452l3.414,0Zm17.136,0l0,-3.452l-3.414,0l0,3.452l3.414,0Zm-17.136,-4.332l0,-3.452l-3.414,0l0,3.452l3.414,0Zm4.284,0l0,-3.452l-3.414,0l0,3.452l3.414,0Zm4.284,0l0,-3.452l-3.414,0l0,3.452l3.414,0Zm4.284,0l0,-3.452l-3.414,0l0,3.452l3.414,0Zm4.284,0l0,-3.452l-3.414,0l0,3.452l3.414,0Zm-25.236,30.728l0,-38.985l29.989,0l0,38.985l-29.989,0Z" style="fill:url(#_Linear19);fill-rule:nonzero;"/><path d="M252.376,34.268l0,-3.452l-3.414,0l0,3.452l3.414,0Zm4.284,0l0,-3.452l-3.414,0l0,3.452l3.414,0Zm4.284,0l0,-3.452l-3.413,0l0,3.452l3.413,0Zm-12.852,-4.332l0,-3.451l-3.414,0l0,3.451l3.414,0Zm17.136,0l0,-3.451l-3.414,0l0,3.451l3.414,0Zm-17.136,-4.331l0,-3.452l-3.414,0l0,3.452l3.414,0Zm17.136,0l0,-3.452l-3.414,0l0,3.452l3.414,0Zm-12.852,-4.332l0,-3.452l-3.414,0l0,3.452l3.414,0Zm4.284,0l0,-3.452l-3.414,0l0,3.452l3.414,0Zm4.284,0l0,-3.452l-3.413,0l0,3.452l3.413,0Zm-12.852,-4.332l0,-3.451l-3.414,0l0,3.451l3.414,0Zm17.136,0l0,-3.451l-3.414,0l0,3.451l3.414,0Zm-17.136,-4.331l0,-3.452l-3.414,0l0,3.452l3.414,0Zm17.136,0l0,-3.452l-3.414,0l0,3.452l3.414,0Zm-12.852,-4.332l0,-3.452l-3.414,0l0,3.452l3.414,0Zm4.284,0l0,-3.452l-3.414,0l0,3.452l3.414,0Zm4.284,0l0,-3.452l-3.413,0l0,3.452l3.413,0Zm-20.951,30.728l0,-38.985l29.988,0l0,38.985l-29.988,0l0,0Z" style="fill:url(#_Linear20);fill-rule:nonzero;"/><path d="M282.364,34.268l0,-3.452l-3.413,0l0,3.452l3.413,0Zm4.285,0l0,-3.452l-3.414,0l0,3.452l3.414,0Zm4.284,0l0,-3.452l-3.414,0l0,3.452l3.414,0Zm-12.853,-4.332l0,-3.451l-3.414,0l0,3.451l3.414,0Zm17.137,0l0,-3.451l-3.414,0l0,3.451l3.414,0Zm0,-4.331l0,-3.452l-3.414,0l0,3.452l3.414,0Zm-12.853,-4.332l0,-3.452l-3.413,0l0,3.452l3.413,0Zm4.285,0l0,-3.452l-3.414,0l0,3.452l3.414,0Zm4.284,0l0,-3.452l-3.414,0l0,3.452l3.414,0Zm4.284,0l0,-3.452l-3.414,0l0,3.452l3.414,0Zm-17.137,-4.332l0,-3.451l-3.414,0l0,3.451l3.414,0Zm17.137,0l0,-3.451l-3.414,0l0,3.451l3.414,0Zm-17.137,-4.331l0,-3.452l-3.414,0l0,3.452l3.414,0Zm17.137,0l0,-3.452l-3.414,0l0,3.452l3.414,0Zm-12.853,-4.332l0,-3.452l-3.413,0l0,3.452l3.413,0Zm4.285,0l0,-3.452l-3.414,0l0,3.452l3.414,0Zm4.284,0l0,-3.452l-3.414,0l0,3.452l3.414,0Zm-20.952,30.728l0,-38.985l29.988,0l0,38.985l-29.988,0l0,0Z" style="fill:url(#_Linear21);fill-rule:nonzero;"/><defs><linearGradient id="_Linear1" x1="0" y1="0" x2="1" y2="0" gradientUnits="userSpaceOnUse" gradientTransform="matrix(-0.0581019,8.78255,-8.78255,-0.0581019,146.058,15.2839)"><stop offset="0%" style="stop-color:#ffe5d1;stop-opacity:1"/><stop offset="100%" style="stop-color:#d49b00;stop-opacity:1"/></linearGradient><linearGradient id="_Linear2" x1="0" y1="0" x2="1" y2="0" gradientUnits="userSpaceOnUse" gradientTransform="matrix(0.00934963,17.6213,-1.73296,0.0950698,30.7751,9.10226)"><stop offset="0%" style="stop-color:#172a55;stop-opacity:1"/><stop offset="100%" style="stop-color:#010116;stop-opacity:1"/></linearGradient><linearGradient id="_Linear3" x1="0" y1="0" x2="1" y2="0" gradientUnits="userSpaceOnUse" gradientTransform="matrix(0.00934963,17.6213,-1.73296,0.0950698,1.70045,9.10226)"><stop offset="0%" style="stop-color:#172a55;stop-opacity:1"/><stop offset="100%" style="stop-color:#010116;stop-opacity:1"/></linearGradient><linearGradient id="_Linear4" x1="0" y1="0" x2="1" y2="0" gradientUnits="userSpaceOnUse" gradientTransform="matrix(0.00934963,17.6213,-1.73296,0.0950698,60.7635,9.10226)"><stop offset="0%" style="stop-color:#172a55;stop-opacity:1"/><stop offset="100%" style="stop-color:#010116;stop-opacity:1"/></linearGradient><linearGradient id="_Linear5" x1="0" y1="0" x2="1" y2="0" gradientUnits="userSpaceOnUse" gradientTransform="matrix(0.00934963,17.6213,-1.73296,0.0950698,90.7518,9.10226)"><stop offset="0%" style="stop-color:#172a55;stop-opacity:1"/><stop offset="100%" style="stop-color:#010116;stop-opacity:1"/></linearGradient><linearGradient id="_Linear6" x1="0" y1="0" x2="1" y2="0" gradientUnits="userSpaceOnUse" gradientTransform="matrix(0.00934963,17.6213,-1.73296,0.0950698,120.74,9.10226)"><stop offset="0%" style="stop-color:#172a55;stop-opacity:1"/><stop offset="100%" style="stop-color:#010116;stop-opacity:1"/></linearGradient><linearGradient id="_Linear7" x1="0" y1="0" x2="1" y2="0" gradientUnits="userSpaceOnUse" gradientTransform="matrix(0.00934963,17.6213,-1.73296,0.0950698,150.728,9.10226)"><stop offset="0%" style="stop-color:#172a55;stop-opacity:1"/><stop offset="100%" style="stop-color:#010116;stop-opacity:1"/></linearGradient><linearGradient id="_Linear8" x1="0" y1="0" x2="1" y2="0" gradientUnits="userSpaceOnUse" gradientTransform="matrix(0.00934963,17.6213,-1.73296,0.0950698,180.717,9.10226)"><stop offset="0%" style="stop-color:#172a55;stop-opacity:1"/><stop offset="100%" style="stop-color:#010116;stop-opacity:1"/></linearGradient><linearGradient id="_Linear9" x1="0" y1="0" x2="1" y2="0" gradientUnits="userSpaceOnUse" gradientTransform="matrix(0.00934963,17.6213,-1.73296,0.0950698,210.705,9.10226)"><stop offset="0%" style="stop-color:#172a55;stop-opacity:1"/><stop offset="100%" style="stop-color:#010116;stop-opacity:1"/></linearGradient><linearGradient id="_Linear10" x1="0" y1="0" x2="1" y2="0" gradientUnits="userSpaceOnUse" gradientTransform="matrix(0.00934963,17.6213,-1.73296,0.0950698,240.693,9.10226)"><stop offset="0%" style="stop-color:#172a55;stop-opacity:1"/><stop offset="100%" style="stop-color:#010116;stop-opacity:1"/></linearGradient><linearGradient id="_Linear11" x1="0" y1="0" x2="1" y2="0" gradientUnits="userSpaceOnUse" gradientTransform="matrix(0.00934963,17.6213,-1.73296,0.0950698,270.682,9.10226)"><stop offset="0%" style="stop-color:#172a55;stop-opacity:1"/><stop offset="100%" style="stop-color:#010116;stop-opacity:1"/></linearGradient><linearGradient id="_Linear12" x1="0" y1="0" x2="1" y2="0" gradientUnits="userSpaceOnUse" gradientTransform="matrix(0.0935066,17.6213,-17.3315,0.0950698,17.0322,9.10226)"><stop offset="0%" style="stop-color:#172a55;stop-opacity:1"/><stop offset="100%" style="stop-color:#010116;stop-opacity:1"/></linearGradient><linearGradient id="_Linear13" x1="0" y1="0" x2="1" y2="0" gradientUnits="userSpaceOnUse" gradientTransform="matrix(0.0935066,17.6213,-17.3315,0.0950698,47.0807,9.10226)"><stop offset="0%" style="stop-color:#172a55;stop-opacity:1"/><stop offset="100%" style="stop-color:#010116;stop-opacity:1"/></linearGradient><linearGradient id="_Linear14" x1="0" y1="0" x2="1" y2="0" gradientUnits="userSpaceOnUse" gradientTransform="matrix(0.0935066,17.6213,-17.3315,0.0950698,77.069,9.10226)"><stop offset="0%" style="stop-color:#172a55;stop-opacity:1"/><stop offset="100%" style="stop-color:#010116;stop-opacity:1"/></linearGradient><linearGradient id="_Linear15" x1="0" y1="0" x2="1" y2="0" gradientUnits="userSpaceOnUse" gradientTransform="matrix(0.0935066,17.6213,-17.3315,0.0950698,107.057,9.10226)"><stop offset="0%" style="stop-color:#172a55;stop-opacity:1"/><stop offset="100%" style="stop-color:#010116;stop-opacity:1"/></linearGradient><linearGradient id="_Linear16" x1="0" y1="0" x2="1" y2="0" gradientUnits="userSpaceOnUse" gradientTransform="matrix(0.0935066,17.6213,-17.3315,0.0950698,137.046,9.08141)"><stop offset="0%" style="stop-color:#172a55;stop-opacity:1"/><stop offset="100%" style="stop-color:#010116;stop-opacity:1"/></linearGradient><linearGradient id="_Linear17" x1="0" y1="0" x2="1" y2="0" gradientUnits="userSpaceOnUse" gradientTransform="matrix(0.0935066,17.6213,-17.3315,0.0950698,167.034,9.10226)"><stop offset="0%" style="stop-color:#172a55;stop-opacity:1"/><stop offset="100%" style="stop-color:#010116;stop-opacity:1"/></linearGradient><linearGradient id="_Linear18" x1="0" y1="0" x2="1" y2="0" gradientUnits="userSpaceOnUse" gradientTransform="matrix(0.0935066,17.6213,-17.3315,0.0950698,197.022,9.10226)"><stop offset="0%" style="stop-color:#172a55;stop-opacity:1"/><stop offset="100%" style="stop-color:#010116;stop-opacity:1"/></linearGradient><linearGradient id="_Linear19" x1="0" y1="0" x2="1" y2="0" gradientUnits="userSpaceOnUse" gradientTransform="matrix(0.0935066,17.6213,-17.3315,0.0950698,227.011,9.10226)"><stop offset="0%" style="stop-color:#172a55;stop-opacity:1"/><stop offset="100%" style="stop-color:#010116;stop-opacity:1"/></linearGradient><linearGradient id="_Linear20" x1="0" y1="0" x2="1" y2="0" gradientUnits="userSpaceOnUse" gradientTransform="matrix(0.0935066,17.6213,-17.3315,0.0950698,256.999,9.10226)"><stop offset="0%" style="stop-color:#172a55;stop-opacity:1"/><stop offset="100%" style="stop-color:#010116;stop-opacity:1"/></linearGradient><linearGradient id="_Linear21" x1="0" y1="0" x2="1" y2="0" gradientUnits="userSpaceOnUse" gradientTransform="matrix(0.0935066,17.6213,-17.3315,0.0950698,286.987,9.10226)"><stop offset="0%" style="stop-color:#172a55;stop-opacity:1"/><stop offset="100%" style="stop-color:#010116;stop-opacity:1"/></linearGradient></defs></svg>