<?xml version="1.0" encoding="UTF-8" standalone="no"?><!DOCTYPE svg PUBLIC "-//W3C//DTD SVG 1.1//EN" "http://www.w3.org/Graphics/SVG/1.1/DTD/svg11.dtd"><svg width="100%" height="100%" viewBox="0 0 144 193" version="1.1" xmlns="http://www.w3.org/2000/svg" xmlns:xlink="http://www.w3.org/1999/xlink" xml:space="preserve" style="fill-rule:evenodd;clip-rule:evenodd;"><path id="Card-background" d="M143.967,10.046c0.018,-5.299 -4.269,-9.614 -9.568,-9.63l-124.799,-0.386c-5.298,-0.017 -9.615,4.272 -9.632,9.57l-0.583,172.799c-0.018,5.298 4.269,9.613 9.567,9.63l124.8,0.386c5.298,0.016 9.614,-4.272 9.632,-9.57l0.583,-172.799Z" style="fill:url(#_Radial1);stroke:#646464;stroke-width:0.22px;"/><g id="Clubs"><path id="path7930" d="M72.58,22.319c-19.672,0 -35.859,15.393 -35.859,34.099c0,0 0,0 0,0c0.016,8.205 3.146,16.135 8.812,22.324c-1.644,-0.248 -3.305,-0.379 -4.97,-0.393c-18.442,0 -33.618,14.454 -33.618,32.018c0,17.564 15.176,32.017 33.618,32.017c9.76,-0.007 19.049,-4.062 25.426,-11.099c5.274,15.414 -7.376,27.387 -13.26,37.193l38.421,0c-5.919,-9.865 -18.685,-21.921 -13.164,-37.468c6.373,7.196 15.766,11.361 25.651,11.374c18.442,0 33.618,-14.453 33.618,-32.017c0,-17.564 -15.176,-32.018 -33.618,-32.018c-1.284,0.014 -2.566,0.097 -3.84,0.249c5.57,-6.174 8.637,-14.045 8.642,-22.18c0,0 0,0 0,0c0,-18.706 -16.187,-34.099 -35.859,-34.099l0,0Z" style="fill:url(#_Linear2);stroke:#000;stroke-width:0.32px;"/></g><g id="text4596"><path d="M56.713,118.569l0,-5.913c1.96,-4.58 5.925,-9.571 11.895,-14.971l3.862,-3.452c4.967,-4.489 7.451,-8.944 7.451,-13.364c0,-2.826 -0.849,-5.048 -2.546,-6.665c-1.698,-1.618 -4.028,-2.427 -6.99,-2.427c-3.509,0 -7.645,1.356 -12.407,4.067l0,-5.947c4.489,-2.119 8.943,-3.179 13.364,-3.179c4.74,0 8.545,1.276 11.416,3.828c2.871,2.552 4.307,5.936 4.307,10.152c0,3.03 -0.724,5.719 -2.171,8.066c-1.447,2.347 -4.141,5.195 -8.083,8.545l-2.598,2.222c-5.4,4.58 -8.522,8.955 -9.365,13.125l21.977,0l0,5.913l-30.112,0Z" style="fill:url(#_Linear3);fill-rule:nonzero;"/></g><defs><radialGradient id="_Radial1" cx="0" cy="0" r="1" gradientUnits="userSpaceOnUse" gradientTransform="matrix(126.562,97.7279,-71.6611,95.2942,71.6758,96.2223)"><stop offset="0%" style="stop-color:#fff;stop-opacity:1"/><stop offset="100%" style="stop-color:#dcdcdc;stop-opacity:1"/></radialGradient><linearGradient id="_Linear2" x1="0" y1="0" x2="1" y2="0" gradientUnits="userSpaceOnUse" gradientTransform="matrix(-1.28069,99.2531,-99.2531,-1.28069,73.2204,21.3591)"><stop offset="0%" style="stop-color:#737373;stop-opacity:1"/><stop offset="100%" style="stop-color:#000;stop-opacity:1"/></linearGradient><linearGradient id="_Linear3" x1="0" y1="0" x2="1" y2="0" gradientUnits="userSpaceOnUse" gradientTransform="matrix(0.0983952,31.9224,-31.9224,0.0983952,128.535,196.086)"><stop offset="0%" style="stop-color:#fff;stop-opacity:1"/><stop offset="100%" style="stop-color:#dcdcdc;stop-opacity:1"/></linearGradient></defs></svg>