<?xml version="1.0" encoding="UTF-8" standalone="no"?><!DOCTYPE svg PUBLIC "-//W3C//DTD SVG 1.1//EN" "http://www.w3.org/Graphics/SVG/1.1/DTD/svg11.dtd"><svg width="100%" height="100%" viewBox="0 0 144 193" version="1.1" xmlns="http://www.w3.org/2000/svg" xmlns:xlink="http://www.w3.org/1999/xlink" xml:space="preserve" style="fill-rule:evenodd;clip-rule:evenodd;"><path id="Card-background" d="M143.967,10.046c0.018,-5.299 -4.269,-9.614 -9.568,-9.63l-124.799,-0.386c-5.298,-0.017 -9.615,4.272 -9.632,9.57l-0.583,172.799c-0.018,5.298 4.269,9.613 9.567,9.63l124.8,0.386c5.298,0.016 9.614,-4.272 9.632,-9.57l0.583,-172.799Z" style="fill:url(#_Radial1);stroke:#646464;stroke-width:0.22px;"/><g id="Hearts"><path id="path7647" d="M36.578,29.053c-9.303,-0.077 -18.74,4.742 -26.068,19.429c-21.094,42.279 62.32,102.511 61.825,124.423l0,0.485c0,0 0.203,-0.199 0.248,-0.242c0.045,0.043 0.247,0.242 0.247,0.242l0,-0.485c0,-18.713 82.919,-82.144 61.825,-124.423c-21.079,-42.248 -59.505,-2.956 -62.072,-0.258c-1.673,-1.758 -18.546,-19.028 -36.005,-19.171l0,0Z" style="fill:url(#_Linear2);stroke:url(#_Linear3);stroke-width:0.31px;"/></g><g id="text4596"><path d="M56.713,118.569l0,-5.913c1.96,-4.58 5.925,-9.571 11.895,-14.971l3.862,-3.452c4.967,-4.489 7.451,-8.944 7.451,-13.364c0,-2.826 -0.849,-5.048 -2.546,-6.665c-1.698,-1.618 -4.028,-2.427 -6.99,-2.427c-3.509,0 -7.645,1.356 -12.407,4.067l0,-5.947c4.489,-2.119 8.943,-3.179 13.364,-3.179c4.74,0 8.545,1.276 11.416,3.828c2.871,2.552 4.307,5.936 4.307,10.152c0,3.03 -0.724,5.719 -2.171,8.066c-1.447,2.347 -4.141,5.195 -8.083,8.545l-2.598,2.222c-5.4,4.58 -8.522,8.955 -9.365,13.125l21.977,0l0,5.913l-30.112,0Z" style="fill:url(#_Linear4);fill-rule:nonzero;"/></g><defs><radialGradient id="_Radial1" cx="0" cy="0" r="1" gradientUnits="userSpaceOnUse" gradientTransform="matrix(126.562,97.7279,-71.6611,95.2942,71.6758,96.2223)"><stop offset="0%" style="stop-color:#fff;stop-opacity:1"/><stop offset="100%" style="stop-color:#dcdcdc;stop-opacity:1"/></radialGradient><linearGradient id="_Linear2" x1="0" y1="0" x2="1" y2="0" gradientUnits="userSpaceOnUse" gradientTransform="matrix(3.11598,118.663,-118.663,3.11598,72.83,29.7456)"><stop offset="0%" style="stop-color:#e00000;stop-opacity:1"/><stop offset="100%" style="stop-color:#560000;stop-opacity:1"/></linearGradient><linearGradient id="_Linear3" x1="0" y1="0" x2="1" y2="0" gradientUnits="userSpaceOnUse" gradientTransform="matrix(3.11598,118.663,-118.663,3.11598,72.83,29.7456)"><stop offset="0%" style="stop-color:#e00000;stop-opacity:1"/><stop offset="100%" style="stop-color:#560000;stop-opacity:1"/></linearGradient><linearGradient id="_Linear4" x1="0" y1="0" x2="1" y2="0" gradientUnits="userSpaceOnUse" gradientTransform="matrix(0.0983952,31.9224,-31.9224,0.0983952,128.535,196.086)"><stop offset="0%" style="stop-color:#fff;stop-opacity:1"/><stop offset="100%" style="stop-color:#dcdcdc;stop-opacity:1"/></linearGradient></defs></svg>