<?xml version="1.0" encoding="UTF-8" standalone="no"?><!DOCTYPE svg PUBLIC "-//W3C//DTD SVG 1.1//EN" "http://www.w3.org/Graphics/SVG/1.1/DTD/svg11.dtd"><svg width="100%" height="100%" viewBox="0 0 144 193" version="1.1" xmlns="http://www.w3.org/2000/svg" xmlns:xlink="http://www.w3.org/1999/xlink" xml:space="preserve" style="fill-rule:evenodd;clip-rule:evenodd;"><path id="Card-background" d="M143.997,9.6c0.002,-5.298 -4.272,-9.6 -9.538,-9.6l-124.918,0c-5.266,0 -9.542,4.302 -9.544,9.6l-0.048,172.8c-0.001,5.298 4.273,9.6 9.539,9.6l124.917,0c5.266,0 9.543,-4.302 9.544,-9.6l0.048,-172.8Z" style="fill:url(#_Radial1);stroke:#646464;stroke-width:0.22px;"/><path id="Spades" d="M72.61,26.672c-15.08,42.224 -53.316,63.427 -53.887,88.068c0,33.177 36.21,29.92 47.855,14.477c6.032,15.081 -6.376,26.712 -12.065,36.193l36.193,0c-5.689,-9.481 -18.096,-21.112 -12.064,-36.193c11.645,15.443 47.854,18.7 47.854,-14.477c-0.571,-24.641 -38.806,-45.844 -53.886,-88.068Z" style="fill:url(#_Linear2);stroke:#000;stroke-width:0.3px;"/><g id="Center-Text" transform="matrix(0.233905,0,0,0.218311,72.7568,119.065)"><path d="M-18.823,-94.332l12.596,0c9.257,0 16.891,2.815 22.903,8.445c6.108,5.822 9.257,14.029 9.448,24.621c-0.191,10.402 -3.34,18.418 -9.448,24.048c-6.012,6.013 -13.408,9.019 -22.187,9.019c-8.207,0 -14.792,-2.243 -19.754,-6.728c-4.867,-4.295 -8.636,-9.925 -11.308,-16.891l-29.918,0c3.245,17.368 10.355,30.633 21.329,39.794c10.974,9.161 23.571,13.742 37.79,13.742c18.418,-0.191 33.496,-6.06 45.234,-17.607c11.928,-11.261 17.988,-26.673 18.179,-46.236c0,-8.779 -1.861,-17.177 -5.583,-25.193c-3.912,-8.016 -10.258,-14.887 -19.038,-20.613c8.589,-5.821 14.553,-12.453 17.893,-19.897c2.863,-7.443 4.295,-15.173 4.295,-23.189c-0.191,-15.842 -5.631,-29.583 -16.319,-41.226c-11.165,-11.929 -26.243,-17.988 -45.234,-18.179c-14.982,0.191 -27.865,5.535 -38.648,16.032c-10.975,10.593 -17.226,23.619 -18.752,39.078l29.917,0c1.908,-8.588 5.63,-14.934 11.165,-19.038c5.249,-4.103 11.07,-6.155 17.464,-6.155c8.875,0.191 16.127,3.006 21.758,8.445c5.63,5.631 8.541,12.836 8.731,21.615c0,8.684 -2.815,15.746 -8.445,21.186c-5.63,5.63 -13.551,8.445 -23.762,8.445l-10.306,0l0,26.482Z" style="fill:none;"/><path d="M-18.823,-94.332l12.596,0c9.257,0 16.891,2.815 22.903,8.445c6.108,5.822 9.257,14.029 9.448,24.621c-0.191,10.402 -3.34,18.418 -9.448,24.048c-6.012,6.013 -13.408,9.019 -22.187,9.019c-8.207,0 -14.792,-2.243 -19.754,-6.728c-4.867,-4.295 -8.636,-9.925 -11.308,-16.891l-29.918,0c3.245,17.368 10.355,30.633 21.329,39.794c10.974,9.161 23.571,13.742 37.79,13.742c18.418,-0.191 33.496,-6.06 45.234,-17.607c11.928,-11.261 17.988,-26.673 18.179,-46.236c0,-8.779 -1.861,-17.177 -5.583,-25.193c-3.912,-8.016 -10.258,-14.887 -19.038,-20.613c8.589,-5.821 14.553,-12.453 17.893,-19.897c2.863,-7.443 4.295,-15.173 4.295,-23.189c-0.191,-15.842 -5.631,-29.583 -16.319,-41.226c-11.165,-11.929 -26.243,-17.988 -45.234,-18.179c-14.982,0.191 -27.865,5.535 -38.648,16.032c-10.975,10.593 -17.226,23.619 -18.752,39.078l29.917,0c1.908,-8.588 5.63,-14.934 11.165,-19.038c5.249,-4.103 11.07,-6.155 17.464,-6.155c8.875,0.191 16.127,3.006 21.758,8.445c5.63,5.631 8.541,12.836 8.731,21.615c0,8.684 -2.815,15.746 -8.445,21.186c-5.63,5.63 -13.551,8.445 -23.762,8.445l-10.306,0l0,26.482Z" style="fill:#fff;fill-rule:nonzero;"/></g><defs><radialGradient id="_Radial1" cx="0" cy="0" r="1" gradientUnits="userSpaceOnUse" gradientTransform="matrix(126.864,97.3356,-71.3658,95.5156,71.9734,96)"><stop offset="0%" style="stop-color:#fff;stop-opacity:1"/><stop offset="100%" style="stop-color:#dcdcdc;stop-opacity:1"/></radialGradient><linearGradient id="_Linear2" x1="0" y1="0" x2="1" y2="0" gradientUnits="userSpaceOnUse" gradientTransform="matrix(5.72508e-15,93.4976,-93.4976,5.72508e-15,72.6098,26.8226)"><stop offset="0%" style="stop-color:#737373;stop-opacity:1"/><stop offset="100%" style="stop-color:#000;stop-opacity:1"/></linearGradient></defs></svg>