<?xml version="1.0" encoding="UTF-8" standalone="no"?><!DOCTYPE svg PUBLIC "-//W3C//DTD SVG 1.1//EN" "http://www.w3.org/Graphics/SVG/1.1/DTD/svg11.dtd"><svg width="100%" height="100%" viewBox="0 0 144 193" version="1.1" xmlns="http://www.w3.org/2000/svg" xmlns:xlink="http://www.w3.org/1999/xlink" xml:space="preserve" style="fill-rule:evenodd;clip-rule:evenodd;"><path id="Card-background" d="M143.967,10.046c0.018,-5.299 -4.269,-9.614 -9.568,-9.63l-124.799,-0.386c-5.298,-0.017 -9.615,4.272 -9.632,9.57l-0.583,172.799c-0.018,5.298 4.269,9.613 9.567,9.63l124.8,0.386c5.298,0.016 9.614,-4.272 9.632,-9.57l0.583,-172.799Z" style="fill:url(#_Radial1);stroke:#646464;stroke-width:0.22px;"/><g id="Spades"><path id="path7857" d="M71.97,21.973c-15.922,44.584 -56.293,66.971 -56.896,92.989c0,35.03 38.232,31.592 50.527,15.286c6.369,15.923 -6.731,28.203 -12.738,38.214l38.215,0c-6.007,-10.011 -19.108,-22.291 -12.738,-38.214c12.295,16.306 50.527,19.744 50.527,-15.286c-0.603,-26.018 -40.974,-48.405 -56.897,-92.989Z" style="fill:url(#_Linear2);stroke:#000;stroke-width:0.32px;"/></g><g id="text4596"><path d="M58.012,118.193l0,-6.289c4.831,1.914 8.636,2.871 11.416,2.871c3.213,0 5.828,-0.94 7.844,-2.82c2.017,-1.88 3.025,-4.312 3.025,-7.297c0,-7.11 -4.979,-10.664 -14.937,-10.664l-2.666,0l0,-4.546l2.359,-0.035c9.342,0 14.014,-3.292 14.014,-9.877c0,-5.173 -3.077,-7.759 -9.229,-7.759c-3.372,0 -7.087,0.945 -11.143,2.837l0,-5.879c3.988,-1.345 7.862,-2.017 11.622,-2.017c10.345,0 15.517,3.908 15.517,11.724c0,5.947 -3.52,10.185 -10.561,12.715c8.157,1.891 12.236,6.357 12.236,13.398c0,4.762 -1.572,8.499 -4.717,11.211c-3.144,2.712 -7.462,4.067 -12.954,4.067c-3.122,0 -7.064,-0.546 -11.826,-1.64Z" style="fill:url(#_Linear3);fill-rule:nonzero;"/></g><defs><radialGradient id="_Radial1" cx="0" cy="0" r="1" gradientUnits="userSpaceOnUse" gradientTransform="matrix(126.562,97.7279,-71.6611,95.2942,71.6758,96.2223)"><stop offset="0%" style="stop-color:#fff;stop-opacity:1"/><stop offset="100%" style="stop-color:#dcdcdc;stop-opacity:1"/></radialGradient><linearGradient id="_Linear2" x1="0" y1="0" x2="1" y2="0" gradientUnits="userSpaceOnUse" gradientTransform="matrix(6.04491e-15,98.7208,-98.7208,6.04491e-15,71.9705,22.1327)"><stop offset="0%" style="stop-color:#737373;stop-opacity:1"/><stop offset="100%" style="stop-color:#000;stop-opacity:1"/></linearGradient><linearGradient id="_Linear3" x1="0" y1="0" x2="1" y2="0" gradientUnits="userSpaceOnUse" gradientTransform="matrix(0.0983952,31.9224,-31.9224,0.0983952,128.535,196.086)"><stop offset="0%" style="stop-color:#fff;stop-opacity:1"/><stop offset="100%" style="stop-color:#dcdcdc;stop-opacity:1"/></linearGradient></defs></svg>