<?xml version="1.0" encoding="UTF-8" standalone="no"?><!DOCTYPE svg PUBLIC "-//W3C//DTD SVG 1.1//EN" "http://www.w3.org/Graphics/SVG/1.1/DTD/svg11.dtd"><svg width="100%" height="100%" viewBox="0 0 144 193" version="1.1" xmlns="http://www.w3.org/2000/svg" xmlns:xlink="http://www.w3.org/1999/xlink" xml:space="preserve" style="fill-rule:evenodd;clip-rule:evenodd;"><path id="Card-background" d="M143.967,10.046c0.018,-5.299 -4.269,-9.614 -9.568,-9.63l-124.799,-0.386c-5.298,-0.017 -9.615,4.272 -9.632,9.57l-0.583,172.799c-0.018,5.298 4.269,9.613 9.567,9.63l124.8,0.386c5.298,0.016 9.614,-4.272 9.632,-9.57l0.583,-172.799Z" style="fill:url(#_Radial1);stroke:#646464;stroke-width:0.22px;"/><g id="Clubs"><path id="path7930" d="M72.58,22.319c-19.672,0 -35.859,15.393 -35.859,34.099c0,0 0,0 0,0c0.016,8.205 3.146,16.135 8.812,22.324c-1.644,-0.248 -3.305,-0.379 -4.97,-0.393c-18.442,0 -33.618,14.454 -33.618,32.018c0,17.564 15.176,32.017 33.618,32.017c9.76,-0.007 19.049,-4.062 25.426,-11.099c5.274,15.414 -7.376,27.387 -13.26,37.193l38.421,0c-5.919,-9.865 -18.685,-21.921 -13.164,-37.468c6.373,7.196 15.766,11.361 25.651,11.374c18.442,0 33.618,-14.453 33.618,-32.017c0,-17.564 -15.176,-32.018 -33.618,-32.018c-1.284,0.014 -2.566,0.097 -3.84,0.249c5.57,-6.174 8.637,-14.045 8.642,-22.18c0,0 0,0 0,0c0,-18.706 -16.187,-34.099 -35.859,-34.099l0,0Z" style="fill:url(#_Linear2);stroke:#000;stroke-width:0.32px;"/></g><g id="text4596"><path d="M59.413,118.774l0,-6.016c3.35,1.345 6.54,2.017 9.571,2.017c3.326,0 5.941,-0.98 7.844,-2.94c1.902,-1.959 2.854,-4.659 2.854,-8.1c0,-7.588 -5.23,-11.382 -15.689,-11.382c-1.185,0 -2.426,0.08 -3.725,0.239l0,-24.609l25.6,0l0,5.879l-19.687,0l0,13.33c6.494,0 11.564,1.492 15.21,4.477c3.646,2.985 5.469,7.121 5.469,12.408c0,4.921 -1.658,8.778 -4.974,11.569c-3.315,2.792 -7.912,4.187 -13.791,4.187c-2.552,0 -5.446,-0.353 -8.682,-1.059Z" style="fill:url(#_Linear3);fill-rule:nonzero;"/></g><defs><radialGradient id="_Radial1" cx="0" cy="0" r="1" gradientUnits="userSpaceOnUse" gradientTransform="matrix(126.562,97.7279,-71.6611,95.2942,71.6758,96.2223)"><stop offset="0%" style="stop-color:#fff;stop-opacity:1"/><stop offset="100%" style="stop-color:#dcdcdc;stop-opacity:1"/></radialGradient><linearGradient id="_Linear2" x1="0" y1="0" x2="1" y2="0" gradientUnits="userSpaceOnUse" gradientTransform="matrix(-1.28069,99.2531,-99.2531,-1.28069,73.2204,21.3591)"><stop offset="0%" style="stop-color:#737373;stop-opacity:1"/><stop offset="100%" style="stop-color:#000;stop-opacity:1"/></linearGradient><linearGradient id="_Linear3" x1="0" y1="0" x2="1" y2="0" gradientUnits="userSpaceOnUse" gradientTransform="matrix(0.0983952,31.9224,-31.9224,0.0983952,128.535,196.086)"><stop offset="0%" style="stop-color:#fff;stop-opacity:1"/><stop offset="100%" style="stop-color:#dcdcdc;stop-opacity:1"/></linearGradient></defs></svg>