<?xml version="1.0" encoding="UTF-8" standalone="no"?><!DOCTYPE svg PUBLIC "-//W3C//DTD SVG 1.1//EN" "http://www.w3.org/Graphics/SVG/1.1/DTD/svg11.dtd"><svg width="100%" height="100%" viewBox="0 0 144 193" version="1.1" xmlns="http://www.w3.org/2000/svg" xmlns:xlink="http://www.w3.org/1999/xlink" xml:space="preserve" style="fill-rule:evenodd;clip-rule:evenodd;"><path id="Card-background" d="M143.997,9.6c0.002,-5.298 -4.272,-9.6 -9.538,-9.6l-124.918,0c-5.266,0 -9.542,4.302 -9.544,9.6l-0.048,172.8c-0.001,5.298 4.273,9.6 9.539,9.6l124.917,0c5.266,0 9.543,-4.302 9.544,-9.6l0.048,-172.8Z" style="fill:url(#_Radial1);stroke:#646464;stroke-width:0.22px;"/><path id="Spades" d="M72.61,26.672c-15.08,42.224 -53.316,63.427 -53.887,88.068c0,33.177 36.21,29.92 47.855,14.477c6.032,15.081 -6.376,26.712 -12.065,36.193l36.193,0c-5.689,-9.481 -18.096,-21.112 -12.064,-36.193c11.645,15.443 47.854,18.7 47.854,-14.477c-0.571,-24.641 -38.806,-45.844 -53.886,-88.068Z" style="fill:url(#_Linear2);stroke:#000;stroke-width:0.3px;"/><g id="Center-Text" transform="matrix(0.233905,0,0,0.218311,72.7568,119.065)"><path d="M-55.755,-95.907l28.2,0c3.531,-6.393 7.539,-10.879 12.024,-13.455c4.485,-2.481 9.447,-3.722 14.887,-3.722c6.107,0 11.213,0.859 15.316,2.577c4.104,2.099 7.205,4.914 9.305,8.445c3.912,7.444 5.773,17.13 5.582,29.058c0,4.867 -0.095,9.877 -0.286,15.031c-0.382,5.248 -1.431,10.115 -3.149,14.6c-1.622,4.485 -4.485,8.112 -8.589,10.879c-4.294,2.863 -10.02,4.295 -17.177,4.295c-16.7,-0.191 -26.673,-8.303 -29.917,-24.335l-29.917,0c2.862,19.181 10.258,33.066 22.187,41.655c11.738,8.398 24.668,12.597 38.792,12.597c10.497,-0.191 19.563,-2.625 27.197,-7.301c7.826,-4.485 13.79,-9.447 17.893,-14.887c4.677,-5.535 8.017,-11.881 10.021,-19.038c1.908,-7.252 2.862,-17.654 2.862,-31.205c0,-8.78 -0.286,-16.176 -0.858,-22.188c-0.573,-5.916 -1.527,-10.926 -2.863,-15.03c-2.577,-7.539 -6.776,-14.171 -12.597,-19.897c-3.913,-4.294 -9.018,-7.921 -15.316,-10.879c-6.68,-2.672 -14.029,-4.103 -22.045,-4.294c-12.501,0 -23.618,3.817 -33.352,11.451l0,-47.237l83.023,0l0,-29.917l-111.223,0l0,112.797Z" style="fill:none;"/><path d="M-55.755,-95.907l28.2,0c3.531,-6.393 7.539,-10.879 12.024,-13.455c4.485,-2.481 9.447,-3.722 14.887,-3.722c6.107,0 11.213,0.859 15.316,2.577c4.104,2.099 7.205,4.914 9.305,8.445c3.912,7.444 5.773,17.13 5.582,29.058c0,4.867 -0.095,9.877 -0.286,15.031c-0.382,5.248 -1.431,10.115 -3.149,14.6c-1.622,4.485 -4.485,8.112 -8.589,10.879c-4.294,2.863 -10.02,4.295 -17.177,4.295c-16.7,-0.191 -26.673,-8.303 -29.917,-24.335l-29.917,0c2.862,19.181 10.258,33.066 22.187,41.655c11.738,8.398 24.668,12.597 38.792,12.597c10.497,-0.191 19.563,-2.625 27.197,-7.301c7.826,-4.485 13.79,-9.447 17.893,-14.887c4.677,-5.535 8.017,-11.881 10.021,-19.038c1.908,-7.252 2.862,-17.654 2.862,-31.205c0,-8.78 -0.286,-16.176 -0.858,-22.188c-0.573,-5.916 -1.527,-10.926 -2.863,-15.03c-2.577,-7.539 -6.776,-14.171 -12.597,-19.897c-3.913,-4.294 -9.018,-7.921 -15.316,-10.879c-6.68,-2.672 -14.029,-4.103 -22.045,-4.294c-12.501,0 -23.618,3.817 -33.352,11.451l0,-47.237l83.023,0l0,-29.917l-111.223,0l0,112.797Z" style="fill:#fff;fill-rule:nonzero;"/></g><defs><radialGradient id="_Radial1" cx="0" cy="0" r="1" gradientUnits="userSpaceOnUse" gradientTransform="matrix(126.864,97.3356,-71.3658,95.5156,71.9734,96)"><stop offset="0%" style="stop-color:#fff;stop-opacity:1"/><stop offset="100%" style="stop-color:#dcdcdc;stop-opacity:1"/></radialGradient><linearGradient id="_Linear2" x1="0" y1="0" x2="1" y2="0" gradientUnits="userSpaceOnUse" gradientTransform="matrix(5.72508e-15,93.4976,-93.4976,5.72508e-15,72.6098,26.8226)"><stop offset="0%" style="stop-color:#737373;stop-opacity:1"/><stop offset="100%" style="stop-color:#000;stop-opacity:1"/></linearGradient></defs></svg>