<?xml version="1.0" encoding="UTF-8" standalone="no"?><!DOCTYPE svg PUBLIC "-//W3C//DTD SVG 1.1//EN" "http://www.w3.org/Graphics/SVG/1.1/DTD/svg11.dtd"><svg width="100%" height="100%" viewBox="0 0 144 193" version="1.1" xmlns="http://www.w3.org/2000/svg" xmlns:xlink="http://www.w3.org/1999/xlink" xml:space="preserve" style="fill-rule:evenodd;clip-rule:evenodd;"><path id="Card-background" d="M143.967,10.046c0.018,-5.299 -4.269,-9.614 -9.568,-9.63l-124.799,-0.386c-5.298,-0.017 -9.615,4.272 -9.632,9.57l-0.583,172.799c-0.018,5.298 4.269,9.613 9.567,9.63l124.8,0.386c5.298,0.016 9.614,-4.272 9.632,-9.57l0.583,-172.799Z" style="fill:url(#_Radial1);stroke:#646464;stroke-width:0.22px;"/><g id="Diamonds"><path id="rect3362" d="M72.722,173.198l56.166,-77.971l-56.475,-78.4l-56.167,77.971l56.476,78.4Z" style="fill:url(#_Linear2);stroke:#640000;stroke-width:0.22px;"/></g><g id="text4596"><path d="M62.934,92.353c3.213,-4.17 7.257,-6.255 12.134,-6.255c4.42,0 8.037,1.464 10.852,4.392c2.814,2.928 4.221,6.682 4.221,11.262c0,5.264 -1.578,9.593 -4.734,12.989c-3.156,3.395 -7.161,5.092 -12.014,5.092c-5.583,0 -9.947,-2.244 -13.091,-6.733c-3.145,-4.489 -4.717,-10.721 -4.717,-18.696c0,-8.773 1.806,-15.586 5.418,-20.44c3.611,-4.853 8.698,-7.28 15.261,-7.28c3.008,0 6.767,0.638 11.279,1.914l0,5.879c-4.762,-1.823 -8.659,-2.734 -11.689,-2.734c-8.614,0 -12.92,6.87 -12.92,20.61Zm20.439,10.903c0,-3.828 -0.86,-6.836 -2.58,-9.023c-1.721,-2.188 -4.108,-3.281 -7.161,-3.281c-2.848,0 -5.298,0.957 -7.349,2.871c-2.05,1.914 -3.076,4.215 -3.076,6.904c0,4.238 0.974,7.639 2.923,10.203c1.948,2.563 4.528,3.845 7.741,3.845c2.894,0 5.201,-1.043 6.922,-3.128c1.72,-2.085 2.58,-4.882 2.58,-8.391Z" style="fill:url(#_Linear3);fill-rule:nonzero;"/></g><defs><radialGradient id="_Radial1" cx="0" cy="0" r="1" gradientUnits="userSpaceOnUse" gradientTransform="matrix(126.562,97.7279,-71.6611,95.2942,71.6758,96.2223)"><stop offset="0%" style="stop-color:#fff;stop-opacity:1"/><stop offset="100%" style="stop-color:#dcdcdc;stop-opacity:1"/></radialGradient><linearGradient id="_Linear2" x1="0" y1="0" x2="1" y2="0" gradientUnits="userSpaceOnUse" gradientTransform="matrix(-1.32519,159.293,-114.746,-1.83965,71.9018,16.3582)"><stop offset="0%" style="stop-color:#e00000;stop-opacity:1"/><stop offset="100%" style="stop-color:#810000;stop-opacity:1"/></linearGradient><linearGradient id="_Linear3" x1="0" y1="0" x2="1" y2="0" gradientUnits="userSpaceOnUse" gradientTransform="matrix(0.0983952,31.9224,-31.9224,0.0983952,128.535,196.086)"><stop offset="0%" style="stop-color:#fff;stop-opacity:1"/><stop offset="100%" style="stop-color:#dcdcdc;stop-opacity:1"/></linearGradient></defs></svg>