<?xml version="1.0" encoding="UTF-8" standalone="no"?><!DOCTYPE svg PUBLIC "-//W3C//DTD SVG 1.1//EN" "http://www.w3.org/Graphics/SVG/1.1/DTD/svg11.dtd"><svg width="100%" height="100%" viewBox="0 0 144 193" version="1.1" xmlns="http://www.w3.org/2000/svg" xmlns:xlink="http://www.w3.org/1999/xlink" xml:space="preserve" style="fill-rule:evenodd;clip-rule:evenodd;"><path id="Card-background" d="M143.967,10.046c0.018,-5.299 -4.269,-9.614 -9.568,-9.63l-124.799,-0.386c-5.298,-0.017 -9.615,4.272 -9.632,9.57l-0.583,172.799c-0.018,5.298 4.269,9.613 9.567,9.63l124.8,0.386c5.298,0.016 9.614,-4.272 9.632,-9.57l0.583,-172.799Z" style="fill:url(#_Radial1);stroke:#646464;stroke-width:0.22px;"/><g id="Hearts"><path id="path7647" d="M36.578,29.053c-9.303,-0.077 -18.74,4.742 -26.068,19.429c-21.094,42.279 62.32,102.511 61.825,124.423l0,0.485c0,0 0.203,-0.199 0.248,-0.242c0.045,0.043 0.247,0.242 0.247,0.242l0,-0.485c0,-18.713 82.919,-82.144 61.825,-124.423c-21.079,-42.248 -59.505,-2.956 -62.072,-0.258c-1.673,-1.758 -18.546,-19.028 -36.005,-19.171l0,0Z" style="fill:url(#_Linear2);stroke:url(#_Linear3);stroke-width:0.31px;"/></g><g id="text4596"><path d="M67.001,91.02c-4.945,-3.441 -7.417,-7.246 -7.417,-11.416c0,-3.828 1.401,-6.939 4.204,-9.331c2.803,-2.393 6.46,-3.589 10.972,-3.589c4.17,0 7.548,1.014 10.134,3.042c2.586,2.028 3.88,4.66 3.88,7.895c0,4.9 -3.145,9.366 -9.434,13.399c7.633,3.737 11.45,8.556 11.45,14.458c0,4.238 -1.601,7.69 -4.802,10.356c-3.202,2.666 -7.332,3.999 -12.39,3.999c-4.968,0 -8.984,-1.259 -12.049,-3.776c-3.064,-2.518 -4.597,-5.828 -4.597,-9.93c0,-6.061 3.35,-11.097 10.049,-15.107Zm8.579,-2.119c4.717,-3.099 7.075,-6.551 7.075,-10.357c0,-2.028 -0.786,-3.663 -2.358,-4.904c-1.572,-1.242 -3.646,-1.863 -6.221,-1.863c-2.483,0 -4.5,0.609 -6.049,1.828c-1.55,1.219 -2.325,2.797 -2.325,4.734c0,1.892 0.701,3.583 2.102,5.076c1.402,1.492 3.994,3.321 7.776,5.486Zm-4.922,4.853c-2.711,2.097 -4.551,3.925 -5.52,5.486c-0.968,1.561 -1.452,3.504 -1.452,5.828c0,2.894 0.934,5.235 2.802,7.024c1.869,1.788 4.33,2.683 7.383,2.683c2.94,0 5.338,-0.764 7.195,-2.29c1.857,-1.527 2.786,-3.509 2.786,-5.947c0,-1.96 -0.576,-3.618 -1.726,-4.974c-1.151,-1.355 -3.378,-3.013 -6.683,-4.973l-4.785,-2.837Z" style="fill:url(#_Linear4);fill-rule:nonzero;"/></g><defs><radialGradient id="_Radial1" cx="0" cy="0" r="1" gradientUnits="userSpaceOnUse" gradientTransform="matrix(126.562,97.7279,-71.6611,95.2942,71.6758,96.2223)"><stop offset="0%" style="stop-color:#fff;stop-opacity:1"/><stop offset="100%" style="stop-color:#dcdcdc;stop-opacity:1"/></radialGradient><linearGradient id="_Linear2" x1="0" y1="0" x2="1" y2="0" gradientUnits="userSpaceOnUse" gradientTransform="matrix(3.11598,118.663,-118.663,3.11598,72.83,29.7456)"><stop offset="0%" style="stop-color:#e00000;stop-opacity:1"/><stop offset="100%" style="stop-color:#560000;stop-opacity:1"/></linearGradient><linearGradient id="_Linear3" x1="0" y1="0" x2="1" y2="0" gradientUnits="userSpaceOnUse" gradientTransform="matrix(3.11598,118.663,-118.663,3.11598,72.83,29.7456)"><stop offset="0%" style="stop-color:#e00000;stop-opacity:1"/><stop offset="100%" style="stop-color:#560000;stop-opacity:1"/></linearGradient><linearGradient id="_Linear4" x1="0" y1="0" x2="1" y2="0" gradientUnits="userSpaceOnUse" gradientTransform="matrix(0.0983952,31.9224,-31.9224,0.0983952,128.535,196.086)"><stop offset="0%" style="stop-color:#fff;stop-opacity:1"/><stop offset="100%" style="stop-color:#dcdcdc;stop-opacity:1"/></linearGradient></defs></svg>