<?xml version="1.0" encoding="UTF-8" standalone="no"?><!DOCTYPE svg PUBLIC "-//W3C//DTD SVG 1.1//EN" "http://www.w3.org/Graphics/SVG/1.1/DTD/svg11.dtd"><svg width="100%" height="100%" viewBox="0 0 144 193" version="1.1" xmlns="http://www.w3.org/2000/svg" xmlns:xlink="http://www.w3.org/1999/xlink" xml:space="preserve" style="fill-rule:evenodd;clip-rule:evenodd;"><path id="Card-background" d="M143.997,9.6c0.002,-5.298 -4.272,-9.6 -9.538,-9.6l-124.918,0c-5.266,0 -9.542,4.302 -9.544,9.6l-0.048,172.8c-0.001,5.298 4.273,9.6 9.539,9.6l124.917,0c5.266,0 9.543,-4.302 9.544,-9.6l0.048,-172.8Z" style="fill:url(#_Radial1);stroke:#646464;stroke-width:0.22px;"/><path id="Hearts" d="M37.831,34.336c-8.806,-0.069 -17.739,4.31 -24.675,17.655c-19.967,38.417 58.99,93.148 58.522,113.058l0,0.441c0,0 0.192,-0.181 0.234,-0.22c0.043,0.039 0.234,0.22 0.234,0.22l0,-0.441c0,-17.004 78.489,-74.641 58.522,-113.058c-19.953,-38.389 -56.326,-2.686 -58.756,-0.234c-1.583,-1.598 -17.554,-17.291 -34.081,-17.421l0,0Z" style="fill:url(#_Linear2);stroke:url(#_Linear3);stroke-width:0.29px;"/><g id="Center-Text" transform="matrix(0.233905,0,0,0.218311,72.7568,119.065)"><path d="M-59.19,-131.263c-0.191,20.04 4.485,34.688 14.028,43.945c9.543,9.543 21.09,14.219 34.641,14.028c12.31,0.191 25.575,-1.956 39.794,-6.441l0,19.61c-0.573,21.09 -10.354,31.731 -29.345,31.922c-13.455,0 -22.521,-5.822 -27.197,-17.464l-30.776,0c3.149,15.173 10.163,26.768 21.042,34.784c10.784,8.207 23.094,12.406 36.931,12.597c16.223,-0.191 30.013,-5.44 41.369,-15.746c11.547,-10.402 17.511,-25.194 17.893,-44.375l0,-92.042c-0.382,-19.276 -6.346,-34.116 -17.893,-44.518c-11.356,-10.306 -25.146,-15.459 -41.369,-15.459c-15.745,0 -29.296,5.153 -40.653,15.459c-12.119,10.402 -18.274,25.242 -18.465,44.518l0,19.182Zm29.917,-17.321c0.382,-20.899 10.116,-31.539 29.201,-31.921c18.991,0.382 28.772,11.022 29.345,31.921l0,17.034c-0.573,21.09 -10.354,31.731 -29.345,31.922c-19.085,-0.191 -28.819,-10.832 -29.201,-31.922l0,-17.034Z" style="fill:none;"/><path d="M-59.19,-131.263c-0.191,20.04 4.485,34.688 14.028,43.945c9.543,9.543 21.09,14.219 34.641,14.028c12.31,0.191 25.575,-1.956 39.794,-6.441l0,19.61c-0.573,21.09 -10.354,31.731 -29.345,31.922c-13.455,0 -22.521,-5.822 -27.197,-17.464l-30.776,0c3.149,15.173 10.163,26.768 21.042,34.784c10.784,8.207 23.094,12.406 36.931,12.597c16.223,-0.191 30.013,-5.44 41.369,-15.746c11.547,-10.402 17.511,-25.194 17.893,-44.375l0,-92.042c-0.382,-19.276 -6.346,-34.116 -17.893,-44.518c-11.356,-10.306 -25.146,-15.459 -41.369,-15.459c-15.745,0 -29.296,5.153 -40.653,15.459c-12.119,10.402 -18.274,25.242 -18.465,44.518l0,19.182Zm29.917,-17.321c0.382,-20.899 10.116,-31.539 29.201,-31.921c18.991,0.382 28.772,11.022 29.345,31.921l0,17.034c-0.573,21.09 -10.354,31.731 -29.345,31.922c-19.085,-0.191 -28.819,-10.832 -29.201,-31.922l0,-17.034Z" style="fill:#fff;fill-rule:nonzero;"/></g><defs><radialGradient id="_Radial1" cx="0" cy="0" r="1" gradientUnits="userSpaceOnUse" gradientTransform="matrix(126.864,97.3356,-71.3658,95.5156,71.9734,96)"><stop offset="0%" style="stop-color:#fff;stop-opacity:1"/><stop offset="100%" style="stop-color:#dcdcdc;stop-opacity:1"/></radialGradient><linearGradient id="_Linear2" x1="0" y1="0" x2="1" y2="0" gradientUnits="userSpaceOnUse" gradientTransform="matrix(2.9495,107.824,-112.323,2.83136,72.1461,34.9661)"><stop offset="0%" style="stop-color:#e00000;stop-opacity:1"/><stop offset="100%" style="stop-color:#560000;stop-opacity:1"/></linearGradient><linearGradient id="_Linear3" x1="0" y1="0" x2="1" y2="0" gradientUnits="userSpaceOnUse" gradientTransform="matrix(2.9495,107.824,-112.323,2.83136,72.1461,34.9661)"><stop offset="0%" style="stop-color:#e00000;stop-opacity:1"/><stop offset="100%" style="stop-color:#560000;stop-opacity:1"/></linearGradient></defs></svg>