<?xml version="1.0" encoding="UTF-8" standalone="no"?><!DOCTYPE svg PUBLIC "-//W3C//DTD SVG 1.1//EN" "http://www.w3.org/Graphics/SVG/1.1/DTD/svg11.dtd"><svg width="100%" height="100%" viewBox="0 0 144 193" version="1.1" xmlns="http://www.w3.org/2000/svg" xmlns:xlink="http://www.w3.org/1999/xlink" xml:space="preserve" style="fill-rule:evenodd;clip-rule:evenodd;"><path id="Card-background" d="M143.997,9.6c0.002,-5.298 -4.272,-9.6 -9.538,-9.6l-124.918,0c-5.266,0 -9.542,4.302 -9.544,9.6l-0.048,172.8c-0.001,5.298 4.273,9.6 9.539,9.6l124.917,0c5.266,0 9.543,-4.302 9.544,-9.6l0.048,-172.8Z" style="fill:url(#_Radial1);stroke:#646464;stroke-width:0.22px;"/><path id="Hearts" d="M37.831,34.336c-8.806,-0.069 -17.739,4.31 -24.675,17.655c-19.967,38.417 58.99,93.148 58.522,113.058l0,0.441c0,0 0.192,-0.181 0.234,-0.22c0.043,0.039 0.234,0.22 0.234,0.22l0,-0.441c0,-17.004 78.489,-74.641 58.522,-113.058c-19.953,-38.389 -56.326,-2.686 -58.756,-0.234c-1.583,-1.598 -17.554,-17.291 -34.081,-17.421l0,0Z" style="fill:url(#_Linear2);stroke:url(#_Linear3);stroke-width:0.29px;"/><g id="Center-Text" transform="matrix(0.233905,0,0,0.218311,72.7568,119.065)"><path d="M-44.733,-43.945l-25.479,18.465c11.928,17.559 30.012,26.625 54.251,27.198c17.559,-0.191 32.971,-6.155 46.236,-17.893c13.36,-11.452 20.231,-27.675 20.613,-48.669l0,-143.86l-31.635,0l0,140.71c0,7.062 -1.098,12.931 -3.292,17.607c-2.1,4.867 -5.01,8.78 -8.732,11.738c-7.635,6.012 -15.651,8.923 -24.048,8.732c-6.299,0 -11.786,-1.479 -16.462,-4.438c-4.676,-2.481 -8.493,-5.678 -11.452,-9.59Z" style="fill:none;"/><path d="M-44.733,-43.945l-25.479,18.465c11.928,17.559 30.012,26.625 54.251,27.198c17.559,-0.191 32.971,-6.155 46.236,-17.893c13.36,-11.452 20.231,-27.675 20.613,-48.669l0,-143.86l-31.635,0l0,140.71c0,7.062 -1.098,12.931 -3.292,17.607c-2.1,4.867 -5.01,8.78 -8.732,11.738c-7.635,6.012 -15.651,8.923 -24.048,8.732c-6.299,0 -11.786,-1.479 -16.462,-4.438c-4.676,-2.481 -8.493,-5.678 -11.452,-9.59Z" style="fill:#fff;fill-rule:nonzero;"/></g><defs><radialGradient id="_Radial1" cx="0" cy="0" r="1" gradientUnits="userSpaceOnUse" gradientTransform="matrix(126.864,97.3356,-71.3658,95.5156,71.9734,96)"><stop offset="0%" style="stop-color:#fff;stop-opacity:1"/><stop offset="100%" style="stop-color:#dcdcdc;stop-opacity:1"/></radialGradient><linearGradient id="_Linear2" x1="0" y1="0" x2="1" y2="0" gradientUnits="userSpaceOnUse" gradientTransform="matrix(2.9495,107.824,-112.323,2.83136,72.1461,34.9661)"><stop offset="0%" style="stop-color:#e00000;stop-opacity:1"/><stop offset="100%" style="stop-color:#560000;stop-opacity:1"/></linearGradient><linearGradient id="_Linear3" x1="0" y1="0" x2="1" y2="0" gradientUnits="userSpaceOnUse" gradientTransform="matrix(2.9495,107.824,-112.323,2.83136,72.1461,34.9661)"><stop offset="0%" style="stop-color:#e00000;stop-opacity:1"/><stop offset="100%" style="stop-color:#560000;stop-opacity:1"/></linearGradient></defs></svg>