<?xml version="1.0" encoding="UTF-8" standalone="no"?><!DOCTYPE svg PUBLIC "-//W3C//DTD SVG 1.1//EN" "http://www.w3.org/Graphics/SVG/1.1/DTD/svg11.dtd"><svg width="100%" height="100%" viewBox="0 0 144 193" version="1.1" xmlns="http://www.w3.org/2000/svg" xmlns:xlink="http://www.w3.org/1999/xlink" xml:space="preserve" style="fill-rule:evenodd;clip-rule:evenodd;"><path id="Card-background" d="M143.967,10.046c0.018,-5.299 -4.269,-9.614 -9.568,-9.63l-124.799,-0.386c-5.298,-0.017 -9.615,4.272 -9.632,9.57l-0.583,172.799c-0.018,5.298 4.269,9.613 9.567,9.63l124.8,0.386c5.298,0.016 9.614,-4.272 9.632,-9.57l0.583,-172.799Z" style="fill:url(#_Radial1);stroke:#646464;stroke-width:0.22px;"/><g id="Clubs"><path id="path7930" d="M72.58,22.319c-19.672,0 -35.859,15.393 -35.859,34.099c0,0 0,0 0,0c0.016,8.205 3.146,16.135 8.812,22.324c-1.644,-0.248 -3.305,-0.379 -4.97,-0.393c-18.442,0 -33.618,14.454 -33.618,32.018c0,17.564 15.176,32.017 33.618,32.017c9.76,-0.007 19.049,-4.062 25.426,-11.099c5.274,15.414 -7.376,27.387 -13.26,37.193l38.421,0c-5.919,-9.865 -18.685,-21.921 -13.164,-37.468c6.373,7.196 15.766,11.361 25.651,11.374c18.442,0 33.618,-14.453 33.618,-32.017c0,-17.564 -15.176,-32.018 -33.618,-32.018c-1.284,0.014 -2.566,0.097 -3.84,0.249c5.57,-6.174 8.637,-14.045 8.642,-22.18c0,0 0,0 0,0c0,-18.706 -16.187,-34.099 -35.859,-34.099l0,0Z" style="fill:url(#_Linear2);stroke:#000;stroke-width:0.32px;"/></g><g id="text4596"><path d="M97.284,128.686c-7.952,-2.575 -14.617,-5.64 -19.995,-9.194c-2.142,0.227 -3.794,0.341 -4.956,0.341c-6.79,0 -12.31,-2.461 -16.56,-7.382c-4.25,-4.922 -6.374,-11.314 -6.374,-19.175c0,-8.067 2.147,-14.509 6.442,-19.329c4.296,-4.819 10.032,-7.229 17.21,-7.229c7.2,0 12.943,2.416 17.226,7.246c4.284,4.831 6.426,11.302 6.426,19.414c0,11.621 -4.318,19.665 -12.954,24.131c5.811,2.552 11.838,4.375 18.081,5.469l-4.546,5.708Zm-24.438,-14.219c5.172,0 9.171,-1.857 11.997,-5.571c2.825,-3.714 4.238,-8.967 4.238,-15.757c0,-6.585 -1.413,-11.741 -4.238,-15.466c-2.826,-3.726 -6.756,-5.589 -11.792,-5.589c-5.036,0 -8.967,1.863 -11.792,5.589c-2.826,3.725 -4.238,8.904 -4.238,15.534c0,6.609 1.401,11.804 4.204,15.586c2.802,3.783 6.676,5.674 11.621,5.674Z" style="fill:url(#_Linear3);fill-rule:nonzero;"/></g><defs><radialGradient id="_Radial1" cx="0" cy="0" r="1" gradientUnits="userSpaceOnUse" gradientTransform="matrix(126.562,97.7279,-71.6611,95.2942,71.6758,96.2223)"><stop offset="0%" style="stop-color:#fff;stop-opacity:1"/><stop offset="100%" style="stop-color:#dcdcdc;stop-opacity:1"/></radialGradient><linearGradient id="_Linear2" x1="0" y1="0" x2="1" y2="0" gradientUnits="userSpaceOnUse" gradientTransform="matrix(-1.28069,99.2531,-99.2531,-1.28069,73.2204,21.3591)"><stop offset="0%" style="stop-color:#737373;stop-opacity:1"/><stop offset="100%" style="stop-color:#000;stop-opacity:1"/></linearGradient><linearGradient id="_Linear3" x1="0" y1="0" x2="1" y2="0" gradientUnits="userSpaceOnUse" gradientTransform="matrix(0.0983952,31.9224,-31.9224,0.0983952,128.535,196.086)"><stop offset="0%" style="stop-color:#fff;stop-opacity:1"/><stop offset="100%" style="stop-color:#dcdcdc;stop-opacity:1"/></linearGradient></defs></svg>