<?xml version="1.0" encoding="UTF-8" standalone="no"?><!DOCTYPE svg PUBLIC "-//W3C//DTD SVG 1.1//EN" "http://www.w3.org/Graphics/SVG/1.1/DTD/svg11.dtd"><svg width="100%" height="100%" viewBox="0 0 144 193" version="1.1" xmlns="http://www.w3.org/2000/svg" xmlns:xlink="http://www.w3.org/1999/xlink" xml:space="preserve" style="fill-rule:evenodd;clip-rule:evenodd;"><path id="Card-background" d="M143.967,10.046c0.018,-5.299 -4.269,-9.614 -9.568,-9.63l-124.799,-0.386c-5.298,-0.017 -9.615,4.272 -9.632,9.57l-0.583,172.799c-0.018,5.298 4.269,9.613 9.567,9.63l124.8,0.386c5.298,0.016 9.614,-4.272 9.632,-9.57l0.583,-172.799Z" style="fill:url(#_Radial1);stroke:#646464;stroke-width:0.22px;"/><g id="Hearts"><path id="path7647" d="M36.578,29.053c-9.303,-0.077 -18.74,4.742 -26.068,19.429c-21.094,42.279 62.32,102.511 61.825,124.423l0,0.485c0,0 0.203,-0.199 0.248,-0.242c0.045,0.043 0.247,0.242 0.247,0.242l0,-0.485c0,-18.713 82.919,-82.144 61.825,-124.423c-21.079,-42.248 -59.505,-2.956 -62.072,-0.258c-1.673,-1.758 -18.546,-19.028 -36.005,-19.171l0,0Z" style="fill:url(#_Linear2);stroke:url(#_Linear3);stroke-width:0.31px;"/></g><g id="text4596"><path d="M43.918,118.569l0,-5.059l10.118,0l0,-39.922l-10.118,2.53l0,-5.196l16.885,-4.204l0,46.792l10.117,0l0,5.059l-27.002,0Z" style="fill:url(#_Linear4);fill-rule:nonzero;"/><path d="M86.997,119.833c-5.218,0 -9.439,-2.455 -12.663,-7.365c-3.225,-4.911 -4.837,-11.319 -4.837,-19.226c0,-7.976 1.624,-14.39 4.871,-19.244c3.247,-4.853 7.525,-7.28 12.834,-7.28c5.31,0 9.588,2.427 12.835,7.28c3.247,4.854 4.87,11.234 4.87,19.141c0,8.112 -1.623,14.589 -4.87,19.431c-3.247,4.842 -7.594,7.263 -13.04,7.263Zm0.069,-5.058c7.132,0 10.698,-7.246 10.698,-21.738c0,-14.174 -3.521,-21.26 -10.562,-21.26c-7.018,0 -10.527,7.155 -10.527,21.465c0,14.355 3.463,21.533 10.391,21.533Z" style="fill:url(#_Linear5);fill-rule:nonzero;"/></g><defs><radialGradient id="_Radial1" cx="0" cy="0" r="1" gradientUnits="userSpaceOnUse" gradientTransform="matrix(126.562,97.7279,-71.6611,95.2942,71.6758,96.2223)"><stop offset="0%" style="stop-color:#fff;stop-opacity:1"/><stop offset="100%" style="stop-color:#dcdcdc;stop-opacity:1"/></radialGradient><linearGradient id="_Linear2" x1="0" y1="0" x2="1" y2="0" gradientUnits="userSpaceOnUse" gradientTransform="matrix(3.11598,118.663,-118.663,3.11598,72.83,29.7456)"><stop offset="0%" style="stop-color:#e00000;stop-opacity:1"/><stop offset="100%" style="stop-color:#560000;stop-opacity:1"/></linearGradient><linearGradient id="_Linear3" x1="0" y1="0" x2="1" y2="0" gradientUnits="userSpaceOnUse" gradientTransform="matrix(3.11598,118.663,-118.663,3.11598,72.83,29.7456)"><stop offset="0%" style="stop-color:#e00000;stop-opacity:1"/><stop offset="100%" style="stop-color:#560000;stop-opacity:1"/></linearGradient><linearGradient id="_Linear4" x1="0" y1="0" x2="1" y2="0" gradientUnits="userSpaceOnUse" gradientTransform="matrix(0.0983952,31.9224,-31.9224,0.0983952,126.855,196.086)"><stop offset="0%" style="stop-color:#fff;stop-opacity:1"/><stop offset="100%" style="stop-color:#dcdcdc;stop-opacity:1"/></linearGradient><linearGradient id="_Linear5" x1="0" y1="0" x2="1" y2="0" gradientUnits="userSpaceOnUse" gradientTransform="matrix(0.0983952,31.9224,-31.9224,0.0983952,126.855,196.086)"><stop offset="0%" style="stop-color:#fff;stop-opacity:1"/><stop offset="100%" style="stop-color:#dcdcdc;stop-opacity:1"/></linearGradient></defs></svg>