<?xml version="1.0" encoding="UTF-8" standalone="no"?><!DOCTYPE svg PUBLIC "-//W3C//DTD SVG 1.1//EN" "http://www.w3.org/Graphics/SVG/1.1/DTD/svg11.dtd"><svg width="100%" height="100%" viewBox="0 0 144 193" version="1.1" xmlns="http://www.w3.org/2000/svg" xmlns:xlink="http://www.w3.org/1999/xlink" xml:space="preserve" style="fill-rule:evenodd;clip-rule:evenodd;"><path id="Card-background" d="M143.997,9.6c0.002,-5.298 -4.272,-9.6 -9.538,-9.6l-124.918,0c-5.266,0 -9.542,4.302 -9.544,9.6l-0.048,172.8c-0.001,5.298 4.273,9.6 9.539,9.6l124.917,0c5.266,0 9.543,-4.302 9.544,-9.6l0.048,-172.8Z" style="fill:url(#_Radial1);stroke:#646464;stroke-width:0.22px;"/><path id="Spades" d="M72.61,26.672c-15.08,42.224 -53.316,63.427 -53.887,88.068c0,33.177 36.21,29.92 47.855,14.477c6.032,15.081 -6.376,26.712 -12.065,36.193l36.193,0c-5.689,-9.481 -18.096,-21.112 -12.064,-36.193c11.645,15.443 47.854,18.7 47.854,-14.477c-0.571,-24.641 -38.806,-45.844 -53.886,-88.068Z" style="fill:url(#_Linear2);stroke:#000;stroke-width:0.3px;"/><g id="Center-Text" transform="matrix(0.233905,0,0,0.218311,71.0768,119.065)"><path d="M-65.56,-177.07l0,177.07l29.917,0l0,-208.704l-29.917,0l-29.631,21.614l0,31.778l29.631,-21.758Z" style="fill:none;"/><path d="M81.306,-60.121c-0.573,21.09 -10.354,31.731 -29.345,31.922c-19.086,-0.191 -28.819,-10.832 -29.201,-31.922l0,-88.463c0.382,-20.899 10.115,-31.539 29.201,-31.921c18.991,0.382 28.772,11.022 29.345,31.921l0,88.463Zm-88.463,1.718c0.191,19.181 6.346,33.973 18.465,44.375c11.357,10.306 24.908,15.555 40.653,15.746c16.223,-0.191 30.013,-5.44 41.369,-15.746c11.547,-10.402 17.511,-25.194 17.893,-44.375l0,-92.042c-0.382,-19.276 -6.346,-34.116 -17.893,-44.518c-11.356,-10.306 -25.146,-15.459 -41.369,-15.459c-15.745,0 -29.296,5.153 -40.653,15.459c-12.119,10.402 -18.274,25.242 -18.465,44.518l0,92.042Z" style="fill:none;"/><path d="M-65.56,-177.07l0,177.07l29.917,0l0,-208.704l-29.917,0l-29.631,21.614l0,31.778l29.631,-21.758Z" style="fill:#fff;fill-rule:nonzero;"/><path d="M81.306,-60.121c-0.573,21.09 -10.354,31.731 -29.345,31.922c-19.086,-0.191 -28.819,-10.832 -29.201,-31.922l0,-88.463c0.382,-20.899 10.115,-31.539 29.201,-31.921c18.991,0.382 28.772,11.022 29.345,31.921l0,88.463Zm-88.463,1.718c0.191,19.181 6.346,33.973 18.465,44.375c11.357,10.306 24.908,15.555 40.653,15.746c16.223,-0.191 30.013,-5.44 41.369,-15.746c11.547,-10.402 17.511,-25.194 17.893,-44.375l0,-92.042c-0.382,-19.276 -6.346,-34.116 -17.893,-44.518c-11.356,-10.306 -25.146,-15.459 -41.369,-15.459c-15.745,0 -29.296,5.153 -40.653,15.459c-12.119,10.402 -18.274,25.242 -18.465,44.518l0,92.042Z" style="fill:#fff;fill-rule:nonzero;"/></g><defs><radialGradient id="_Radial1" cx="0" cy="0" r="1" gradientUnits="userSpaceOnUse" gradientTransform="matrix(126.864,97.3356,-71.3658,95.5156,71.9734,96)"><stop offset="0%" style="stop-color:#fff;stop-opacity:1"/><stop offset="100%" style="stop-color:#dcdcdc;stop-opacity:1"/></radialGradient><linearGradient id="_Linear2" x1="0" y1="0" x2="1" y2="0" gradientUnits="userSpaceOnUse" gradientTransform="matrix(5.72508e-15,93.4976,-93.4976,5.72508e-15,72.6098,26.8226)"><stop offset="0%" style="stop-color:#737373;stop-opacity:1"/><stop offset="100%" style="stop-color:#000;stop-opacity:1"/></linearGradient></defs></svg>