<?xml version="1.0" encoding="UTF-8" standalone="no"?><!DOCTYPE svg PUBLIC "-//W3C//DTD SVG 1.1//EN" "http://www.w3.org/Graphics/SVG/1.1/DTD/svg11.dtd"><svg width="100%" height="100%" viewBox="0 0 200 200" version="1.1" xmlns="http://www.w3.org/2000/svg" xmlns:xlink="http://www.w3.org/1999/xlink" xml:space="preserve" xmlns:serif="http://www.serif.com/" style="fill-rule:evenodd;clip-rule:evenodd;stroke-linejoin:round;stroke-miterlimit:1.41421;"><path d="M250.014,159.397l-218.352,-218.232l-45.476,45.501l218.351,218.232l45.477,-45.501Zm-119.856,-55.947l24.37,-10.846l2.51,2.51l-10.401,24.814l-2.655,-2.654l3.279,-7.387l-7.362,-7.362l-7.267,3.399l-2.474,-2.474Zm12.311,-2.15l5.969,5.969l3.039,-6.714c0.921,-2.042 1.721,-3.675 2.402,-4.9c-1.353,0.905 -2.79,1.709 -4.312,2.414l-7.098,3.231Zm-19.097,-4.636l15.53,-15.53l-5.801,-5.801l2.078,-2.078l13.956,13.956l-2.078,2.078l-5.825,-5.825l-15.53,15.53l-2.33,-2.33Zm-20.838,-20.839l17.607,-17.607l12.732,12.731l-2.078,2.078l-10.401,-10.401l-5.393,5.393l9.74,9.74l-2.065,2.066l-9.741,-9.741l-5.993,5.994l10.809,10.809l-2.078,2.078l-13.139,-13.14Zm-16.551,-16.55l17.608,-17.608l6.606,6.606c1.345,1.345 2.246,2.602 2.702,3.771c0.456,1.169 0.545,2.355 0.264,3.556c-0.28,1.201 -0.824,2.206 -1.633,3.014c-0.753,0.753 -1.666,1.257 -2.739,1.514c-1.073,0.256 -2.226,0.176 -3.459,-0.241c0.753,1.378 1.039,2.729 0.859,4.054c-0.18,1.325 -0.783,2.5 -1.807,3.525c-0.825,0.825 -1.766,1.417 -2.823,1.778c-1.057,0.36 -2.034,0.476 -2.93,0.348c-0.897,-0.128 -1.83,-0.481 -2.799,-1.057c-0.969,-0.577 -2.014,-1.425 -3.135,-2.546l-6.714,-6.714Zm4.408,0.252l4.384,4.384c0.753,0.753 1.309,1.253 1.67,1.501c0.632,0.441 1.241,0.729 1.825,0.865c0.585,0.136 1.207,0.106 1.868,-0.09c0.66,-0.196 1.271,-0.575 1.831,-1.135c0.657,-0.657 1.059,-1.395 1.208,-2.216c0.148,-0.821 0.022,-1.627 -0.379,-2.42c-0.4,-0.793 -1.161,-1.75 -2.282,-2.871l-4.071,-4.071l-6.054,6.053Zm8.131,-8.131l3.808,3.807c1.033,1.033 1.841,1.706 2.426,2.018c0.769,0.416 1.507,0.571 2.216,0.462c0.708,-0.108 1.371,-0.47 1.988,-1.087c0.584,-0.584 0.958,-1.239 1.123,-1.963c0.164,-0.725 0.068,-1.43 -0.289,-2.114c-0.356,-0.685 -1.167,-1.66 -2.432,-2.925l-3.519,-3.519l-5.321,5.321Z" style="fill:#000016;"/></svg>