<?xml version="1.0" encoding="UTF-8" standalone="no"?><!DOCTYPE svg PUBLIC "-//W3C//DTD SVG 1.1//EN" "http://www.w3.org/Graphics/SVG/1.1/DTD/svg11.dtd"><svg width="100%" height="100%" viewBox="0 0 1170 700" version="1.1" xmlns="http://www.w3.org/2000/svg" xmlns:xlink="http://www.w3.org/1999/xlink" xml:space="preserve" xmlns:serif="http://www.serif.com/" style="fill-rule:evenodd;clip-rule:evenodd;stroke-linejoin:round;stroke-miterlimit:1.41421;"><g><path d="M-11.999,191.167l12.616,-11.337l19.764,23.831l15.738,15.08l11.133,15.821l6.772,6.615l11.447,-7.014l21.267,37.52l19.565,22.965l14.846,17.491l14.831,17.132l10.731,17.591c11.816,20.098 27.604,20.874 47.697,26.133l24.462,20.855l27.46,26.03l31.904,15.773l49.619,21.497l37.581,28.176l42.066,37.407l30.976,28.764l36.309,29.433l22.767,18.776l16.535,4.876l3.577,93.037l-528.983,6.256l-0.68,-512.708Z" style="fill:#001734;"/><path d="M1173.24,310.183l-9.996,2.408l-3.118,8.253l-27.447,15.238l-14.191,14.417l-32.221,24.718l-9.671,4.274l-18.107,13.815l-9.503,8.614l-11.445,2.071l-20.927,12.8l-12.92,8.651l-9.215,11.627l-22.73,7.689l-8.291,7.939l-7.806,1.373l-9.155,15.797l-21.681,-0.145l-17.907,12.198l-5.449,-3.262l-17.295,20.282l-8.118,3.453l-7.418,11.978l-32.161,6.149l-9.105,25.149l-18.675,18.039l-12.372,16.817l-23.851,30.399l5.819,91.621l393.907,0.307l1.049,-392.669Z" style="fill:#001734;"/><g><path d="M1202.57,615.693l-53.783,-31.305l-49.079,24.196l-34.07,-16.709l-35.263,8.397l-16.001,3.82l-43.872,-0.078l-25.598,1.468l-39.874,10.944l-38.45,-5.168l-35.682,-10.775l-26.97,11.133l-13.804,12.556l-14.901,18.862l-16.325,1.082l-48.203,36.557l-40.208,42.909l528.524,1.959l3.559,-109.848Z" style="fill:#00000f;"/><path d="M-12.314,671.294l14.136,-8.001l8.255,2.332l9.031,-2.398l36.033,11.751l33.92,1.663l37.257,-22.798l24.951,-9.462l28.798,6.445l62.125,-34.411l5.8,1.042l7.439,-5.635l31.784,12.127l15.271,-4.779l8.289,5.345l14.936,-12.186l11.082,2.051l6.693,-4.774l8.082,4.75c0,0 12.715,-5.507 12.859,-5.507c0.144,0 20.495,5.878 20.495,5.878l10.406,-4.35l31.46,15.776l59.864,-21.428l92.986,46.401l14.11,6.094l23.075,-9.576l28.205,-8.132l40.361,9.034l6.947,5.171l9.573,-2.722l14.129,10.456l34.417,42.71l-760.959,6.394l-1.81,-39.261Z" style="fill:#00000f;"/><path d="M283.686,671.294l14.136,-8.001l8.255,2.332l9.031,-2.398l36.033,11.751l33.92,1.663l37.257,-22.798l24.951,-9.462l28.798,6.445l62.125,-34.411l5.8,1.042l7.439,-5.635l31.784,12.127l15.271,-4.779l8.289,5.345l14.936,-12.186l11.082,2.051l6.693,-4.774l8.082,4.75c0,0 12.715,-5.507 12.859,-5.507c0.144,0 20.495,5.878 20.495,5.878l10.406,-4.35l31.46,15.776l59.864,-21.428l92.986,46.401l14.11,6.094l23.075,-9.576l28.205,-8.132l40.361,9.034l6.947,5.171l9.573,-2.722l14.129,10.456l34.417,42.71l-760.959,6.394l-1.81,-39.261Z" style="fill:#00000f;"/></g></g></svg>