<?xml version="1.0" encoding="UTF-8" standalone="no"?><!DOCTYPE svg PUBLIC "-//W3C//DTD SVG 1.1//EN" "http://www.w3.org/Graphics/SVG/1.1/DTD/svg11.dtd"><svg width="100%" height="100%" viewBox="0 0 133 25" version="1.1" xmlns="http://www.w3.org/2000/svg" xmlns:xlink="http://www.w3.org/1999/xlink" xml:space="preserve" xmlns:serif="http://www.serif.com/" style="fill-rule:evenodd;clip-rule:evenodd;"><g><path id="path8171" d="M5.173,0.005c-1.631,-0.013 -3.288,0.822 -4.573,3.365c-3.702,7.322 10.933,17.752 10.847,21.545l0,0.085c0,0 0.035,-0.034 0.043,-0.043c0.007,0.009 0.043,0.043 0.043,0.043l0,-0.085c0,-3.24 14.548,-14.223 10.847,-21.545c-3.698,-7.316 -10.44,-0.511 -10.89,-0.044c-0.293,-0.305 -3.253,-3.295 -6.317,-3.321l0,0Z" style="fill:url(#_Linear1);stroke:url(#_Linear2);stroke-width:0.06px;"/><path id="rect6977" d="M84.007,25l8.959,-12.466l-9.008,-12.534l-8.958,12.466l9.007,12.534Z" style="fill:url(#_Linear3);stroke:#640100;stroke-width:0.04px;"/><path id="path7954" d="M122.686,0c-2.85,7.609 -10.079,11.429 -10.186,15.869c0,5.978 6.845,5.391 9.046,2.609c1.14,2.718 -1.206,4.813 -2.281,6.522l6.843,0c-1.076,-1.709 -3.422,-3.804 -2.281,-6.522c2.201,2.782 9.046,3.369 9.046,-2.609c-0.108,-4.44 -7.335,-8.26 -10.187,-15.869l0,0Z" style="fill:url(#_Linear4);stroke:#000;stroke-width:0.05px;"/><path id="path7975" d="M48.312,0c-3.241,0 -5.908,2.633 -5.908,5.833c0.003,1.404 0.519,2.76 1.452,3.818c-0.271,-0.042 -0.545,-0.065 -0.819,-0.066c-3.037,0 -5.537,2.472 -5.537,5.475c0,3.005 2.5,5.477 5.537,5.477c1.608,-0.001 3.138,-0.695 4.189,-1.898c0.868,2.636 -1.215,4.684 -2.184,6.361l6.329,0c-0.975,-1.687 -3.078,-3.749 -2.169,-6.408c1.05,1.231 2.596,1.943 4.226,1.945c3.037,0 5.537,-2.472 5.537,-5.477c0,-3.003 -2.5,-5.475 -5.537,-5.475c-0.212,0.001 -0.423,0.015 -0.633,0.042c0.917,-1.057 1.423,-2.403 1.423,-3.794c0,-3.2 -2.666,-5.833 -5.906,-5.833Z" style="fill:url(#_Linear5);stroke:#000;stroke-width:0.05px;"/></g><defs><linearGradient id="_Linear1" x1="0" y1="0" x2="1" y2="0" gradientUnits="userSpaceOnUse" gradientTransform="matrix(0.546694,20.5479,-20.5479,0.546694,11.5334,0.125635)"><stop offset="0" style="stop-color:#e00300;stop-opacity:1"/><stop offset="1" style="stop-color:#560000;stop-opacity:1"/></linearGradient><linearGradient id="_Linear2" x1="0" y1="0" x2="1" y2="0" gradientUnits="userSpaceOnUse" gradientTransform="matrix(0.546694,20.5479,-20.5479,0.546694,11.5334,0.125635)"><stop offset="0" style="stop-color:#e00300;stop-opacity:1"/><stop offset="1" style="stop-color:#560000;stop-opacity:1"/></linearGradient><linearGradient id="_Linear3" x1="0" y1="0" x2="1" y2="0" gradientUnits="userSpaceOnUse" gradientTransform="matrix(-0.211372,25.467,-25.467,-0.211372,83.8766,-0.0751014)"><stop offset="0" style="stop-color:#e00300;stop-opacity:1"/><stop offset="1" style="stop-color:#810100;stop-opacity:1"/></linearGradient><linearGradient id="_Linear4" x1="0" y1="0" x2="1" y2="0" gradientUnits="userSpaceOnUse" gradientTransform="matrix(1.03162e-15,16.8476,-16.8476,1.03162e-15,122.686,0.0269072)"><stop offset="0" style="stop-color:#737373;stop-opacity:1"/><stop offset="1" style="stop-color:#000;stop-opacity:1"/></linearGradient><linearGradient id="_Linear5" x1="0" y1="0" x2="1" y2="0" gradientUnits="userSpaceOnUse" gradientTransform="matrix(-0.210957,16.977,-16.977,-0.210957,48.417,-0.163823)"><stop offset="0" style="stop-color:#737373;stop-opacity:1"/><stop offset="1" style="stop-color:#000;stop-opacity:1"/></linearGradient></defs></svg>