<?xml version="1.0" encoding="UTF-8" standalone="no"?><!DOCTYPE svg PUBLIC "-//W3C//DTD SVG 1.1//EN" "http://www.w3.org/Graphics/SVG/1.1/DTD/svg11.dtd"><svg width="100%" height="100%" viewBox="0 0 50 50" version="1.1" xmlns="http://www.w3.org/2000/svg" xmlns:xlink="http://www.w3.org/1999/xlink" xml:space="preserve" xmlns:serif="http://www.serif.com/" style="fill-rule:evenodd;clip-rule:evenodd;stroke-linejoin:round;stroke-miterlimit:1.41421;"><g><path d="M0.63,0c0,0 2.997,4.906 4.796,7.142c4.455,5.536 11.806,11.977 20.26,18.326c3.363,2.527 8.486,6.749 8.965,6.571c1.587,-0.59 1.931,-3.443 1.931,-3.443l1.91,-0.201c0,0 0.149,2.574 -0.679,3.646c-1.872,2.422 -4.192,4.457 -4.704,6.28c-2.058,7.32 5.583,10.681 8.895,9.201c4.399,-1.965 5.976,-7.807 5.976,-7.807l2.02,0.592c0,0 -1.773,5.721 -4.884,7.778c-4.374,2.894 -6.989,1.93 -9.35,0.845c-2.327,-1.069 -4.464,-3.995 -5.062,-6.205c-0.596,-2.206 0.199,-4.873 0.108,-4.925c-9.862,-5.577 -18.26,-11.82 -25.229,-20.097c-8.188,-9.724 -4.953,-17.703 -4.953,-17.703Z" style="fill:#fff;"/><path d="M35.151,38.204c-0.188,-0.359 1.003,-2.086 1.39,-2.008c2.187,0.441 6.755,3.695 7.905,5.947c0.418,0.818 -0.852,2.544 -1.397,2.378c-3.304,-1.005 -6.725,-4.071 -7.898,-6.317Z" style="fill:#fff;"/><path d="M14.849,38.204c0.188,-0.359 -1.003,-2.086 -1.39,-2.008c-2.187,0.441 -6.755,3.695 -7.905,5.947c-0.418,0.818 0.852,2.544 1.397,2.378c3.304,-1.005 6.725,-4.071 7.898,-6.317Z" style="fill:#fff;"/><path d="M23.672,35.151c-1.459,0.903 -2.954,1.784 -4.484,2.649c-0.091,0.052 0.704,2.719 0.108,4.925c-0.598,2.21 -2.735,5.136 -5.062,6.205c-2.361,1.085 -4.976,2.049 -9.35,-0.845c-3.111,-2.057 -4.884,-7.778 -4.884,-7.778l2.02,-0.592c0,0 1.577,5.842 5.976,7.807c3.312,1.48 10.953,-1.881 8.895,-9.201c-0.512,-1.823 -2.832,-3.858 -4.704,-6.28c-0.828,-1.072 -0.679,-3.646 -0.679,-3.646l1.91,0.201c0,0 0.344,2.853 1.931,3.443c0.18,0.067 1.013,-0.485 2.161,-1.335c1.985,1.541 4.039,3.019 6.162,4.447Zm2.415,-11.028c7.704,-5.909 14.346,-11.836 18.487,-16.981c1.799,-2.236 4.796,-7.142 4.796,-7.142c0,0 3.235,7.979 -4.953,17.703c-3.583,4.256 -7.544,7.973 -11.887,11.34c-1.843,-1.38 -4.059,-3.07 -6.443,-4.92Z" style="fill:#fff;"/></g></svg>