<?xml version="1.0" encoding="UTF-8" standalone="no"?><!DOCTYPE svg PUBLIC "-//W3C//DTD SVG 1.1//EN" "http://www.w3.org/Graphics/SVG/1.1/DTD/svg11.dtd"><svg width="100%" height="100%" viewBox="0 0 50 50" version="1.1" xmlns="http://www.w3.org/2000/svg" xmlns:xlink="http://www.w3.org/1999/xlink" xml:space="preserve" xmlns:serif="http://www.serif.com/" style="fill-rule:evenodd;clip-rule:evenodd;stroke-linejoin:round;stroke-miterlimit:1.41421;"><path d="M48.049,50c-1.888,0.001 -40.917,-0.303 -46.133,-0.329c-8.846,-0.045 15.371,-49.726 23.059,-49.671c7.689,0.055 32.029,49.997 23.074,50Zm-18.784,-9.13l4.661,-5.872c0.584,-0.745 0.875,-1.597 0.875,-2.556c-0.013,-1.198 -0.414,-2.186 -1.202,-2.965c-0.776,-0.786 -1.786,-1.185 -3.032,-1.198c-1.113,0.013 -2.05,0.406 -2.812,1.178c-0.756,0.792 -1.16,1.794 -1.213,3.005l2.067,0c0.073,-0.665 0.305,-1.181 0.696,-1.547c0.378,-0.366 0.851,-0.55 1.421,-0.55c0.643,0.014 1.14,0.223 1.491,0.63c0.338,0.406 0.507,0.882 0.507,1.427c0,0.207 -0.027,0.426 -0.08,0.659c-0.079,0.247 -0.228,0.513 -0.447,0.799l-5.655,7.109l0,1.967l8.259,0l0,-2.086l-5.536,0Zm-3.379,2.086l-5.128,-8.816l4.641,-5.742l-2.604,0l-5.963,7.499l-0.04,0l0,-7.499l-2.196,0l0,14.558l2.196,0l0,-4.433l2.545,-2.686l3.945,7.119l2.604,0Zm-0.855,-40.686c4.527,0.045 13.555,19.385 13.555,19.385c0,0 -5.679,-3.088 -7.885,-2.989c-2.205,0.1 -6.786,5.196 -6.786,5.196c0,0 -1.619,-5.259 -2.804,-5.344c-1.855,-0.134 -9.682,2.863 -9.682,2.863c0,0 9.076,-19.157 13.602,-19.111Z" style="fill:#fff;"/></svg>