<?xml version="1.0" encoding="UTF-8" standalone="no"?><!DOCTYPE svg PUBLIC "-//W3C//DTD SVG 1.1//EN" "http://www.w3.org/Graphics/SVG/1.1/DTD/svg11.dtd"><svg width="100%" height="100%" viewBox="0 0 50 50" version="1.1" xmlns="http://www.w3.org/2000/svg" xmlns:xlink="http://www.w3.org/1999/xlink" xml:space="preserve" xmlns:serif="http://www.serif.com/" style="fill-rule:evenodd;clip-rule:evenodd;stroke-linejoin:round;stroke-miterlimit:1.41421;"><g><path d="M25,0c-13.805,0 -25,11.195 -25,25c0,2.759 0.447,5.414 1.273,7.897l7.477,0l0,-21.035l16.25,16.25l16.249,-16.25l0,21.035l7.477,0c0.827,-2.484 1.274,-5.138 1.274,-7.897c0,-13.806 -11.195,-25 -25,-25" style="fill:#f60;fill-rule:nonzero;"/><path d="M21.263,31.849l-7.092,-7.093l0,13.236l-10.534,0c4.389,7.2 12.315,12.008 21.362,12.008c9.047,0 16.974,-4.808 21.362,-12.008l-10.534,0l0,-13.236l-7.091,7.092l-3.737,3.736l-3.736,-3.736l0,0l0,0.001Z" style="fill:#4c4c4c;fill-rule:nonzero;"/></g></svg>