<?xml version="1.0" encoding="UTF-8" standalone="no"?><!DOCTYPE svg PUBLIC "-//W3C//DTD SVG 1.1//EN" "http://www.w3.org/Graphics/SVG/1.1/DTD/svg11.dtd"><svg width="100%" height="100%" viewBox="0 0 60 33" version="1.1" xmlns="http://www.w3.org/2000/svg" xmlns:xlink="http://www.w3.org/1999/xlink" xml:space="preserve" style="fill-rule:evenodd;clip-rule:evenodd;stroke-linejoin:round;stroke-miterlimit:1.41421;"><g><g><g><path id="edge-colour" d="M31.856,0.002c15.268,0.774 24.454,4.633 26.707,9.28c1.276,2.632 1.875,3.317 1.074,9.3c-0.999,7.459 -13.282,13.662 -29.641,13.662c-16.36,0 -29.025,-6.148 -29.658,-13.656c-0.431,-5.116 -0.757,-5.613 1.043,-8.558c1.424,-2.33 27.731,-10.167 30.475,-10.028Z" style="fill:#07480c;"/><ellipse id="top-border-colour" cx="30.163" cy="13.023" rx="29.808" ry="13.003" style="fill:url(#_Linear1);"/><path d="M30.584,2.515c11.906,0 21.572,4.192 21.572,9.356c0,5.164 -9.666,9.357 -21.572,9.357c-11.906,0 -21.573,-4.193 -21.573,-9.357c0,-5.164 9.667,-9.356 21.573,-9.356Zm-0.192,0.869c10.899,0 19.747,3.873 19.747,8.642c0,4.77 -8.848,8.643 -19.747,8.643c-10.898,0 -19.746,-3.873 -19.746,-8.643c0,-4.769 8.848,-8.642 19.746,-8.642Z" style="fill:#fbfbfb;"/><path d="M0.626,20.206c0,0 -0.219,-2.963 -0.148,-3.736c0.057,-0.619 0.848,-0.857 0.848,-0.857l6.61,-1.099c0,0 2.22,3.933 9.917,6.005c0.054,0.014 -4.153,3.098 -4.236,3.304c-0.441,1.093 0.018,6.059 -0.024,6.051c-10.279,-1.982 -12.967,-9.668 -12.967,-9.668Z" style="fill:url(#_Radial2);"/><path d="M39.592,21.122c0,0 2.359,2.776 2.642,3.551c0.159,0.433 0.785,3.364 0.167,6.242c-0.045,0.21 11.271,-2.486 15.33,-7.966c0.145,-0.195 0.55,-5.105 -0.023,-5.541c-0.818,-0.623 -6.094,-1.548 -6.112,-1.533c-3.962,3.172 -8.38,4.502 -12.004,5.247" style="fill:url(#_Radial3);"/><path d="M7.183,5.01l5.111,1.326" style="fill:none;"/><path d="M6.881,4.991l5.314,1.257c0,0 3.525,-2.62 12.386,-3.804c0.07,-0.01 -1.598,-1.962 -1.627,-1.961c-4.06,0.18 -12.01,1.76 -16.073,4.508Z" style="fill:url(#_Linear4);"/><path d="M44.141,1.399c-0.264,-0.025 -2.357,1.803 -2.357,1.803c0,0 5.763,1.163 9.417,4.724c0.113,0.11 5.572,-1.107 5.572,-1.107c0,0 -6.154,-4.807 -12.632,-5.42Z" style="fill:url(#_Linear5);"/><ellipse id="center-colour" cx="30.404" cy="11.974" rx="19.751" ry="8.535" style="fill:url(#_Radial6);"/><path d="M24.093,29.223l4.036,-0.863l4.332,1.059l-4.373,1.318c-1.316,-0.474 -2.126,-0.776 -3.995,-1.514Z" style="fill:#b4b4b4;"/></g></g></g><defs><linearGradient id="_Linear1" x1="0" y1="0" x2="1" y2="0" gradientUnits="userSpaceOnUse" gradientTransform="matrix(17.4204,17.2231,-15.5666,19.2742,27.1542,1.07021)"><stop offset="0%" style="stop-color:#139518;stop-opacity:1"/><stop offset="100%" style="stop-color:#1fd422;stop-opacity:1"/></linearGradient><radialGradient id="_Radial2" cx="0" cy="0" r="1" gradientUnits="userSpaceOnUse" gradientTransform="matrix(-18.7979,-10.023,1.69939,-3.90162,14.974,20.7219)"><stop offset="0%" style="stop-color:#fff;stop-opacity:1"/><stop offset="100%" style="stop-color:#b2b3b3;stop-opacity:1"/></radialGradient><radialGradient id="_Radial3" cx="0" cy="0" r="1" gradientUnits="userSpaceOnUse" gradientTransform="matrix(1.07049,3.06476,-13.1584,5.62634,48.7182,20.3347)"><stop offset="0%" style="stop-color:#fff;stop-opacity:1"/><stop offset="100%" style="stop-color:#b2b3b3;stop-opacity:1"/></radialGradient><linearGradient id="_Linear4" x1="0" y1="0" x2="1" y2="0" gradientUnits="userSpaceOnUse" gradientTransform="matrix(-14.9866,-7.51711,6.7941,-16.5814,19.3176,3.52841)"><stop offset="0%" style="stop-color:#fefefe;stop-opacity:1"/><stop offset="100%" style="stop-color:#b5afaf;stop-opacity:1"/></linearGradient><linearGradient id="_Linear5" x1="0" y1="0" x2="1" y2="0" gradientUnits="userSpaceOnUse" gradientTransform="matrix(14.4166,-9.49551,8.58222,15.9508,48.4397,3.90457)"><stop offset="0%" style="stop-color:#fbfbfb;stop-opacity:1"/><stop offset="100%" style="stop-color:#b1adad;stop-opacity:1"/></linearGradient><radialGradient id="_Radial6" cx="0" cy="0" r="1" gradientUnits="userSpaceOnUse" gradientTransform="matrix(32.4948,2.16493,-1.22871,22.5765,54.5368,7.89909)"><stop offset="0%" style="stop-color:#1fd422;stop-opacity:1"/><stop offset="100%" style="stop-color:#139518;stop-opacity:1"/></radialGradient></defs></svg>