<?xml version="1.0" encoding="UTF-8" standalone="no"?><!DOCTYPE svg PUBLIC "-//W3C//DTD SVG 1.1//EN" "http://www.w3.org/Graphics/SVG/1.1/DTD/svg11.dtd"><svg width="100%" height="100%" viewBox="0 0 50 50" version="1.1" xmlns="http://www.w3.org/2000/svg" xmlns:xlink="http://www.w3.org/1999/xlink" xml:space="preserve" xmlns:serif="http://www.serif.com/" style="fill-rule:evenodd;clip-rule:evenodd;stroke-linejoin:round;stroke-miterlimit:1.41421;"><path d="M24.94,11.709c0.688,-0.464 3.841,-1.704 5.385,-1.684c5.769,0.074 8.965,3.814 15.174,3.832c2.505,0.007 4.501,-2.164 4.501,-2.164c0,0 -1.073,5.289 -1.119,8.861c-0.035,2.719 -0.813,7.177 -1.084,8.089c-1.528,5.142 -7.849,11.283 -14.581,11.355c-5.703,0.061 -5.847,-1.404 -8.193,-1.441c-2.122,-0.033 -3.051,1.581 -8.504,1.424c-4.059,-0.117 -12.383,-3.387 -14.535,-11.789c-0.535,-2.09 -0.765,-6.822 -1.149,-9.992c-0.23,-1.892 -0.835,-6.57 -0.835,-6.57c0,0 1.867,2.297 4.612,2.234c6.574,-0.149 9.48,-3.792 14.7,-3.864c1.759,-0.024 5.012,1.24 5.628,1.709c-0.164,0.111 -0.189,0.177 -0.019,0.172c0.162,-0.004 0.153,-0.069 0.019,-0.172Zm-18.783,12.514c0,0 7.119,-3.289 11.645,-1.297c3.24,1.426 3.566,5.799 3.566,5.799c0,0 -4.995,0.866 -8.164,0.358c-4.224,-0.676 -7.047,-4.86 -7.047,-4.86Zm37.677,0c0,0 -7.118,-3.289 -11.645,-1.297c-3.239,1.426 -3.566,5.799 -3.566,5.799c0,0 4.996,0.866 8.165,0.358c4.223,-0.676 7.046,-4.86 7.046,-4.86Z" style="fill:#fff;"/></svg>