<?xml version="1.0" encoding="UTF-8" standalone="no"?><!DOCTYPE svg PUBLIC "-//W3C//DTD SVG 1.1//EN" "http://www.w3.org/Graphics/SVG/1.1/DTD/svg11.dtd"><svg width="100%" height="100%" viewBox="0 0 50 50" version="1.1" xmlns="http://www.w3.org/2000/svg" xmlns:xlink="http://www.w3.org/1999/xlink" xml:space="preserve" xmlns:serif="http://www.serif.com/" style="fill-rule:evenodd;clip-rule:evenodd;stroke-linejoin:round;stroke-miterlimit:1.41421;"><g><path d="M41.297,14.045l-12.393,-12.432c-2.145,-2.151 -5.649,-2.151 -7.785,0l-12.385,12.407c-0.712,0.714 -0.712,1.888 0,2.602l3.757,3.766l2.497,2.314c0.745,0.69 1.874,0.69 2.619,0l5.002,-4.636c1.375,-1.272 3.487,-1.272 4.854,0l5.001,4.636c0.737,0.69 1.875,0.69 2.612,0l2.496,-2.314l3.725,-3.734c0.72,-0.722 0.72,-1.887 0,-2.609" style="fill:#60b4d0;fill-rule:nonzero;"/><path d="M1.678,28.906l19.433,19.481c2.144,2.151 5.648,2.151 7.784,0l19.433,-19.481c3.373,-3.381 0.999,-4.374 -1.473,-6.721l-3.045,-2.896c-0.737,-0.698 -1.875,-0.69 -2.62,0l-5.001,4.636c-1.375,1.272 -3.487,1.272 -4.854,0l-5.002,-4.636c-0.736,-0.69 -1.874,-0.69 -2.611,0l-5.001,4.636c-1.376,1.272 -3.487,1.272 -4.854,0l-5.002,-4.636c-0.745,-0.69 -1.874,-0.69 -2.619,0l-2.8,2.593c-2.57,2.396 -5.288,3.495 -1.768,7.024" style="fill:#e2e1e1;fill-rule:nonzero;"/></g></svg>