<?xml version="1.0" encoding="UTF-8" standalone="no"?><!DOCTYPE svg PUBLIC "-//W3C//DTD SVG 1.1//EN" "http://www.w3.org/Graphics/SVG/1.1/DTD/svg11.dtd"><svg width="100%" height="100%" viewBox="0 0 200 65" version="1.1" xmlns="http://www.w3.org/2000/svg" xmlns:xlink="http://www.w3.org/1999/xlink" xml:space="preserve" xmlns:serif="http://www.serif.com/" style="fill-rule:evenodd;clip-rule:evenodd;stroke-linejoin:round;stroke-miterlimit:1.41421;"><g id="Play-Button"><path d="M200,16.25c0,-8.969 -7.281,-16.25 -16.25,-16.25l-167.5,0c-8.969,0 -16.25,7.281 -16.25,16.25l0,32.5c0,8.969 7.281,16.25 16.25,16.25l167.5,0c8.969,0 16.25,-7.281 16.25,-16.25l0,-32.5Z" style="fill:url(#_Linear1);"/><path d="M197,17.75c0,-8.141 -6.609,-14.75 -14.75,-14.75l-164.5,0c-8.141,0 -14.75,6.609 -14.75,14.75l0,29.5c0,8.141 6.609,14.75 14.75,14.75l164.5,0c8.141,0 14.75,-6.609 14.75,-14.75l0,-29.5Z" style="fill:url(#_Linear2);"/><clipPath id="_clip3"><path d="M197,17.75c0,-8.141 -6.609,-14.75 -14.75,-14.75l-164.5,0c-8.141,0 -14.75,6.609 -14.75,14.75l0,29.5c0,8.141 6.609,14.75 14.75,14.75l164.5,0c8.141,0 14.75,-6.609 14.75,-14.75l0,-29.5Z"/></clipPath><g clip-path="url(#_clip3)"><path d="M187.76,-0.46c-0.167,-0.017 -0.335,-0.025 -0.504,-0.025c-33.17,-0.013 -142.167,-0.381 -173.495,-0.006c-7.779,0.093 -14.217,6.604 -13.553,20.546c0.308,6.467 53.666,25.598 99.877,3.943c53.648,-25.14 100.103,4.392 100.24,4.288c0,0 -0.176,-16.453 -0.253,-16.768c-2.494,-10.131 -10.538,-11.743 -12.312,-11.978Z" style="fill:url(#_Linear4);"/></g></g><defs><linearGradient id="_Linear1" x1="0" y1="0" x2="1" y2="0" gradientUnits="userSpaceOnUse" gradientTransform="matrix(0.102289,14.7882,-14.7882,0.102289,101.313,26.0847)"><stop offset="0" style="stop-color:#38a3e0;stop-opacity:0.796078"/><stop offset="1" style="stop-color:#176896;stop-opacity:0.796078"/></linearGradient><linearGradient id="_Linear2" x1="0" y1="0" x2="1" y2="0" gradientUnits="userSpaceOnUse" gradientTransform="matrix(0.76939,45.1035,-45.1035,0.76939,96.2509,3.38176)"><stop offset="0" style="stop-color:#38a3e0;stop-opacity:0.796078"/><stop offset="1" style="stop-color:#176896;stop-opacity:0.796078"/></linearGradient><linearGradient id="_Linear4" x1="0" y1="0" x2="1" y2="0" gradientUnits="userSpaceOnUse" gradientTransform="matrix(-0.613177,32.3324,-32.3324,-0.613177,97.3481,1.33228)"><stop offset="0" style="stop-color:#fff;stop-opacity:0.392157"/><stop offset="1" style="stop-color:#fff;stop-opacity:0"/></linearGradient></defs></svg>