<?xml version="1.0" encoding="UTF-8" standalone="no"?><!DOCTYPE svg PUBLIC "-//W3C//DTD SVG 1.1//EN" "http://www.w3.org/Graphics/SVG/1.1/DTD/svg11.dtd"><svg width="100%" height="100%" viewBox="0 0 200 42" version="1.1" xmlns="http://www.w3.org/2000/svg" xmlns:xlink="http://www.w3.org/1999/xlink" xml:space="preserve" xmlns:serif="http://www.serif.com/" style="fill-rule:evenodd;clip-rule:evenodd;stroke-linejoin:round;stroke-miterlimit:1.41421;"><path id="New-Message" serif:id="New Message" d="M76,1c-5.524,0 -10,3.667 -10,8.143c0,2.714 1.571,5.047 4.095,6.524c-0.333,1.666 -2.143,3.428 -2.143,3.428c0,0 3.096,0.381 5.381,-1.905c0,0 2.667,0.096 3.619,0.048c5.524,-0.143 9.048,-3.667 9.048,-8.143c0,-4.476 -4.476,-8.095 -10,-8.095Zm0.952,15.286c-0.857,0 -4,-0.048 -4.047,-0.096c-0.381,0.619 -2.334,2.048 -3.286,1.953c0.667,-0.715 1.476,-2.667 1.429,-3.048c-0.334,-0.19 -0.619,-0.381 -0.953,-0.571c-1.952,-1.334 -3.19,-3.286 -3.19,-5.476c0,-3.953 4.047,-7.191 9.047,-7.191c5,0 9.048,3.238 9.048,7.191c0,3.952 -3.048,7.238 -8.048,7.238Z" style="fill:#8193a6;fill-rule:nonzero;stroke:#8193a6;stroke-width:0.5px;"/><path id="New-Message1" serif:id="New Message" d="M76,22c-5.524,0 -10,3.667 -10,8.143c0,2.714 1.571,5.047 4.095,6.524c-0.333,1.666 -2.143,3.428 -2.143,3.428c0,0 3.096,0.381 5.381,-1.905c0,0 2.667,0.096 3.619,0.048c5.524,-0.143 9.048,-3.667 9.048,-8.143c0,-4.476 -4.476,-8.095 -10,-8.095Zm0.952,15.286c-0.857,0 -4,-0.048 -4.047,-0.096c-0.381,0.619 -2.334,2.048 -3.286,1.953c0.667,-0.715 1.476,-2.667 1.429,-3.048c-0.334,-0.19 -0.619,-0.381 -0.953,-0.571c-1.952,-1.334 -3.19,-3.286 -3.19,-5.476c0,-3.953 4.047,-7.191 9.047,-7.191c5,0 9.048,3.238 9.048,7.191c0,3.952 -3.048,7.238 -8.048,7.238Z" style="fill:#fff;fill-rule:nonzero;"/><path id="Game-Icon" serif:id="Game Icon" d="M9.669,9.375c0.063,0.218 0.084,0.438 0.062,0.664l-0.063,0.343c-0.031,0.111 -0.071,0.223 -0.12,0.337c-0.001,0.004 -0.003,0.008 -0.005,0.011l-1.529,3.1c-0.028,0.058 -0.08,0.101 -0.142,0.119l-0.001,0c-0.062,0.018 -0.129,0.009 -0.184,-0.025l-2.953,-1.806c-0.002,-0.001 -0.005,-0.003 -0.006,-0.004c-0.107,-0.071 -0.2,-0.148 -0.289,-0.229l-0.238,-0.253c-0.135,-0.176 -0.233,-0.371 -0.296,-0.583c-0.262,-0.905 0.204,-1.85 1.051,-2.208l0.114,-0.044c0.429,-0.149 0.899,-0.136 1.319,0.043c0.263,-0.383 0.649,-0.633 1.096,-0.745l0.12,-0.022c0.904,-0.149 1.801,0.4 2.064,1.302m7.839,-8.102l0.016,13.579c0.032,1.252 -0.943,1.218 -1.155,1.218l-2.168,0.053c0.24,0.635 0.041,1.39 -0.815,1.691l-7.68,2.107c-0.204,0.06 -1.392,0.392 -1.947,-0.961l-3.691,-12.972c-0.335,-1.018 0.662,-1.323 0.866,-1.382l5.724,-1.683l0.026,-1.633c0,-0.212 0.026,-1.301 1.253,-1.29c0,0 8.103,0.019 8.181,0.018c1.438,-0.031 1.391,1.258 1.39,1.255Zm-5.377,15.411c0,0 0.841,-0.383 0.481,-1.51c-0.671,-2.102 -3.306,-11.078 -3.316,-11.108c-0.304,-0.938 -1.295,-0.522 -1.335,-0.522c-0.073,0.001 -5.975,1.896 -6.057,1.924c-0.924,0.312 -0.374,1.486 -0.373,1.52c0.003,0.12 2.338,8.528 3.073,10.606c0.337,0.954 1.435,0.854 1.435,0.854m9.605,-3.593c0.798,-0.011 0.768,-0.361 0.786,-0.714c0.109,-2.075 -0.135,-11.739 -0.135,-11.739c0,0 0.029,-1.07 -1.013,-1.099c-0.396,-0.011 -6.614,-0.056 -6.626,-0.056c-1.08,0.043 -0.795,1.31 -0.795,1.31l0.757,-0.211c0.203,-0.059 1.362,-0.377 1.737,0.594l0.634,2.129l0.599,-0.655c0.044,-0.048 0.106,-0.075 0.171,-0.075l0.001,0c0.065,0 0.128,0.028 0.172,0.076l2.351,2.58c0.071,0.105 0.155,0.201 0.22,0.309l0.16,0.312c0.429,1.106 -0.346,2.353 -1.517,2.49l-0.122,0.011c-0.202,0.01 -0.377,-0.011 -0.588,-0.069l0.422,1.451c0.479,0.007 1.048,-0.16 1.048,-0.16l0,0.528l-0.941,0l0.907,3.034c0,0 1.328,-0.04 1.772,-0.046Z" style="fill:#8193a6;fill-rule:nonzero;"/><path id="Game-Icon1" serif:id="Game Icon" d="M9.669,30.375c0.063,0.218 0.084,0.438 0.062,0.664l-0.063,0.343c-0.031,0.111 -0.071,0.223 -0.12,0.337c-0.001,0.004 -0.003,0.008 -0.005,0.011l-1.529,3.1c-0.028,0.058 -0.08,0.101 -0.142,0.119l-0.001,0c-0.062,0.018 -0.129,0.009 -0.184,-0.025l-2.953,-1.806c-0.002,-0.001 -0.005,-0.003 -0.006,-0.004c-0.107,-0.071 -0.2,-0.148 -0.289,-0.229l-0.238,-0.253c-0.135,-0.176 -0.233,-0.371 -0.296,-0.583c-0.262,-0.905 0.204,-1.85 1.051,-2.208l0.114,-0.044c0.429,-0.149 0.899,-0.136 1.319,0.043c0.263,-0.383 0.649,-0.633 1.096,-0.745l0.12,-0.022c0.904,-0.149 1.801,0.4 2.064,1.302m7.839,-8.102l0.016,13.579c0.032,1.252 -0.943,1.218 -1.155,1.218l-2.168,0.053c0.24,0.635 0.041,1.39 -0.815,1.691l-7.68,2.107c-0.204,0.06 -1.392,0.392 -1.947,-0.961l-3.691,-12.972c-0.335,-1.018 0.662,-1.323 0.866,-1.382l5.724,-1.683l0.026,-1.633c0,-0.212 0.026,-1.301 1.253,-1.29c0,0 8.103,0.019 8.181,0.018c1.438,-0.031 1.391,1.258 1.39,1.255Zm-5.377,15.411c0,0 0.841,-0.383 0.481,-1.51c-0.671,-2.102 -3.306,-11.078 -3.316,-11.108c-0.304,-0.938 -1.295,-0.522 -1.335,-0.522c-0.073,0.001 -5.975,1.896 -6.057,1.924c-0.924,0.312 -0.374,1.486 -0.373,1.52c0.003,0.12 2.338,8.528 3.073,10.606c0.337,0.954 1.435,0.854 1.435,0.854m9.605,-3.593c0.798,-0.011 0.768,-0.361 0.786,-0.714c0.109,-2.075 -0.135,-11.739 -0.135,-11.739c0,0 0.029,-1.07 -1.013,-1.099c-0.396,-0.011 -6.614,-0.056 -6.626,-0.056c-1.08,0.043 -0.795,1.31 -0.795,1.31l0.757,-0.211c0.203,-0.059 1.362,-0.377 1.737,0.594l0.634,2.129l0.599,-0.655c0.044,-0.048 0.106,-0.075 0.171,-0.075l0.001,0c0.065,0 0.128,0.028 0.172,0.076l2.351,2.58c0.071,0.105 0.155,0.201 0.22,0.309l0.16,0.312c0.429,1.106 -0.346,2.353 -1.517,2.49l-0.122,0.011c-0.202,0.01 -0.377,-0.011 -0.588,-0.069l0.422,1.451c0.479,0.007 1.048,-0.16 1.048,-0.16l0,0.528l-0.941,0l0.907,3.034c0,0 1.328,-0.04 1.772,-0.046Z" style="fill:#fff;fill-rule:nonzero;"/><g id="Chips-Icon" serif:id="Chips Icon"><path d="M63.767,6.31c0.255,0.352 0.149,2.021 0.149,2.407c0,2.186 -4.386,3.961 -9.788,3.961c-5.402,0 -9.788,-1.775 -9.788,-3.961c0,-0.551 -0.275,-2.221 0,-2.407" style="fill:none;stroke:#8193a6;stroke-width:1px;stroke-linecap:round;stroke-miterlimit:1.5;"/><path d="M44.498,9.429c-0.246,0.213 -0.158,0.687 -0.158,1.238c0,2.186 4.386,3.962 9.788,3.962c5.402,0 9.788,-1.776 9.788,-3.962c0,-0.108 0.066,-0.579 -0.16,-1.238" style="fill:none;stroke:#8193a6;stroke-width:1px;stroke-linecap:round;stroke-miterlimit:1.5;"/><path d="M63.756,11.383c0.226,0.659 0.16,1.37 0.16,1.478c0,1.168 -1.252,2.219 -3.241,2.944c-1.735,0.632 -4.031,1.018 -6.547,1.018c-5.402,0 -9.788,-1.776 -9.788,-3.962c0,-0.551 -0.087,-1.265 0.16,-1.478" style="fill:none;stroke:#8193a6;stroke-width:1px;stroke-linecap:round;stroke-miterlimit:1.5;"/><path d="M54,2.5c5.519,0 10,1.774 10,3.96c0,2.186 -4.481,3.96 -10,3.96c-5.519,0 -10,-1.774 -10,-3.96c0,-2.186 4.481,-3.96 10,-3.96Zm3.631,2.415l-9.369,2.267l0.985,0.973l11.043,-2.673l-0.985,-0.972l-2.12,-0.686l-1.682,0.407l2.128,0.684Z" style="fill:#8193a6;"/></g><g id="Chips-Icon1" serif:id="Chips Icon"><path d="M63.767,27.31c0.255,0.352 0.149,2.021 0.149,2.407c0,2.186 -4.386,3.961 -9.788,3.961c-5.402,0 -9.788,-1.775 -9.788,-3.961c0,-0.551 -0.275,-2.221 0,-2.407" style="fill:none;stroke:#fff;stroke-width:1px;stroke-linecap:round;stroke-miterlimit:1.5;"/><path d="M44.498,30.429c-0.246,0.213 -0.158,0.687 -0.158,1.238c0,2.186 4.386,3.962 9.788,3.962c5.402,0 9.788,-1.776 9.788,-3.962c0,-0.108 0.066,-0.579 -0.16,-1.238" style="fill:none;stroke:#fff;stroke-width:1px;stroke-linecap:round;stroke-miterlimit:1.5;"/><path d="M63.756,32.383c0.226,0.659 0.16,1.37 0.16,1.478c0,1.168 -1.252,2.219 -3.241,2.944c-1.735,0.632 -4.031,1.018 -6.547,1.018c-5.402,0 -9.788,-1.776 -9.788,-3.962c0,-0.551 -0.087,-1.265 0.16,-1.478" style="fill:none;stroke:#fff;stroke-width:1px;stroke-linecap:round;stroke-miterlimit:1.5;"/><path d="M54,23.5c5.519,0 10,1.774 10,3.96c0,2.186 -4.481,3.96 -10,3.96c-5.519,0 -10,-1.774 -10,-3.96c0,-2.186 4.481,-3.96 10,-3.96Zm3.631,2.415l-9.369,2.267l0.985,0.973l11.043,-2.673l-0.985,-0.972l-2.12,-0.686l-1.682,0.407l2.128,0.684Z" style="fill:#fff;"/></g><path id="Book-Icon" serif:id="Book Icon" d="M105.916,20l-14.999,0c-0.691,0 -1.25,-0.56 -1.25,-1.25l0,-2.083l0.833,0c0.92,0 1.667,-0.746 1.667,-1.667c0,-0.92 -0.747,-1.666 -1.667,-1.666l-0.833,0l0,-1.667l0.833,0c0.92,0 1.667,-0.746 1.667,-1.667c0,-0.92 -0.747,-1.667 -1.667,-1.667l-0.833,0l0,-1.666l0.833,0c0.92,0 1.667,-0.747 1.667,-1.667c0,-0.92 -0.747,-1.667 -1.667,-1.667l-0.833,0l0,-2.083c0,-0.69 0.559,-1.25 1.25,-1.25l8.75,0l0,9.167l2.5,-2.5l2.5,2.5l0,-9.167l1.249,0c0.691,0 1.251,0.56 1.251,1.25l0,17.5c0,0.69 -0.56,1.25 -1.251,1.25Zm-14.583,-15c0,0.46 -0.373,0.833 -0.833,0.833l-1.667,0c-0.46,0 -0.833,-0.373 -0.833,-0.833c0,-0.46 0.373,-0.833 0.833,-0.833l1.667,0c0.46,0 0.833,0.373 0.833,0.833Zm-2.5,4.167l1.667,0c0.46,0 0.833,0.373 0.833,0.833c0,0.46 -0.373,0.833 -0.833,0.833l-1.667,0c-0.46,0 -0.833,-0.373 -0.833,-0.833c0,-0.46 0.373,-0.833 0.833,-0.833Zm0,5l1.667,0c0.46,0 0.833,0.373 0.833,0.833c0,0.46 -0.373,0.833 -0.833,0.833l-1.667,0c-0.46,0 -0.833,-0.373 -0.833,-0.833c0,-0.46 0.373,-0.833 0.833,-0.833Z" style="fill:#8193a6;"/><path id="Book-Icon1" serif:id="Book Icon" d="M105.916,41l-14.999,0c-0.691,0 -1.25,-0.56 -1.25,-1.25l0,-2.083l0.833,0c0.92,0 1.667,-0.746 1.667,-1.667c0,-0.92 -0.747,-1.666 -1.667,-1.666l-0.833,0l0,-1.667l0.833,0c0.92,0 1.667,-0.746 1.667,-1.667c0,-0.92 -0.747,-1.667 -1.667,-1.667l-0.833,0l0,-1.666l0.833,0c0.92,0 1.667,-0.747 1.667,-1.667c0,-0.92 -0.747,-1.667 -1.667,-1.667l-0.833,0l0,-2.083c0,-0.69 0.559,-1.25 1.25,-1.25l8.75,0l0,9.167l2.5,-2.5l2.5,2.5l0,-9.167l1.249,0c0.691,0 1.251,0.56 1.251,1.25l0,17.5c0,0.69 -0.56,1.25 -1.251,1.25Zm-14.583,-15c0,0.46 -0.373,0.833 -0.833,0.833l-1.667,0c-0.46,0 -0.833,-0.373 -0.833,-0.833c0,-0.46 0.373,-0.833 0.833,-0.833l1.667,0c0.46,0 0.833,0.373 0.833,0.833Zm-2.5,4.167l1.667,0c0.46,0 0.833,0.373 0.833,0.833c0,0.46 -0.373,0.833 -0.833,0.833l-1.667,0c-0.46,0 -0.833,-0.373 -0.833,-0.833c0,-0.46 0.373,-0.833 0.833,-0.833Zm0,5l1.667,0c0.46,0 0.833,0.373 0.833,0.833c0,0.46 -0.373,0.833 -0.833,0.833l-1.667,0c-0.46,0 -0.833,-0.373 -0.833,-0.833c0,-0.46 0.373,-0.833 0.833,-0.833Z" style="fill:#fff;"/><path id="User-Icon" serif:id="User Icon" d="M126.625,19.815c-1.514,0.252 -3.295,0.32 -6.67,0.32c-3.374,0 -5.155,-0.068 -6.669,-0.32c-2.121,-0.353 -3.331,-1.109 -3.331,-2.38c0,-1.679 2.16,-4.019 5.163,-5.374c1.214,1.84 2.928,3.074 4.837,3.074c1.91,0 3.624,-1.234 4.837,-3.074c3.003,1.355 5.163,3.695 5.163,5.374c0,1.271 -1.209,2.027 -3.33,2.38Zm-6.67,-6.347c-2.768,0 -5,-3.674 -5,-7.45c0,-3.515 2.088,-5.882 5,-5.882c2.913,0 5.001,2.367 5.001,5.882c0,3.776 -2.232,7.45 -5.001,7.45Z" style="fill:#8393a7;"/><path id="Menu-Icon" serif:id="Menu Icon" d="M150.75,11.333l-17.5,0c-0.69,0 -1.25,-0.559 -1.25,-1.25c0,-0.69 0.56,-1.25 1.25,-1.25l17.5,0c0.69,0 1.25,0.56 1.25,1.25c0,0.691 -0.56,1.25 -1.25,1.25Zm0,-5.833l-17.5,0c-0.69,0 -1.25,-0.56 -1.25,-1.25c0,-0.69 0.56,-1.25 1.25,-1.25l17.5,0c0.69,0 1.25,0.56 1.25,1.25c0,0.69 -0.56,1.25 -1.25,1.25Zm-17.5,9.166l17.5,0c0.69,0 1.25,0.56 1.25,1.251c0,0.69 -0.56,1.249 -1.25,1.249l-17.5,0c-0.69,0 -1.25,-0.559 -1.25,-1.249c0,-0.691 0.56,-1.251 1.25,-1.251Z" style="fill:#8393a7;"/><path id="Menu-Icon1" serif:id="Menu Icon" d="M150.75,32.333l-17.5,0c-0.69,0 -1.25,-0.559 -1.25,-1.25c0,-0.69 0.56,-1.25 1.25,-1.25l17.5,0c0.69,0 1.25,0.56 1.25,1.25c0,0.691 -0.56,1.25 -1.25,1.25Zm0,-5.833l-17.5,0c-0.69,0 -1.25,-0.56 -1.25,-1.25c0,-0.69 0.56,-1.25 1.25,-1.25l17.5,0c0.69,0 1.25,0.56 1.25,1.25c0,0.69 -0.56,1.25 -1.25,1.25Zm-17.5,9.166l17.5,0c0.69,0 1.25,0.56 1.25,1.251c0,0.69 -0.56,1.249 -1.25,1.249l-17.5,0c-0.69,0 -1.25,-0.559 -1.25,-1.249c0,-0.691 0.56,-1.251 1.25,-1.251Z" style="fill:#fff;"/><path id="User-Icon1" serif:id="User Icon" d="M126.625,40.679c-1.514,0.253 -3.295,0.32 -6.67,0.32c-3.374,0 -5.155,-0.067 -6.669,-0.32c-2.121,-0.353 -3.331,-1.109 -3.331,-2.38c0,-1.678 2.16,-4.019 5.163,-5.374c1.214,1.84 2.928,3.074 4.837,3.074c1.91,0 3.624,-1.234 4.837,-3.074c3.003,1.355 5.163,3.696 5.163,5.374c0,1.271 -1.209,2.027 -3.33,2.38Zm-6.67,-6.346c-2.768,0 -5,-3.675 -5,-7.451c0,-3.515 2.088,-5.882 5,-5.882c2.913,0 5.001,2.367 5.001,5.882c0,3.776 -2.232,7.451 -5.001,7.451Z" style="fill:#fff;"/><g><path d="M42.025,20l-20.047,0l10.023,-20l10.024,20Zm-10.714,-1.347l0.701,-0.732c0.253,-0.26 0.455,-0.489 0.608,-0.689c0.153,-0.199 0.269,-0.38 0.35,-0.543c0.081,-0.163 0.134,-0.314 0.159,-0.455c0.025,-0.14 0.038,-0.28 0.038,-0.422c0,-0.157 -0.026,-0.305 -0.079,-0.444c-0.052,-0.139 -0.131,-0.261 -0.237,-0.366c-0.106,-0.105 -0.24,-0.187 -0.4,-0.248c-0.161,-0.06 -0.348,-0.09 -0.562,-0.09c-0.135,0 -0.263,0.014 -0.385,0.041c-0.122,0.027 -0.234,0.061 -0.335,0.101c-0.101,0.04 -0.186,0.08 -0.253,0.121c-0.067,0.041 -0.114,0.074 -0.142,0.097c-0.027,0.024 -0.045,0.044 -0.054,0.06c-0.009,0.016 -0.017,0.033 -0.023,0.052c-0.005,0.018 -0.009,0.039 -0.012,0.064c-0.002,0.026 -0.003,0.055 -0.003,0.089c0,0.048 0.002,0.089 0.007,0.123c0.004,0.035 0.011,0.062 0.019,0.082c0.008,0.021 0.018,0.036 0.03,0.045c0.013,0.009 0.027,0.014 0.043,0.014c0.027,0 0.069,-0.02 0.125,-0.059c0.056,-0.038 0.125,-0.08 0.208,-0.126c0.084,-0.046 0.18,-0.088 0.291,-0.127c0.11,-0.038 0.235,-0.058 0.374,-0.058c0.119,0 0.224,0.02 0.315,0.058c0.091,0.039 0.167,0.092 0.227,0.158c0.06,0.066 0.106,0.143 0.138,0.23c0.032,0.088 0.048,0.181 0.048,0.279c0,0.098 -0.01,0.203 -0.031,0.314c-0.02,0.112 -0.063,0.236 -0.128,0.373c-0.065,0.137 -0.157,0.288 -0.277,0.455c-0.119,0.166 -0.278,0.354 -0.476,0.564l-0.858,0.909c-0.028,0.029 -0.05,0.057 -0.067,0.083c-0.017,0.027 -0.031,0.053 -0.043,0.079c-0.011,0.026 -0.018,0.056 -0.022,0.091c-0.003,0.034 -0.005,0.074 -0.005,0.119c0,0.05 0.004,0.093 0.012,0.127c0.008,0.034 0.02,0.06 0.038,0.078c0.017,0.019 0.037,0.032 0.061,0.04c0.024,0.008 0.052,0.012 0.084,0.012l2.444,0c0.02,0 0.039,-0.005 0.056,-0.016c0.017,-0.01 0.031,-0.026 0.041,-0.048c0.01,-0.021 0.018,-0.048 0.024,-0.08c0.006,-0.032 0.009,-0.068 0.009,-0.109c0,-0.041 -0.003,-0.077 -0.009,-0.108c-0.006,-0.031 -0.015,-0.056 -0.027,-0.077c-0.013,-0.02 -0.028,-0.036 -0.045,-0.046c-0.017,-0.01 -0.035,-0.015 -0.053,-0.015l-1.924,0Zm1.642,-6.502l0,-2.823c0,-0.021 -0.009,-0.038 -0.027,-0.053c-0.018,-0.015 -0.045,-0.027 -0.079,-0.036c-0.034,-0.009 -0.079,-0.016 -0.135,-0.022c-0.056,-0.006 -0.121,-0.009 -0.196,-0.009c-0.069,0 -0.128,0.002 -0.178,0.005c-0.05,0.004 -0.092,0.01 -0.126,0.019c-0.035,0.009 -0.063,0.021 -0.084,0.034c-0.022,0.014 -0.038,0.03 -0.05,0.048l-1.593,2.687c-0.016,0.029 -0.029,0.057 -0.041,0.084c-0.011,0.026 -0.02,0.053 -0.027,0.082c-0.007,0.028 -0.011,0.059 -0.014,0.094c-0.002,0.034 -0.003,0.072 -0.003,0.116c0,0.054 0.003,0.099 0.009,0.133c0.005,0.034 0.015,0.06 0.03,0.079c0.015,0.018 0.032,0.03 0.05,0.037c0.018,0.007 0.041,0.011 0.068,0.011l1.825,0l0,0.929c0,0.018 0.004,0.034 0.012,0.046c0.008,0.013 0.023,0.024 0.045,0.033c0.021,0.009 0.051,0.016 0.087,0.02c0.036,0.005 0.082,0.007 0.137,0.007c0.057,0 0.103,-0.002 0.14,-0.007c0.036,-0.004 0.066,-0.011 0.089,-0.02c0.022,-0.009 0.038,-0.02 0.048,-0.033c0.009,-0.012 0.013,-0.028 0.013,-0.046l0,-0.929l0.499,0c0.041,0 0.073,-0.022 0.096,-0.065c0.023,-0.044 0.034,-0.103 0.034,-0.178c0,-0.082 -0.012,-0.143 -0.036,-0.183c-0.024,-0.04 -0.055,-0.06 -0.094,-0.06l-0.499,0Zm-0.571,-2.427l0,2.427l-1.445,0l1.439,-2.427l0.006,0Zm-0.359,-8.808l3.942,7.872l-1.722,-0.925l-2.66,1.152l-1.158,-0.797l-2.343,0.57l3.941,-7.872Z" style="fill:#8193a6;"/><path d="M33.48,6.676c0,0.191 -0.034,0.362 -0.102,0.511c-0.068,0.149 -0.167,0.275 -0.296,0.377c-0.128,0.103 -0.287,0.18 -0.477,0.233c-0.189,0.052 -0.405,0.079 -0.649,0.079c-0.228,0 -0.432,-0.024 -0.612,-0.072c-0.18,-0.048 -0.332,-0.119 -0.458,-0.212c-0.125,-0.094 -0.221,-0.209 -0.287,-0.345c-0.066,-0.137 -0.099,-0.293 -0.099,-0.469c0,-0.139 0.023,-0.266 0.068,-0.382c0.046,-0.117 0.111,-0.224 0.197,-0.322c0.085,-0.098 0.191,-0.189 0.316,-0.275c0.125,-0.085 0.267,-0.167 0.424,-0.244c-0.137,-0.071 -0.258,-0.146 -0.362,-0.224c-0.105,-0.079 -0.194,-0.164 -0.267,-0.257c-0.073,-0.092 -0.128,-0.19 -0.166,-0.295c-0.037,-0.105 -0.056,-0.219 -0.056,-0.342c0,-0.155 0.028,-0.3 0.084,-0.436c0.055,-0.135 0.14,-0.253 0.252,-0.354c0.113,-0.1 0.257,-0.179 0.431,-0.237c0.174,-0.058 0.378,-0.087 0.61,-0.087c0.224,0 0.417,0.027 0.58,0.08c0.163,0.054 0.297,0.127 0.403,0.219c0.106,0.092 0.184,0.201 0.234,0.326c0.05,0.126 0.075,0.26 0.075,0.404c0,0.116 -0.019,0.227 -0.056,0.335c-0.038,0.107 -0.093,0.208 -0.166,0.304c-0.073,0.095 -0.162,0.185 -0.268,0.268c-0.106,0.083 -0.228,0.161 -0.364,0.234c0.162,0.08 0.306,0.162 0.432,0.246c0.127,0.085 0.233,0.175 0.318,0.272c0.085,0.097 0.15,0.199 0.195,0.308c0.044,0.108 0.066,0.227 0.066,0.357Zm-0.738,-2.27c0,-0.095 -0.016,-0.182 -0.049,-0.259c-0.033,-0.078 -0.082,-0.144 -0.146,-0.199c-0.063,-0.054 -0.143,-0.096 -0.237,-0.124c-0.095,-0.029 -0.202,-0.043 -0.323,-0.043c-0.246,0 -0.433,0.056 -0.559,0.167c-0.126,0.112 -0.19,0.265 -0.19,0.458c0,0.089 0.016,0.172 0.046,0.248c0.031,0.076 0.079,0.149 0.144,0.217c0.065,0.068 0.147,0.135 0.246,0.2c0.099,0.065 0.217,0.133 0.354,0.203c0.23,-0.118 0.407,-0.249 0.53,-0.393c0.123,-0.143 0.184,-0.302 0.184,-0.475Zm0.144,2.331c0,-0.104 -0.02,-0.2 -0.058,-0.285c-0.039,-0.086 -0.098,-0.165 -0.176,-0.239c-0.079,-0.074 -0.177,-0.146 -0.294,-0.216c-0.118,-0.069 -0.254,-0.142 -0.409,-0.217c-0.143,0.071 -0.269,0.142 -0.377,0.212c-0.109,0.071 -0.198,0.144 -0.267,0.219c-0.07,0.075 -0.122,0.154 -0.157,0.238c-0.036,0.083 -0.053,0.174 -0.053,0.275c0,0.221 0.075,0.392 0.227,0.512c0.152,0.121 0.378,0.182 0.678,0.182c0.292,0 0.513,-0.061 0.662,-0.183c0.149,-0.122 0.224,-0.288 0.224,-0.498Z" style="fill:#8193a6;fill-rule:nonzero;"/></g><g><path d="M42.046,41l-20.046,0l10.023,-20l10.023,20Zm-10.713,-1.347l0.701,-0.732c0.253,-0.26 0.455,-0.489 0.608,-0.689c0.153,-0.199 0.269,-0.38 0.35,-0.543c0.081,-0.163 0.134,-0.314 0.159,-0.455c0.025,-0.14 0.038,-0.28 0.038,-0.422c0,-0.157 -0.026,-0.305 -0.079,-0.444c-0.052,-0.139 -0.131,-0.261 -0.237,-0.366c-0.106,-0.105 -0.24,-0.187 -0.4,-0.248c-0.161,-0.06 -0.348,-0.09 -0.562,-0.09c-0.135,0 -0.263,0.014 -0.385,0.041c-0.122,0.027 -0.234,0.061 -0.335,0.101c-0.101,0.04 -0.186,0.08 -0.253,0.121c-0.067,0.041 -0.114,0.074 -0.142,0.097c-0.027,0.024 -0.045,0.044 -0.054,0.06c-0.01,0.016 -0.017,0.033 -0.023,0.052c-0.005,0.018 -0.009,0.039 -0.012,0.064c-0.002,0.026 -0.003,0.055 -0.003,0.089c0,0.048 0.002,0.089 0.007,0.123c0.004,0.035 0.011,0.062 0.019,0.082c0.008,0.021 0.018,0.036 0.03,0.045c0.013,0.009 0.027,0.014 0.043,0.014c0.027,0 0.069,-0.02 0.125,-0.059c0.056,-0.038 0.125,-0.08 0.208,-0.126c0.084,-0.046 0.18,-0.088 0.291,-0.127c0.11,-0.038 0.235,-0.058 0.374,-0.058c0.119,0 0.223,0.02 0.315,0.058c0.091,0.039 0.167,0.092 0.227,0.158c0.06,0.066 0.106,0.143 0.138,0.23c0.032,0.088 0.048,0.181 0.048,0.279c0,0.098 -0.01,0.203 -0.031,0.314c-0.02,0.112 -0.063,0.236 -0.128,0.373c-0.065,0.137 -0.157,0.288 -0.277,0.455c-0.119,0.166 -0.278,0.354 -0.476,0.564l-0.858,0.909c-0.028,0.029 -0.05,0.057 -0.067,0.083c-0.017,0.027 -0.031,0.053 -0.043,0.079c-0.011,0.026 -0.018,0.056 -0.022,0.091c-0.003,0.034 -0.005,0.074 -0.005,0.119c0,0.05 0.004,0.093 0.012,0.127c0.008,0.034 0.02,0.06 0.038,0.078c0.017,0.019 0.037,0.032 0.061,0.04c0.024,0.008 0.052,0.012 0.084,0.012l2.444,0c0.02,0 0.039,-0.005 0.056,-0.016c0.017,-0.01 0.031,-0.026 0.041,-0.048c0.01,-0.021 0.018,-0.048 0.024,-0.08c0.006,-0.032 0.009,-0.068 0.009,-0.109c0,-0.041 -0.003,-0.077 -0.009,-0.108c-0.006,-0.031 -0.015,-0.056 -0.027,-0.077c-0.013,-0.02 -0.028,-0.036 -0.045,-0.046c-0.017,-0.01 -0.035,-0.015 -0.053,-0.015l-1.924,0Zm1.642,-6.502l0,-2.823c0,-0.021 -0.009,-0.038 -0.027,-0.053c-0.018,-0.015 -0.045,-0.027 -0.079,-0.036c-0.034,-0.009 -0.079,-0.016 -0.135,-0.022c-0.056,-0.006 -0.121,-0.009 -0.196,-0.009c-0.069,0 -0.128,0.002 -0.178,0.005c-0.05,0.004 -0.092,0.01 -0.127,0.019c-0.034,0.009 -0.062,0.021 -0.083,0.034c-0.022,0.014 -0.038,0.03 -0.05,0.048l-1.593,2.687c-0.016,0.029 -0.029,0.057 -0.041,0.084c-0.011,0.026 -0.02,0.053 -0.027,0.082c-0.007,0.028 -0.011,0.059 -0.014,0.094c-0.002,0.034 -0.003,0.072 -0.003,0.116c0,0.054 0.003,0.099 0.009,0.133c0.005,0.034 0.015,0.06 0.03,0.079c0.015,0.018 0.032,0.03 0.05,0.037c0.018,0.007 0.041,0.011 0.068,0.011l1.825,0l0,0.929c0,0.018 0.004,0.034 0.012,0.046c0.008,0.013 0.023,0.024 0.045,0.033c0.021,0.009 0.05,0.016 0.087,0.02c0.036,0.005 0.082,0.007 0.137,0.007c0.057,0 0.103,-0.002 0.14,-0.007c0.036,-0.004 0.066,-0.011 0.089,-0.02c0.022,-0.009 0.038,-0.02 0.048,-0.033c0.009,-0.012 0.013,-0.028 0.013,-0.046l0,-0.929l0.499,0c0.041,0 0.073,-0.022 0.096,-0.065c0.023,-0.044 0.034,-0.103 0.034,-0.178c0,-0.082 -0.012,-0.143 -0.036,-0.183c-0.024,-0.04 -0.055,-0.06 -0.094,-0.06l-0.499,0Zm-0.571,-2.427l0,2.427l-1.445,0l1.439,-2.427l0.006,0Zm-0.359,-8.808l3.942,7.872l-1.722,-0.925l-2.66,1.152l-1.158,-0.797l-2.343,0.57l3.941,-7.872Z" style="fill:#fff;"/><path d="M33.502,27.676c0,0.191 -0.034,0.362 -0.102,0.511c-0.068,0.149 -0.167,0.275 -0.296,0.377c-0.129,0.103 -0.287,0.18 -0.477,0.233c-0.189,0.052 -0.405,0.079 -0.649,0.079c-0.228,0 -0.432,-0.024 -0.612,-0.072c-0.18,-0.048 -0.332,-0.119 -0.458,-0.212c-0.125,-0.094 -0.221,-0.209 -0.287,-0.345c-0.066,-0.137 -0.099,-0.293 -0.099,-0.469c0,-0.139 0.023,-0.266 0.068,-0.382c0.046,-0.117 0.111,-0.224 0.197,-0.322c0.085,-0.098 0.191,-0.189 0.316,-0.275c0.125,-0.085 0.267,-0.167 0.424,-0.244c-0.137,-0.071 -0.258,-0.146 -0.362,-0.224c-0.105,-0.079 -0.194,-0.164 -0.267,-0.257c-0.073,-0.092 -0.128,-0.19 -0.166,-0.295c-0.037,-0.105 -0.056,-0.219 -0.056,-0.342c0,-0.155 0.028,-0.3 0.084,-0.436c0.055,-0.135 0.14,-0.253 0.252,-0.354c0.113,-0.1 0.257,-0.179 0.431,-0.237c0.174,-0.058 0.378,-0.087 0.61,-0.087c0.224,0 0.417,0.027 0.58,0.08c0.162,0.054 0.297,0.127 0.403,0.219c0.106,0.092 0.184,0.201 0.234,0.326c0.05,0.126 0.075,0.26 0.075,0.404c0,0.116 -0.019,0.227 -0.056,0.335c-0.038,0.107 -0.093,0.208 -0.166,0.304c-0.073,0.095 -0.162,0.185 -0.268,0.268c-0.106,0.083 -0.228,0.161 -0.364,0.234c0.161,0.08 0.306,0.162 0.432,0.246c0.127,0.085 0.233,0.175 0.318,0.272c0.085,0.097 0.15,0.199 0.195,0.308c0.044,0.108 0.066,0.227 0.066,0.357Zm-0.738,-2.27c0,-0.095 -0.016,-0.182 -0.049,-0.259c-0.033,-0.078 -0.082,-0.144 -0.146,-0.199c-0.063,-0.054 -0.143,-0.096 -0.237,-0.124c-0.095,-0.029 -0.202,-0.043 -0.323,-0.043c-0.246,0 -0.433,0.056 -0.559,0.167c-0.127,0.112 -0.19,0.265 -0.19,0.458c0,0.089 0.016,0.172 0.046,0.248c0.031,0.076 0.079,0.149 0.144,0.217c0.065,0.068 0.147,0.135 0.246,0.2c0.099,0.065 0.217,0.133 0.354,0.203c0.23,-0.118 0.407,-0.249 0.53,-0.393c0.123,-0.143 0.184,-0.302 0.184,-0.475Zm0.144,2.331c0,-0.104 -0.02,-0.2 -0.058,-0.285c-0.039,-0.086 -0.098,-0.165 -0.176,-0.239c-0.079,-0.074 -0.177,-0.146 -0.294,-0.216c-0.118,-0.069 -0.254,-0.142 -0.409,-0.217c-0.143,0.071 -0.269,0.142 -0.378,0.212c-0.108,0.071 -0.197,0.144 -0.266,0.219c-0.07,0.075 -0.122,0.154 -0.157,0.238c-0.036,0.083 -0.053,0.174 -0.053,0.275c0,0.221 0.075,0.392 0.227,0.512c0.152,0.121 0.378,0.182 0.678,0.182c0.292,0 0.513,-0.061 0.662,-0.183c0.149,-0.122 0.224,-0.288 0.224,-0.498Z" style="fill:#fff;fill-rule:nonzero;"/></g></svg>