<?xml version="1.0" encoding="UTF-8" standalone="no"?><!DOCTYPE svg PUBLIC "-//W3C//DTD SVG 1.1//EN" "http://www.w3.org/Graphics/SVG/1.1/DTD/svg11.dtd"><svg width="100%" height="100%" viewBox="0 0 500 500" version="1.1" xmlns="http://www.w3.org/2000/svg" xmlns:xlink="http://www.w3.org/1999/xlink" xml:space="preserve" xmlns:serif="http://www.serif.com/" style="fill-rule:evenodd;clip-rule:evenodd;stroke-linejoin:round;stroke-miterlimit:1.41421;"><path id="New-Message" serif:id="New Message" d="M85,1c-5.524,0 -10,3.667 -10,8.143c0,2.714 1.571,5.047 4.095,6.524c-0.333,1.666 -2.143,3.428 -2.143,3.428c0,0 3.096,0.381 5.381,-1.905c0,0 2.667,0.096 3.619,0.048c5.524,-0.143 9.048,-3.667 9.048,-8.143c0,-4.476 -4.476,-8.095 -10,-8.095Zm0.952,15.286c-0.857,0 -4,-0.048 -4.047,-0.096c-0.381,0.619 -2.334,2.048 -3.286,1.953c0.667,-0.715 1.476,-2.667 1.429,-3.048c-0.334,-0.19 -0.619,-0.381 -0.953,-0.571c-1.952,-1.334 -3.19,-3.286 -3.19,-5.476c0,-3.953 4.047,-7.191 9.047,-7.191c5,0 9.048,3.238 9.048,7.191c0,3.952 -3.048,7.238 -8.048,7.238Z" style="fill:#8193a6;fill-rule:nonzero;stroke:#8193a6;stroke-width:0.5px;"/><path id="New-Message1" serif:id="New Message" d="M85,26c-5.524,0 -10,3.667 -10,8.143c0,2.714 1.571,5.047 4.095,6.524c-0.333,1.666 -2.143,3.428 -2.143,3.428c0,0 3.096,0.381 5.381,-1.905c0,0 2.667,0.096 3.619,0.048c5.524,-0.143 9.048,-3.667 9.048,-8.143c0,-4.476 -4.476,-8.095 -10,-8.095Zm0.952,15.286c-0.857,0 -4,-0.048 -4.047,-0.096c-0.381,0.619 -2.334,2.048 -3.286,1.953c0.667,-0.715 1.476,-2.667 1.429,-3.048c-0.334,-0.19 -0.619,-0.381 -0.953,-0.571c-1.952,-1.334 -3.19,-3.286 -3.19,-5.476c0,-3.953 4.047,-7.191 9.047,-7.191c5,0 9.048,3.238 9.048,7.191c0,3.952 -3.048,7.238 -8.048,7.238Z" style="fill:#fff;fill-rule:nonzero;"/><path id="Game-Icon" serif:id="Game Icon" d="M9.669,9.375c0.063,0.218 0.084,0.438 0.062,0.664l-0.063,0.343c-0.031,0.111 -0.071,0.223 -0.12,0.337c-0.001,0.004 -0.003,0.008 -0.005,0.011l-1.529,3.1c-0.028,0.058 -0.08,0.101 -0.142,0.119l-0.001,0c-0.062,0.018 -0.129,0.009 -0.184,-0.025l-2.953,-1.806c-0.002,-0.001 -0.005,-0.003 -0.006,-0.004c-0.107,-0.071 -0.2,-0.148 -0.289,-0.229l-0.238,-0.253c-0.135,-0.176 -0.233,-0.371 -0.296,-0.583c-0.262,-0.905 0.204,-1.85 1.051,-2.208l0.114,-0.044c0.429,-0.149 0.899,-0.136 1.319,0.043c0.263,-0.383 0.649,-0.633 1.096,-0.745l0.12,-0.022c0.904,-0.149 1.801,0.4 2.064,1.302m7.839,-8.102l0.016,13.579c0.032,1.252 -0.943,1.218 -1.155,1.218l-2.168,0.053c0.24,0.635 0.041,1.39 -0.815,1.691l-7.68,2.107c-0.204,0.06 -1.392,0.392 -1.947,-0.961l-3.691,-12.972c-0.335,-1.018 0.662,-1.323 0.866,-1.382l5.724,-1.683l0.026,-1.633c0,-0.212 0.026,-1.301 1.253,-1.29c0,0 8.103,0.019 8.181,0.018c1.438,-0.031 1.391,1.258 1.39,1.255Zm-5.377,15.411c0,0 0.841,-0.383 0.481,-1.51c-0.671,-2.102 -3.306,-11.078 -3.316,-11.108c-0.304,-0.938 -1.295,-0.522 -1.335,-0.522c-0.073,0.001 -5.975,1.896 -6.057,1.924c-0.924,0.312 -0.374,1.486 -0.373,1.52c0.003,0.12 2.338,8.528 3.073,10.606c0.337,0.954 1.435,0.854 1.435,0.854m9.605,-3.593c0.798,-0.011 0.768,-0.361 0.786,-0.714c0.109,-2.075 -0.135,-11.739 -0.135,-11.739c0,0 0.029,-1.07 -1.013,-1.099c-0.396,-0.011 -6.614,-0.056 -6.626,-0.056c-1.08,0.043 -0.795,1.31 -0.795,1.31l0.757,-0.211c0.203,-0.059 1.362,-0.377 1.737,0.594l0.634,2.129l0.599,-0.655c0.044,-0.048 0.106,-0.075 0.171,-0.075l0.001,0c0.065,0 0.128,0.028 0.172,0.076l2.351,2.58c0.071,0.105 0.155,0.201 0.22,0.309l0.16,0.312c0.429,1.106 -0.346,2.353 -1.517,2.49l-0.122,0.011c-0.202,0.01 -0.377,-0.011 -0.588,-0.069l0.422,1.451c0.479,0.007 1.048,-0.16 1.048,-0.16l0,0.528l-0.941,0l0.907,3.034c0,0 1.328,-0.04 1.772,-0.046Z" style="fill:#8193a6;fill-rule:nonzero;"/><path id="Game-Icon1" serif:id="Game Icon" d="M9.669,34.375c0.063,0.218 0.084,0.438 0.062,0.664l-0.063,0.343c-0.031,0.111 -0.071,0.223 -0.12,0.337c-0.001,0.004 -0.003,0.008 -0.005,0.011l-1.529,3.1c-0.028,0.058 -0.08,0.101 -0.142,0.119l-0.001,0c-0.062,0.018 -0.129,0.009 -0.184,-0.025l-2.953,-1.806c-0.002,-0.001 -0.005,-0.003 -0.006,-0.004c-0.107,-0.071 -0.2,-0.148 -0.289,-0.229l-0.238,-0.253c-0.135,-0.176 -0.233,-0.371 -0.296,-0.583c-0.262,-0.905 0.204,-1.85 1.051,-2.208l0.114,-0.044c0.429,-0.149 0.899,-0.136 1.319,0.043c0.263,-0.383 0.649,-0.633 1.096,-0.745l0.12,-0.022c0.904,-0.149 1.801,0.4 2.064,1.302m7.839,-8.102l0.016,13.579c0.032,1.252 -0.943,1.218 -1.155,1.218l-2.168,0.053c0.24,0.635 0.041,1.39 -0.815,1.691l-7.68,2.107c-0.204,0.06 -1.392,0.392 -1.947,-0.961l-3.691,-12.972c-0.335,-1.018 0.662,-1.323 0.866,-1.382l5.724,-1.683l0.026,-1.633c0,-0.212 0.026,-1.301 1.253,-1.29c0,0 8.103,0.019 8.181,0.018c1.438,-0.031 1.391,1.258 1.39,1.255Zm-5.377,15.411c0,0 0.841,-0.383 0.481,-1.51c-0.671,-2.102 -3.306,-11.078 -3.316,-11.108c-0.304,-0.938 -1.295,-0.522 -1.335,-0.522c-0.073,0.001 -5.975,1.896 -6.057,1.924c-0.924,0.312 -0.374,1.486 -0.373,1.52c0.003,0.12 2.338,8.528 3.073,10.606c0.337,0.954 1.435,0.854 1.435,0.854m9.605,-3.593c0.798,-0.011 0.768,-0.361 0.786,-0.714c0.109,-2.075 -0.135,-11.739 -0.135,-11.739c0,0 0.029,-1.07 -1.013,-1.099c-0.396,-0.011 -6.614,-0.056 -6.626,-0.056c-1.08,0.043 -0.795,1.31 -0.795,1.31l0.757,-0.211c0.203,-0.059 1.362,-0.377 1.737,0.594l0.634,2.129l0.599,-0.655c0.044,-0.048 0.106,-0.075 0.171,-0.075l0.001,0c0.065,0 0.128,0.028 0.172,0.076l2.351,2.58c0.071,0.105 0.155,0.201 0.22,0.309l0.16,0.312c0.429,1.106 -0.346,2.353 -1.517,2.49l-0.122,0.011c-0.202,0.01 -0.377,-0.011 -0.588,-0.069l0.422,1.451c0.479,0.007 1.048,-0.16 1.048,-0.16l0,0.528l-0.941,0l0.907,3.034c0,0 1.328,-0.04 1.772,-0.046Z" style="fill:#fff;fill-rule:nonzero;"/><g id="Chips-Icon" serif:id="Chips Icon"><path d="M69.767,6.81c0.255,0.352 0.149,2.021 0.149,2.407c0,2.186 -4.386,3.961 -9.788,3.961c-5.402,0 -9.788,-1.775 -9.788,-3.961c0,-0.551 -0.275,-2.221 0,-2.407" style="fill:none;stroke:#8193a6;stroke-width:1px;stroke-linecap:round;stroke-miterlimit:1.5;"/><path d="M50.498,9.929c-0.246,0.213 -0.158,0.687 -0.158,1.238c0,2.186 4.386,3.962 9.788,3.962c5.402,0 9.788,-1.776 9.788,-3.962c0,-0.108 0.066,-0.579 -0.16,-1.238" style="fill:none;stroke:#8193a6;stroke-width:1px;stroke-linecap:round;stroke-miterlimit:1.5;"/><path d="M69.756,11.883c0.226,0.659 0.16,1.37 0.16,1.478c0,1.168 -1.252,2.219 -3.241,2.944c-1.735,0.632 -4.031,1.018 -6.547,1.018c-5.402,0 -9.788,-1.776 -9.788,-3.962c0,-0.551 -0.087,-1.265 0.16,-1.478" style="fill:none;stroke:#8193a6;stroke-width:1px;stroke-linecap:round;stroke-miterlimit:1.5;"/><path d="M60,3c5.519,0 10,1.774 10,3.96c0,2.186 -4.481,3.96 -10,3.96c-5.519,0 -10,-1.774 -10,-3.96c0,-2.186 4.481,-3.96 10,-3.96Zm3.631,2.415l-9.369,2.267l0.985,0.973l11.043,-2.673l-0.985,-0.972l-2.12,-0.686l-1.682,0.407l2.128,0.684Z" style="fill:#8193a6;"/></g><g id="Chips-Icon1" serif:id="Chips Icon"><path d="M69.767,31.81c0.255,0.352 0.149,2.021 0.149,2.407c0,2.186 -4.386,3.961 -9.788,3.961c-5.402,0 -9.788,-1.775 -9.788,-3.961c0,-0.551 -0.275,-2.221 0,-2.407" style="fill:none;stroke:#fff;stroke-width:1px;stroke-linecap:round;stroke-miterlimit:1.5;"/><path d="M50.498,34.929c-0.246,0.213 -0.158,0.687 -0.158,1.238c0,2.186 4.386,3.962 9.788,3.962c5.402,0 9.788,-1.776 9.788,-3.962c0,-0.108 0.066,-0.579 -0.16,-1.238" style="fill:none;stroke:#fff;stroke-width:1px;stroke-linecap:round;stroke-miterlimit:1.5;"/><path d="M69.756,36.883c0.226,0.659 0.16,1.37 0.16,1.478c0,1.168 -1.252,2.219 -3.241,2.944c-1.735,0.632 -4.031,1.018 -6.547,1.018c-5.402,0 -9.788,-1.776 -9.788,-3.962c0,-0.551 -0.087,-1.265 0.16,-1.478" style="fill:none;stroke:#fff;stroke-width:1px;stroke-linecap:round;stroke-miterlimit:1.5;"/><path d="M60,28c5.519,0 10,1.774 10,3.96c0,2.186 -4.481,3.96 -10,3.96c-5.519,0 -10,-1.774 -10,-3.96c0,-2.186 4.481,-3.96 10,-3.96Zm3.631,2.415l-9.369,2.267l0.985,0.973l11.043,-2.673l-0.985,-0.972l-2.12,-0.686l-1.682,0.407l2.128,0.684Z" style="fill:#fff;"/></g><path id="Book-Icon" serif:id="Book Icon" d="M117.916,20l-14.999,0c-0.691,0 -1.25,-0.56 -1.25,-1.25l0,-2.083l0.833,0c0.92,0 1.667,-0.746 1.667,-1.667c0,-0.92 -0.747,-1.666 -1.667,-1.666l-0.833,0l0,-1.667l0.833,0c0.92,0 1.667,-0.746 1.667,-1.667c0,-0.92 -0.747,-1.667 -1.667,-1.667l-0.833,0l0,-1.666l0.833,0c0.92,0 1.667,-0.747 1.667,-1.667c0,-0.92 -0.747,-1.667 -1.667,-1.667l-0.833,0l0,-2.083c0,-0.69 0.559,-1.25 1.25,-1.25l8.75,0l0,9.167l2.5,-2.5l2.5,2.5l0,-9.167l1.249,0c0.691,0 1.251,0.56 1.251,1.25l0,17.5c0,0.69 -0.56,1.25 -1.251,1.25Zm-14.583,-15c0,0.46 -0.373,0.833 -0.833,0.833l-1.667,0c-0.46,0 -0.833,-0.373 -0.833,-0.833c0,-0.46 0.373,-0.833 0.833,-0.833l1.667,0c0.46,0 0.833,0.373 0.833,0.833Zm-2.5,4.167l1.667,0c0.46,0 0.833,0.373 0.833,0.833c0,0.46 -0.373,0.833 -0.833,0.833l-1.667,0c-0.46,0 -0.833,-0.373 -0.833,-0.833c0,-0.46 0.373,-0.833 0.833,-0.833Zm0,5l1.667,0c0.46,0 0.833,0.373 0.833,0.833c0,0.46 -0.373,0.833 -0.833,0.833l-1.667,0c-0.46,0 -0.833,-0.373 -0.833,-0.833c0,-0.46 0.373,-0.833 0.833,-0.833Z" style="fill:#8193a6;"/><path id="Book-Icon1" serif:id="Book Icon" d="M117.916,45l-14.999,0c-0.691,0 -1.25,-0.56 -1.25,-1.25l0,-2.083l0.833,0c0.92,0 1.667,-0.746 1.667,-1.667c0,-0.92 -0.747,-1.666 -1.667,-1.666l-0.833,0l0,-1.667l0.833,0c0.92,0 1.667,-0.746 1.667,-1.667c0,-0.92 -0.747,-1.667 -1.667,-1.667l-0.833,0l0,-1.666l0.833,0c0.92,0 1.667,-0.747 1.667,-1.667c0,-0.92 -0.747,-1.667 -1.667,-1.667l-0.833,0l0,-2.083c0,-0.69 0.559,-1.25 1.25,-1.25l8.75,0l0,9.167l2.5,-2.5l2.5,2.5l0,-9.167l1.249,0c0.691,0 1.251,0.56 1.251,1.25l0,17.5c0,0.69 -0.56,1.25 -1.251,1.25Zm-14.583,-15c0,0.46 -0.373,0.833 -0.833,0.833l-1.667,0c-0.46,0 -0.833,-0.373 -0.833,-0.833c0,-0.46 0.373,-0.833 0.833,-0.833l1.667,0c0.46,0 0.833,0.373 0.833,0.833Zm-2.5,4.167l1.667,0c0.46,0 0.833,0.373 0.833,0.833c0,0.46 -0.373,0.833 -0.833,0.833l-1.667,0c-0.46,0 -0.833,-0.373 -0.833,-0.833c0,-0.46 0.373,-0.833 0.833,-0.833Zm0,5l1.667,0c0.46,0 0.833,0.373 0.833,0.833c0,0.46 -0.373,0.833 -0.833,0.833l-1.667,0c-0.46,0 -0.833,-0.373 -0.833,-0.833c0,-0.46 0.373,-0.833 0.833,-0.833Z" style="fill:#fff;"/><path id="User-Icon" serif:id="User Icon" d="M141.67,19.679c-1.515,0.253 -3.296,0.32 -6.67,0.32c-3.374,0 -5.155,-0.067 -6.67,-0.32c-2.121,-0.353 -3.33,-1.109 -3.33,-2.38c0,-1.678 2.16,-4.019 5.163,-5.374c1.214,1.84 2.927,3.074 4.837,3.074c1.909,0 3.623,-1.234 4.837,-3.074c3.003,1.355 5.163,3.696 5.163,5.374c0,1.271 -1.209,2.027 -3.33,2.38Zm-6.67,-6.346c-2.768,0 -5,-3.675 -5,-7.451c0,-3.515 2.087,-5.882 5,-5.882c2.913,0 5,2.367 5,5.882c0,3.776 -2.232,7.451 -5,7.451Z" style="fill:#8393a7;"/><path id="Home" d="M165.404,4.503l0,-0.137c0,-0.643 0.513,-1.165 1.157,-1.165c0.639,0 1.157,0.515 1.157,1.165l0,2.199l1.885,1.679c0.661,0.589 0.478,1.066 -0.409,1.066l-1.476,0l0,9.12c0,0.446 -0.351,0.807 -0.808,0.807l-13.813,0c-0.446,0 -0.807,-0.36 -0.807,-0.807l0,-9.12l-1.484,0c-0.887,0 -1.07,-0.477 -0.409,-1.066l9.007,-8.024c0.329,-0.293 0.863,-0.293 1.192,0l4.808,4.283Zm-3.086,6.716l0,5.613l3.086,0l0,-5.613l-3.086,0Z" style="fill:#8393a7;"/><path id="Home1" serif:id="Home" d="M165.404,29.503l0,-0.137c0,-0.643 0.513,-1.165 1.157,-1.165c0.639,0 1.157,0.515 1.157,1.165l0,2.199l1.885,1.679c0.661,0.589 0.478,1.066 -0.409,1.066l-1.476,0l0,9.12c0,0.446 -0.351,0.807 -0.808,0.807l-13.813,0c-0.446,0 -0.807,-0.36 -0.807,-0.807l0,-9.12l-1.484,0c-0.887,0 -1.07,-0.477 -0.409,-1.066l9.007,-8.024c0.329,-0.293 0.863,-0.293 1.192,0l4.808,4.283Zm-3.086,6.716l0,5.613l3.086,0l0,-5.613l-3.086,0Z" style="fill:#fff;"/><path id="User-Icon1" serif:id="User Icon" d="M141.67,44.679c-1.515,0.253 -3.296,0.32 -6.67,0.32c-3.374,0 -5.155,-0.067 -6.67,-0.32c-2.121,-0.353 -3.33,-1.109 -3.33,-2.38c0,-1.678 2.16,-4.019 5.163,-5.374c1.214,1.84 2.927,3.074 4.837,3.074c1.909,0 3.623,-1.234 4.837,-3.074c3.003,1.355 5.163,3.696 5.163,5.374c0,1.271 -1.209,2.027 -3.33,2.38Zm-6.67,-6.346c-2.768,0 -5,-3.675 -5,-7.451c0,-3.515 2.087,-5.882 5,-5.882c2.913,0 5,2.367 5,5.882c0,3.776 -2.232,7.451 -5,7.451Z" style="fill:#fff;"/><g><path d="M44.655,20c-0.663,0.088 -17.339,0.032 -19.379,0c-1.976,-0.031 7.211,-20.007 9.69,-20c2.355,0.007 11.961,19.698 9.689,20Zm-9.668,-19.084c1.715,-0.02 5.204,7.733 5.204,7.733l-3.058,-0.786l-2.572,1.152l-1.119,-0.797l-3.539,0.55c0,0 3.369,-7.832 5.084,-7.852Z" style="fill:#8193a6;"/></g><g><path d="M44.655,45c-0.663,0.088 -17.339,0.032 -19.379,0c-1.976,-0.031 7.211,-20.007 9.69,-20c2.355,0.007 11.961,19.698 9.689,20Zm-9.668,-19.084c1.715,-0.02 5.204,7.733 5.204,7.733l-3.058,-0.786l-2.572,1.152l-1.119,-0.797l-3.539,0.55c0,0 3.369,-7.832 5.084,-7.852Z" style="fill:#fff;"/></g><g><g><path d="M314,4.331c0,-0.725 -0.589,-1.313 -1.314,-1.313l-11.372,0c-0.725,0 -1.314,0.588 -1.314,1.313c0,0.725 0.589,1.314 1.314,1.314l11.372,0c0.725,0 1.314,-0.589 1.314,-1.314Z" style="fill:#8393a7;"/><circle cx="315.752" cy="4.3" r="1.3" style="fill:#8393a7;"/><circle cx="318.752" cy="4.3" r="1.3" style="fill:#8393a7;"/></g><g><path d="M314,10.131c0,-0.725 -0.589,-1.313 -1.314,-1.313l-11.372,0c-0.725,0 -1.314,0.588 -1.314,1.313c0,0.725 0.589,1.314 1.314,1.314l11.372,0c0.725,0 1.314,-0.589 1.314,-1.314Z" style="fill:#8393a7;"/><circle cx="315.752" cy="10.1" r="1.3" style="fill:#8393a7;"/><circle cx="318.752" cy="10.1" r="1.3" style="fill:#8393a7;"/></g><g><path d="M314,16.031c0,-0.725 -0.589,-1.313 -1.314,-1.313l-11.372,0c-0.725,0 -1.314,0.588 -1.314,1.313c0,0.725 0.589,1.314 1.314,1.314l11.372,0c0.725,0 1.314,-0.589 1.314,-1.314Z" style="fill:#8393a7;"/><circle cx="315.752" cy="16" r="1.3" style="fill:#8393a7;"/><circle cx="318.752" cy="16" r="1.3" style="fill:#8393a7;"/></g></g><g><g><path d="M314,28.831c0,-0.725 -0.589,-1.313 -1.314,-1.313l-11.372,0c-0.725,0 -1.314,0.588 -1.314,1.313c0,0.725 0.589,1.314 1.314,1.314l11.372,0c0.725,0 1.314,-0.589 1.314,-1.314Z" style="fill:#fff;"/><circle cx="315.752" cy="28.8" r="1.3" style="fill:#fff;"/><circle cx="318.752" cy="28.8" r="1.3" style="fill:#fff;"/></g><g><path d="M314,34.631c0,-0.725 -0.589,-1.313 -1.314,-1.313l-11.372,0c-0.725,0 -1.314,0.588 -1.314,1.313c0,0.725 0.589,1.314 1.314,1.314l11.372,0c0.725,0 1.314,-0.589 1.314,-1.314Z" style="fill:#fff;"/><circle cx="315.752" cy="34.6" r="1.3" style="fill:#fff;"/><circle cx="318.752" cy="34.6" r="1.3" style="fill:#fff;"/></g><g><path d="M314,40.531c0,-0.725 -0.589,-1.313 -1.314,-1.313l-11.372,0c-0.725,0 -1.314,0.588 -1.314,1.313c0,0.725 0.589,1.314 1.314,1.314l11.372,0c0.725,0 1.314,-0.589 1.314,-1.314Z" style="fill:#fff;"/><circle cx="315.752" cy="40.5" r="1.3" style="fill:#fff;"/><circle cx="318.752" cy="40.5" r="1.3" style="fill:#fff;"/></g></g><path id="Mail-Icon" serif:id="Mail Icon" d="M193.75,17.833l-17.5,0c-0.69,0 -1.25,-0.56 -1.25,-1.25l0,-13.333c0,-0.691 0.56,-1.25 1.25,-1.25l17.5,0c0.69,0 1.25,0.559 1.25,1.25l0,13.333c0,0.69 -0.56,1.25 -1.25,1.25Zm-1.25,-2.5l0,-9.646l-6.891,6.9c-0.169,0.169 -0.392,0.25 -0.613,0.245c-0.222,0.005 -0.445,-0.076 -0.614,-0.245l-6.882,-6.891l0,9.637l15,0Zm-1.2,-10.834l-12.609,0l6.305,6.314l6.304,-6.314Z" style="fill:#8393a7;"/><path id="Mail-Icon1" serif:id="Mail Icon" d="M193.75,42.833l-17.5,0c-0.69,0 -1.25,-0.56 -1.25,-1.25l0,-13.333c0,-0.691 0.56,-1.25 1.25,-1.25l17.5,0c0.69,0 1.25,0.559 1.25,1.25l0,13.333c0,0.69 -0.56,1.25 -1.25,1.25Zm-1.25,-2.5l0,-9.646l-6.891,6.9c-0.169,0.169 -0.392,0.25 -0.613,0.245c-0.222,0.005 -0.445,-0.076 -0.614,-0.245l-6.882,-6.891l0,9.637l15,0Zm-1.2,-10.834l-12.609,0l6.305,6.314l6.304,-6.314Z" style="fill:#fff;"/><path id="Post-Icon" serif:id="Post Icon" d="M216.871,19l-15.746,0c-0.621,0 -1.125,-0.503 -1.125,-1.125l0,-15.746c0,-0.621 0.504,-1.125 1.125,-1.125l12.352,0l-2.248,2.25l-8.98,0l0,13.497l13.497,0l0,-8.983l2.25,-2.25l0,12.357c0,0.622 -0.504,1.125 -1.125,1.125Zm0.223,-14.694l-2.406,-2.406l0.401,-0.402c0.664,-0.664 1.741,-0.664 2.406,0c0.664,0.665 0.664,1.742 0,2.407l-0.401,0.401Zm-11.845,9.444l0.802,-3.208l0.401,-0.402l2.406,2.407l-0.401,0.401l-3.208,0.802Zm11.043,-8.642l-6.632,6.637l-2.406,-2.407l6.632,-6.636l2.406,2.406Z" style="fill:#8393a7;"/><path id="Post-Icon1" serif:id="Post Icon" d="M216.871,44l-15.746,0c-0.621,0 -1.125,-0.503 -1.125,-1.125l0,-15.746c0,-0.621 0.504,-1.125 1.125,-1.125l12.352,0l-2.248,2.25l-8.98,0l0,13.497l13.497,0l0,-8.983l2.25,-2.25l0,12.357c0,0.622 -0.504,1.125 -1.125,1.125Zm0.223,-14.694l-2.406,-2.406l0.401,-0.402c0.664,-0.664 1.741,-0.664 2.406,0c0.664,0.665 0.664,1.742 0,2.407l-0.401,0.401Zm-11.845,9.444l0.802,-3.208l0.401,-0.402l2.406,2.407l-0.401,0.401l-3.208,0.802Zm11.043,-8.642l-6.632,6.637l-2.406,-2.407l6.632,-6.636l2.406,2.406Z" style="fill:#fff;"/><g id="Table-Add" serif:id="Table Add"><circle cx="10" cy="60" r="10" style="fill:#03a750;"/><path d="M15,59.545l-4.545,0l0,-4.545l-0.91,0l0,4.545l-4.545,0l0,0.91l4.545,0l0,4.545l0.91,0l0,-4.545l4.545,0l0,-0.91Z" style="fill:#fff;fill-rule:nonzero;"/></g><g><g id="Table-Delete" serif:id="Table Delete"><circle cx="35" cy="60" r="10" style="fill:#9d0000;"/><rect x="30" y="59.545" width="10" height="0.909" style="fill:#9d0000;"/></g><path d="M29.852,59.962l10.274,-0.075" style="fill:none;stroke:#fff;stroke-width:1px;stroke-linecap:round;stroke-miterlimit:1.5;"/></g><path d="M60,50c5.519,0 10,4.481 10,10c0,5.519 -4.481,10 -10,10c-5.519,0 -10,-4.481 -10,-10c0,-5.519 4.481,-10 10,-10Zm-6.107,12.515c-0.661,0.359 1.769,4.41 5.966,4.491c4.202,0.081 7.192,-4.471 6.553,-4.791c-0.947,-0.475 -2.23,2.734 -6.48,2.722c-4.235,-0.011 -5.171,-2.893 -6.039,-2.422Zm2.203,-7.499c1.06,0 1.919,0.86 1.919,1.919c0,1.059 -0.859,1.919 -1.919,1.919c-1.059,0 -1.919,-0.86 -1.919,-1.919c0,-1.059 0.86,-1.919 1.919,-1.919Zm7.784,-0.006c1.059,0 1.919,0.86 1.919,1.919c0,1.059 -0.86,1.919 -1.919,1.919c-1.059,0 -1.919,-0.86 -1.919,-1.919c0,-1.059 0.86,-1.919 1.919,-1.919Z" style="fill:#eec426;"/><g><path d="M10,75c-5.522,0 -10,4.478 -10,10c0,1.104 0.179,2.165 0.509,3.159l2.991,0l0,-8.414l6.5,6.5l6.5,-6.5l0,8.414l2.991,0c0.33,-0.994 0.509,-2.055 0.509,-3.159c0,-5.522 -4.478,-10 -10,-10" style="fill:#f60;fill-rule:nonzero;"/><path d="M8.505,87.739l-2.837,-2.836l0,5.294l-4.213,0c1.755,2.88 4.926,4.803 8.545,4.803c3.619,0 6.789,-1.923 8.544,-4.803l-4.213,0l0,-5.295l-2.837,2.837l-1.494,1.495l-1.495,-1.495l0,0l0,0Z" style="fill:#4c4c4c;fill-rule:nonzero;"/></g><path id="Loupe-Icon" serif:id="Loupe Icon" d="M19.631,119.63c-0.493,0.493 -1.29,0.493 -1.783,0l-3.865,-3.865c-1.46,1.09 -3.266,1.744 -5.228,1.744c-4.835,0 -8.755,-3.919 -8.755,-8.755c0,-4.835 3.92,-8.754 8.755,-8.754c4.835,0 8.755,3.919 8.755,8.754c0,1.963 -0.654,3.769 -1.745,5.229l3.866,3.864c0.492,0.493 0.492,1.291 0,1.783Zm-10.876,-17.129c-3.454,0 -6.254,2.8 -6.254,6.253c0,3.454 2.8,6.254 6.254,6.254c3.453,0 6.253,-2.8 6.253,-6.254c0,-3.453 -2.8,-6.253 -6.253,-6.253Z" style="fill:#8393a7;"/><path id="Mail-Icon2" serif:id="Mail Icon" d="M243.75,20l-17.5,0c-0.69,0 -1.25,-0.5 -1.25,-1.117l0,-11.918l3.311,-2.39c0,0 0.002,-3.656 0.002,-4.114c0,-0.33 0.184,-0.462 0.699,-0.461c2.59,0.003 12.247,0.001 12.597,0.018c0.499,0.025 0.679,0.192 0.684,0.594c0.016,1.179 0.055,3.962 0.055,3.962l2.653,2.088l-0.001,12.221c0,0.617 -0.56,1.117 -1.25,1.117Zm-1.25,-2.235l0,-8.621l-6.891,6.167c-0.169,0.151 -0.392,0.224 -0.613,0.219c-0.222,0.005 -0.445,-0.068 -0.614,-0.219l-6.882,-6.16l0,8.614l15,0Zm-1.843,-8.665c0,0 -0.05,-6.263 -0.057,-7.18c-0.002,-0.295 -0.151,-0.462 -0.655,-0.459c-1.865,0.01 -7.694,0.009 -9.446,-0.004c-0.366,-0.003 -0.531,0.17 -0.531,0.428c-0.001,0.659 -0.014,7.382 -0.014,7.382l5.042,4.458l5.661,-4.625Zm-1.833,-1.792c0.138,0 0.25,0.114 0.25,0.256l0,0.512c0,0.141 -0.112,0.256 -0.25,0.256l-7.351,0c-0.138,0 -0.25,-0.115 -0.25,-0.256l0,-0.512c0,-0.142 0.112,-0.256 0.25,-0.256l7.351,0Zm-10.43,-1.238l0.115,2.249l-1.529,-1.236l1.414,-1.013Zm13.785,-0.12l-0.115,2.249l1.529,-1.236l-1.414,-1.013Zm-3.355,-0.687c0.138,0 0.25,0.115 0.25,0.256l0,0.513c0,0.141 -0.112,0.256 -0.25,0.256l-7.351,0c-0.138,0 -0.25,-0.115 -0.25,-0.256l0,-0.513c0,-0.141 0.112,-0.256 0.25,-0.256l7.351,0Zm-0.027,-2.226c0.138,0 0.25,0.115 0.25,0.256l0,0.513c0,0.141 -0.112,0.256 -0.25,0.256l-2.923,0c-0.138,0 -0.25,-0.115 -0.25,-0.256l0,-0.513c0,-0.141 0.112,-0.256 0.25,-0.256l2.923,0Z" style="fill:#8393a7;"/><path id="Mail-Icon3" serif:id="Mail Icon" d="M243.75,45l-17.5,0c-0.69,0 -1.25,-0.5 -1.25,-1.117l0,-11.918l3.311,-2.39c0,0 0.002,-3.656 0.002,-4.114c0,-0.33 0.184,-0.462 0.699,-0.461c2.59,0.003 12.247,0.001 12.597,0.018c0.499,0.025 0.679,0.192 0.684,0.594c0.016,1.179 0.055,3.962 0.055,3.962l2.653,2.088l-0.001,12.221c0,0.617 -0.56,1.117 -1.25,1.117Zm-1.25,-2.235l0,-8.621l-6.891,6.167c-0.169,0.151 -0.392,0.224 -0.613,0.219c-0.222,0.005 -0.445,-0.068 -0.614,-0.219l-6.882,-6.16l0,8.614l15,0Zm-1.843,-8.665c0,0 -0.05,-6.263 -0.057,-7.18c-0.002,-0.295 -0.151,-0.462 -0.655,-0.459c-1.865,0.01 -7.694,0.009 -9.446,-0.004c-0.366,-0.003 -0.531,0.17 -0.531,0.428c-0.001,0.659 -0.014,7.382 -0.014,7.382l5.042,4.458l5.661,-4.625Zm-1.833,-1.792c0.138,0 0.25,0.114 0.25,0.256l0,0.512c0,0.141 -0.112,0.256 -0.25,0.256l-7.351,0c-0.138,0 -0.25,-0.115 -0.25,-0.256l0,-0.512c0,-0.142 0.112,-0.256 0.25,-0.256l7.351,0Zm-10.43,-1.238l0.115,2.249l-1.529,-1.236l1.414,-1.013Zm13.785,-0.12l-0.115,2.249l1.529,-1.236l-1.414,-1.013Zm-3.355,-0.687c0.138,0 0.25,0.115 0.25,0.256l0,0.513c0,0.141 -0.112,0.256 -0.25,0.256l-7.351,0c-0.138,0 -0.25,-0.115 -0.25,-0.256l0,-0.513c0,-0.141 0.112,-0.256 0.25,-0.256l7.351,0Zm-0.027,-2.226c0.138,0 0.25,0.115 0.25,0.256l0,0.513c0,0.141 -0.112,0.256 -0.25,0.256l-2.923,0c-0.138,0 -0.25,-0.115 -0.25,-0.256l0,-0.513c0,-0.141 0.112,-0.256 0.25,-0.256l2.923,0Z" style="fill:#fff;"/><g><path d="M250.252,0c0,0 1.199,1.963 1.918,2.857c1.783,2.214 4.723,4.791 8.104,7.33c1.346,1.011 3.395,2.7 3.586,2.629c0.635,-0.236 0.773,-1.378 0.773,-1.378l0.764,-0.08c0,0 0.059,1.03 -0.272,1.458c-0.748,0.969 -1.676,1.783 -1.881,2.513c-0.824,2.927 2.233,4.272 3.558,3.68c1.759,-0.786 2.39,-3.123 2.39,-3.123l0.808,0.237c0,0 -0.709,2.288 -1.954,3.111c-1.749,1.157 -2.795,0.772 -3.739,0.338c-0.931,-0.428 -1.786,-1.598 -2.025,-2.482c-0.239,-0.882 0.079,-1.949 0.043,-1.97c-3.945,-2.231 -7.304,-4.728 -10.092,-8.039c-3.275,-3.889 -1.981,-7.081 -1.981,-7.081Z" style="fill:#8393a7;"/><path d="M264.06,15.282c-0.075,-0.144 0.401,-0.835 0.556,-0.804c0.875,0.177 2.702,1.478 3.162,2.379c0.167,0.328 -0.34,1.018 -0.558,0.951c-1.322,-0.402 -2.691,-1.628 -3.16,-2.526Z" style="fill:#8393a7;"/><path d="M255.94,15.282c0.075,-0.144 -0.401,-0.835 -0.556,-0.804c-0.486,0.098 -1.264,0.542 -1.939,1.072c-0.543,0.425 -1.019,0.906 -1.223,1.307c-0.167,0.328 0.34,1.018 0.558,0.951c1.322,-0.402 2.691,-1.628 3.16,-2.526Z" style="fill:#8393a7;"/><path d="M259.469,14.061c-0.584,0.361 -1.182,0.713 -1.794,1.059c-0.036,0.021 0.282,1.088 0.043,1.97c-0.239,0.884 -1.094,2.054 -2.025,2.482c-0.944,0.434 -1.99,0.819 -3.739,-0.338c-1.245,-0.823 -1.954,-3.111 -1.954,-3.111l0.808,-0.237c0,0 0.631,2.337 2.39,3.123c1.325,0.592 4.382,-0.753 3.558,-3.68c-0.205,-0.73 -1.133,-1.544 -1.881,-2.513c-0.331,-0.428 -0.272,-1.458 -0.272,-1.458l0.764,0.08c0,0 0.138,1.142 0.773,1.378c0.071,0.026 0.405,-0.195 0.864,-0.534c0.794,0.616 1.616,1.207 2.465,1.779Zm0.966,-4.412c3.081,-2.363 5.738,-4.734 7.395,-6.792c0.719,-0.894 1.918,-2.857 1.918,-2.857c0,0 1.294,3.192 -1.981,7.081c-1.433,1.702 -3.018,3.19 -4.755,4.536c-0.737,-0.552 -1.624,-1.228 -2.577,-1.968Z" style="fill:#8393a7;"/></g><g><path d="M250.252,25c0,0 1.199,1.963 1.918,2.857c1.783,2.214 4.723,4.791 8.104,7.33c1.346,1.011 3.395,2.7 3.586,2.629c0.635,-0.236 0.773,-1.378 0.773,-1.378l0.764,-0.08c0,0 0.059,1.03 -0.272,1.458c-0.748,0.969 -1.676,1.783 -1.881,2.513c-0.824,2.927 2.233,4.272 3.558,3.68c1.759,-0.786 2.39,-3.123 2.39,-3.123l0.808,0.237c0,0 -0.709,2.288 -1.954,3.111c-1.749,1.157 -2.795,0.772 -3.739,0.338c-0.931,-0.428 -1.786,-1.598 -2.025,-2.482c-0.239,-0.882 0.079,-1.949 0.043,-1.97c-3.945,-2.231 -7.304,-4.728 -10.092,-8.039c-3.275,-3.889 -1.981,-7.081 -1.981,-7.081Z" style="fill:#fff;"/><path d="M264.06,40.282c-0.075,-0.144 0.401,-0.835 0.556,-0.804c0.875,0.177 2.702,1.478 3.162,2.379c0.167,0.328 -0.34,1.018 -0.558,0.951c-1.322,-0.402 -2.691,-1.628 -3.16,-2.526Z" style="fill:#fff;"/><path d="M255.94,40.282c0.075,-0.144 -0.401,-0.835 -0.556,-0.804c-0.875,0.177 -2.702,1.478 -3.162,2.379c-0.167,0.328 0.34,1.018 0.558,0.951c1.322,-0.402 2.691,-1.628 3.16,-2.526Z" style="fill:#fff;"/><path d="M259.469,39.061c-0.584,0.361 -1.182,0.713 -1.794,1.059c-0.036,0.021 0.282,1.088 0.043,1.97c-0.239,0.884 -1.094,2.054 -2.025,2.482c-0.944,0.434 -1.99,0.819 -3.739,-0.338c-1.245,-0.823 -1.954,-3.111 -1.954,-3.111l0.808,-0.237c0,0 0.631,2.337 2.39,3.123c1.325,0.592 4.382,-0.753 3.558,-3.68c-0.205,-0.73 -1.133,-1.544 -1.881,-2.513c-0.331,-0.428 -0.272,-1.458 -0.272,-1.458l0.764,0.08c0,0 0.138,1.142 0.773,1.378c0.071,0.026 0.405,-0.195 0.864,-0.534c0.794,0.616 1.616,1.207 2.465,1.779Zm0.966,-4.412c3.081,-2.363 5.738,-4.734 7.395,-6.792c0.719,-0.894 1.918,-2.857 1.918,-2.857c0,0 1.294,3.192 -1.981,7.081c-1.433,1.702 -3.018,3.19 -4.755,4.536c-0.737,-0.552 -1.624,-1.228 -2.577,-1.968Z" style="fill:#fff;"/></g><path d="M284.976,5.684c0.275,-0.186 1.537,-0.682 2.154,-0.674c2.308,0.03 3.586,1.525 6.069,1.533c1.003,0.003 1.801,-0.866 1.801,-0.866c0,0 -0.429,2.116 -0.448,3.544c-0.014,1.088 -0.325,2.871 -0.433,3.236c-0.611,2.057 -3.14,4.513 -5.833,4.542c-2.281,0.025 -2.339,-0.562 -3.277,-0.576c-0.849,-0.013 -1.22,0.632 -3.401,0.569c-1.624,-0.046 -4.954,-1.354 -5.814,-4.715c-0.214,-0.836 -0.306,-2.729 -0.46,-3.997c-0.092,-0.757 -0.334,-2.628 -0.334,-2.628c0,0 0.747,0.919 1.845,0.894c2.629,-0.06 3.792,-1.517 5.88,-1.546c0.703,-0.01 2.005,0.496 2.251,0.684c-0.066,0.044 -0.075,0.071 -0.007,0.069c0.064,-0.002 0.061,-0.028 0.007,-0.069Zm-7.513,5.005c0,0 2.847,-1.316 4.658,-0.519c1.296,0.571 1.426,2.32 1.426,2.32c0,0 -1.998,0.346 -3.266,0.143c-1.689,-0.27 -2.818,-1.944 -2.818,-1.944Zm15.071,0c0,0 -2.848,-1.316 -4.658,-0.519c-1.296,0.571 -1.427,2.32 -1.427,2.32c0,0 1.999,0.346 3.266,0.143c1.69,-0.27 2.819,-1.944 2.819,-1.944Z" style="fill:#8393a7;"/><path d="M284.976,30.684c0.275,-0.186 1.537,-0.682 2.154,-0.674c2.308,0.03 3.586,1.525 6.069,1.533c1.003,0.003 1.801,-0.866 1.801,-0.866c0,0 -0.429,2.116 -0.448,3.544c-0.014,1.088 -0.325,2.871 -0.433,3.236c-0.611,2.057 -3.14,4.513 -5.833,4.542c-2.281,0.025 -2.339,-0.562 -3.277,-0.576c-0.849,-0.013 -1.22,0.632 -3.401,0.569c-1.624,-0.046 -4.954,-1.354 -5.814,-4.715c-0.214,-0.836 -0.306,-2.729 -0.46,-3.997c-0.092,-0.757 -0.334,-2.628 -0.334,-2.628c0,0 0.747,0.919 1.845,0.894c2.629,-0.06 3.792,-1.517 5.88,-1.546c0.703,-0.01 2.005,0.496 2.251,0.684c-0.066,0.044 -0.075,0.071 -0.007,0.069c0.064,-0.002 0.061,-0.028 0.007,-0.069Zm-7.513,5.005c0,0 2.847,-1.316 4.658,-0.519c1.296,0.571 1.426,2.32 1.426,2.32c0,0 -1.998,0.346 -3.266,0.143c-1.689,-0.27 -2.818,-1.944 -2.818,-1.944Zm15.071,0c0,0 -2.848,-1.316 -4.658,-0.519c-1.296,0.571 -1.427,2.32 -1.427,2.32c0,0 1.999,0.346 3.266,0.143c1.69,-0.27 2.819,-1.944 2.819,-1.944Z" style="fill:#fff;"/><g><ellipse cx="26.439" cy="87.322" rx="1.439" ry="1.678" style="fill:#4a90e2;"/><path d="M43.591,79c-0.779,0 -1.44,0.735 -1.44,1.678c0,1.33 -0.18,1.679 -1.439,1.679l-0.12,0c-0.719,0.07 -1.289,0.769 -1.289,1.643l0,0.035c0,1.294 -0.211,1.608 -1.439,1.608c-0.061,0 -0.121,0 -0.151,0.035c-0.719,0.105 -1.289,0.805 -1.289,1.644c0,0.908 0.63,1.678 1.44,1.678c0.749,0 1.379,-0.7 1.409,-1.538l0,-0.14c0,-1.189 0.329,-1.644 1.409,-1.679l0.03,0c0.749,0 1.379,-0.699 1.409,-1.573l0,-0.105c0,-1.224 0.33,-1.678 1.44,-1.678c0.779,0 1.439,-0.735 1.439,-1.679c0,-0.873 -0.63,-1.608 -1.409,-1.608Zm-8.456,3.357l-0.12,0c-1.259,0 -1.439,-0.349 -1.439,-1.679c0,-0.908 -0.63,-1.678 -1.44,-1.678c-0.779,0 -1.439,0.735 -1.439,1.678c0,1.33 -0.18,1.644 -1.439,1.644l-0.12,0c-0.72,0.07 -1.289,0.769 -1.289,1.643c0,0.909 0.63,1.678 1.439,1.678c0.749,0 1.379,-0.699 1.409,-1.538l0,-0.105c0,-1.224 0.33,-1.678 1.439,-1.678c1.11,0 1.44,0.454 1.44,1.643c0,0.909 0.63,1.678 1.439,1.678c0.809,0 1.439,-0.734 1.439,-1.678c-0.03,-0.839 -0.6,-1.538 -1.319,-1.608Z" style="fill:#4a90e2;fill-rule:nonzero;"/></g><g><path d="M66.519,80.618l-4.958,-4.973c-0.857,-0.86 -2.259,-0.86 -3.113,0l-4.954,4.963c-0.285,0.286 -0.285,0.755 0,1.041l1.503,1.506l0.998,0.926c0.298,0.276 0.75,0.276 1.048,0l2.001,-1.855c0.55,-0.508 1.394,-0.508 1.941,0l2.001,1.855c0.294,0.276 0.75,0.276 1.044,0l0.999,-0.926l1.49,-1.493c0.288,-0.289 0.288,-0.755 0,-1.044" style="fill:#60b4d0;fill-rule:nonzero;"/><path d="M50.671,86.562l7.773,7.793c0.858,0.86 2.26,0.86 3.114,0l7.773,-7.793c1.349,-1.352 0.4,-1.749 -0.589,-2.688l-1.218,-1.159c-0.295,-0.279 -0.75,-0.275 -1.048,0l-2,1.855c-0.551,0.509 -1.395,0.509 -1.942,0l-2.001,-1.855c-0.294,-0.275 -0.749,-0.275 -1.044,0l-2.001,1.855c-0.55,0.509 -1.395,0.509 -1.941,0l-2.001,-1.855c-0.298,-0.275 -0.75,-0.275 -1.048,0l-1.12,1.038c-1.028,0.958 -2.115,1.398 -0.707,2.809" style="fill:#e2e1e1;fill-rule:nonzero;"/></g><path d="M84.755,75.059c0.436,-0.246 0.968,0.325 0.736,0.796c-0.134,0.384 -0.644,0.487 -0.905,0.194c-0.276,-0.281 -0.186,-0.837 0.169,-0.99m-4.689,0.547c0.265,-0.118 0.6,0.145 0.573,0.457c0.028,0.339 -0.355,0.589 -0.625,0.428c-0.357,-0.15 -0.316,-0.779 0.052,-0.885m9.603,0.894c-0.414,-0.054 -0.48,-0.758 -0.081,-0.9c0.309,-0.163 0.592,0.143 0.638,0.46c-0.065,0.271 -0.275,0.518 -0.557,0.44m-8.536,1.266c0.443,-0.303 1.074,0.148 1.006,0.705c-0.023,0.561 -0.712,0.887 -1.101,0.507c-0.377,-0.298 -0.32,-0.983 0.095,-1.212m6.758,0.321c0.198,-0.551 0.998,-0.567 1.223,-0.031c0.222,0.417 -0.051,0.934 -0.447,1.076c-0.525,0.106 -1.023,-0.508 -0.776,-1.045m-3.701,1.014c-0.004,-0.474 0.394,-0.827 0.81,-0.859c0.276,0.06 0.576,0.187 0.695,0.488c0.22,0.416 0.024,0.988 -0.374,1.179c-0.182,0.11 -0.398,0.069 -0.596,0.056c-0.303,-0.161 -0.559,-0.477 -0.535,-0.864m-6.972,0.69c0.404,-0.269 0.95,0.222 0.796,0.697c-0.084,0.411 -0.595,0.579 -0.887,0.316c-0.311,-0.246 -0.262,-0.837 0.091,-1.013m14.972,-0.001c0.343,-0.288 0.909,0.042 0.868,0.511c0.023,0.428 -0.466,0.75 -0.807,0.53c-0.375,-0.183 -0.413,-0.807 -0.061,-1.041m-6.039,0.851c0.566,-0.22 1.239,0.043 1.561,0.59c0.426,0.667 0.199,1.685 -0.461,2.068c-0.685,0.453 -1.684,0.069 -1.937,-0.758c-0.287,-0.741 0.131,-1.668 0.837,-1.9m-3.322,0.073c0.627,-0.321 1.472,-0.052 1.775,0.643c0.357,0.676 0.081,1.618 -0.557,1.967c-0.638,0.392 -1.539,0.095 -1.848,-0.631c-0.347,-0.702 -0.039,-1.656 0.63,-1.979m-3.326,1.231c0.047,-0.438 0.429,-0.723 0.813,-0.752c0.415,0.054 0.746,0.402 0.791,0.857c-0.027,0.449 -0.348,0.889 -0.788,0.886c-0.484,0.045 -0.909,-0.476 -0.816,-0.991m9.824,-0.657c0.498,-0.313 1.188,0.143 1.166,0.761c0.034,0.655 -0.73,1.116 -1.225,0.732c-0.515,-0.32 -0.474,-1.221 0.059,-1.493m-7.85,2.308c0.581,-0.173 1.246,0.124 1.532,0.702c0.312,0.583 0.184,1.391 -0.301,1.819c-0.622,0.626 -1.77,0.374 -2.101,-0.48c-0.381,-0.784 0.082,-1.834 0.87,-2.041m6.301,-0.003c0.565,-0.175 1.229,0.061 1.533,0.618c0.402,0.638 0.21,1.589 -0.388,1.999c-0.627,0.478 -1.597,0.227 -1.942,-0.519c-0.418,-0.772 0.003,-1.862 0.797,-2.098m-10.041,0.727c0.502,-0.205 1.059,0.395 0.855,0.934c-0.124,0.491 -0.763,0.672 -1.094,0.31c-0.386,-0.34 -0.243,-1.096 0.239,-1.244m13.615,0.783c-0.015,-0.451 0.29,-0.85 0.717,-0.875c0.344,0.059 0.678,0.36 0.651,0.765c0.031,0.535 -0.565,0.899 -0.986,0.648c-0.197,-0.109 -0.299,-0.328 -0.382,-0.538m-16.085,-0.518c0.302,-0.143 0.676,0.141 0.607,0.504c-0.016,0.411 -0.577,0.569 -0.783,0.225c-0.182,-0.238 -0.073,-0.606 0.176,-0.729Zm19.054,-0.008c0.213,-0.164 0.555,-0.046 0.639,0.223c0.143,0.293 -0.119,0.696 -0.425,0.646c-0.429,0.043 -0.568,-0.665 -0.214,-0.869m-11.203,1.974c0.796,-0.224 1.65,0.494 1.655,1.38c0.052,0.895 -0.79,1.689 -1.604,1.482c-0.629,-0.109 -1.123,-0.765 -1.102,-1.453c-0.002,-0.658 0.457,-1.27 1.051,-1.409m3.15,-0.002c0.807,-0.244 1.687,0.486 1.674,1.393c0.043,0.879 -0.773,1.646 -1.57,1.472c-0.75,-0.105 -1.303,-0.997 -1.094,-1.785c0.106,-0.525 0.511,-0.951 0.99,-1.08m-6.072,0.545c0.558,-0.103 1.082,0.572 0.855,1.145c-0.165,0.612 -0.987,0.778 -1.351,0.278c-0.426,-0.479 -0.108,-1.356 0.496,-1.423m9.235,0.027c0.498,-0.225 1.109,0.241 1.071,0.826c0.02,0.644 -0.735,1.088 -1.222,0.712c-0.551,-0.338 -0.451,-1.331 0.151,-1.538m2.582,2.802c-0.195,-0.393 0.159,-0.914 0.562,-0.842c0.201,-0.003 0.342,0.168 0.47,0.312c0.027,0.233 0.071,0.511 -0.108,0.691c-0.243,0.332 -0.793,0.237 -0.924,-0.161m-14.797,-0.732c0.377,-0.272 0.92,0.134 0.835,0.611c-0.045,0.422 -0.536,0.663 -0.86,0.424c-0.347,-0.218 -0.334,-0.837 0.025,-1.035m7.452,0.884c0.494,-0.236 1.123,0.229 1.076,0.818c0.037,0.65 -0.742,1.101 -1.224,0.71c-0.537,-0.335 -0.447,-1.322 0.148,-1.528m-3.452,0.871c0.421,-0.24 0.985,0.174 0.947,0.684c0.013,0.418 -0.364,0.774 -0.746,0.713c-0.316,-0.008 -0.522,-0.314 -0.623,-0.606c0.005,-0.317 0.126,-0.671 0.422,-0.791m6.992,0.007c0.432,-0.289 1.047,0.127 1.006,0.671c0.011,0.57 -0.684,0.934 -1.086,0.56c-0.39,-0.293 -0.343,-0.998 0.08,-1.231m1.216,3.253c-0.193,-0.315 0.034,-0.694 0.346,-0.766c0.251,0.055 0.517,0.26 0.464,0.575c-0.037,0.426 -0.613,0.557 -0.81,0.191m-9.652,-0.273c0.077,-0.25 0.263,-0.498 0.534,-0.433c0.396,0.03 0.514,0.676 0.167,0.875c-0.311,0.227 -0.673,-0.084 -0.701,-0.442m4.657,0.286c0.075,-0.369 0.517,-0.549 0.808,-0.353c0.193,0.09 0.249,0.323 0.298,0.521c-0.026,0.103 -0.05,0.206 -0.073,0.309c-0.119,0.153 -0.272,0.306 -0.471,0.301c-0.368,0.046 -0.701,-0.405 -0.562,-0.778" style="fill:#3cc8c8;fill-rule:nonzero;"/><path d="M19.244,145c-0.756,0 -16.367,-0.121 -18.453,-0.132c-3.539,-0.018 6.148,-19.89 9.223,-19.868c3.076,0.022 12.812,19.999 9.23,20Zm-7.514,-3.652l1.865,-2.349c0.233,-0.298 0.35,-0.639 0.35,-1.022c-0.006,-0.479 -0.166,-0.875 -0.482,-1.186c-0.31,-0.314 -0.714,-0.474 -1.212,-0.48c-0.445,0.006 -0.82,0.163 -1.125,0.472c-0.302,0.317 -0.464,0.717 -0.485,1.202l0.827,0c0.029,-0.266 0.122,-0.473 0.278,-0.619c0.151,-0.147 0.341,-0.22 0.569,-0.22c0.257,0.006 0.455,0.089 0.596,0.252c0.135,0.162 0.203,0.353 0.203,0.571c0,0.082 -0.011,0.17 -0.032,0.264c-0.032,0.098 -0.092,0.205 -0.179,0.319l-2.262,2.844l0,0.787l3.304,0l0,-0.835l-2.215,0Zm-1.351,0.835l-2.052,-3.527l1.857,-2.297l-1.042,0l-2.385,3l-0.016,0l0,-3l-0.878,0l0,5.824l0.878,0l0,-1.774l1.018,-1.074l1.578,2.848l1.042,0Zm-0.342,-16.275c1.81,0.018 5.422,7.754 5.422,7.754c0,0 -2.272,-1.235 -3.154,-1.195c-0.883,0.039 -2.715,2.078 -2.715,2.078c0,0 -0.648,-2.104 -1.121,-2.138c-0.742,-0.053 -3.873,1.146 -3.873,1.146c0,0 3.63,-7.663 5.441,-7.645Z" style="fill:#fff;"/><g><circle cx="85" cy="60" r="10" style="fill:#0d7aff;"/><path d="M83.954,57.012l2.011,0l0,9.985l-2.011,0l0,-9.985Zm0,-4.04l2.011,0l0,2.011l-2.011,0l0,-2.011Z" style="fill:#fff;fill-rule:nonzero;"/></g><g><circle cx="135" cy="60" r="10" style="fill:none;stroke:#fff;stroke-width:0.5px;"/><path d="M133.954,57.012l2.011,0l0,9.985l-2.011,0l0,-9.985Zm0,-4.04l2.011,0l0,2.011l-2.011,0l0,-2.011Z" style="fill:#fff;fill-rule:nonzero;stroke:#fff;stroke-width:0.5px;"/></g><g><path d="M110,50c5.519,0 10,4.481 10,10c0,5.519 -4.481,10 -10,10c-5.519,0 -10,-4.481 -10,-10c0,-5.519 4.481,-10 10,-10Zm0.965,16.997l0,-9.985l-2.011,0l0,9.985l2.011,0Zm0,-12.014l0,-2.011l-2.011,0l0,2.011l2.011,0Z" style="fill:#fff;"/></g></svg>