<?xml version="1.0" encoding="UTF-8" standalone="no"?><!DOCTYPE svg PUBLIC "-//W3C//DTD SVG 1.1//EN" "http://www.w3.org/Graphics/SVG/1.1/DTD/svg11.dtd"><svg width="100%" height="100%" viewBox="0 0 50 50" version="1.1" xmlns="http://www.w3.org/2000/svg" xmlns:xlink="http://www.w3.org/1999/xlink" xml:space="preserve" xmlns:serif="http://www.serif.com/" style="fill-rule:evenodd;clip-rule:evenodd;stroke-linejoin:round;stroke-miterlimit:1.41421;"><path d="M24.387,0.148c1.089,-0.615 2.42,0.812 1.841,1.99c-0.337,0.96 -1.612,1.216 -2.263,0.484c-0.69,-0.703 -0.465,-2.092 0.422,-2.474m-11.722,1.367c0.662,-0.295 1.5,0.362 1.433,1.143c0.07,0.847 -0.888,1.471 -1.562,1.068c-0.894,-0.374 -0.792,-1.945 0.129,-2.211m24.007,2.235c-1.035,-0.135 -1.198,-1.895 -0.202,-2.25c0.772,-0.408 1.481,0.357 1.594,1.15c-0.162,0.676 -0.686,1.296 -1.392,1.1m-21.34,3.164c1.107,-0.757 2.686,0.371 2.516,1.762c-0.057,1.405 -1.781,2.219 -2.754,1.269c-0.941,-0.746 -0.798,-2.457 0.238,-3.031m16.896,0.804c0.493,-1.377 2.494,-1.419 3.056,-0.078c0.556,1.043 -0.128,2.335 -1.117,2.69c-1.311,0.265 -2.557,-1.269 -1.939,-2.612m-9.253,2.534c-0.011,-1.184 0.986,-2.066 2.025,-2.147c0.69,0.15 1.441,0.468 1.737,1.221c0.551,1.039 0.062,2.469 -0.934,2.946c-0.456,0.276 -0.994,0.172 -1.49,0.14c-0.759,-0.403 -1.397,-1.193 -1.338,-2.16m-17.431,1.725c1.011,-0.673 2.375,0.555 1.992,1.743c-0.211,1.028 -1.488,1.447 -2.218,0.79c-0.779,-0.615 -0.655,-2.093 0.226,-2.533m37.431,-0.002c0.858,-0.721 2.273,0.106 2.171,1.278c0.058,1.068 -1.166,1.874 -2.018,1.324c-0.937,-0.456 -1.033,-2.018 -0.153,-2.602m-15.098,2.128c1.416,-0.551 3.097,0.108 3.904,1.474c1.064,1.669 0.498,4.212 -1.154,5.17c-1.711,1.133 -4.21,0.173 -4.842,-1.896c-0.717,-1.851 0.328,-4.168 2.092,-4.748m-8.305,0.182c1.569,-0.802 3.68,-0.129 4.438,1.607c0.892,1.691 0.202,4.045 -1.392,4.918c-1.596,0.981 -3.848,0.237 -4.621,-1.578c-0.866,-1.755 -0.097,-4.139 1.575,-4.947m-8.316,3.076c0.12,-1.093 1.073,-1.805 2.035,-1.879c1.037,0.135 1.865,1.007 1.977,2.142c-0.068,1.124 -0.87,2.222 -1.971,2.216c-1.21,0.112 -2.272,-1.191 -2.041,-2.479m24.562,-1.641c1.243,-0.783 2.969,0.357 2.914,1.902c0.085,1.638 -1.825,2.792 -3.063,1.831c-1.285,-0.8 -1.185,-3.052 0.149,-3.733m-19.626,5.771c1.454,-0.433 3.116,0.309 3.829,1.755c0.781,1.456 0.462,3.478 -0.751,4.545c-1.556,1.566 -4.425,0.938 -5.253,-1.2c-0.951,-1.959 0.204,-4.584 2.175,-5.1m15.753,-0.008c1.413,-0.438 3.073,0.152 3.833,1.545c1.004,1.594 0.525,3.971 -0.971,4.998c-1.566,1.193 -3.993,0.567 -4.855,-1.298c-1.045,-1.93 0.007,-4.657 1.993,-5.245m-25.103,1.818c1.256,-0.514 2.648,0.986 2.139,2.333c-0.311,1.228 -1.909,1.681 -2.735,0.776c-0.966,-0.849 -0.608,-2.74 0.596,-3.109m34.038,1.955c-0.037,-1.126 0.725,-2.123 1.792,-2.185c0.86,0.147 1.696,0.898 1.628,1.911c0.079,1.339 -1.411,2.248 -2.465,1.619c-0.494,-0.271 -0.747,-0.819 -0.955,-1.345m-40.212,-1.294c0.755,-0.357 1.69,0.352 1.517,1.26c-0.04,1.028 -1.443,1.423 -1.958,0.564c-0.455,-0.596 -0.183,-1.516 0.441,-1.824Zm47.635,-0.02c0.532,-0.41 1.386,-0.116 1.597,0.557c0.357,0.734 -0.298,1.741 -1.062,1.617c-1.073,0.106 -1.42,-1.663 -0.535,-2.174m-28.007,4.935c1.988,-0.56 4.125,1.234 4.137,3.45c0.13,2.238 -1.975,4.224 -4.01,3.707c-1.573,-0.275 -2.807,-1.914 -2.756,-3.635c-0.004,-1.645 1.143,-3.174 2.629,-3.522m7.873,-0.005c2.018,-0.61 4.218,1.216 4.186,3.483c0.107,2.197 -1.932,4.115 -3.925,3.679c-1.875,-0.262 -3.258,-2.492 -2.735,-4.461c0.265,-1.312 1.278,-2.379 2.474,-2.701m-15.18,1.364c1.396,-0.258 2.705,1.428 2.139,2.863c-0.413,1.529 -2.469,1.943 -3.378,0.695c-1.066,-1.2 -0.27,-3.393 1.239,-3.558m23.089,0.067c1.245,-0.564 2.773,0.601 2.677,2.064c0.05,1.61 -1.836,2.72 -3.054,1.78c-1.379,-0.843 -1.128,-3.326 0.377,-3.844m6.453,7.006c-0.487,-0.984 0.398,-2.287 1.407,-2.105c0.503,-0.009 0.854,0.419 1.175,0.778c0.066,0.583 0.177,1.278 -0.27,1.727c-0.607,0.832 -1.982,0.595 -2.312,-0.4m-36.991,-1.831c0.943,-0.68 2.3,0.333 2.088,1.527c-0.113,1.055 -1.341,1.658 -2.15,1.059c-0.869,-0.543 -0.837,-2.091 0.062,-2.586m18.63,2.208c1.234,-0.589 2.807,0.574 2.69,2.046c0.091,1.626 -1.854,2.752 -3.061,1.775c-1.341,-0.838 -1.117,-3.305 0.371,-3.821m-8.629,2.179c1.051,-0.599 2.462,0.435 2.367,1.709c0.032,1.046 -0.911,1.937 -1.865,1.782c-0.79,-0.018 -1.305,-0.784 -1.558,-1.513c0.013,-0.794 0.315,-1.679 1.056,-1.978m17.478,0.018c1.082,-0.723 2.618,0.316 2.516,1.678c0.028,1.423 -1.709,2.335 -2.716,1.4c-0.974,-0.733 -0.855,-2.495 0.2,-3.078m3.04,8.133c-0.481,-0.788 0.085,-1.737 0.866,-1.916c0.628,0.138 1.292,0.649 1.16,1.437c-0.091,1.066 -1.532,1.393 -2.026,0.479m-24.128,-0.684c0.192,-0.624 0.656,-1.245 1.335,-1.083c0.989,0.076 1.283,1.691 0.417,2.188c-0.779,0.569 -1.683,-0.209 -1.752,-1.105m11.64,0.716c0.19,-0.924 1.294,-1.373 2.022,-0.882c0.481,0.223 0.622,0.806 0.745,1.301c-0.066,0.258 -0.125,0.516 -0.183,0.774c-0.298,0.382 -0.681,0.764 -1.177,0.751c-0.921,0.116 -1.753,-1.011 -1.407,-1.944" style="fill:#3cc8c8;fill-rule:nonzero;"/></svg>