<?xml version="1.0" encoding="UTF-8" standalone="no"?><!DOCTYPE svg PUBLIC "-//W3C//DTD SVG 1.1//EN" "http://www.w3.org/Graphics/SVG/1.1/DTD/svg11.dtd"><svg width="100%" height="100%" viewBox="0 0 60 33" version="1.1" xmlns="http://www.w3.org/2000/svg" xmlns:xlink="http://www.w3.org/1999/xlink" xml:space="preserve" style="fill-rule:evenodd;clip-rule:evenodd;stroke-linejoin:round;stroke-miterlimit:1.41421;"><g><g><path id="edge-colour" d="M31.856,0.002c15.268,0.765 24.454,4.581 26.707,9.175c1.276,2.602 1.875,3.28 1.074,9.195c-0.999,7.375 -13.282,13.508 -29.641,13.508c-16.36,0 -29.025,-6.078 -29.658,-13.501c-0.431,-5.059 -0.757,-5.55 1.043,-8.463c1.424,-2.303 27.731,-10.052 30.475,-9.914Z" style="fill:#6e1a17;"/><ellipse id="top-border-colour" cx="30.163" cy="12.876" rx="29.808" ry="12.856" style="fill:url(#_Linear1);"/><path d="M30.584,2.486c11.906,0 21.572,4.145 21.572,9.251c0,5.106 -9.666,9.251 -21.572,9.251c-11.906,0 -21.573,-4.145 -21.573,-9.251c0,-5.106 9.667,-9.251 21.573,-9.251Zm-0.192,0.86c10.899,0 19.747,3.829 19.747,8.545c0,4.716 -8.848,8.544 -19.747,8.544c-10.898,0 -19.746,-3.828 -19.746,-8.544c0,-4.716 8.848,-8.545 19.746,-8.545Z" style="fill:#fbfbfb;"/><path d="M0.626,19.978c0,0 -0.219,-2.93 -0.148,-3.694c0.057,-0.612 0.848,-0.848 0.848,-0.848l6.61,-1.086c0,0 2.22,3.888 9.917,5.937c0.054,0.015 -4.153,3.064 -4.236,3.267c-0.441,1.081 0.018,5.991 -0.024,5.983c-10.279,-1.96 -12.967,-9.559 -12.967,-9.559Z" style="fill:url(#_Radial2);"/><path d="M39.592,20.883c0,0 2.359,2.746 2.642,3.511c0.159,0.429 0.785,3.326 0.167,6.172c-0.045,0.208 11.271,-2.457 15.33,-7.876c0.145,-0.193 0.55,-5.048 -0.023,-5.479c-0.818,-0.616 -6.094,-1.53 -6.112,-1.516c-3.962,3.137 -8.38,4.452 -12.004,5.188" style="fill:url(#_Radial3);"/><path d="M7.183,4.954l5.111,1.31" style="fill:none;"/><path d="M6.881,4.934l5.314,1.244c0,0 3.525,-2.591 12.386,-3.762c0.07,-0.009 -1.598,-1.94 -1.627,-1.938c-4.06,0.178 -12.01,1.74 -16.073,4.456Z" style="fill:url(#_Linear4);"/><path d="M44.141,1.383c-0.264,-0.024 -2.357,1.783 -2.357,1.783c0,0 5.763,1.15 9.417,4.671c0.113,0.108 5.572,-1.095 5.572,-1.095c0,0 -6.154,-4.752 -12.632,-5.359Z" style="fill:url(#_Linear5);"/><ellipse id="center-colour" cx="30.404" cy="11.839" rx="19.751" ry="8.438" style="fill:url(#_Radial6);"/><path d="M24.093,28.893l4.036,-0.853l4.332,1.046l-4.373,1.304c-1.316,-0.469 -2.126,-0.767 -3.995,-1.497Z" style="fill:url(#_Linear7);"/></g></g><defs><linearGradient id="_Linear1" x1="0" y1="0" x2="1" y2="0" gradientUnits="userSpaceOnUse" gradientTransform="matrix(17.4204,17.0287,-15.5666,19.0566,27.1542,1.05813)"><stop offset="0%" style="stop-color:#881a17;stop-opacity:1"/><stop offset="100%" style="stop-color:#de1f1b;stop-opacity:1"/></linearGradient><radialGradient id="_Radial2" cx="0" cy="0" r="1" gradientUnits="userSpaceOnUse" gradientTransform="matrix(-18.7979,-9.90984,1.69939,-3.85757,14.974,20.488)"><stop offset="0%" style="stop-color:#fff;stop-opacity:1"/><stop offset="100%" style="stop-color:#b3b3b3;stop-opacity:1"/></radialGradient><radialGradient id="_Radial3" cx="0" cy="0" r="1" gradientUnits="userSpaceOnUse" gradientTransform="matrix(1.07049,3.03017,-13.1584,5.56283,48.7182,20.1051)"><stop offset="0%" style="stop-color:#fff;stop-opacity:1"/><stop offset="100%" style="stop-color:#b3b3b3;stop-opacity:1"/></radialGradient><linearGradient id="_Linear4" x1="0" y1="0" x2="1" y2="0" gradientUnits="userSpaceOnUse" gradientTransform="matrix(-14.9866,-7.43225,6.7941,-16.3942,19.3176,3.48858)"><stop offset="0%" style="stop-color:#fefefe;stop-opacity:1"/><stop offset="100%" style="stop-color:#b5afaf;stop-opacity:1"/></linearGradient><linearGradient id="_Linear5" x1="0" y1="0" x2="1" y2="0" gradientUnits="userSpaceOnUse" gradientTransform="matrix(14.4166,-9.38833,8.58222,15.7707,48.4397,3.86049)"><stop offset="0%" style="stop-color:#fbfbfb;stop-opacity:1"/><stop offset="100%" style="stop-color:#b1adad;stop-opacity:1"/></linearGradient><radialGradient id="_Radial6" cx="0" cy="0" r="1" gradientUnits="userSpaceOnUse" gradientTransform="matrix(32.4948,2.14049,-1.22871,22.3217,54.5368,7.80993)"><stop offset="0%" style="stop-color:#de1f1b;stop-opacity:1"/><stop offset="100%" style="stop-color:#881a17;stop-opacity:1"/></radialGradient><linearGradient id="_Linear7" x1="0" y1="0" x2="1" y2="0" gradientUnits="userSpaceOnUse" gradientTransform="matrix(-0.133816,3.06677,-2.80345,-0.146385,28.3782,27.8562)"><stop offset="0%" style="stop-color:#f9f9f9;stop-opacity:1"/><stop offset="100%" style="stop-color:#b0abab;stop-opacity:1"/></linearGradient></defs></svg>