<?xml version="1.0" encoding="UTF-8" standalone="no"?><!DOCTYPE svg PUBLIC "-//W3C//DTD SVG 1.1//EN" "http://www.w3.org/Graphics/SVG/1.1/DTD/svg11.dtd"><svg width="100%" height="100%" viewBox="0 0 50 50" version="1.1" xmlns="http://www.w3.org/2000/svg" xmlns:xlink="http://www.w3.org/1999/xlink" xml:space="preserve" xmlns:serif="http://www.serif.com/" style="fill-rule:evenodd;clip-rule:evenodd;stroke-linejoin:round;stroke-miterlimit:1.41421;"><path d="M48.049,50c-1.888,0.001 -40.917,-0.303 -46.133,-0.329c-8.846,-0.045 15.371,-49.726 23.059,-49.671c7.689,0.055 32.029,49.997 23.074,50Zm-23.388,-7.503l0,-8.59l-1.136,0l0,8.59l1.136,0Zm12,0l0,-8.59l-1.136,0l0,8.59l1.136,0Zm-3.24,0l0,-8.59l-1.09,0l0,6.744l-4.511,-6.744l-1.166,0l0,8.59l1.089,0l0,-6.75l4.512,6.75l1.166,0Zm-11.924,0l0,-8.59l-1.529,0l-2.057,5.976c-0.207,0.606 -0.359,1.065 -0.457,1.377c-0.086,-0.281 -0.222,-0.705 -0.41,-1.271l-2.033,-6.082l-1.711,0l0,8.59l1.096,0l0,-7.313l2.484,7.313l1.025,0l2.497,-7.19l0,7.19l1.095,0Zm3.534,-40.227c-4.526,-0.046 -13.602,19.111 -13.602,19.111c0,0 7.827,-2.997 9.682,-2.863c1.185,0.085 2.804,5.344 2.804,5.344c0,0 4.581,-5.096 6.786,-5.196c2.206,-0.099 7.885,2.989 7.885,2.989c0,0 -9.028,-19.34 -13.555,-19.385Z" style="fill:#fff;"/></svg>