<?xml version="1.0" encoding="UTF-8" standalone="no"?><!DOCTYPE svg PUBLIC "-//W3C//DTD SVG 1.1//EN" "http://www.w3.org/Graphics/SVG/1.1/DTD/svg11.dtd"><svg width="100%" height="100%" viewBox="0 0 50 50" version="1.1" xmlns="http://www.w3.org/2000/svg" xmlns:xlink="http://www.w3.org/1999/xlink" xml:space="preserve" xmlns:serif="http://www.serif.com/" style="fill-rule:evenodd;clip-rule:evenodd;stroke-linejoin:round;stroke-miterlimit:1.41421;"><g><ellipse cx="3.598" cy="33.304" rx="3.598" ry="4.196" style="fill:#4a90e2;"/><path d="M46.477,12.5c-1.948,0 -3.598,1.837 -3.598,4.196c0,3.323 -0.451,4.196 -3.599,4.196l-0.3,0c-1.798,0.175 -3.223,1.924 -3.223,4.108l0,0.088c0,3.235 -0.526,4.02 -3.598,4.02c-0.15,0 -0.301,0 -0.376,0.088c-1.797,0.263 -3.222,2.012 -3.222,4.108c0,2.272 1.575,4.196 3.598,4.196c1.873,0 3.448,-1.749 3.523,-3.845l0,-0.351c0,-2.972 0.824,-4.108 3.523,-4.196l0.075,0c1.873,0 3.448,-1.749 3.523,-3.933l0,-0.263c0,-3.06 0.824,-4.195 3.599,-4.195c1.948,0 3.598,-1.837 3.598,-4.196c0,-2.184 -1.575,-4.021 -3.523,-4.021Zm-21.139,8.392l-0.3,0c-3.148,0 -3.599,-0.873 -3.599,-4.196c0,-2.272 -1.575,-4.196 -3.598,-4.196c-1.948,0 -3.598,1.837 -3.598,4.196c0,3.323 -0.451,4.108 -3.598,4.108l-0.301,0c-1.798,0.175 -3.223,1.924 -3.223,4.108c0,2.272 1.576,4.196 3.599,4.196c1.872,0 3.448,-1.749 3.523,-3.845l0,-0.263c0,-3.06 0.823,-4.196 3.598,-4.196c2.775,0 3.598,1.136 3.598,4.108c0,2.272 1.575,4.196 3.599,4.196c2.023,0 3.598,-1.836 3.598,-4.196c-0.075,-2.096 -1.5,-3.845 -3.298,-4.02Z" style="fill:#4a90e2;fill-rule:nonzero;"/></g></svg>