<?xml version="1.0" encoding="UTF-8" standalone="no"?><!DOCTYPE svg PUBLIC "-//W3C//DTD SVG 1.1//EN" "http://www.w3.org/Graphics/SVG/1.1/DTD/svg11.dtd"><svg width="100%" height="100%" viewBox="0 0 400 100" version="1.1" xmlns="http://www.w3.org/2000/svg" xmlns:xlink="http://www.w3.org/1999/xlink" xml:space="preserve" xmlns:serif="http://www.serif.com/" style="fill-rule:evenodd;clip-rule:evenodd;"><clipPath id="_clip1"><rect id="_2s" serif:id="2s" x="4" y="2" width="72" height="96"/></clipPath><g clip-path="url(#_clip1)"><path id="Card-background" d="M75.999,6.775c0.001,-2.635 -2.136,-4.775 -4.769,-4.775l-62.459,0c-2.633,0 -4.771,2.14 -4.772,4.775l-0.024,85.952c-0.001,2.636 2.136,4.776 4.769,4.776l62.459,0c2.633,0 4.771,-2.14 4.772,-4.776l0.024,-85.952Z" style="fill:url(#_Radial2);stroke:#646464;stroke-width:0.11px;"/><path id="Spades" d="M40.305,15.267c-7.54,21.003 -26.658,31.549 -26.944,43.806c0,16.502 18.106,14.882 23.928,7.201c3.016,7.501 -3.188,13.287 -6.032,18.002l18.096,0c-2.845,-4.715 -9.048,-10.501 -6.032,-18.002c5.822,7.681 23.927,9.301 23.927,-7.201c-0.285,-12.257 -19.403,-22.803 -26.943,-43.806Z" style="fill:url(#_Linear3);stroke:#000;stroke-width:0.15px;"/><g id="Center-Text"><path d="M33.255,61.224l13.912,0l0,-3.249l-9.325,0l7.852,-9.14c0.982,-1.16 1.473,-2.487 1.473,-3.979c-0.022,-1.865 -0.698,-3.404 -2.026,-4.616c-1.306,-1.223 -3.008,-1.845 -5.106,-1.866c-1.875,0.021 -3.454,0.632 -4.737,1.835c-1.273,1.233 -1.954,2.792 -2.043,4.678l3.482,0c0.123,-1.036 0.514,-1.839 1.172,-2.409c0.636,-0.57 1.434,-0.855 2.394,-0.855c1.083,0.021 1.92,0.347 2.511,0.979c0.569,0.632 0.854,1.373 0.854,2.223c0,0.321 -0.045,0.663 -0.134,1.026c-0.134,0.383 -0.385,0.798 -0.753,1.244l-9.526,11.067l0,3.062Z" style="fill:none;"/><path d="M33.255,61.224l13.912,0l0,-3.249l-9.325,0l7.852,-9.14c0.982,-1.16 1.473,-2.487 1.473,-3.979c-0.022,-1.865 -0.698,-3.404 -2.026,-4.616c-1.306,-1.223 -3.008,-1.845 -5.106,-1.866c-1.875,0.021 -3.454,0.632 -4.737,1.835c-1.273,1.233 -1.954,2.792 -2.043,4.678l3.482,0c0.123,-1.036 0.514,-1.839 1.172,-2.409c0.636,-0.57 1.434,-0.855 2.394,-0.855c1.083,0.021 1.92,0.347 2.511,0.979c0.569,0.632 0.854,1.373 0.854,2.223c0,0.321 -0.045,0.663 -0.134,1.026c-0.134,0.383 -0.385,0.798 -0.753,1.244l-9.526,11.067l0,3.062Z" style="fill:#fff;fill-rule:nonzero;"/></g></g><clipPath id="_clip4"><rect id="_4s" serif:id="4s" x="84" y="2" width="72" height="96"/></clipPath><g clip-path="url(#_clip4)"><path id="Card-background1" serif:id="Card-background" d="M155.999,6.775c0.001,-2.635 -2.136,-4.775 -4.769,-4.775l-62.459,0c-2.633,0 -4.771,2.14 -4.772,4.775l-0.024,85.952c-0.001,2.636 2.136,4.776 4.769,4.776l62.459,0c2.633,0 4.771,-2.14 4.772,-4.776l0.024,-85.952Z" style="fill:url(#_Radial5);stroke:#646464;stroke-width:0.11px;"/><path id="Spades1" serif:id="Spades" d="M120.305,15.267c-7.54,21.003 -26.658,31.549 -26.944,43.806c0.001,16.502 18.105,14.882 23.928,7.201c3.016,7.501 -3.188,13.287 -6.032,18.002l18.096,0c-2.845,-4.715 -9.048,-10.501 -6.032,-18.002c5.822,7.681 23.927,9.301 23.927,-7.201c-0.286,-12.257 -19.403,-22.803 -26.943,-43.806Z" style="fill:url(#_Linear6);stroke:#000;stroke-width:0.15px;"/><g id="Center-Text1" serif:id="Center-Text"><path d="M112.569,57.851l10.178,0l0,3.373l3.499,0l0,-3.373l1.942,0l0,-3.062l-1.942,0l0,-6.513l-3.499,0l0,6.513l-6.378,0l8.253,-16.228l-3.9,0l-8.153,16.228l0,3.062Z" style="fill:none;"/><path d="M112.569,57.851l10.178,0l0,3.373l3.499,0l0,-3.373l1.942,0l0,-3.062l-1.942,0l0,-6.513l-3.499,0l0,6.513l-6.378,0l8.253,-16.228l-3.9,0l-8.153,16.228l0,3.062Z" style="fill:#fff;fill-rule:nonzero;"/></g></g><clipPath id="_clip7"><rect id="_9s" serif:id="9s" x="164" y="2" width="72" height="96"/></clipPath><g clip-path="url(#_clip7)"><path id="Card-background2" serif:id="Card-background" d="M235.999,6.775c0.001,-2.635 -2.136,-4.775 -4.769,-4.775l-62.459,0c-2.633,0 -4.771,2.14 -4.772,4.775l-0.024,85.952c-0.001,2.636 2.136,4.776 4.769,4.776l62.458,0c2.633,0 4.772,-2.14 4.773,-4.776l0.024,-85.952Z" style="fill:url(#_Radial8);stroke:#646464;stroke-width:0.11px;"/><path id="Spades2" serif:id="Spades" d="M200.305,15.267c-7.54,21.003 -26.658,31.549 -26.944,43.806c0,16.502 18.105,14.882 23.928,7.201c3.016,7.501 -3.188,13.287 -6.032,18.002l18.096,0c-2.845,-4.715 -9.048,-10.501 -6.032,-18.002c5.822,7.681 23.927,9.301 23.927,-7.201c-0.285,-12.257 -19.403,-22.803 -26.943,-43.806Z" style="fill:url(#_Linear9);stroke:#000;stroke-width:0.15px;"/><g id="Center-Text2" serif:id="Center-Text"><path d="M193.456,46.97c-0.022,2.176 0.525,3.767 1.641,4.772c1.116,1.036 2.466,1.544 4.051,1.523c1.44,0.021 2.991,-0.212 4.654,-0.699l0,2.13c-0.067,2.29 -1.211,3.445 -3.432,3.466c-1.574,0 -2.634,-0.632 -3.181,-1.897l-3.599,0c0.368,1.648 1.188,2.907 2.461,3.778c1.261,0.891 2.701,1.347 4.319,1.368c1.897,-0.021 3.51,-0.591 4.838,-1.71c1.351,-1.13 2.048,-2.736 2.093,-4.819l0,-9.995c-0.045,-2.093 -0.742,-3.704 -2.093,-4.834c-1.328,-1.119 -2.941,-1.679 -4.838,-1.679c-1.841,0 -3.426,0.56 -4.754,1.679c-1.418,1.13 -2.138,2.741 -2.16,4.834l0,2.083Zm3.499,-1.881c0.045,-2.269 1.183,-3.425 3.415,-3.466c2.221,0.041 3.365,1.197 3.432,3.466l0,1.85c-0.067,2.29 -1.211,3.446 -3.432,3.466c-2.232,-0.02 -3.37,-1.176 -3.415,-3.466l0,-1.85Z" style="fill:none;"/><path d="M193.456,46.97c-0.022,2.176 0.525,3.767 1.641,4.772c1.116,1.036 2.466,1.544 4.051,1.523c1.44,0.021 2.991,-0.212 4.654,-0.699l0,2.13c-0.067,2.29 -1.211,3.445 -3.432,3.466c-1.574,0 -2.634,-0.632 -3.181,-1.897l-3.599,0c0.368,1.648 1.188,2.907 2.461,3.778c1.261,0.891 2.701,1.347 4.319,1.368c1.897,-0.021 3.51,-0.591 4.838,-1.71c1.351,-1.13 2.048,-2.736 2.093,-4.819l0,-9.995c-0.045,-2.093 -0.742,-3.704 -2.093,-4.834c-1.328,-1.119 -2.941,-1.679 -4.838,-1.679c-1.841,0 -3.426,0.56 -4.754,1.679c-1.418,1.13 -2.138,2.741 -2.16,4.834l0,2.083Zm3.499,-1.881c0.045,-2.269 1.183,-3.425 3.415,-3.466c2.221,0.041 3.365,1.197 3.432,3.466l0,1.85c-0.067,2.29 -1.211,3.446 -3.432,3.466c-2.232,-0.02 -3.37,-1.176 -3.415,-3.466l0,-1.85Z" style="fill:#fff;fill-rule:nonzero;"/></g></g><clipPath id="_clip10"><rect id="Ks" x="324" y="2" width="72" height="96"/></clipPath><g clip-path="url(#_clip10)"><path id="Card-background3" serif:id="Card-background" d="M395.999,6.775c0,-2.635 -2.137,-4.775 -4.769,-4.775l-62.46,0c-2.633,0 -4.771,2.14 -4.772,4.775l-0.024,85.952c0,2.636 2.137,4.776 4.77,4.776l62.458,0c2.634,0 4.772,-2.14 4.773,-4.776l0.024,-85.952Z" style="fill:url(#_Radial11);stroke:#646464;stroke-width:0.11px;"/><path id="Spades3" serif:id="Spades" d="M360.305,15.267c-7.54,21.003 -26.658,31.549 -26.944,43.806c0,16.502 18.106,14.882 23.928,7.201c3.016,7.501 -3.188,13.287 -6.032,18.002l18.096,0c-2.844,-4.715 -9.048,-10.501 -6.032,-18.002c5.822,7.681 23.927,9.301 23.927,-7.201c-0.286,-12.257 -19.403,-22.803 -26.943,-43.806Z" style="fill:url(#_Linear12);stroke:#000;stroke-width:0.15px;"/><g id="Center-Text3" serif:id="Center-Text"><path d="M352.159,61.224l3.699,0l0,-6.901l4.286,-4.182l6.646,11.083l4.386,0l-8.638,-13.725l7.818,-8.938l-4.386,0l-10.045,11.673l-0.067,0l0,-11.673l-3.699,0l0,22.663Z" style="fill:none;"/><path d="M352.159,61.224l3.699,0l0,-6.901l4.286,-4.182l6.646,11.083l4.386,0l-8.638,-13.725l7.818,-8.938l-4.386,0l-10.045,11.673l-0.067,0l0,-11.673l-3.699,0l0,22.663Z" style="fill:#fff;fill-rule:nonzero;"/></g></g><clipPath id="_clip13"><rect id="Qs" x="244" y="2" width="72" height="96"/></clipPath><g clip-path="url(#_clip13)"><path id="Card-background4" serif:id="Card-background" d="M315.999,6.775c0,-2.635 -2.137,-4.775 -4.769,-4.775l-62.46,0c-2.633,0 -4.77,2.14 -4.772,4.775l-0.024,85.952c0,2.636 2.137,4.776 4.77,4.776l62.458,0c2.634,0 4.772,-2.14 4.773,-4.776l0.024,-85.952Z" style="fill:url(#_Radial14);stroke:#646464;stroke-width:0.11px;"/><path id="Spades4" serif:id="Spades" d="M280.305,15.267c-7.54,21.003 -26.658,31.549 -26.944,43.806c0,16.502 18.105,14.882 23.928,7.201c3.016,7.501 -3.188,13.287 -6.033,18.002l18.097,0c-2.844,-4.715 -9.048,-10.501 -6.032,-18.002c5.822,7.681 23.927,9.301 23.927,-7.201c-0.286,-12.257 -19.403,-22.803 -26.943,-43.806Z" style="fill:url(#_Linear15);stroke:#000;stroke-width:0.15px;"/><g id="Center-Text4" serif:id="Center-Text"><path d="M283.116,57.183c-0.681,0.528 -1.591,0.792 -2.729,0.792c-0.871,0 -1.619,-0.171 -2.244,-0.513c-0.636,-0.29 -1.149,-0.668 -1.54,-1.134c-0.48,-0.487 -0.798,-1.125 -0.954,-1.912c-0.179,-0.788 -0.268,-2.296 -0.268,-4.524c0,-2.228 0.089,-3.746 0.268,-4.554c0.156,-0.767 0.474,-1.394 0.954,-1.881c0.391,-0.466 0.904,-0.855 1.54,-1.166c0.625,-0.3 1.373,-0.461 2.244,-0.481c0.882,0.02 1.646,0.181 2.293,0.481c0.614,0.311 1.105,0.7 1.474,1.166c0.479,0.487 0.809,1.114 0.987,1.881c0.168,0.808 0.251,2.326 0.251,4.554c0,2.394 -0.117,3.975 -0.351,4.741l-2.846,-2.098l-2.193,2.347l3.114,2.301Zm3.03,2.253l3.08,2.301l2.193,-2.363l-3.214,-2.378c0.335,-0.518 0.575,-1.243 0.72,-2.176c0.111,-0.933 0.167,-2.575 0.167,-4.928c0,-2.632 -0.072,-4.393 -0.217,-5.284c-0.157,-0.892 -0.441,-1.612 -0.854,-2.161c-0.57,-1.047 -1.496,-1.979 -2.779,-2.798c-1.295,-0.829 -2.913,-1.254 -4.855,-1.275c-1.92,0.021 -3.521,0.446 -4.805,1.275c-1.306,0.819 -2.254,1.751 -2.846,2.798c-0.368,0.549 -0.642,1.269 -0.82,2.161c-0.168,0.891 -0.251,2.652 -0.251,5.284c0,2.591 0.083,4.342 0.251,5.254c0.089,0.487 0.201,0.892 0.335,1.213c0.145,0.311 0.307,0.637 0.485,0.979c0.592,1.047 1.54,1.969 2.846,2.767c1.284,0.829 2.885,1.264 4.805,1.306c2.399,-0.042 4.319,-0.7 5.759,-1.975Z" style="fill:none;"/><path d="M283.116,57.183c-0.681,0.528 -1.591,0.792 -2.729,0.792c-0.871,0 -1.619,-0.171 -2.244,-0.513c-0.636,-0.29 -1.149,-0.668 -1.54,-1.134c-0.48,-0.487 -0.798,-1.125 -0.954,-1.912c-0.179,-0.788 -0.268,-2.296 -0.268,-4.524c0,-2.228 0.089,-3.746 0.268,-4.554c0.156,-0.767 0.474,-1.394 0.954,-1.881c0.391,-0.466 0.904,-0.855 1.54,-1.166c0.625,-0.3 1.373,-0.461 2.244,-0.481c0.882,0.02 1.646,0.181 2.293,0.481c0.614,0.311 1.105,0.7 1.474,1.166c0.479,0.487 0.809,1.114 0.987,1.881c0.168,0.808 0.251,2.326 0.251,4.554c0,2.394 -0.117,3.975 -0.351,4.741l-2.846,-2.098l-2.193,2.347l3.114,2.301Zm3.03,2.253l3.08,2.301l2.193,-2.363l-3.214,-2.378c0.335,-0.518 0.575,-1.243 0.72,-2.176c0.111,-0.933 0.167,-2.575 0.167,-4.928c0,-2.632 -0.072,-4.393 -0.217,-5.284c-0.157,-0.892 -0.441,-1.612 -0.854,-2.161c-0.57,-1.047 -1.496,-1.979 -2.779,-2.798c-1.295,-0.829 -2.913,-1.254 -4.855,-1.275c-1.92,0.021 -3.521,0.446 -4.805,1.275c-1.306,0.819 -2.254,1.751 -2.846,2.798c-0.368,0.549 -0.642,1.269 -0.82,2.161c-0.168,0.891 -0.251,2.652 -0.251,5.284c0,2.591 0.083,4.342 0.251,5.254c0.089,0.487 0.201,0.892 0.335,1.213c0.145,0.311 0.307,0.637 0.485,0.979c0.592,1.047 1.54,1.969 2.846,2.767c1.284,0.829 2.885,1.264 4.805,1.306c2.399,-0.042 4.319,-0.7 5.759,-1.975Z" style="fill:#fff;fill-rule:nonzero;"/></g></g><defs><radialGradient id="_Radial2" cx="0" cy="0" r="1" gradientUnits="userSpaceOnUse" gradientTransform="matrix(63.432,48.4156,-35.6829,47.5104,39.9867,49.7513)"><stop offset="0" style="stop-color:#fff;stop-opacity:1"/><stop offset="1" style="stop-color:#dcdcdc;stop-opacity:1"/></radialGradient><linearGradient id="_Linear3" x1="0" y1="0" x2="1" y2="0" gradientUnits="userSpaceOnUse" gradientTransform="matrix(2.86254e-15,46.5066,-46.7488,2.84771e-15,40.3049,15.3418)"><stop offset="0" style="stop-color:#737373;stop-opacity:1"/><stop offset="1" style="stop-color:#000;stop-opacity:1"/></linearGradient><radialGradient id="_Radial5" cx="0" cy="0" r="1" gradientUnits="userSpaceOnUse" gradientTransform="matrix(63.432,48.4156,-35.6829,47.5104,119.987,49.7513)"><stop offset="0" style="stop-color:#fff;stop-opacity:1"/><stop offset="1" style="stop-color:#dcdcdc;stop-opacity:1"/></radialGradient><linearGradient id="_Linear6" x1="0" y1="0" x2="1" y2="0" gradientUnits="userSpaceOnUse" gradientTransform="matrix(2.86254e-15,46.5066,-46.7488,2.84771e-15,120.305,15.3418)"><stop offset="0" style="stop-color:#737373;stop-opacity:1"/><stop offset="1" style="stop-color:#000;stop-opacity:1"/></linearGradient><radialGradient id="_Radial8" cx="0" cy="0" r="1" gradientUnits="userSpaceOnUse" gradientTransform="matrix(63.432,48.4156,-35.6829,47.5104,199.987,49.7513)"><stop offset="0" style="stop-color:#fff;stop-opacity:1"/><stop offset="1" style="stop-color:#dcdcdc;stop-opacity:1"/></radialGradient><linearGradient id="_Linear9" x1="0" y1="0" x2="1" y2="0" gradientUnits="userSpaceOnUse" gradientTransform="matrix(2.86254e-15,46.5066,-46.7488,2.84771e-15,200.305,15.3418)"><stop offset="0" style="stop-color:#737373;stop-opacity:1"/><stop offset="1" style="stop-color:#000;stop-opacity:1"/></linearGradient><radialGradient id="_Radial11" cx="0" cy="0" r="1" gradientUnits="userSpaceOnUse" gradientTransform="matrix(63.432,48.4156,-35.6829,47.5104,359.987,49.7513)"><stop offset="0" style="stop-color:#fff;stop-opacity:1"/><stop offset="1" style="stop-color:#dcdcdc;stop-opacity:1"/></radialGradient><linearGradient id="_Linear12" x1="0" y1="0" x2="1" y2="0" gradientUnits="userSpaceOnUse" gradientTransform="matrix(2.86254e-15,46.5066,-46.7488,2.84771e-15,360.305,15.3418)"><stop offset="0" style="stop-color:#737373;stop-opacity:1"/><stop offset="1" style="stop-color:#000;stop-opacity:1"/></linearGradient><radialGradient id="_Radial14" cx="0" cy="0" r="1" gradientUnits="userSpaceOnUse" gradientTransform="matrix(63.432,48.4156,-35.6829,47.5104,279.987,49.7513)"><stop offset="0" style="stop-color:#fff;stop-opacity:1"/><stop offset="1" style="stop-color:#dcdcdc;stop-opacity:1"/></radialGradient><linearGradient id="_Linear15" x1="0" y1="0" x2="1" y2="0" gradientUnits="userSpaceOnUse" gradientTransform="matrix(2.86254e-15,46.5066,-46.7488,2.84771e-15,280.305,15.3418)"><stop offset="0" style="stop-color:#737373;stop-opacity:1"/><stop offset="1" style="stop-color:#000;stop-opacity:1"/></linearGradient></defs></svg>