<?xml version="1.0" encoding="UTF-8" standalone="no"?><!DOCTYPE svg PUBLIC "-//W3C//DTD SVG 1.1//EN" "http://www.w3.org/Graphics/SVG/1.1/DTD/svg11.dtd"><svg width="100%" height="100%" viewBox="0 0 400 100" version="1.1" xmlns="http://www.w3.org/2000/svg" xmlns:xlink="http://www.w3.org/1999/xlink" xml:space="preserve" xmlns:serif="http://www.serif.com/" style="fill-rule:evenodd;clip-rule:evenodd;"><g><path id="Card-background" d="M156.024,6.8c0.001,-2.649 -2.136,-4.8 -4.769,-4.8l-62.459,0c-2.633,0 -4.771,2.151 -4.772,4.8l-0.024,86.4c0,2.649 2.137,4.8 4.77,4.8l62.458,0c2.633,0 4.772,-2.151 4.772,-4.8l0.024,-86.4Z" style="fill:url(#_Radial1);stroke:#646464;stroke-width:0.11px;"/><path id="Hearts" d="M102.941,18.168c-4.403,-0.035 -8.869,2.155 -12.337,8.828c-9.984,19.208 29.495,46.574 29.261,56.529l0,0.22c0,0 0.096,-0.091 0.117,-0.11c0.021,0.019 0.117,0.11 0.117,0.11l0,-0.221c0,-8.501 39.244,-37.32 29.261,-56.529c-9.977,-19.194 -28.163,-1.342 -29.378,-0.116c-0.792,-0.799 -8.777,-8.646 -17.041,-8.711Z" style="fill:url(#_Linear2);stroke:url(#_Linear3);stroke-width:0.14px;"/><path d="M115.172,54.736l-2.98,2.015c1.395,1.917 3.51,2.906 6.345,2.969c2.054,-0.021 3.856,-0.672 5.408,-1.953c1.562,-1.25 2.366,-3.021 2.41,-5.313l0,-15.703l-3.699,0l0,15.36c0,0.77 -0.129,1.411 -0.385,1.921c-0.246,0.532 -0.586,0.959 -1.022,1.282c-0.893,0.656 -1.83,0.974 -2.812,0.953c-0.737,0 -1.379,-0.162 -1.925,-0.485c-0.547,-0.27 -0.994,-0.619 -1.34,-1.046Z" style="fill:none;"/><path d="M115.172,55.736l-2.98,2.015c1.395,1.917 3.51,2.906 6.345,2.969c2.054,-0.021 3.856,-0.672 5.408,-1.953c1.562,-1.25 2.366,-3.021 2.41,-5.313l0,-15.703l-3.699,0l0,15.36c0,0.77 -0.129,1.411 -0.385,1.921c-0.246,0.532 -0.586,0.959 -1.022,1.282c-0.893,0.656 -1.83,0.974 -2.812,0.953c-0.737,0 -1.379,-0.162 -1.925,-0.485c-0.547,-0.27 -0.994,-0.619 -1.34,-1.046Z" style="fill:#fff;fill-rule:nonzero;"/></g><g><path id="Card-background1" serif:id="Card-background" d="M236.024,6.8c0.001,-2.649 -2.136,-4.8 -4.769,-4.8l-62.459,0c-2.633,0 -4.771,2.151 -4.772,4.8l-0.024,86.4c0,2.649 2.137,4.8 4.77,4.8l62.458,0c2.633,0 4.772,-2.151 4.772,-4.8l0.024,-86.4Z" style="fill:url(#_Radial4);stroke:#646464;stroke-width:0.11px;"/><path id="Hearts1" serif:id="Hearts" d="M182.941,19.168c-4.403,-0.035 -8.869,2.155 -12.337,8.828c-9.984,19.208 29.495,46.574 29.261,56.529l0,0.22c0,0 0.096,-0.091 0.117,-0.11c0.021,0.019 0.117,0.11 0.117,0.11l0,-0.221c0,-8.501 39.244,-37.32 29.261,-56.529c-9.977,-19.194 -28.163,-1.342 -29.378,-0.116c-0.792,-0.799 -8.777,-8.646 -17.041,-8.711Z" style="fill:url(#_Linear5);stroke:url(#_Linear6);stroke-width:0.14px;"/><path d="M203.141,57.47c-0.681,0.531 -1.59,0.797 -2.729,0.797c-0.87,0 -1.618,-0.172 -2.243,-0.516c-0.636,-0.291 -1.15,-0.672 -1.54,-1.14c-0.48,-0.49 -0.798,-1.131 -0.954,-1.922c-0.179,-0.792 -0.268,-2.308 -0.268,-4.547c0,-2.24 0.089,-3.766 0.268,-4.578c0.156,-0.771 0.474,-1.401 0.954,-1.891c0.39,-0.469 0.904,-0.859 1.54,-1.172c0.625,-0.302 1.373,-0.463 2.243,-0.484c0.882,0.021 1.646,0.182 2.294,0.484c0.614,0.313 1.105,0.703 1.473,1.172c0.48,0.49 0.809,1.12 0.988,1.891c0.167,0.812 0.251,2.338 0.251,4.578c0,2.406 -0.117,3.995 -0.352,4.766l-2.846,-2.11l-2.193,2.359l3.114,2.313Zm3.03,2.266l3.081,2.312l2.193,-2.375l-3.215,-2.39c0.335,-0.521 0.575,-1.251 0.72,-2.188c0.112,-0.937 0.168,-2.589 0.168,-4.953c0,-2.646 -0.073,-4.417 -0.218,-5.313c-0.156,-0.895 -0.441,-1.619 -0.854,-2.171c-0.569,-1.053 -1.495,-1.99 -2.779,-2.813c-1.294,-0.833 -2.913,-1.26 -4.855,-1.281c-1.919,0.021 -3.521,0.448 -4.804,1.281c-1.306,0.823 -2.255,1.76 -2.846,2.813c-0.369,0.552 -0.642,1.276 -0.821,2.171c-0.167,0.896 -0.251,2.667 -0.251,5.313c0,2.604 0.084,4.364 0.251,5.281c0.09,0.49 0.201,0.896 0.335,1.219c0.145,0.312 0.307,0.641 0.486,0.984c0.591,1.052 1.54,1.979 2.846,2.782c1.283,0.833 2.885,1.27 4.804,1.312c2.4,-0.042 4.319,-0.703 5.759,-1.984Z" style="fill:none;"/><path d="M203.141,57.47c-0.681,0.531 -1.59,0.797 -2.729,0.797c-0.87,0 -1.618,-0.172 -2.243,-0.516c-0.636,-0.291 -1.15,-0.672 -1.54,-1.14c-0.48,-0.49 -0.798,-1.131 -0.954,-1.922c-0.179,-0.792 -0.268,-2.308 -0.268,-4.547c0,-2.24 0.089,-3.766 0.268,-4.578c0.156,-0.771 0.474,-1.401 0.954,-1.891c0.39,-0.469 0.904,-0.859 1.54,-1.172c0.625,-0.302 1.373,-0.463 2.243,-0.484c0.882,0.021 1.646,0.182 2.294,0.484c0.614,0.313 1.105,0.703 1.473,1.172c0.48,0.49 0.809,1.12 0.988,1.891c0.167,0.812 0.251,2.338 0.251,4.578c0,2.406 -0.117,3.995 -0.352,4.766l-2.846,-2.11l-2.193,2.359l3.114,2.313Zm3.03,2.266l3.081,2.312l2.193,-2.375l-3.215,-2.39c0.335,-0.521 0.575,-1.251 0.72,-2.188c0.112,-0.937 0.168,-2.589 0.168,-4.953c0,-2.646 -0.073,-4.417 -0.218,-5.313c-0.156,-0.895 -0.441,-1.619 -0.854,-2.171c-0.569,-1.053 -1.495,-1.99 -2.779,-2.813c-1.294,-0.833 -2.913,-1.26 -4.855,-1.281c-1.919,0.021 -3.521,0.448 -4.804,1.281c-1.306,0.823 -2.255,1.76 -2.846,2.813c-0.369,0.552 -0.642,1.276 -0.821,2.171c-0.167,0.896 -0.251,2.667 -0.251,5.313c0,2.604 0.084,4.364 0.251,5.281c0.09,0.49 0.201,0.896 0.335,1.219c0.145,0.312 0.307,0.641 0.486,0.984c0.591,1.052 1.54,1.979 2.846,2.782c1.283,0.833 2.885,1.27 4.804,1.312c2.4,-0.042 4.319,-0.703 5.759,-1.984Z" style="fill:#fff;fill-rule:nonzero;"/></g><g><path id="Card-background2" serif:id="Card-background" d="M316.024,6.8c0.001,-2.649 -2.136,-4.8 -4.769,-4.8l-62.459,0c-2.633,0 -4.771,2.151 -4.772,4.8l-0.024,86.4c0,2.649 2.137,4.8 4.77,4.8l62.458,0c2.633,0 4.772,-2.151 4.772,-4.8l0.024,-86.4Z" style="fill:url(#_Radial7);stroke:#646464;stroke-width:0.11px;"/><path id="Hearts2" serif:id="Hearts" d="M262.941,19.168c-4.403,-0.035 -8.869,2.155 -12.337,8.828c-9.984,19.208 29.495,46.574 29.261,56.529l0,0.22c0,0 0.096,-0.091 0.117,-0.11c0.021,0.019 0.117,0.11 0.117,0.11l0,-0.221c0,-8.501 39.244,-37.32 29.261,-56.529c-9.977,-19.194 -28.163,-1.342 -29.378,-0.116c-0.792,-0.799 -8.777,-8.646 -17.041,-8.711Z" style="fill:url(#_Linear8);stroke:url(#_Linear9);stroke-width:0.14px;"/><path d="M272.184,61.533l3.7,-0.001l0,-6.937l4.286,-4.203l6.646,11.14l4.386,0l-8.638,-13.796l7.818,-8.985l-4.387,0l-10.044,11.735l-0.067,0l0,-11.735l-3.7,0l0,22.781Z" style="fill:none;"/><path d="M272.184,61.533l3.7,-0.001l0,-6.937l4.286,-4.203l6.646,11.14l4.386,0l-8.638,-13.796l7.818,-8.985l-4.387,0l-10.044,11.735l-0.067,0l0,-11.735l-3.7,0l0,22.781Z" style="fill:#fff;fill-rule:nonzero;"/></g><g><path id="Card-background3" serif:id="Card-background" d="M396.024,6.8c0.001,-2.649 -2.136,-4.8 -4.769,-4.8l-62.459,0c-2.633,0 -4.771,2.151 -4.772,4.8l-0.024,86.4c0,2.649 2.137,4.8 4.77,4.8l62.458,0c2.633,0 4.772,-2.151 4.772,-4.8l0.024,-86.4Z" style="fill:url(#_Radial10);stroke:#646464;stroke-width:0.11px;"/><path id="Hearts3" serif:id="Hearts" d="M342.941,19.168c-4.403,-0.035 -8.869,2.155 -12.337,8.828c-9.984,19.208 29.495,46.574 29.261,56.529l0,0.22c0,0 0.096,-0.091 0.117,-0.11c0.021,0.019 0.117,0.11 0.117,0.11l0,-0.221c0,-8.501 39.244,-37.32 29.261,-56.529c-9.977,-19.194 -28.163,-1.342 -29.378,-0.116c-0.792,-0.799 -8.777,-8.646 -17.041,-8.711Z" style="fill:url(#_Linear11);stroke:url(#_Linear12);stroke-width:0.14px;"/><path d="M356.846,53.376l3.533,-9.953l0.067,0l3.532,9.953l-7.132,0Zm10.079,8.156l3.9,0l-8.873,-22.781l-3.097,0l-8.872,22.781l3.917,0l1.875,-5.093l9.258,0l1.892,5.093Z" style="fill:none;"/><path d="M356.846,53.376l3.533,-9.953l0.067,0l3.532,9.953l-7.132,0Zm10.079,8.156l3.9,0l-8.873,-22.781l-3.097,0l-8.872,22.781l3.917,0l1.875,-5.093l9.258,0l1.892,5.093Z" style="fill:#fff;fill-rule:nonzero;"/></g><g><path id="Card-background4" serif:id="Card-background" d="M75.999,6.8c0.001,-2.649 -2.136,-4.8 -4.769,-4.8l-62.459,0c-2.633,0 -4.771,2.151 -4.772,4.8l-0.024,86.4c-0.001,2.649 2.136,4.8 4.769,4.8l62.459,0c2.633,0 4.771,-2.151 4.772,-4.8l0.024,-86.4Z" style="fill:url(#_Radial13);stroke:#646464;stroke-width:0.11px;"/><path id="Hearts4" serif:id="Hearts" d="M22.916,19.168c-4.403,-0.035 -8.87,2.155 -12.338,8.828c-9.983,19.208 29.495,46.574 29.261,56.529l0,0.22c0,0 0.096,-0.091 0.117,-0.11c0.022,0.019 0.117,0.11 0.117,0.11l0,-0.221c0,-8.501 39.245,-37.32 29.261,-56.529c-9.977,-19.194 -28.163,-1.342 -29.378,-0.116c-0.791,-0.799 -8.777,-8.646 -17.041,-8.711Z" style="fill:url(#_Linear14);stroke:url(#_Linear15);stroke-width:0.14px;"/><path d="M31.871,42.204l0,19.328l3.499,0.001l0,-22.782l-3.499,0l-3.465,2.36l0,3.468l3.465,-2.375Z" style="fill:none;"/><path d="M49.047,54.97c-0.067,2.302 -1.211,3.464 -3.432,3.484c-2.232,-0.02 -3.37,-1.182 -3.415,-3.484l0,-9.656c0.045,-2.282 1.183,-3.443 3.415,-3.485c2.221,0.042 3.365,1.203 3.432,3.485l0,9.656Zm-10.346,0.187c0.023,2.094 0.743,3.709 2.16,4.844c1.328,1.125 2.913,1.698 4.754,1.719c1.898,-0.021 3.51,-0.594 4.839,-1.719c1.35,-1.135 2.048,-2.75 2.092,-4.844l0,-10.046c-0.044,-2.104 -0.742,-3.724 -2.092,-4.86c-1.329,-1.125 -2.941,-1.687 -4.839,-1.687c-1.841,0 -3.426,0.562 -4.754,1.687c-1.417,1.136 -2.137,2.756 -2.16,4.86l0,10.046Z" style="fill:none;"/><path d="M31.871,42.204l0,19.328l3.499,0.001l0,-22.782l-3.499,0l-3.465,2.36l0,3.468l3.465,-2.375Z" style="fill:#fff;fill-rule:nonzero;"/><path d="M49.047,54.97c-0.067,2.302 -1.211,3.464 -3.432,3.484c-2.232,-0.02 -3.37,-1.182 -3.415,-3.484l0,-9.656c0.045,-2.282 1.183,-3.443 3.415,-3.485c2.221,0.042 3.365,1.203 3.432,3.485l0,9.656Zm-10.346,0.187c0.023,2.094 0.743,3.709 2.16,4.844c1.328,1.125 2.913,1.698 4.754,1.719c1.898,-0.021 3.51,-0.594 4.839,-1.719c1.35,-1.135 2.048,-2.75 2.092,-4.844l0,-10.046c-0.044,-2.104 -0.742,-3.724 -2.092,-4.86c-1.329,-1.125 -2.941,-1.687 -4.839,-1.687c-1.841,0 -3.426,0.562 -4.754,1.687c-1.417,1.136 -2.137,2.756 -2.16,4.86l0,10.046Z" style="fill:#fff;fill-rule:nonzero;"/></g><defs><radialGradient id="_Radial1" cx="0" cy="0" r="1" gradientUnits="userSpaceOnUse" gradientTransform="matrix(63.432,48.6678,-35.6829,47.7578,120.012,50)"><stop offset="0" style="stop-color:#fff;stop-opacity:1"/><stop offset="1" style="stop-color:#dcdcdc;stop-opacity:1"/></radialGradient><linearGradient id="_Linear2" x1="0" y1="0" x2="1" y2="0" gradientUnits="userSpaceOnUse" gradientTransform="matrix(1.47475,53.912,-53.912,1.47475,120.099,18.483)"><stop offset="0" style="stop-color:#e00000;stop-opacity:1"/><stop offset="1" style="stop-color:#560000;stop-opacity:1"/></linearGradient><linearGradient id="_Linear3" x1="0" y1="0" x2="1" y2="0" gradientUnits="userSpaceOnUse" gradientTransform="matrix(1.47475,53.912,-53.912,1.47475,120.099,18.483)"><stop offset="0" style="stop-color:#e00000;stop-opacity:1"/><stop offset="1" style="stop-color:#560000;stop-opacity:1"/></linearGradient><radialGradient id="_Radial4" cx="0" cy="0" r="1" gradientUnits="userSpaceOnUse" gradientTransform="matrix(63.432,48.6678,-35.6829,47.7578,200.012,50)"><stop offset="0" style="stop-color:#fff;stop-opacity:1"/><stop offset="1" style="stop-color:#dcdcdc;stop-opacity:1"/></radialGradient><linearGradient id="_Linear5" x1="0" y1="0" x2="1" y2="0" gradientUnits="userSpaceOnUse" gradientTransform="matrix(1.47475,53.912,-53.912,1.47475,200.099,19.483)"><stop offset="0" style="stop-color:#e00000;stop-opacity:1"/><stop offset="1" style="stop-color:#560000;stop-opacity:1"/></linearGradient><linearGradient id="_Linear6" x1="0" y1="0" x2="1" y2="0" gradientUnits="userSpaceOnUse" gradientTransform="matrix(1.47475,53.912,-53.912,1.47475,200.099,19.483)"><stop offset="0" style="stop-color:#e00000;stop-opacity:1"/><stop offset="1" style="stop-color:#560000;stop-opacity:1"/></linearGradient><radialGradient id="_Radial7" cx="0" cy="0" r="1" gradientUnits="userSpaceOnUse" gradientTransform="matrix(63.432,48.6678,-35.6829,47.7578,280.012,50)"><stop offset="0" style="stop-color:#fff;stop-opacity:1"/><stop offset="1" style="stop-color:#dcdcdc;stop-opacity:1"/></radialGradient><linearGradient id="_Linear8" x1="0" y1="0" x2="1" y2="0" gradientUnits="userSpaceOnUse" gradientTransform="matrix(1.47475,53.912,-53.912,1.47475,280.099,19.483)"><stop offset="0" style="stop-color:#e00000;stop-opacity:1"/><stop offset="1" style="stop-color:#560000;stop-opacity:1"/></linearGradient><linearGradient id="_Linear9" x1="0" y1="0" x2="1" y2="0" gradientUnits="userSpaceOnUse" gradientTransform="matrix(1.47475,53.912,-53.912,1.47475,280.099,19.483)"><stop offset="0" style="stop-color:#e00000;stop-opacity:1"/><stop offset="1" style="stop-color:#560000;stop-opacity:1"/></linearGradient><radialGradient id="_Radial10" cx="0" cy="0" r="1" gradientUnits="userSpaceOnUse" gradientTransform="matrix(63.432,48.6678,-35.6829,47.7578,360.012,50)"><stop offset="0" style="stop-color:#fff;stop-opacity:1"/><stop offset="1" style="stop-color:#dcdcdc;stop-opacity:1"/></radialGradient><linearGradient id="_Linear11" x1="0" y1="0" x2="1" y2="0" gradientUnits="userSpaceOnUse" gradientTransform="matrix(1.47475,53.912,-53.912,1.47475,360.099,19.483)"><stop offset="0" style="stop-color:#e00000;stop-opacity:1"/><stop offset="1" style="stop-color:#560000;stop-opacity:1"/></linearGradient><linearGradient id="_Linear12" x1="0" y1="0" x2="1" y2="0" gradientUnits="userSpaceOnUse" gradientTransform="matrix(1.47475,53.912,-53.912,1.47475,360.099,19.483)"><stop offset="0" style="stop-color:#e00000;stop-opacity:1"/><stop offset="1" style="stop-color:#560000;stop-opacity:1"/></linearGradient><radialGradient id="_Radial13" cx="0" cy="0" r="1" gradientUnits="userSpaceOnUse" gradientTransform="matrix(63.432,48.6678,-35.6829,47.7578,39.9867,50)"><stop offset="0" style="stop-color:#fff;stop-opacity:1"/><stop offset="1" style="stop-color:#dcdcdc;stop-opacity:1"/></radialGradient><linearGradient id="_Linear14" x1="0" y1="0" x2="1" y2="0" gradientUnits="userSpaceOnUse" gradientTransform="matrix(1.47475,53.912,-53.912,1.47475,40.0731,19.483)"><stop offset="0" style="stop-color:#e00000;stop-opacity:1"/><stop offset="1" style="stop-color:#560000;stop-opacity:1"/></linearGradient><linearGradient id="_Linear15" x1="0" y1="0" x2="1" y2="0" gradientUnits="userSpaceOnUse" gradientTransform="matrix(1.47475,53.912,-53.912,1.47475,40.0731,19.483)"><stop offset="0" style="stop-color:#e00000;stop-opacity:1"/><stop offset="1" style="stop-color:#560000;stop-opacity:1"/></linearGradient></defs></svg>