<?xml version="1.0" encoding="UTF-8" standalone="no"?><!DOCTYPE svg PUBLIC "-//W3C//DTD SVG 1.1//EN" "http://www.w3.org/Graphics/SVG/1.1/DTD/svg11.dtd"><svg width="100%" height="100%" viewBox="0 0 70 100" version="1.1" xmlns="http://www.w3.org/2000/svg" xmlns:xlink="http://www.w3.org/1999/xlink" xml:space="preserve" style="fill-rule:evenodd;clip-rule:evenodd;stroke-linecap:round;stroke-linejoin:round;stroke-miterlimit:1.5;"><g id="Bot"><path d="M34.91,11.793l0,14.501l0,-14.501Z" style="fill:#fff;stroke:#fff;stroke-width:0.5px;"/><path d="M59.587,26.672c4.027,0 7.297,3.237 7.297,7.223l0,14.447c0,3.987 -3.27,7.224 -7.297,7.224l-48.547,0c-4.028,0 -7.297,-3.237 -7.297,-7.224l0,-14.447c0,-3.986 3.269,-7.223 7.297,-7.223l48.547,0Zm-39.468,6.249c3.246,0 5.881,2.707 5.881,6.042c0,3.335 -2.635,6.043 -5.881,6.043c-3.245,0 -5.88,-2.708 -5.88,-6.043c0,-3.335 2.635,-6.042 5.88,-6.042Zm30.519,0c3.246,0 5.881,2.707 5.881,6.042c0,3.335 -2.635,6.043 -5.881,6.043c-3.245,0 -5.88,-2.708 -5.88,-6.043c0,-3.335 2.635,-6.042 5.88,-6.042Z" style="fill:#fff;stroke:#fff;stroke-width:0.5px;"/><path d="M54.023,66.871c0,-3.677 -2.986,-6.662 -6.663,-6.662l-24.564,0c-3.677,0 -6.662,2.985 -6.662,6.662l0,13.325c0,3.677 2.985,6.662 6.662,6.662l24.564,0c3.677,0 6.663,-2.985 6.663,-6.662l0,-13.325Z" style="fill:#fff;stroke:#fff;stroke-width:0.5px;"/><ellipse cx="6.007" cy="73.415" rx="6.007" ry="5.436" style="fill:#fff;stroke:#fff;stroke-width:0.5px;"/><ellipse cx="63.993" cy="73.415" rx="6.007" ry="5.436" style="fill:#fff;stroke:#fff;stroke-width:0.5px;"/><ellipse cx="16.688" cy="94.564" rx="6.007" ry="5.436" style="fill:#fff;stroke:#fff;stroke-width:0.5px;"/><ellipse cx="53.312" cy="94.564" rx="6.007" ry="5.436" style="fill:#fff;stroke:#fff;stroke-width:0.5px;"/><ellipse cx="35" cy="5.436" rx="6.007" ry="5.436" style="fill:#fff;stroke:#fff;stroke-width:0.5px;"/></g></svg>