<?xml version="1.0" encoding="UTF-8" standalone="no"?><!DOCTYPE svg PUBLIC "-//W3C//DTD SVG 1.1//EN" "http://www.w3.org/Graphics/SVG/1.1/DTD/svg11.dtd"><svg width="100%" height="100%" viewBox="0 0 144 193" version="1.1" xmlns="http://www.w3.org/2000/svg" xmlns:xlink="http://www.w3.org/1999/xlink" xml:space="preserve" style="fill-rule:evenodd;clip-rule:evenodd;"><path id="Card-background" d="M143.967,10.046c0.018,-5.299 -4.269,-9.614 -9.568,-9.63l-124.799,-0.386c-5.298,-0.017 -9.615,4.272 -9.632,9.57l-0.583,172.799c-0.018,5.298 4.269,9.613 9.567,9.63l124.8,0.386c5.298,0.016 9.614,-4.272 9.632,-9.57l0.583,-172.799Z" style="fill:url(#_Radial1);stroke:#646464;stroke-width:0.22px;"/><g id="Clubs"><path id="path7930" d="M72.995,40.95c-14.746,0 -26.88,11.538 -26.88,25.56c0,0 0,0 0,0c0.012,6.15 2.358,12.095 6.605,16.734c-1.232,-0.186 -2.477,-0.284 -3.725,-0.294c-13.825,0 -25.2,10.833 -25.2,24c0,13.166 11.375,24 25.2,24c7.316,-0.006 14.279,-3.045 19.059,-8.32c3.954,11.554 -5.529,20.529 -9.939,27.88l28.8,0c-4.437,-7.395 -14.006,-16.432 -9.868,-28.086c4.778,5.394 11.818,8.516 19.228,8.526c13.824,0 25.2,-10.834 25.2,-24c0,-13.167 -11.376,-24 -25.2,-24c-0.963,0.009 -1.923,0.072 -2.878,0.186c4.175,-4.628 6.474,-10.528 6.478,-16.626c0,0 0,0 0,0c0,-14.022 -12.134,-25.56 -26.88,-25.56l0,0Z" style="fill:url(#_Linear2);stroke:#000;stroke-width:0.24px;"/><path id="path7975" d="M16.982,31.272c-2.53,0 -4.612,2.056 -4.612,4.554c0.002,1.096 0.405,2.155 1.133,2.981c-0.211,-0.033 -0.425,-0.051 -0.639,-0.052c-2.371,0 -4.323,1.93 -4.323,4.275c0,0 0,0 0,0c0,2.346 1.952,4.276 4.323,4.276c0,0 0,0 0,0c1.255,-0.001 2.45,-0.543 3.27,-1.482c0.678,2.058 -0.948,3.657 -1.705,4.966l4.941,0c-0.761,-1.317 -2.403,-2.927 -1.693,-5.003c0.82,0.961 2.027,1.517 3.299,1.519c0,0 0,0 0,0c2.371,0 4.323,-1.93 4.323,-4.276c0,0 0,0 0,0c0,-2.345 -1.952,-4.275 -4.323,-4.275c-0.165,0.001 -0.33,0.012 -0.494,0.033c0.716,-0.825 1.111,-1.876 1.111,-2.962c0,-2.498 -2.081,-4.554 -4.611,-4.554l0,0Z" style="fill:url(#_Linear3);stroke:#000;stroke-width:0.04px;"/><path id="path4821" d="M126.902,160.872c-2.53,0 -4.612,2.056 -4.612,4.554c0.002,1.096 0.405,2.155 1.133,2.981c-0.211,-0.033 -0.425,-0.051 -0.639,-0.052c-2.371,0 -4.323,1.93 -4.323,4.275c0,0 0,0 0,0c0,2.346 1.952,4.276 4.323,4.276c0,0 0,0 0,0c1.255,-0.001 2.45,-0.543 3.27,-1.482c0.678,2.058 -0.948,3.657 -1.705,4.966l4.941,0c-0.761,-1.317 -2.403,-2.927 -1.693,-5.003c0.82,0.961 2.027,1.517 3.299,1.519c0,0 0,0 0,0c2.371,0 4.323,-1.93 4.323,-4.276c0,0 0,0 0,0c0,-2.345 -1.952,-4.275 -4.323,-4.275c-0.165,0.001 -0.33,0.012 -0.494,0.033c0.716,-0.825 1.111,-1.876 1.111,-2.962c0,-2.498 -2.081,-4.554 -4.611,-4.554l0,0Z" style="fill:url(#_Linear4);stroke:#000;stroke-width:0.04px;"/></g><g id="text4596"><path d="M62.482,109.689l0,-3.649c1.209,-2.827 3.656,-5.907 7.34,-9.24l2.384,-2.13c3.065,-2.77 4.598,-5.52 4.598,-8.248c0,-1.743 -0.524,-3.114 -1.571,-4.113c-1.048,-0.998 -2.486,-1.498 -4.314,-1.498c-2.166,0 -4.718,0.837 -7.657,2.511l0,-3.671c2.77,-1.308 5.52,-1.961 8.248,-1.961c2.925,0 5.273,0.787 7.045,2.362c1.772,1.575 2.658,3.663 2.658,6.265c0,1.87 -0.447,3.53 -1.34,4.978c-0.893,1.448 -2.555,3.206 -4.988,5.273l-1.603,1.372c-3.333,2.826 -5.26,5.526 -5.78,8.1l13.563,0l0,3.649l-18.583,0Z" style="fill:url(#_Linear5);fill-rule:nonzero;"/><path d="M11.884,27.218l0,-1.858c0.616,-1.439 1.862,-3.008 3.738,-4.705l1.214,-1.085c1.561,-1.411 2.342,-2.811 2.342,-4.2c0,-0.888 -0.267,-1.586 -0.8,-2.095c-0.534,-0.508 -1.266,-0.763 -2.197,-0.763c-1.103,0 -2.403,0.426 -3.899,1.279l0,-1.869c1.41,-0.666 2.81,-0.999 4.2,-0.999c1.489,0 2.685,0.401 3.588,1.203c0.902,0.802 1.353,1.865 1.353,3.19c0,0.953 -0.227,1.798 -0.682,2.535c-0.455,0.738 -1.302,1.633 -2.541,2.686l-0.816,0.698c-1.697,1.439 -2.678,2.814 -2.943,4.125l6.907,0l0,1.858l-9.464,0Z" style="fill-rule:nonzero;"/><path d="M122.023,156.192l0,-1.858c0.616,-1.44 1.862,-3.008 3.738,-4.705l1.214,-1.085c1.561,-1.411 2.342,-2.811 2.342,-4.2c0,-0.888 -0.267,-1.587 -0.801,-2.095c-0.533,-0.509 -1.265,-0.763 -2.196,-0.763c-1.103,0 -2.403,0.426 -3.9,1.278l0,-1.869c1.411,-0.666 2.811,-0.999 4.2,-0.999c1.49,0 2.686,0.401 3.588,1.203c0.903,0.802 1.354,1.866 1.354,3.191c0,0.952 -0.227,1.797 -0.682,2.535c-0.455,0.738 -1.302,1.633 -2.541,2.686l-0.816,0.698c-1.697,1.439 -2.679,2.814 -2.944,4.125l6.908,0l0,1.858l-9.464,0Z" style="fill-rule:nonzero;"/></g><defs><radialGradient id="_Radial1" cx="0" cy="0" r="1" gradientUnits="userSpaceOnUse" gradientTransform="matrix(126.562,97.7279,-71.6611,95.2942,71.6758,96.2223)"><stop offset="0%" style="stop-color:#fff;stop-opacity:1"/><stop offset="100%" style="stop-color:#dcdcdc;stop-opacity:1"/></radialGradient><linearGradient id="_Linear2" x1="0" y1="0" x2="1" y2="0" gradientUnits="userSpaceOnUse" gradientTransform="matrix(-0.96,74.4,-74.4,-0.96,73.4748,40.2296)"><stop offset="0%" style="stop-color:#737373;stop-opacity:1"/><stop offset="100%" style="stop-color:#000;stop-opacity:1"/></linearGradient><linearGradient id="_Linear3" x1="0" y1="0" x2="1" y2="0" gradientUnits="userSpaceOnUse" gradientTransform="matrix(-0.164698,13.2543,-13.2543,-0.164698,17.0641,31.1441)"><stop offset="0%" style="stop-color:#737373;stop-opacity:1"/><stop offset="100%" style="stop-color:#000;stop-opacity:1"/></linearGradient><linearGradient id="_Linear4" x1="0" y1="0" x2="1" y2="0" gradientUnits="userSpaceOnUse" gradientTransform="matrix(-0.164698,13.2543,-13.2543,-0.164698,126.984,160.744)"><stop offset="0%" style="stop-color:#737373;stop-opacity:1"/><stop offset="100%" style="stop-color:#000;stop-opacity:1"/></linearGradient><linearGradient id="_Linear5" x1="0" y1="0" x2="1" y2="0" gradientUnits="userSpaceOnUse" gradientTransform="matrix(0.0983952,31.9224,-31.9224,0.0983952,128.055,187.206)"><stop offset="0%" style="stop-color:#fff;stop-opacity:1"/><stop offset="100%" style="stop-color:#dcdcdc;stop-opacity:1"/></linearGradient></defs></svg>