<?xml version="1.0" encoding="UTF-8" standalone="no"?><!DOCTYPE svg PUBLIC "-//W3C//DTD SVG 1.1//EN" "http://www.w3.org/Graphics/SVG/1.1/DTD/svg11.dtd"><svg width="100%" height="100%" viewBox="0 0 144 193" version="1.1" xmlns="http://www.w3.org/2000/svg" xmlns:xlink="http://www.w3.org/1999/xlink" xml:space="preserve" style="fill-rule:evenodd;clip-rule:evenodd;"><path id="Card-background" d="M143.967,10.046c0.018,-5.299 -4.269,-9.614 -9.568,-9.63l-124.799,-0.386c-5.298,-0.017 -9.615,4.272 -9.632,9.57l-0.583,172.799c-0.018,5.298 4.269,9.613 9.567,9.63l124.8,0.386c5.298,0.016 9.614,-4.272 9.632,-9.57l0.583,-172.799Z" style="fill:url(#_Radial1);stroke:#646464;stroke-width:0.22px;"/><g id="Diamonds"><path id="rect3362" d="M72.532,155.313l42.966,-59.646l-43.202,-59.975l-42.966,59.646l43.202,59.975Z" style="fill:url(#_Linear2);stroke:#640000;stroke-width:0.17px;"/><path id="rect6977" d="M16.885,51.744l7.157,-9.959l-7.196,-10.014l-7.157,9.959l7.196,10.014Z" style="fill:url(#_Linear3);stroke:#640000;stroke-width:0.03px;"/><path id="rect4360" d="M127.285,180.864l7.158,-9.959l-7.197,-10.014l-7.157,9.959l7.196,10.014Z" style="fill:url(#_Linear4);stroke:#640000;stroke-width:0.03px;"/></g><g id="Red-Numbers"><g opacity="0.94"><g id="text4292"><path d="M12.971,28.164l0,-1.859c0.545,-1.439 1.648,-3.007 3.309,-4.705l1.074,-1.085c1.382,-1.41 2.073,-2.811 2.073,-4.2c0,-0.888 -0.236,-1.586 -0.709,-2.095c-0.472,-0.508 -1.12,-0.762 -1.944,-0.762c-0.976,0 -2.126,0.426 -3.451,1.278l0,-1.869c1.248,-0.666 2.488,-0.999 3.717,-0.999c1.319,0 2.377,0.401 3.176,1.203c0.799,0.802 1.198,1.866 1.198,3.19c0,0.953 -0.201,1.798 -0.604,2.536c-0.402,0.737 -1.152,1.632 -2.248,2.685l-0.723,0.698c-1.502,1.44 -2.371,2.815 -2.605,4.125l6.113,0l0,1.859l-8.376,0Z" style="fill:#960000;fill-rule:nonzero;"/><path d="M123.226,157.886l0,-1.858c0.545,-1.44 1.648,-3.008 3.309,-4.705l1.074,-1.085c1.382,-1.411 2.073,-2.811 2.073,-4.2c0,-0.888 -0.236,-1.587 -0.709,-2.095c-0.472,-0.509 -1.12,-0.763 -1.944,-0.763c-0.976,0 -2.126,0.426 -3.451,1.279l0,-1.87c1.248,-0.666 2.488,-0.999 3.717,-0.999c1.319,0 2.377,0.401 3.176,1.203c0.799,0.803 1.198,1.866 1.198,3.191c0,0.952 -0.201,1.797 -0.604,2.535c-0.402,0.738 -1.152,1.633 -2.248,2.686l-0.723,0.698c-1.502,1.439 -2.371,2.814 -2.605,4.125l6.113,0l0,1.858l-8.376,0Z" style="fill:#960000;fill-rule:nonzero;"/></g></g></g><g id="text4596"><path d="M63.202,108.969l0,-3.649c1.209,-2.827 3.656,-5.907 7.34,-9.24l2.384,-2.13c3.065,-2.77 4.598,-5.52 4.598,-8.248c0,-1.743 -0.524,-3.114 -1.571,-4.113c-1.048,-0.998 -2.486,-1.498 -4.314,-1.498c-2.166,0 -4.718,0.837 -7.657,2.511l0,-3.671c2.77,-1.308 5.52,-1.961 8.248,-1.961c2.925,0 5.273,0.787 7.045,2.362c1.772,1.575 2.658,3.663 2.658,6.265c0,1.87 -0.447,3.53 -1.34,4.978c-0.893,1.448 -2.555,3.206 -4.988,5.273l-1.603,1.372c-3.333,2.826 -5.26,5.526 -5.78,8.1l13.563,0l0,3.649l-18.583,0Z" style="fill:url(#_Linear5);fill-rule:nonzero;"/></g><defs><radialGradient id="_Radial1" cx="0" cy="0" r="1" gradientUnits="userSpaceOnUse" gradientTransform="matrix(126.562,97.7279,-71.6611,95.2942,71.6758,96.2223)"><stop offset="0%" style="stop-color:#fff;stop-opacity:1"/><stop offset="100%" style="stop-color:#dcdcdc;stop-opacity:1"/></radialGradient><linearGradient id="_Linear2" x1="0" y1="0" x2="1" y2="0" gradientUnits="userSpaceOnUse" gradientTransform="matrix(-1.01374,121.856,-87.7783,-1.4073,71.9048,35.3332)"><stop offset="0%" style="stop-color:#e00000;stop-opacity:1"/><stop offset="100%" style="stop-color:#810000;stop-opacity:1"/></linearGradient><linearGradient id="_Linear3" x1="0" y1="0" x2="1" y2="0" gradientUnits="userSpaceOnUse" gradientTransform="matrix(-0.168869,20.3461,-14.6221,-0.234974,16.7807,31.711)"><stop offset="0%" style="stop-color:#e00000;stop-opacity:1"/><stop offset="100%" style="stop-color:#810000;stop-opacity:1"/></linearGradient><linearGradient id="_Linear4" x1="0" y1="0" x2="1" y2="0" gradientUnits="userSpaceOnUse" gradientTransform="matrix(-0.168869,20.3461,-14.6221,-0.234974,127.181,160.831)"><stop offset="0%" style="stop-color:#e00000;stop-opacity:1"/><stop offset="100%" style="stop-color:#810000;stop-opacity:1"/></linearGradient><linearGradient id="_Linear5" x1="0" y1="0" x2="1" y2="0" gradientUnits="userSpaceOnUse" gradientTransform="matrix(0.0983952,31.9224,-31.9224,0.0983952,128.775,186.486)"><stop offset="0%" style="stop-color:#fff;stop-opacity:1"/><stop offset="100%" style="stop-color:#dcdcdc;stop-opacity:1"/></linearGradient></defs></svg>