<?xml version="1.0" encoding="UTF-8" standalone="no"?><!DOCTYPE svg PUBLIC "-//W3C//DTD SVG 1.1//EN" "http://www.w3.org/Graphics/SVG/1.1/DTD/svg11.dtd"><svg width="100%" height="100%" viewBox="0 0 144 193" version="1.1" xmlns="http://www.w3.org/2000/svg" xmlns:xlink="http://www.w3.org/1999/xlink" xml:space="preserve" style="fill-rule:evenodd;clip-rule:evenodd;"><path id="Card-background" d="M143.967,10.046c0.018,-5.299 -4.269,-9.614 -9.568,-9.63l-124.799,-0.386c-5.298,-0.017 -9.615,4.272 -9.632,9.57l-0.583,172.799c-0.018,5.298 4.269,9.613 9.567,9.63l124.8,0.386c5.298,0.016 9.614,-4.272 9.632,-9.57l0.583,-172.799Z" style="fill:url(#_Radial1);stroke:#646464;stroke-width:0.22px;"/><g id="Spades"><path id="path7857" d="M72.206,40.322c-12,33.6 -42.425,50.471 -42.879,70.08c0,26.4 28.813,23.808 38.079,11.52c4.8,12 -5.073,21.255 -9.6,28.8l28.8,0c-4.526,-7.545 -14.4,-16.8 -9.6,-28.8c9.267,12.288 38.08,14.88 38.08,-11.52c-0.454,-19.609 -30.88,-36.48 -42.88,-70.08Z" style="fill:url(#_Linear2);stroke:#000;stroke-width:0.24px;"/><path id="path7954" d="M16.429,31.082c-2.288,6.108 -8.091,9.175 -8.177,12.739c0,4.799 5.495,4.328 7.262,2.094c0.915,2.182 -0.968,3.864 -1.831,5.236l5.493,0c-0.864,-1.372 -2.747,-3.054 -1.831,-5.236c1.767,2.234 7.262,2.705 7.262,-2.094c-0.087,-3.564 -5.889,-6.631 -8.178,-12.739Z" style="fill:url(#_Linear3);stroke:#000;stroke-width:0.04px;"/><path id="path4963" d="M126.829,160.202c-2.288,6.108 -8.091,9.175 -8.177,12.739c0,4.799 5.495,4.328 7.262,2.094c0.915,2.182 -0.968,3.864 -1.831,5.236l5.493,0c-0.864,-1.372 -2.747,-3.054 -1.831,-5.236c1.767,2.234 7.262,2.705 7.262,-2.094c-0.087,-3.564 -5.889,-6.631 -8.178,-12.739l0,0Z" style="fill:url(#_Linear4);stroke:#000;stroke-width:0.04px;"/></g><g id="text4596"><path d="M62.482,109.689l0,-3.649c1.209,-2.827 3.656,-5.907 7.34,-9.24l2.384,-2.13c3.065,-2.77 4.598,-5.52 4.598,-8.248c0,-1.743 -0.524,-3.114 -1.571,-4.113c-1.048,-0.998 -2.486,-1.498 -4.314,-1.498c-2.166,0 -4.718,0.837 -7.657,2.511l0,-3.671c2.77,-1.308 5.52,-1.961 8.248,-1.961c2.925,0 5.273,0.787 7.045,2.362c1.772,1.575 2.658,3.663 2.658,6.265c0,1.87 -0.447,3.53 -1.34,4.978c-0.893,1.448 -2.555,3.206 -4.988,5.273l-1.603,1.372c-3.333,2.826 -5.26,5.526 -5.78,8.1l13.563,0l0,3.649l-18.583,0Z" style="fill:url(#_Linear5);fill-rule:nonzero;"/><path d="M11.404,27.218l0,-1.858c0.616,-1.439 1.862,-3.008 3.738,-4.705l1.214,-1.085c1.561,-1.411 2.342,-2.811 2.342,-4.2c0,-0.888 -0.267,-1.586 -0.8,-2.095c-0.534,-0.508 -1.266,-0.763 -2.197,-0.763c-1.103,0 -2.403,0.426 -3.899,1.279l0,-1.869c1.41,-0.666 2.81,-0.999 4.2,-0.999c1.489,0 2.685,0.401 3.588,1.203c0.902,0.802 1.353,1.865 1.353,3.19c0,0.953 -0.227,1.798 -0.682,2.535c-0.455,0.738 -1.302,1.633 -2.541,2.686l-0.816,0.698c-1.697,1.439 -2.678,2.814 -2.943,4.125l6.907,0l0,1.858l-9.464,0Z" style="fill-rule:nonzero;"/><path d="M121.303,155.712l0,-1.858c0.616,-1.44 1.862,-3.008 3.738,-4.705l1.214,-1.085c1.561,-1.411 2.342,-2.811 2.342,-4.2c0,-0.888 -0.267,-1.587 -0.801,-2.095c-0.533,-0.509 -1.265,-0.763 -2.196,-0.763c-1.103,0 -2.403,0.426 -3.9,1.278l0,-1.869c1.411,-0.666 2.811,-0.999 4.2,-0.999c1.49,0 2.686,0.401 3.588,1.203c0.903,0.802 1.354,1.866 1.354,3.191c0,0.952 -0.227,1.797 -0.682,2.535c-0.455,0.738 -1.302,1.633 -2.541,2.686l-0.816,0.698c-1.697,1.439 -2.679,2.814 -2.944,4.125l6.908,0l0,1.858l-9.464,0Z" style="fill-rule:nonzero;"/></g><defs><radialGradient id="_Radial1" cx="0" cy="0" r="1" gradientUnits="userSpaceOnUse" gradientTransform="matrix(126.562,97.7279,-71.6611,95.2942,71.6758,96.2223)"><stop offset="0%" style="stop-color:#fff;stop-opacity:1"/><stop offset="100%" style="stop-color:#dcdcdc;stop-opacity:1"/></radialGradient><linearGradient id="_Linear2" x1="0" y1="0" x2="1" y2="0" gradientUnits="userSpaceOnUse" gradientTransform="matrix(4.55569e-15,74.4,-74.4,4.55569e-15,72.2064,40.4417)"><stop offset="0%" style="stop-color:#737373;stop-opacity:1"/><stop offset="100%" style="stop-color:#000;stop-opacity:1"/></linearGradient><linearGradient id="_Linear3" x1="0" y1="0" x2="1" y2="0" gradientUnits="userSpaceOnUse" gradientTransform="matrix(8.28143e-16,13.5246,-13.5246,8.28143e-16,16.4293,31.1036)"><stop offset="0%" style="stop-color:#737373;stop-opacity:1"/><stop offset="100%" style="stop-color:#000;stop-opacity:1"/></linearGradient><linearGradient id="_Linear4" x1="0" y1="0" x2="1" y2="0" gradientUnits="userSpaceOnUse" gradientTransform="matrix(8.28143e-16,13.5246,-13.5246,8.28143e-16,126.829,160.224)"><stop offset="0%" style="stop-color:#737373;stop-opacity:1"/><stop offset="100%" style="stop-color:#000;stop-opacity:1"/></linearGradient><linearGradient id="_Linear5" x1="0" y1="0" x2="1" y2="0" gradientUnits="userSpaceOnUse" gradientTransform="matrix(0.0983952,31.9224,-31.9224,0.0983952,128.055,187.206)"><stop offset="0%" style="stop-color:#fff;stop-opacity:1"/><stop offset="100%" style="stop-color:#dcdcdc;stop-opacity:1"/></linearGradient></defs></svg>