<?xml version="1.0" encoding="UTF-8" standalone="no"?><!DOCTYPE svg PUBLIC "-//W3C//DTD SVG 1.1//EN" "http://www.w3.org/Graphics/SVG/1.1/DTD/svg11.dtd"><svg width="100%" height="100%" viewBox="0 0 144 193" version="1.1" xmlns="http://www.w3.org/2000/svg" xmlns:xlink="http://www.w3.org/1999/xlink" xml:space="preserve" style="fill-rule:evenodd;clip-rule:evenodd;"><path id="Card-background" d="M143.967,10.046c0.018,-5.299 -4.269,-9.614 -9.568,-9.63l-124.799,-0.386c-5.298,-0.017 -9.615,4.272 -9.632,9.57l-0.583,172.799c-0.018,5.298 4.269,9.613 9.567,9.63l124.8,0.386c5.298,0.016 9.614,-4.272 9.632,-9.57l0.583,-172.799Z" style="fill:url(#_Radial1);stroke:#646464;stroke-width:0.22px;"/><g id="Clubs"><path id="path7930" d="M72.995,40.95c-14.746,0 -26.88,11.538 -26.88,25.56c0,0 0,0 0,0c0.012,6.15 2.358,12.095 6.605,16.734c-1.232,-0.186 -2.477,-0.284 -3.725,-0.294c-13.825,0 -25.2,10.833 -25.2,24c0,13.166 11.375,24 25.2,24c7.316,-0.006 14.279,-3.045 19.059,-8.32c3.954,11.554 -5.529,20.529 -9.939,27.88l28.8,0c-4.437,-7.395 -14.006,-16.432 -9.868,-28.086c4.778,5.394 11.818,8.516 19.228,8.526c13.824,0 25.2,-10.834 25.2,-24c0,-13.167 -11.376,-24 -25.2,-24c-0.963,0.009 -1.923,0.072 -2.878,0.186c4.175,-4.628 6.474,-10.528 6.478,-16.626c0,0 0,0 0,0c0,-14.022 -12.134,-25.56 -26.88,-25.56l0,0Z" style="fill:url(#_Linear2);stroke:#000;stroke-width:0.24px;"/><path id="path7975" d="M16.982,31.272c-2.53,0 -4.612,2.056 -4.612,4.554c0.002,1.096 0.405,2.155 1.133,2.981c-0.211,-0.033 -0.425,-0.051 -0.639,-0.052c-2.371,0 -4.323,1.93 -4.323,4.275c0,0 0,0 0,0c0,2.346 1.952,4.276 4.323,4.276c0,0 0,0 0,0c1.255,-0.001 2.45,-0.543 3.27,-1.482c0.678,2.058 -0.948,3.657 -1.705,4.966l4.941,0c-0.761,-1.317 -2.403,-2.927 -1.693,-5.003c0.82,0.961 2.027,1.517 3.299,1.519c0,0 0,0 0,0c2.371,0 4.323,-1.93 4.323,-4.276c0,0 0,0 0,0c0,-2.345 -1.952,-4.275 -4.323,-4.275c-0.165,0.001 -0.33,0.012 -0.494,0.033c0.716,-0.825 1.111,-1.876 1.111,-2.962c0,-2.498 -2.081,-4.554 -4.611,-4.554l0,0Z" style="fill:url(#_Linear3);stroke:#000;stroke-width:0.04px;"/><path id="path4821" d="M126.902,160.872c-2.53,0 -4.612,2.056 -4.612,4.554c0.002,1.096 0.405,2.155 1.133,2.981c-0.211,-0.033 -0.425,-0.051 -0.639,-0.052c-2.371,0 -4.323,1.93 -4.323,4.275c0,0 0,0 0,0c0,2.346 1.952,4.276 4.323,4.276c0,0 0,0 0,0c1.255,-0.001 2.45,-0.543 3.27,-1.482c0.678,2.058 -0.948,3.657 -1.705,4.966l4.941,0c-0.761,-1.317 -2.403,-2.927 -1.693,-5.003c0.82,0.961 2.027,1.517 3.299,1.519c0,0 0,0 0,0c2.371,0 4.323,-1.93 4.323,-4.276c0,0 0,0 0,0c0,-2.345 -1.952,-4.275 -4.323,-4.275c-0.165,0.001 -0.33,0.012 -0.494,0.033c0.716,-0.825 1.111,-1.876 1.111,-2.962c0,-2.498 -2.081,-4.554 -4.611,-4.554l0,0Z" style="fill:url(#_Linear4);stroke:#000;stroke-width:0.04px;"/></g><g id="text4596"><path d="M63.523,109.457l0,-3.882c2.981,1.182 5.33,1.772 7.045,1.772c1.983,0 3.597,-0.58 4.841,-1.74c1.245,-1.16 1.867,-2.661 1.867,-4.503c0,-4.388 -3.072,-6.582 -9.218,-6.582l-1.645,0l0,-2.805l1.455,-0.021c5.766,0 8.649,-2.032 8.649,-6.096c0,-3.192 -1.899,-4.789 -5.695,-4.789c-2.082,0 -4.374,0.584 -6.877,1.751l0,-3.628c2.461,-0.83 4.852,-1.244 7.172,-1.244c6.384,0 9.576,2.411 9.576,7.235c0,3.67 -2.172,6.286 -6.518,7.847c5.035,1.167 7.552,3.923 7.552,8.268c0,2.939 -0.97,5.246 -2.911,6.919c-1.941,1.674 -4.605,2.51 -7.994,2.51c-1.927,0 -4.36,-0.337 -7.299,-1.012Z" style="fill:url(#_Linear5);fill-rule:nonzero;"/><path d="M12.292,27.1l0,-1.976c1.519,0.601 2.714,0.902 3.588,0.902c1.01,0 1.832,-0.295 2.466,-0.886c0.633,-0.591 0.95,-1.355 0.95,-2.294c0,-2.234 -1.565,-3.351 -4.694,-3.351l-0.838,0l0,-1.429l0.741,-0.011c2.936,0 4.404,-1.034 4.404,-3.104c0,-1.626 -0.966,-2.439 -2.9,-2.439c-1.06,0 -2.227,0.298 -3.502,0.892l0,-1.848c1.253,-0.422 2.471,-0.633 3.652,-0.633c3.252,0 4.877,1.228 4.877,3.684c0,1.869 -1.106,3.201 -3.319,3.996c2.564,0.595 3.846,1.998 3.846,4.211c0,1.497 -0.494,2.671 -1.483,3.524c-0.988,0.852 -2.345,1.278 -4.071,1.278c-0.981,0 -2.22,-0.172 -3.717,-0.516Z" style="fill-rule:nonzero;"/><path d="M122.431,156.074l0,-1.977c1.518,0.602 2.714,0.903 3.588,0.903c1.01,0 1.831,-0.296 2.465,-0.886c0.634,-0.591 0.951,-1.356 0.951,-2.294c0,-2.234 -1.565,-3.351 -4.694,-3.351l-0.838,0l0,-1.429l0.741,-0.011c2.936,0 4.404,-1.035 4.404,-3.104c0,-1.626 -0.967,-2.439 -2.9,-2.439c-1.06,0 -2.227,0.297 -3.502,0.892l0,-1.848c1.253,-0.422 2.471,-0.634 3.652,-0.634c3.252,0 4.877,1.228 4.877,3.685c0,1.869 -1.106,3.201 -3.319,3.996c2.564,0.594 3.846,1.998 3.846,4.211c0,1.497 -0.495,2.671 -1.483,3.523c-0.988,0.853 -2.345,1.279 -4.071,1.279c-0.981,0 -2.22,-0.172 -3.717,-0.516Z" style="fill-rule:nonzero;"/></g><defs><radialGradient id="_Radial1" cx="0" cy="0" r="1" gradientUnits="userSpaceOnUse" gradientTransform="matrix(126.562,97.7279,-71.6611,95.2942,71.6758,96.2223)"><stop offset="0%" style="stop-color:#fff;stop-opacity:1"/><stop offset="100%" style="stop-color:#dcdcdc;stop-opacity:1"/></radialGradient><linearGradient id="_Linear2" x1="0" y1="0" x2="1" y2="0" gradientUnits="userSpaceOnUse" gradientTransform="matrix(-0.96,74.4,-74.4,-0.96,73.4748,40.2296)"><stop offset="0%" style="stop-color:#737373;stop-opacity:1"/><stop offset="100%" style="stop-color:#000;stop-opacity:1"/></linearGradient><linearGradient id="_Linear3" x1="0" y1="0" x2="1" y2="0" gradientUnits="userSpaceOnUse" gradientTransform="matrix(-0.164698,13.2543,-13.2543,-0.164698,17.0641,31.1441)"><stop offset="0%" style="stop-color:#737373;stop-opacity:1"/><stop offset="100%" style="stop-color:#000;stop-opacity:1"/></linearGradient><linearGradient id="_Linear4" x1="0" y1="0" x2="1" y2="0" gradientUnits="userSpaceOnUse" gradientTransform="matrix(-0.164698,13.2543,-13.2543,-0.164698,126.984,160.744)"><stop offset="0%" style="stop-color:#737373;stop-opacity:1"/><stop offset="100%" style="stop-color:#000;stop-opacity:1"/></linearGradient><linearGradient id="_Linear5" x1="0" y1="0" x2="1" y2="0" gradientUnits="userSpaceOnUse" gradientTransform="matrix(0.0983952,31.9224,-31.9224,0.0983952,128.295,187.206)"><stop offset="0%" style="stop-color:#fff;stop-opacity:1"/><stop offset="100%" style="stop-color:#dcdcdc;stop-opacity:1"/></linearGradient></defs></svg>