<?xml version="1.0" encoding="UTF-8" standalone="no"?><!DOCTYPE svg PUBLIC "-//W3C//DTD SVG 1.1//EN" "http://www.w3.org/Graphics/SVG/1.1/DTD/svg11.dtd"><svg width="100%" height="100%" viewBox="0 0 144 193" version="1.1" xmlns="http://www.w3.org/2000/svg" xmlns:xlink="http://www.w3.org/1999/xlink" xml:space="preserve" style="fill-rule:evenodd;clip-rule:evenodd;"><path id="Card-background" d="M143.967,10.046c0.018,-5.299 -4.269,-9.614 -9.568,-9.63l-124.799,-0.386c-5.298,-0.017 -9.615,4.272 -9.632,9.57l-0.583,172.799c-0.018,5.298 4.269,9.613 9.567,9.63l124.8,0.386c5.298,0.016 9.614,-4.272 9.632,-9.57l0.583,-172.799Z" style="fill:url(#_Radial1);stroke:#646464;stroke-width:0.22px;"/><g id="Diamonds"><path id="rect3362" d="M72.532,155.313l42.966,-59.646l-43.202,-59.975l-42.966,59.646l43.202,59.975Z" style="fill:url(#_Linear2);stroke:#640000;stroke-width:0.17px;"/><path id="rect6977" d="M16.885,51.744l7.157,-9.959l-7.196,-10.014l-7.157,9.959l7.196,10.014Z" style="fill:url(#_Linear3);stroke:#640000;stroke-width:0.03px;"/><path id="rect4360" d="M127.285,180.864l7.158,-9.959l-7.197,-10.014l-7.157,9.959l7.196,10.014Z" style="fill:url(#_Linear4);stroke:#640000;stroke-width:0.03px;"/></g><g id="Red-Numbers"><g opacity="0.94"><g id="text4292"><path d="M13.332,28.046l0,-1.977c1.344,0.602 2.403,0.902 3.176,0.902c0.894,0 1.621,-0.295 2.182,-0.886c0.561,-0.591 0.841,-1.355 0.841,-2.293c0,-2.235 -1.385,-3.352 -4.155,-3.352l-0.741,0l0,-1.429l0.656,-0.01c2.599,0 3.898,-1.035 3.898,-3.105c0,-1.625 -0.856,-2.438 -2.567,-2.438c-0.938,0 -1.971,0.297 -3.1,0.891l0,-1.847c1.11,-0.423 2.187,-0.634 3.233,-0.634c2.878,0 4.317,1.228 4.317,3.684c0,1.87 -0.98,3.202 -2.938,3.997c2.269,0.594 3.404,1.998 3.404,4.21c0,1.497 -0.438,2.672 -1.313,3.524c-0.874,0.852 -2.075,1.278 -3.603,1.278c-0.868,0 -1.965,-0.172 -3.29,-0.515Z" style="fill:#960000;fill-rule:nonzero;"/><path d="M123.587,157.768l0,-1.976c1.344,0.601 2.403,0.902 3.176,0.902c0.894,0 1.621,-0.296 2.182,-0.886c0.561,-0.591 0.841,-1.356 0.841,-2.294c0,-2.234 -1.385,-3.351 -4.155,-3.351l-0.741,0l0,-1.429l0.656,-0.011c2.599,0 3.898,-1.035 3.898,-3.104c0,-1.626 -0.856,-2.439 -2.567,-2.439c-0.938,0 -1.971,0.297 -3.1,0.892l0,-1.848c1.11,-0.422 2.187,-0.634 3.233,-0.634c2.878,0 4.317,1.229 4.317,3.685c0,1.869 -0.98,3.201 -2.938,3.996c2.269,0.594 3.404,1.998 3.404,4.211c0,1.497 -0.438,2.671 -1.313,3.523c-0.874,0.853 -2.075,1.279 -3.603,1.279c-0.868,0 -1.965,-0.172 -3.29,-0.516Z" style="fill:#960000;fill-rule:nonzero;"/></g></g></g><g id="text4596"><path d="M64.003,108.737l0,-3.882c2.981,1.182 5.33,1.772 7.045,1.772c1.983,0 3.597,-0.58 4.841,-1.74c1.245,-1.16 1.867,-2.661 1.867,-4.503c0,-4.388 -3.072,-6.582 -9.218,-6.582l-1.645,0l0,-2.805l1.455,-0.021c5.766,0 8.649,-2.032 8.649,-6.096c0,-3.192 -1.899,-4.789 -5.695,-4.789c-2.082,0 -4.374,0.584 -6.877,1.751l0,-3.628c2.461,-0.83 4.852,-1.244 7.172,-1.244c6.384,0 9.576,2.411 9.576,7.235c0,3.67 -2.172,6.286 -6.518,7.847c5.035,1.167 7.552,3.923 7.552,8.268c0,2.939 -0.97,5.246 -2.911,6.919c-1.941,1.674 -4.605,2.51 -7.994,2.51c-1.927,0 -4.36,-0.337 -7.299,-1.012Z" style="fill:url(#_Linear5);fill-rule:nonzero;"/></g><defs><radialGradient id="_Radial1" cx="0" cy="0" r="1" gradientUnits="userSpaceOnUse" gradientTransform="matrix(126.562,97.7279,-71.6611,95.2942,71.6758,96.2223)"><stop offset="0%" style="stop-color:#fff;stop-opacity:1"/><stop offset="100%" style="stop-color:#dcdcdc;stop-opacity:1"/></radialGradient><linearGradient id="_Linear2" x1="0" y1="0" x2="1" y2="0" gradientUnits="userSpaceOnUse" gradientTransform="matrix(-1.01374,121.856,-87.7783,-1.4073,71.9048,35.3332)"><stop offset="0%" style="stop-color:#e00000;stop-opacity:1"/><stop offset="100%" style="stop-color:#810000;stop-opacity:1"/></linearGradient><linearGradient id="_Linear3" x1="0" y1="0" x2="1" y2="0" gradientUnits="userSpaceOnUse" gradientTransform="matrix(-0.168869,20.3461,-14.6221,-0.234974,16.7807,31.711)"><stop offset="0%" style="stop-color:#e00000;stop-opacity:1"/><stop offset="100%" style="stop-color:#810000;stop-opacity:1"/></linearGradient><linearGradient id="_Linear4" x1="0" y1="0" x2="1" y2="0" gradientUnits="userSpaceOnUse" gradientTransform="matrix(-0.168869,20.3461,-14.6221,-0.234974,127.181,160.831)"><stop offset="0%" style="stop-color:#e00000;stop-opacity:1"/><stop offset="100%" style="stop-color:#810000;stop-opacity:1"/></linearGradient><linearGradient id="_Linear5" x1="0" y1="0" x2="1" y2="0" gradientUnits="userSpaceOnUse" gradientTransform="matrix(0.0983952,31.9224,-31.9224,0.0983952,128.775,186.486)"><stop offset="0%" style="stop-color:#fff;stop-opacity:1"/><stop offset="100%" style="stop-color:#dcdcdc;stop-opacity:1"/></linearGradient></defs></svg>