<?xml version="1.0" encoding="UTF-8" standalone="no"?><!DOCTYPE svg PUBLIC "-//W3C//DTD SVG 1.1//EN" "http://www.w3.org/Graphics/SVG/1.1/DTD/svg11.dtd"><svg width="100%" height="100%" viewBox="0 0 144 193" version="1.1" xmlns="http://www.w3.org/2000/svg" xmlns:xlink="http://www.w3.org/1999/xlink" xml:space="preserve" style="fill-rule:evenodd;clip-rule:evenodd;"><path id="Card-background" d="M143.967,10.046c0.018,-5.299 -4.269,-9.614 -9.568,-9.63l-124.799,-0.386c-5.298,-0.017 -9.615,4.272 -9.632,9.57l-0.583,172.799c-0.018,5.298 4.269,9.613 9.567,9.63l124.8,0.386c5.298,0.016 9.614,-4.272 9.632,-9.57l0.583,-172.799Z" style="fill:url(#_Radial1);stroke:#646464;stroke-width:0.22px;"/><g id="Hearts"><path id="path7647" d="M44.363,45.092c-7.165,-0.059 -14.434,3.653 -20.078,14.965c-16.247,32.564 48,78.956 47.619,95.833l0,0.374c0,0 0.156,-0.153 0.191,-0.187c0.034,0.033 0.19,0.187 0.19,0.187l0,-0.374c0,-14.413 63.866,-63.269 47.619,-95.833c-16.235,-32.541 -45.832,-2.277 -47.809,-0.199c-1.289,-1.354 -14.284,-14.656 -27.732,-14.766l0,0Z" style="fill:url(#_Linear2);stroke:url(#_Linear3);stroke-width:0.24px;"/><path id="path8171" d="M12.151,32.963c-1.139,-0.009 -2.295,0.574 -3.192,2.349c-2.584,5.11 7.631,12.39 7.571,15.038l0,0.059c0,0 0.024,-0.024 0.03,-0.03c0.005,0.006 0.03,0.03 0.03,0.03l0,-0.059c0,-2.262 10.154,-9.928 7.571,-15.038c-2.581,-5.107 -7.287,-0.357 -7.601,-0.031c-0.205,-0.213 -2.271,-2.3 -4.409,-2.318l0,0Z" style="fill:url(#_Linear4);stroke:url(#_Linear5);stroke-width:0.04px;"/><path id="path5021" d="M122.551,162.563c-1.139,-0.009 -2.295,0.574 -3.192,2.349c-2.584,5.11 7.631,12.39 7.571,15.038l0,0.059c0,0 0.024,-0.024 0.03,-0.03c0.005,0.006 0.03,0.03 0.03,0.03l0,-0.059c0,-2.262 10.154,-9.928 7.571,-15.038c-2.581,-5.107 -7.287,-0.357 -7.601,-0.031c-0.205,-0.213 -2.271,-2.3 -4.409,-2.318l0,0Z" style="fill:url(#_Linear6);stroke:url(#_Linear7);stroke-width:0.04px;"/></g><g id="Red-Numbers"><g opacity="0.94"><g id="text4292"><path d="M12.612,28.046l0,-1.977c1.344,0.602 2.403,0.902 3.176,0.902c0.894,0 1.621,-0.295 2.182,-0.886c0.561,-0.591 0.841,-1.355 0.841,-2.293c0,-2.235 -1.385,-3.352 -4.155,-3.352l-0.741,0l0,-1.429l0.656,-0.01c2.599,0 3.898,-1.035 3.898,-3.105c0,-1.625 -0.856,-2.438 -2.567,-2.438c-0.938,0 -1.971,0.297 -3.1,0.891l0,-1.847c1.11,-0.423 2.187,-0.634 3.233,-0.634c2.878,0 4.317,1.228 4.317,3.684c0,1.87 -0.98,3.202 -2.938,3.997c2.269,0.594 3.404,1.998 3.404,4.21c0,1.497 -0.438,2.672 -1.313,3.524c-0.874,0.852 -2.075,1.278 -3.603,1.278c-0.868,0 -1.965,-0.172 -3.29,-0.515Z" style="fill:#960000;fill-rule:nonzero;"/><path d="M122.867,157.768l0,-1.976c1.344,0.601 2.403,0.902 3.176,0.902c0.894,0 1.621,-0.296 2.182,-0.886c0.561,-0.591 0.841,-1.356 0.841,-2.294c0,-2.234 -1.385,-3.351 -4.155,-3.351l-0.741,0l0,-1.429l0.656,-0.011c2.599,0 3.898,-1.035 3.898,-3.104c0,-1.626 -0.856,-2.439 -2.567,-2.439c-0.938,0 -1.971,0.297 -3.1,0.892l0,-1.848c1.11,-0.422 2.187,-0.634 3.233,-0.634c2.878,0 4.317,1.229 4.317,3.685c0,1.869 -0.98,3.201 -2.938,3.996c2.269,0.594 3.404,1.998 3.404,4.211c0,1.497 -0.438,2.671 -1.313,3.523c-0.874,0.853 -2.075,1.279 -3.603,1.279c-0.868,0 -1.965,-0.172 -3.29,-0.516Z" style="fill:#960000;fill-rule:nonzero;"/></g></g></g><g id="text4596"><path d="M63.283,108.737l0,-3.882c2.981,1.182 5.33,1.772 7.045,1.772c1.983,0 3.597,-0.58 4.841,-1.74c1.245,-1.16 1.867,-2.661 1.867,-4.503c0,-4.388 -3.072,-6.582 -9.218,-6.582l-1.645,0l0,-2.805l1.455,-0.021c5.766,0 8.649,-2.032 8.649,-6.096c0,-3.192 -1.899,-4.789 -5.695,-4.789c-2.082,0 -4.374,0.584 -6.877,1.751l0,-3.628c2.461,-0.83 4.852,-1.244 7.172,-1.244c6.384,0 9.576,2.411 9.576,7.235c0,3.67 -2.172,6.286 -6.518,7.847c5.035,1.167 7.552,3.923 7.552,8.268c0,2.939 -0.97,5.246 -2.911,6.919c-1.941,1.674 -4.605,2.51 -7.994,2.51c-1.927,0 -4.36,-0.337 -7.299,-1.012Z" style="fill:url(#_Linear8);fill-rule:nonzero;"/></g><defs><radialGradient id="_Radial1" cx="0" cy="0" r="1" gradientUnits="userSpaceOnUse" gradientTransform="matrix(126.562,97.7279,-71.6611,95.2942,71.6758,96.2223)"><stop offset="0%" style="stop-color:#fff;stop-opacity:1"/><stop offset="100%" style="stop-color:#dcdcdc;stop-opacity:1"/></radialGradient><linearGradient id="_Linear2" x1="0" y1="0" x2="1" y2="0" gradientUnits="userSpaceOnUse" gradientTransform="matrix(2.39999,91.3969,-91.3969,2.39999,72.2852,45.6257)"><stop offset="0%" style="stop-color:#e00000;stop-opacity:1"/><stop offset="100%" style="stop-color:#560000;stop-opacity:1"/></linearGradient><linearGradient id="_Linear3" x1="0" y1="0" x2="1" y2="0" gradientUnits="userSpaceOnUse" gradientTransform="matrix(2.39999,91.3969,-91.3969,2.39999,72.2852,45.6257)"><stop offset="0%" style="stop-color:#e00000;stop-opacity:1"/><stop offset="100%" style="stop-color:#560000;stop-opacity:1"/></linearGradient><linearGradient id="_Linear4" x1="0" y1="0" x2="1" y2="0" gradientUnits="userSpaceOnUse" gradientTransform="matrix(0.381581,14.342,-14.342,0.381581,16.5901,33.0472)"><stop offset="0%" style="stop-color:#e00000;stop-opacity:1"/><stop offset="100%" style="stop-color:#560000;stop-opacity:1"/></linearGradient><linearGradient id="_Linear5" x1="0" y1="0" x2="1" y2="0" gradientUnits="userSpaceOnUse" gradientTransform="matrix(0.381581,14.342,-14.342,0.381581,16.5901,33.0472)"><stop offset="0%" style="stop-color:#e00000;stop-opacity:1"/><stop offset="100%" style="stop-color:#560000;stop-opacity:1"/></linearGradient><linearGradient id="_Linear6" x1="0" y1="0" x2="1" y2="0" gradientUnits="userSpaceOnUse" gradientTransform="matrix(0.381581,14.342,-14.342,0.381581,126.99,162.647)"><stop offset="0%" style="stop-color:#e00000;stop-opacity:1"/><stop offset="100%" style="stop-color:#560000;stop-opacity:1"/></linearGradient><linearGradient id="_Linear7" x1="0" y1="0" x2="1" y2="0" gradientUnits="userSpaceOnUse" gradientTransform="matrix(0.381581,14.342,-14.342,0.381581,126.99,162.647)"><stop offset="0%" style="stop-color:#e00000;stop-opacity:1"/><stop offset="100%" style="stop-color:#560000;stop-opacity:1"/></linearGradient><linearGradient id="_Linear8" x1="0" y1="0" x2="1" y2="0" gradientUnits="userSpaceOnUse" gradientTransform="matrix(0.0983952,31.9224,-31.9224,0.0983952,128.055,186.486)"><stop offset="0%" style="stop-color:#fff;stop-opacity:1"/><stop offset="100%" style="stop-color:#dcdcdc;stop-opacity:1"/></linearGradient></defs></svg>