<?xml version="1.0" encoding="UTF-8" standalone="no"?><!DOCTYPE svg PUBLIC "-//W3C//DTD SVG 1.1//EN" "http://www.w3.org/Graphics/SVG/1.1/DTD/svg11.dtd"><svg width="100%" height="100%" viewBox="0 0 144 193" version="1.1" xmlns="http://www.w3.org/2000/svg" xmlns:xlink="http://www.w3.org/1999/xlink" xml:space="preserve" style="fill-rule:evenodd;clip-rule:evenodd;"><path id="Card-background" d="M143.967,10.046c0.018,-5.299 -4.269,-9.614 -9.568,-9.63l-124.799,-0.386c-5.298,-0.017 -9.615,4.272 -9.632,9.57l-0.583,172.799c-0.018,5.298 4.269,9.613 9.567,9.63l124.8,0.386c5.298,0.016 9.614,-4.272 9.632,-9.57l0.583,-172.799Z" style="fill:url(#_Radial1);stroke:#646464;stroke-width:0.22px;"/><g id="Spades"><path id="path7857" d="M72.206,40.322c-12,33.6 -42.425,50.471 -42.879,70.08c0,26.4 28.813,23.808 38.079,11.52c4.8,12 -5.073,21.255 -9.6,28.8l28.8,0c-4.526,-7.545 -14.4,-16.8 -9.6,-28.8c9.267,12.288 38.08,14.88 38.08,-11.52c-0.454,-19.609 -30.88,-36.48 -42.88,-70.08Z" style="fill:url(#_Linear2);stroke:#000;stroke-width:0.24px;"/><path id="path7954" d="M16.429,31.082c-2.288,6.108 -8.091,9.175 -8.177,12.739c0,4.799 5.495,4.328 7.262,2.094c0.915,2.182 -0.968,3.864 -1.831,5.236l5.493,0c-0.864,-1.372 -2.747,-3.054 -1.831,-5.236c1.767,2.234 7.262,2.705 7.262,-2.094c-0.087,-3.564 -5.889,-6.631 -8.178,-12.739Z" style="fill:url(#_Linear3);stroke:#000;stroke-width:0.04px;"/><path id="path4963" d="M126.829,160.202c-2.288,6.108 -8.091,9.175 -8.177,12.739c0,4.799 5.495,4.328 7.262,2.094c0.915,2.182 -0.968,3.864 -1.831,5.236l5.493,0c-0.864,-1.372 -2.747,-3.054 -1.831,-5.236c1.767,2.234 7.262,2.705 7.262,-2.094c-0.087,-3.564 -5.889,-6.631 -8.178,-12.739l0,0Z" style="fill:url(#_Linear4);stroke:#000;stroke-width:0.04px;"/></g><g id="text4596"><path d="M63.283,109.457l0,-3.882c2.981,1.182 5.33,1.772 7.045,1.772c1.983,0 3.597,-0.58 4.841,-1.74c1.245,-1.16 1.867,-2.661 1.867,-4.503c0,-4.388 -3.072,-6.582 -9.218,-6.582l-1.645,0l0,-2.805l1.455,-0.021c5.766,0 8.649,-2.032 8.649,-6.096c0,-3.192 -1.899,-4.789 -5.695,-4.789c-2.082,0 -4.374,0.584 -6.877,1.751l0,-3.628c2.461,-0.83 4.852,-1.244 7.172,-1.244c6.384,0 9.576,2.411 9.576,7.235c0,3.67 -2.172,6.286 -6.518,7.847c5.035,1.167 7.552,3.923 7.552,8.268c0,2.939 -0.97,5.246 -2.911,6.919c-1.941,1.674 -4.605,2.51 -7.994,2.51c-1.927,0 -4.36,-0.337 -7.299,-1.012Z" style="fill:url(#_Linear5);fill-rule:nonzero;"/><path d="M11.812,27.1l0,-1.976c1.519,0.601 2.714,0.902 3.588,0.902c1.01,0 1.832,-0.295 2.466,-0.886c0.633,-0.591 0.95,-1.355 0.95,-2.294c0,-2.234 -1.565,-3.351 -4.694,-3.351l-0.838,0l0,-1.429l0.741,-0.011c2.936,0 4.404,-1.034 4.404,-3.104c0,-1.626 -0.966,-2.439 -2.9,-2.439c-1.06,0 -2.227,0.298 -3.502,0.892l0,-1.848c1.253,-0.422 2.471,-0.633 3.652,-0.633c3.252,0 4.877,1.228 4.877,3.684c0,1.869 -1.106,3.201 -3.319,3.996c2.564,0.595 3.846,1.998 3.846,4.211c0,1.497 -0.494,2.671 -1.483,3.524c-0.988,0.852 -2.345,1.278 -4.071,1.278c-0.981,0 -2.22,-0.172 -3.717,-0.516Z" style="fill-rule:nonzero;"/><path d="M121.711,155.594l0,-1.977c1.518,0.602 2.714,0.903 3.588,0.903c1.01,0 1.831,-0.296 2.465,-0.886c0.634,-0.591 0.951,-1.356 0.951,-2.294c0,-2.234 -1.565,-3.351 -4.694,-3.351l-0.838,0l0,-1.429l0.741,-0.011c2.936,0 4.404,-1.035 4.404,-3.104c0,-1.626 -0.967,-2.439 -2.9,-2.439c-1.06,0 -2.227,0.297 -3.502,0.892l0,-1.848c1.253,-0.422 2.471,-0.634 3.652,-0.634c3.252,0 4.877,1.228 4.877,3.685c0,1.869 -1.106,3.201 -3.319,3.996c2.564,0.594 3.846,1.998 3.846,4.211c0,1.497 -0.495,2.671 -1.483,3.523c-0.988,0.853 -2.345,1.279 -4.071,1.279c-0.981,0 -2.22,-0.172 -3.717,-0.516Z" style="fill-rule:nonzero;"/></g><defs><radialGradient id="_Radial1" cx="0" cy="0" r="1" gradientUnits="userSpaceOnUse" gradientTransform="matrix(126.562,97.7279,-71.6611,95.2942,71.6758,96.2223)"><stop offset="0%" style="stop-color:#fff;stop-opacity:1"/><stop offset="100%" style="stop-color:#dcdcdc;stop-opacity:1"/></radialGradient><linearGradient id="_Linear2" x1="0" y1="0" x2="1" y2="0" gradientUnits="userSpaceOnUse" gradientTransform="matrix(4.55569e-15,74.4,-74.4,4.55569e-15,72.2064,40.4417)"><stop offset="0%" style="stop-color:#737373;stop-opacity:1"/><stop offset="100%" style="stop-color:#000;stop-opacity:1"/></linearGradient><linearGradient id="_Linear3" x1="0" y1="0" x2="1" y2="0" gradientUnits="userSpaceOnUse" gradientTransform="matrix(8.28143e-16,13.5246,-13.5246,8.28143e-16,16.4293,31.1036)"><stop offset="0%" style="stop-color:#737373;stop-opacity:1"/><stop offset="100%" style="stop-color:#000;stop-opacity:1"/></linearGradient><linearGradient id="_Linear4" x1="0" y1="0" x2="1" y2="0" gradientUnits="userSpaceOnUse" gradientTransform="matrix(8.28143e-16,13.5246,-13.5246,8.28143e-16,126.829,160.224)"><stop offset="0%" style="stop-color:#737373;stop-opacity:1"/><stop offset="100%" style="stop-color:#000;stop-opacity:1"/></linearGradient><linearGradient id="_Linear5" x1="0" y1="0" x2="1" y2="0" gradientUnits="userSpaceOnUse" gradientTransform="matrix(0.0983952,31.9224,-31.9224,0.0983952,128.055,187.206)"><stop offset="0%" style="stop-color:#fff;stop-opacity:1"/><stop offset="100%" style="stop-color:#dcdcdc;stop-opacity:1"/></linearGradient></defs></svg>