<?xml version="1.0" encoding="UTF-8" standalone="no"?><!DOCTYPE svg PUBLIC "-//W3C//DTD SVG 1.1//EN" "http://www.w3.org/Graphics/SVG/1.1/DTD/svg11.dtd"><svg width="100%" height="100%" viewBox="0 0 144 193" version="1.1" xmlns="http://www.w3.org/2000/svg" xmlns:xlink="http://www.w3.org/1999/xlink" xml:space="preserve" style="fill-rule:evenodd;clip-rule:evenodd;"><path id="Card-background" d="M143.997,9.6c0.002,-5.298 -4.272,-9.6 -9.538,-9.6l-124.918,0c-5.266,0 -9.542,4.302 -9.544,9.6l-0.048,172.8c-0.001,5.298 4.273,9.6 9.539,9.6l124.917,0c5.266,0 9.543,-4.302 9.544,-9.6l0.048,-172.8Z" style="fill:url(#_Radial1);stroke:#646464;stroke-width:0.22px;"/><g id="Spades"><path id="path7857" d="M72.206,40.322c-12,33.6 -42.425,50.471 -42.879,70.08c0,26.4 28.813,23.808 38.079,11.52c4.8,12 -5.073,21.255 -9.6,28.8l28.8,0c-4.526,-7.545 -14.4,-16.8 -9.6,-28.8c9.267,12.288 38.08,14.88 38.08,-11.52c-0.454,-19.609 -30.88,-36.48 -42.88,-70.08Z" style="fill:url(#_Linear2);stroke:#000;stroke-width:0.24px;"/><path id="path7954" d="M16.338,31.082c-2.289,6.108 -8.091,9.175 -8.178,12.739c0,4.799 5.495,4.328 7.262,2.094c0.916,2.182 -0.967,3.864 -1.831,5.236l5.493,0c-0.863,-1.372 -2.746,-3.054 -1.831,-5.236c1.767,2.234 7.262,2.705 7.262,-2.094c-0.086,-3.564 -5.889,-6.631 -8.177,-12.739Z" style="fill:url(#_Linear3);stroke:#000;stroke-width:0.04px;"/><path id="path4963" d="M127.789,161.791c-2.288,-6.108 -8.091,-9.175 -8.177,-12.74c0,-4.799 5.495,-4.328 7.262,-2.094c0.915,-2.181 -0.968,-3.864 -1.831,-5.235l5.493,0c-0.864,1.371 -2.747,3.054 -1.831,5.235c1.767,-2.234 7.262,-2.705 7.262,2.094c-0.087,3.565 -5.889,6.632 -8.178,12.74l0,0Z" style="fill:url(#_Linear4);stroke:#000;stroke-width:0.04px;"/></g><g id="Black-Text"><path d="M15.108,20.018l0.859,0c0.632,0 1.153,0.192 1.563,0.576c0.416,0.398 0.631,0.958 0.644,1.68c-0.013,0.71 -0.228,1.257 -0.644,1.641c-0.41,0.41 -0.915,0.615 -1.514,0.615c-0.56,0 -1.009,-0.153 -1.348,-0.459c-0.332,-0.293 -0.589,-0.677 -0.771,-1.152l-2.041,0c0.221,1.185 0.706,2.09 1.455,2.715c0.749,0.625 1.608,0.937 2.578,0.937c1.257,-0.013 2.285,-0.413 3.086,-1.201c0.814,-0.768 1.227,-1.82 1.24,-3.154c0,-0.599 -0.127,-1.172 -0.381,-1.719c-0.266,-0.547 -0.699,-1.016 -1.298,-1.406c0.586,-0.398 0.992,-0.85 1.22,-1.358c0.196,-0.508 0.293,-1.035 0.293,-1.582c-0.013,-1.081 -0.384,-2.018 -1.113,-2.812c-0.762,-0.814 -1.79,-1.228 -3.086,-1.241c-1.022,0.013 -1.901,0.378 -2.637,1.094c-0.748,0.723 -1.175,1.611 -1.279,2.666l2.041,0c0.13,-0.586 0.384,-1.019 0.762,-1.299c0.358,-0.28 0.755,-0.42 1.191,-0.42c0.606,0.013 1.1,0.205 1.485,0.577c0.384,0.384 0.582,0.875 0.595,1.474c0,0.593 -0.192,1.074 -0.576,1.446c-0.384,0.384 -0.924,0.576 -1.621,0.576l-0.703,0l0,1.806Z" style="fill:#010101;fill-rule:nonzero;"/><path d="M129.259,171.883l-0.86,0c-0.631,0 -1.152,-0.192 -1.562,-0.576c-0.417,-0.397 -0.632,-0.957 -0.645,-1.68c0.013,-0.71 0.228,-1.256 0.645,-1.641c0.41,-0.41 0.915,-0.615 1.514,-0.615c0.559,0 1.009,0.153 1.347,0.459c0.332,0.293 0.589,0.677 0.772,1.153l2.041,0c-0.222,-1.185 -0.707,-2.09 -1.455,-2.715c-0.749,-0.625 -1.608,-0.938 -2.578,-0.938c-1.257,0.013 -2.286,0.414 -3.086,1.201c-0.814,0.769 -1.228,1.82 -1.241,3.155c0,0.599 0.127,1.172 0.381,1.718c0.267,0.547 0.7,1.016 1.299,1.407c-0.586,0.397 -0.993,0.849 -1.221,1.357c-0.195,0.508 -0.293,1.035 -0.293,1.582c0.013,1.081 0.384,2.018 1.114,2.813c0.761,0.813 1.79,1.227 3.086,1.24c1.022,-0.013 1.901,-0.378 2.636,-1.094c0.749,-0.723 1.175,-1.611 1.28,-2.666l-2.041,0c-0.131,0.586 -0.385,1.019 -0.762,1.299c-0.358,0.28 -0.755,0.42 -1.192,0.42c-0.605,-0.013 -1.1,-0.205 -1.484,-0.576c-0.384,-0.384 -0.583,-0.876 -0.596,-1.475c0,-0.592 0.192,-1.074 0.577,-1.445c0.384,-0.384 0.924,-0.576 1.621,-0.576l0.703,0l0,-1.807Z" style="fill:#030303;fill-rule:nonzero;"/></g><g id="Center-Text" transform="matrix(0.233905,0,0,0.218311,72.7568,112.825)"><path d="M-14.118,-70.749l9.448,0c6.942,0 12.668,2.111 17.177,6.334c4.581,4.366 6.943,10.521 7.086,18.466c-0.143,7.801 -2.505,13.813 -7.086,18.036c-4.509,4.509 -10.056,6.763 -16.64,6.763c-6.156,0 -11.094,-1.682 -14.816,-5.045c-3.65,-3.221 -6.477,-7.444 -8.481,-12.669l-22.438,0c2.434,13.026 7.766,22.975 15.996,29.846c8.231,6.871 17.679,10.306 28.343,10.306c13.813,-0.143 25.122,-4.545 33.925,-13.205c8.947,-8.445 13.492,-20.004 13.635,-34.676c0,-6.585 -1.396,-12.883 -4.187,-18.896c-2.935,-6.012 -7.694,-11.165 -14.279,-15.459c6.442,-4.366 10.915,-9.34 13.42,-14.923c2.147,-5.583 3.221,-11.38 3.221,-17.392c-0.143,-11.881 -4.223,-22.187 -12.239,-30.919c-8.374,-8.947 -19.683,-13.492 -33.925,-13.635c-11.237,0.143 -20.899,4.152 -28.987,12.024c-8.231,7.945 -12.919,17.715 -14.064,29.309l22.438,0c1.431,-6.441 4.223,-11.201 8.374,-14.278c3.936,-3.078 8.302,-4.617 13.097,-4.617c6.657,0.143 12.096,2.255 16.319,6.334c4.223,4.223 6.406,9.627 6.549,16.211c0,6.514 -2.112,11.81 -6.334,15.889c-4.223,4.223 -10.164,6.335 -17.822,6.335l-7.73,0l0,19.861Z" style="fill:none;"/><path d="M-14.118,-70.749l9.448,0c6.942,0 12.668,2.111 17.177,6.334c4.581,4.366 6.943,10.521 7.086,18.466c-0.143,7.801 -2.505,13.813 -7.086,18.036c-4.509,4.509 -10.056,6.763 -16.64,6.763c-6.156,0 -11.094,-1.682 -14.816,-5.045c-3.65,-3.221 -6.477,-7.444 -8.481,-12.669l-22.438,0c2.434,13.026 7.766,22.975 15.996,29.846c8.231,6.871 17.679,10.306 28.343,10.306c13.813,-0.143 25.122,-4.545 33.925,-13.205c8.947,-8.445 13.492,-20.004 13.635,-34.676c0,-6.585 -1.396,-12.883 -4.187,-18.896c-2.935,-6.012 -7.694,-11.165 -14.279,-15.459c6.442,-4.366 10.915,-9.34 13.42,-14.923c2.147,-5.583 3.221,-11.38 3.221,-17.392c-0.143,-11.881 -4.223,-22.187 -12.239,-30.919c-8.374,-8.947 -19.683,-13.492 -33.925,-13.635c-11.237,0.143 -20.899,4.152 -28.987,12.024c-8.231,7.945 -12.919,17.715 -14.064,29.309l22.438,0c1.431,-6.441 4.223,-11.201 8.374,-14.278c3.936,-3.078 8.302,-4.617 13.097,-4.617c6.657,0.143 12.096,2.255 16.319,6.334c4.223,4.223 6.406,9.627 6.549,16.211c0,6.514 -2.112,11.81 -6.334,15.889c-4.223,4.223 -10.164,6.335 -17.822,6.335l-7.73,0l0,19.861Z" style="fill:#fff;fill-rule:nonzero;"/></g><defs><radialGradient id="_Radial1" cx="0" cy="0" r="1" gradientUnits="userSpaceOnUse" gradientTransform="matrix(126.864,97.3356,-71.3658,95.5156,71.9734,96)"><stop offset="0%" style="stop-color:#fff;stop-opacity:1"/><stop offset="100%" style="stop-color:#dcdcdc;stop-opacity:1"/></radialGradient><linearGradient id="_Linear2" x1="0" y1="0" x2="1" y2="0" gradientUnits="userSpaceOnUse" gradientTransform="matrix(4.55569e-15,74.4,-74.4,4.55569e-15,72.2064,40.4417)"><stop offset="0%" style="stop-color:#737373;stop-opacity:1"/><stop offset="100%" style="stop-color:#000;stop-opacity:1"/></linearGradient><linearGradient id="_Linear3" x1="0" y1="0" x2="1" y2="0" gradientUnits="userSpaceOnUse" gradientTransform="matrix(8.28143e-16,13.5246,-13.5246,8.28143e-16,16.3377,31.1036)"><stop offset="0%" style="stop-color:#737373;stop-opacity:1"/><stop offset="100%" style="stop-color:#000;stop-opacity:1"/></linearGradient><linearGradient id="_Linear4" x1="0" y1="0" x2="1" y2="0" gradientUnits="userSpaceOnUse" gradientTransform="matrix(8.28143e-16,-13.5246,-13.5246,-8.28143e-16,127.789,161.769)"><stop offset="0%" style="stop-color:#737373;stop-opacity:1"/><stop offset="100%" style="stop-color:#000;stop-opacity:1"/></linearGradient></defs></svg>