<?xml version="1.0" encoding="UTF-8" standalone="no"?><!DOCTYPE svg PUBLIC "-//W3C//DTD SVG 1.1//EN" "http://www.w3.org/Graphics/SVG/1.1/DTD/svg11.dtd"><svg width="100%" height="100%" viewBox="0 0 144 193" version="1.1" xmlns="http://www.w3.org/2000/svg" xmlns:xlink="http://www.w3.org/1999/xlink" xml:space="preserve" style="fill-rule:evenodd;clip-rule:evenodd;"><path id="Card-background" d="M143.997,9.6c0.002,-5.298 -4.272,-9.6 -9.538,-9.6l-124.918,0c-5.266,0 -9.542,4.302 -9.544,9.6l-0.048,172.8c-0.001,5.298 4.273,9.6 9.539,9.6l124.917,0c5.266,0 9.543,-4.302 9.544,-9.6l0.048,-172.8Z" style="fill:url(#_Radial1);stroke:#646464;stroke-width:0.22px;"/><g id="Diamonds"><path id="rect3362" d="M72.532,155.313l42.966,-59.646l-43.202,-59.975l-42.966,59.646l43.202,59.975Z" style="fill:url(#_Linear2);stroke:url(#_Linear3);stroke-width:0.14px;"/><path id="rect6977" d="M16.405,51.744l7.157,-9.959l-7.196,-10.014l-7.157,9.959l7.196,10.014Z" style="fill:url(#_Linear4);stroke:#640000;stroke-width:0.03px;"/><path id="rect4360" d="M127.765,141.451l7.158,9.959l-7.197,10.014l-7.157,-9.959l7.196,-10.014Z" style="fill:url(#_Linear5);stroke:#640000;stroke-width:0.03px;"/></g><g id="Red-Text"><path d="M11.836,24.335l5.938,0l0,2.119l2.041,0l0,-2.119l1.133,0l0,-1.924l-1.133,0l0,-4.092l-2.041,0l0,4.092l-3.721,0l4.815,-10.195l-2.276,0l-4.756,10.195l0,1.924Z" style="fill:#a30000;fill-rule:nonzero;"/><path d="M132.53,167.567l-5.937,0l0,-2.12l-2.041,0l0,2.12l-1.133,0l0,1.923l1.133,0l0,4.092l2.041,0l0,-4.092l3.72,0l-4.814,10.196l2.275,0l4.756,-10.196l0,-1.923Z" style="fill:#a30000;fill-rule:nonzero;"/></g><g id="Center-Text" transform="matrix(0.233905,0,0,0.218311,72.0368,112.825)"><path d="M-50.083,-23.297l65.274,0l0,23.297l22.438,0l0,-23.297l12.454,0l0,-21.149l-12.454,0l0,-44.983l-22.438,0l0,44.983l-40.903,0l52.927,-112.082l-25.014,0l-52.284,112.082l0,21.149Z" style="fill:none;"/><path d="M-50.083,-23.297l65.274,0l0,23.297l22.438,0l0,-23.297l12.454,0l0,-21.149l-12.454,0l0,-44.983l-22.438,0l0,44.983l-40.903,0l52.927,-112.082l-25.014,0l-52.284,112.082l0,21.149Z" style="fill:#fff;fill-rule:nonzero;"/></g><defs><radialGradient id="_Radial1" cx="0" cy="0" r="1" gradientUnits="userSpaceOnUse" gradientTransform="matrix(126.864,97.3356,-71.3658,95.5156,71.9734,96)"><stop offset="0%" style="stop-color:#fff;stop-opacity:1"/><stop offset="100%" style="stop-color:#dcdcdc;stop-opacity:1"/></radialGradient><linearGradient id="_Linear2" x1="0" y1="0" x2="1" y2="0" gradientUnits="userSpaceOnUse" gradientTransform="matrix(0.649222,119.114,-119.114,0.649222,72.0282,35.4239)"><stop offset="0%" style="stop-color:#e00000;stop-opacity:1"/><stop offset="100%" style="stop-color:#560000;stop-opacity:1"/></linearGradient><linearGradient id="_Linear3" x1="0" y1="0" x2="1" y2="0" gradientUnits="userSpaceOnUse" gradientTransform="matrix(-54.8234,-72.2122,52.0178,-76.1069,-50.1075,185.702)"><stop offset="0%" style="stop-color:#e00000;stop-opacity:1"/><stop offset="100%" style="stop-color:#560000;stop-opacity:1"/></linearGradient><linearGradient id="_Linear4" x1="0" y1="0" x2="1" y2="0" gradientUnits="userSpaceOnUse" gradientTransform="matrix(-0.168869,20.3461,-14.6221,-0.234974,16.3007,31.711)"><stop offset="0%" style="stop-color:#e00000;stop-opacity:1"/><stop offset="100%" style="stop-color:#810000;stop-opacity:1"/></linearGradient><linearGradient id="_Linear5" x1="0" y1="0" x2="1" y2="0" gradientUnits="userSpaceOnUse" gradientTransform="matrix(0.207377,14.3416,-14.3416,0.207377,127.849,142.278)"><stop offset="0%" style="stop-color:#e00000;stop-opacity:1"/><stop offset="100%" style="stop-color:#810000;stop-opacity:1"/></linearGradient></defs></svg>