<?xml version="1.0" encoding="UTF-8" standalone="no"?><!DOCTYPE svg PUBLIC "-//W3C//DTD SVG 1.1//EN" "http://www.w3.org/Graphics/SVG/1.1/DTD/svg11.dtd"><svg width="100%" height="100%" viewBox="0 0 144 193" version="1.1" xmlns="http://www.w3.org/2000/svg" xmlns:xlink="http://www.w3.org/1999/xlink" xml:space="preserve" style="fill-rule:evenodd;clip-rule:evenodd;"><path id="Card-background" d="M143.997,9.6c0.002,-5.298 -4.272,-9.6 -9.538,-9.6l-124.918,0c-5.266,0 -9.542,4.302 -9.544,9.6l-0.048,172.8c-0.001,5.298 4.273,9.6 9.539,9.6l124.917,0c5.266,0 9.543,-4.302 9.544,-9.6l0.048,-172.8Z" style="fill:url(#_Radial1);stroke:#646464;stroke-width:0.22px;"/><g id="Clubs"><path id="path7930" d="M72.995,40.95c-14.746,0 -26.88,11.538 -26.88,25.56c0,0 0,0 0,0c0.012,6.15 2.358,12.095 6.605,16.734c-1.232,-0.186 -2.477,-0.284 -3.725,-0.294c-13.825,0 -25.2,10.833 -25.2,24c0,13.166 11.375,24 25.2,24c7.316,-0.006 14.279,-3.045 19.059,-8.32c3.954,11.554 -5.529,20.529 -9.939,27.88l28.8,0c-4.437,-7.395 -14.006,-16.432 -9.868,-28.086c4.778,5.394 11.818,8.516 19.228,8.526c13.824,0 25.2,-10.834 25.2,-24c0,-13.167 -11.376,-24 -25.2,-24c-0.963,0.009 -1.923,0.072 -2.878,0.186c4.175,-4.628 6.474,-10.528 6.478,-16.626c0,0 0,0 0,0c0,-14.022 -12.134,-25.56 -26.88,-25.56l0,0Z" style="fill:url(#_Linear2);stroke:#000;stroke-width:0.24px;"/><g><path id="path7975" d="M16.502,31.272c-2.53,0 -4.612,2.056 -4.612,4.554c0.002,1.096 0.405,2.155 1.133,2.981c-0.211,-0.033 -0.425,-0.051 -0.639,-0.052c-2.371,0 -4.323,1.93 -4.323,4.275c0,0 0,0 0,0c0,2.346 1.952,4.276 4.323,4.276c0,0 0,0 0,0c1.255,-0.001 2.45,-0.543 3.27,-1.482c0.678,2.058 -0.948,3.657 -1.705,4.966l4.941,0c-0.761,-1.317 -2.403,-2.927 -1.693,-5.003c0.82,0.961 2.027,1.517 3.299,1.519c0,0 0,0 0,0c2.371,0 4.323,-1.93 4.323,-4.276c0,0 0,0 0,0c0,-2.345 -1.952,-4.275 -4.323,-4.275c-0.165,0.001 -0.33,0.012 -0.494,0.033c0.716,-0.825 1.111,-1.876 1.111,-2.962c0,-2.498 -2.081,-4.554 -4.611,-4.554l0,0Z" style="fill:url(#_Linear3);stroke:#000;stroke-width:0.04px;"/></g><g><path id="path79751" d="M127.714,160.956c-2.53,0 -4.612,-2.055 -4.612,-4.553c0.002,-1.096 0.405,-2.155 1.134,-2.981c-0.212,0.033 -0.425,0.05 -0.64,0.052c-2.371,0 -4.323,-1.93 -4.323,-4.275c0,0 0,0 0,0c0,-2.346 1.952,-4.276 4.323,-4.276c0,0 0,0 0,0c1.256,0.001 2.45,0.542 3.27,1.482c0.679,-2.058 -0.948,-3.657 -1.705,-4.967l4.941,0c-0.761,1.318 -2.403,2.928 -1.693,5.004c0.82,-0.961 2.028,-1.517 3.299,-1.519c0,0 0,0 0,0c2.372,0 4.323,1.93 4.323,4.276c0,0 0,0 0,0c0,2.345 -1.951,4.275 -4.323,4.275c-0.165,-0.002 -0.33,-0.013 -0.494,-0.033c0.716,0.825 1.111,1.876 1.111,2.962c0,2.498 -2.081,4.553 -4.611,4.553l0,0Z" style="fill:url(#_Linear4);stroke:#000;stroke-width:0.04px;"/></g></g><g id="Black-Text"><path d="M12.588,19.911l1.924,0c0.241,-0.436 0.515,-0.742 0.821,-0.918c0.306,-0.169 0.644,-0.254 1.015,-0.254c0.417,0 0.765,0.059 1.045,0.176c0.28,0.143 0.492,0.335 0.635,0.576c0.267,0.508 0.394,1.169 0.381,1.982c0,0.332 -0.007,0.674 -0.02,1.026c-0.026,0.358 -0.097,0.69 -0.215,0.996c-0.11,0.306 -0.306,0.553 -0.586,0.742c-0.293,0.195 -0.683,0.293 -1.171,0.293c-1.14,-0.013 -1.82,-0.566 -2.041,-1.66l-2.042,0c0.196,1.308 0.7,2.256 1.514,2.842c0.801,0.573 1.683,0.859 2.647,0.859c0.716,-0.013 1.334,-0.179 1.855,-0.498c0.534,-0.306 0.941,-0.645 1.221,-1.016c0.319,-0.377 0.547,-0.81 0.683,-1.298c0.131,-0.495 0.196,-1.205 0.196,-2.129c0,-0.599 -0.02,-1.104 -0.059,-1.514c-0.039,-0.404 -0.104,-0.745 -0.195,-1.025c-0.176,-0.515 -0.462,-0.967 -0.86,-1.358c-0.266,-0.293 -0.615,-0.54 -1.044,-0.742c-0.456,-0.182 -0.958,-0.28 -1.504,-0.293c-0.853,0 -1.612,0.26 -2.276,0.781l0,-3.222l5.664,0l0,-2.041l-7.588,0l0,7.695Z" style="fill:#010101;fill-rule:nonzero;"/><path d="M131.778,171.99l-1.924,0c-0.24,0.437 -0.514,0.743 -0.82,0.918c-0.306,0.17 -0.644,0.254 -1.015,0.254c-0.417,0 -0.765,-0.058 -1.045,-0.176c-0.28,-0.143 -0.492,-0.335 -0.635,-0.576c-0.267,-0.508 -0.394,-1.168 -0.381,-1.982c0,-0.332 0.007,-0.674 0.02,-1.026c0.026,-0.358 0.097,-0.69 0.214,-0.996c0.111,-0.306 0.306,-0.553 0.586,-0.742c0.293,-0.195 0.684,-0.293 1.172,-0.293c1.14,0.013 1.82,0.567 2.041,1.66l2.041,0c-0.195,-1.308 -0.7,-2.255 -1.513,-2.841c-0.801,-0.573 -1.683,-0.86 -2.647,-0.86c-0.716,0.013 -1.335,0.179 -1.855,0.498c-0.534,0.306 -0.941,0.645 -1.221,1.016c-0.319,0.377 -0.547,0.81 -0.684,1.299c-0.13,0.494 -0.195,1.204 -0.195,2.129c0,0.599 0.02,1.103 0.059,1.513c0.039,0.404 0.104,0.746 0.195,1.026c0.176,0.514 0.462,0.966 0.859,1.357c0.267,0.293 0.616,0.54 1.045,0.742c0.456,0.183 0.957,0.28 1.504,0.293c0.853,0 1.611,-0.26 2.275,-0.781l0,3.223l-5.664,0l0,2.041l7.588,0l0,-7.696Z" style="fill:#030303;fill-rule:nonzero;"/></g><g id="Center-Text" transform="matrix(0.233905,0,0,0.218311,72.7568,112.825)"><path d="M-41.816,-71.93l21.15,0c2.648,-4.795 5.654,-8.159 9.018,-10.092c3.364,-1.861 7.085,-2.791 11.165,-2.791c4.581,0 8.41,0.644 11.487,1.932c3.078,1.575 5.404,3.686 6.979,6.335c2.934,5.582 4.33,12.847 4.186,21.793c0,3.65 -0.071,7.408 -0.214,11.273c-0.287,3.936 -1.074,7.587 -2.362,10.95c-1.217,3.364 -3.364,6.084 -6.442,8.16c-3.22,2.147 -7.515,3.22 -12.883,3.22c-12.525,-0.143 -20.004,-6.226 -22.437,-18.25l-22.438,0c2.147,14.386 7.694,24.799 16.64,31.241c8.804,6.298 18.502,9.447 29.094,9.447c7.873,-0.143 14.673,-1.968 20.398,-5.475c5.869,-3.364 10.343,-7.086 13.42,-11.165c3.507,-4.151 6.012,-8.911 7.515,-14.279c1.432,-5.439 2.147,-13.241 2.147,-23.404c0,-6.585 -0.214,-12.131 -0.644,-16.641c-0.429,-4.437 -1.145,-8.195 -2.147,-11.272c-1.932,-5.654 -5.082,-10.629 -9.447,-14.923c-2.935,-3.221 -6.764,-5.94 -11.488,-8.159c-5.01,-2.004 -10.521,-3.078 -16.533,-3.221c-9.376,0 -17.714,2.863 -25.014,8.589l0,-35.428l62.267,0l0,-22.438l-83.417,0l0,84.598Z" style="fill:none;"/><path d="M-41.816,-71.93l21.15,0c2.648,-4.795 5.654,-8.159 9.018,-10.092c3.364,-1.861 7.085,-2.791 11.165,-2.791c4.581,0 8.41,0.644 11.487,1.932c3.078,1.575 5.404,3.686 6.979,6.335c2.934,5.582 4.33,12.847 4.186,21.793c0,3.65 -0.071,7.408 -0.214,11.273c-0.287,3.936 -1.074,7.587 -2.362,10.95c-1.217,3.364 -3.364,6.084 -6.442,8.16c-3.22,2.147 -7.515,3.22 -12.883,3.22c-12.525,-0.143 -20.004,-6.226 -22.437,-18.25l-22.438,0c2.147,14.386 7.694,24.799 16.64,31.241c8.804,6.298 18.502,9.447 29.094,9.447c7.873,-0.143 14.673,-1.968 20.398,-5.475c5.869,-3.364 10.343,-7.086 13.42,-11.165c3.507,-4.151 6.012,-8.911 7.515,-14.279c1.432,-5.439 2.147,-13.241 2.147,-23.404c0,-6.585 -0.214,-12.131 -0.644,-16.641c-0.429,-4.437 -1.145,-8.195 -2.147,-11.272c-1.932,-5.654 -5.082,-10.629 -9.447,-14.923c-2.935,-3.221 -6.764,-5.94 -11.488,-8.159c-5.01,-2.004 -10.521,-3.078 -16.533,-3.221c-9.376,0 -17.714,2.863 -25.014,8.589l0,-35.428l62.267,0l0,-22.438l-83.417,0l0,84.598Z" style="fill:#fff;fill-rule:nonzero;"/></g><defs><radialGradient id="_Radial1" cx="0" cy="0" r="1" gradientUnits="userSpaceOnUse" gradientTransform="matrix(126.864,97.3356,-71.3658,95.5156,71.9734,96)"><stop offset="0%" style="stop-color:#fff;stop-opacity:1"/><stop offset="100%" style="stop-color:#dcdcdc;stop-opacity:1"/></radialGradient><linearGradient id="_Linear2" x1="0" y1="0" x2="1" y2="0" gradientUnits="userSpaceOnUse" gradientTransform="matrix(-0.96,74.4,-74.4,-0.96,73.4748,40.2296)"><stop offset="0%" style="stop-color:#737373;stop-opacity:1"/><stop offset="100%" style="stop-color:#000;stop-opacity:1"/></linearGradient><linearGradient id="_Linear3" x1="0" y1="0" x2="1" y2="0" gradientUnits="userSpaceOnUse" gradientTransform="matrix(-0.164698,13.2543,-13.2543,-0.164698,16.5841,31.1441)"><stop offset="0%" style="stop-color:#737373;stop-opacity:1"/><stop offset="100%" style="stop-color:#000;stop-opacity:1"/></linearGradient><linearGradient id="_Linear4" x1="0" y1="0" x2="1" y2="0" gradientUnits="userSpaceOnUse" gradientTransform="matrix(-0.164698,-13.2543,-13.2543,0.164698,127.796,161.085)"><stop offset="0%" style="stop-color:#737373;stop-opacity:1"/><stop offset="100%" style="stop-color:#000;stop-opacity:1"/></linearGradient></defs></svg>