<?xml version="1.0" encoding="UTF-8" standalone="no"?><!DOCTYPE svg PUBLIC "-//W3C//DTD SVG 1.1//EN" "http://www.w3.org/Graphics/SVG/1.1/DTD/svg11.dtd"><svg width="100%" height="100%" viewBox="0 0 144 193" version="1.1" xmlns="http://www.w3.org/2000/svg" xmlns:xlink="http://www.w3.org/1999/xlink" xml:space="preserve" style="fill-rule:evenodd;clip-rule:evenodd;"><path id="Card-background" d="M143.997,9.6c0.002,-5.298 -4.272,-9.6 -9.538,-9.6l-124.918,0c-5.266,0 -9.542,4.302 -9.544,9.6l-0.048,172.8c-0.001,5.298 4.273,9.6 9.539,9.6l124.917,0c5.266,0 9.543,-4.302 9.544,-9.6l0.048,-172.8Z" style="fill:url(#_Radial1);stroke:#646464;stroke-width:0.22px;"/><g id="Hearts"><path id="path7647" d="M44.333,45.091c-7.348,-0.057 -14.803,3.568 -20.591,14.617c-16.662,31.808 49.225,77.122 48.834,93.606l0,0.365c0,0 0.161,-0.149 0.196,-0.182c0.035,0.032 0.195,0.182 0.195,0.182l0,-0.365c0,-14.078 65.496,-61.798 48.834,-93.606c-16.649,-31.784 -47.001,-2.223 -49.029,-0.194c-1.322,-1.322 -14.649,-14.315 -28.439,-14.423l0,0Z" style="fill:url(#_Linear2);stroke:url(#_Linear3);stroke-width:0.24px;"/><path id="path8171" d="M11.911,32.963c-1.139,-0.009 -2.295,0.574 -3.192,2.349c-2.584,5.11 7.631,12.39 7.571,15.038l0,0.059c0,0 0.024,-0.024 0.03,-0.03c0.005,0.006 0.03,0.03 0.03,0.03l0,-0.059c0,-2.262 10.154,-9.928 7.571,-15.038c-2.581,-5.107 -7.287,-0.357 -7.601,-0.031c-0.205,-0.213 -2.271,-2.3 -4.409,-2.318l0,0Z" style="fill:url(#_Linear4);stroke:url(#_Linear5);stroke-width:0.04px;"/><path id="path5021" d="M123.271,159.365c-1.139,0.009 -2.295,-0.573 -3.192,-2.349c-2.584,-5.11 7.631,-12.389 7.571,-15.038l0,-0.058c0,0 0.024,0.024 0.03,0.029c0.005,-0.005 0.03,-0.029 0.03,-0.029l0,0.058c0,2.262 10.154,9.928 7.571,15.038c-2.581,5.107 -7.287,0.358 -7.601,0.032c-0.205,0.212 -2.271,2.299 -4.409,2.317l0,0Z" style="fill:url(#_Linear6);stroke:url(#_Linear7);stroke-width:0.04px;"/></g><g id="Red-Text"><path d="M12.588,19.911l1.924,0c0.241,-0.436 0.515,-0.742 0.821,-0.918c0.306,-0.169 0.644,-0.254 1.015,-0.254c0.417,0 0.765,0.059 1.045,0.176c0.28,0.143 0.492,0.335 0.635,0.576c0.267,0.508 0.394,1.169 0.381,1.982c0,0.332 -0.007,0.674 -0.02,1.026c-0.026,0.358 -0.097,0.69 -0.215,0.996c-0.11,0.306 -0.306,0.553 -0.586,0.742c-0.293,0.195 -0.683,0.293 -1.171,0.293c-1.14,-0.013 -1.82,-0.566 -2.041,-1.66l-2.042,0c0.196,1.308 0.7,2.256 1.514,2.842c0.801,0.573 1.683,0.859 2.647,0.859c0.716,-0.013 1.334,-0.179 1.855,-0.498c0.534,-0.306 0.941,-0.645 1.221,-1.016c0.319,-0.377 0.547,-0.81 0.683,-1.298c0.131,-0.495 0.196,-1.205 0.196,-2.129c0,-0.599 -0.02,-1.104 -0.059,-1.514c-0.039,-0.404 -0.104,-0.745 -0.195,-1.025c-0.176,-0.515 -0.462,-0.967 -0.86,-1.358c-0.266,-0.293 -0.615,-0.54 -1.044,-0.742c-0.456,-0.182 -0.958,-0.28 -1.504,-0.293c-0.853,0 -1.612,0.26 -2.276,0.781l0,-3.222l5.664,0l0,-2.041l-7.588,0l0,7.695Z" style="fill:#a30000;fill-rule:nonzero;"/><path d="M131.778,171.99l-1.924,0c-0.24,0.437 -0.514,0.743 -0.82,0.918c-0.306,0.17 -0.644,0.254 -1.015,0.254c-0.417,0 -0.765,-0.058 -1.045,-0.176c-0.28,-0.143 -0.492,-0.335 -0.635,-0.576c-0.267,-0.508 -0.394,-1.168 -0.381,-1.982c0,-0.332 0.007,-0.674 0.02,-1.026c0.026,-0.358 0.097,-0.69 0.214,-0.996c0.111,-0.306 0.306,-0.553 0.586,-0.742c0.293,-0.195 0.684,-0.293 1.172,-0.293c1.14,0.013 1.82,0.567 2.041,1.66l2.041,0c-0.195,-1.308 -0.7,-2.255 -1.513,-2.841c-0.801,-0.573 -1.683,-0.86 -2.647,-0.86c-0.716,0.013 -1.335,0.179 -1.855,0.498c-0.534,0.306 -0.941,0.645 -1.221,1.016c-0.319,0.377 -0.547,0.81 -0.684,1.299c-0.13,0.494 -0.195,1.204 -0.195,2.129c0,0.599 0.02,1.103 0.059,1.513c0.039,0.404 0.104,0.746 0.195,1.026c0.176,0.514 0.462,0.966 0.859,1.357c0.267,0.293 0.616,0.54 1.045,0.742c0.456,0.183 0.957,0.28 1.504,0.293c0.853,0 1.611,-0.26 2.275,-0.781l0,3.223l-5.664,0l0,2.041l7.588,0l0,-7.696Z" style="fill:#a30000;fill-rule:nonzero;"/></g><g id="Center-Text" transform="matrix(0.233905,0,0,0.218311,72.7568,112.825)"><path d="M-41.816,-71.93l21.15,0c2.648,-4.795 5.654,-8.159 9.018,-10.092c3.364,-1.861 7.085,-2.791 11.165,-2.791c4.581,0 8.41,0.644 11.487,1.932c3.078,1.575 5.404,3.686 6.979,6.335c2.934,5.582 4.33,12.847 4.186,21.793c0,3.65 -0.071,7.408 -0.214,11.273c-0.287,3.936 -1.074,7.587 -2.362,10.95c-1.217,3.364 -3.364,6.084 -6.442,8.16c-3.22,2.147 -7.515,3.22 -12.883,3.22c-12.525,-0.143 -20.004,-6.226 -22.437,-18.25l-22.438,0c2.147,14.386 7.694,24.799 16.64,31.241c8.804,6.298 18.502,9.447 29.094,9.447c7.873,-0.143 14.673,-1.968 20.398,-5.475c5.869,-3.364 10.343,-7.086 13.42,-11.165c3.507,-4.151 6.012,-8.911 7.515,-14.279c1.432,-5.439 2.147,-13.241 2.147,-23.404c0,-6.585 -0.214,-12.131 -0.644,-16.641c-0.429,-4.437 -1.145,-8.195 -2.147,-11.272c-1.932,-5.654 -5.082,-10.629 -9.447,-14.923c-2.935,-3.221 -6.764,-5.94 -11.488,-8.159c-5.01,-2.004 -10.521,-3.078 -16.533,-3.221c-9.376,0 -17.714,2.863 -25.014,8.589l0,-35.428l62.267,0l0,-22.438l-83.417,0l0,84.598Z" style="fill:none;"/><path d="M-41.816,-71.93l21.15,0c2.648,-4.795 5.654,-8.159 9.018,-10.092c3.364,-1.861 7.085,-2.791 11.165,-2.791c4.581,0 8.41,0.644 11.487,1.932c3.078,1.575 5.404,3.686 6.979,6.335c2.934,5.582 4.33,12.847 4.186,21.793c0,3.65 -0.071,7.408 -0.214,11.273c-0.287,3.936 -1.074,7.587 -2.362,10.95c-1.217,3.364 -3.364,6.084 -6.442,8.16c-3.22,2.147 -7.515,3.22 -12.883,3.22c-12.525,-0.143 -20.004,-6.226 -22.437,-18.25l-22.438,0c2.147,14.386 7.694,24.799 16.64,31.241c8.804,6.298 18.502,9.447 29.094,9.447c7.873,-0.143 14.673,-1.968 20.398,-5.475c5.869,-3.364 10.343,-7.086 13.42,-11.165c3.507,-4.151 6.012,-8.911 7.515,-14.279c1.432,-5.439 2.147,-13.241 2.147,-23.404c0,-6.585 -0.214,-12.131 -0.644,-16.641c-0.429,-4.437 -1.145,-8.195 -2.147,-11.272c-1.932,-5.654 -5.082,-10.629 -9.447,-14.923c-2.935,-3.221 -6.764,-5.94 -11.488,-8.159c-5.01,-2.004 -10.521,-3.078 -16.533,-3.221c-9.376,0 -17.714,2.863 -25.014,8.589l0,-35.428l62.267,0l0,-22.438l-83.417,0l0,84.598Z" style="fill:#fff;fill-rule:nonzero;"/></g><defs><radialGradient id="_Radial1" cx="0" cy="0" r="1" gradientUnits="userSpaceOnUse" gradientTransform="matrix(126.864,97.3356,-71.3658,95.5156,71.9734,96)"><stop offset="0%" style="stop-color:#fff;stop-opacity:1"/><stop offset="100%" style="stop-color:#dcdcdc;stop-opacity:1"/></radialGradient><linearGradient id="_Linear2" x1="0" y1="0" x2="1" y2="0" gradientUnits="userSpaceOnUse" gradientTransform="matrix(2.46125,89.2726,-93.7296,2.34421,72.9672,45.6127)"><stop offset="0%" style="stop-color:#e00000;stop-opacity:1"/><stop offset="100%" style="stop-color:#560000;stop-opacity:1"/></linearGradient><linearGradient id="_Linear3" x1="0" y1="0" x2="1" y2="0" gradientUnits="userSpaceOnUse" gradientTransform="matrix(2.46125,89.2726,-93.7296,2.34421,72.9672,45.6127)"><stop offset="0%" style="stop-color:#e00000;stop-opacity:1"/><stop offset="100%" style="stop-color:#560000;stop-opacity:1"/></linearGradient><linearGradient id="_Linear4" x1="0" y1="0" x2="1" y2="0" gradientUnits="userSpaceOnUse" gradientTransform="matrix(0.381581,14.342,-14.342,0.381581,16.3501,33.0472)"><stop offset="0%" style="stop-color:#e00000;stop-opacity:1"/><stop offset="100%" style="stop-color:#560000;stop-opacity:1"/></linearGradient><linearGradient id="_Linear5" x1="0" y1="0" x2="1" y2="0" gradientUnits="userSpaceOnUse" gradientTransform="matrix(0.381581,14.342,-14.342,0.381581,16.3501,33.0472)"><stop offset="0%" style="stop-color:#e00000;stop-opacity:1"/><stop offset="100%" style="stop-color:#560000;stop-opacity:1"/></linearGradient><linearGradient id="_Linear6" x1="0" y1="0" x2="1" y2="0" gradientUnits="userSpaceOnUse" gradientTransform="matrix(0.381581,-14.342,-14.342,-0.381581,127.71,159.281)"><stop offset="0%" style="stop-color:#e00000;stop-opacity:1"/><stop offset="100%" style="stop-color:#560000;stop-opacity:1"/></linearGradient><linearGradient id="_Linear7" x1="0" y1="0" x2="1" y2="0" gradientUnits="userSpaceOnUse" gradientTransform="matrix(0.381581,-14.342,-14.342,-0.381581,127.71,159.281)"><stop offset="0%" style="stop-color:#e00000;stop-opacity:1"/><stop offset="100%" style="stop-color:#560000;stop-opacity:1"/></linearGradient></defs></svg>