<?xml version="1.0" encoding="UTF-8" standalone="no"?><!DOCTYPE svg PUBLIC "-//W3C//DTD SVG 1.1//EN" "http://www.w3.org/Graphics/SVG/1.1/DTD/svg11.dtd"><svg width="100%" height="100%" viewBox="0 0 144 193" version="1.1" xmlns="http://www.w3.org/2000/svg" xmlns:xlink="http://www.w3.org/1999/xlink" xml:space="preserve" style="fill-rule:evenodd;clip-rule:evenodd;"><path id="Card-background" d="M143.967,10.046c0.018,-5.299 -4.269,-9.614 -9.568,-9.63l-124.799,-0.386c-5.298,-0.017 -9.615,4.272 -9.632,9.57l-0.583,172.799c-0.018,5.298 4.269,9.613 9.567,9.63l124.8,0.386c5.298,0.016 9.614,-4.272 9.632,-9.57l0.583,-172.799Z" style="fill:url(#_Radial1);stroke:#646464;stroke-width:0.22px;"/><g id="Hearts"><path id="path7647" d="M44.363,45.092c-7.165,-0.059 -14.434,3.653 -20.078,14.965c-16.247,32.564 48,78.956 47.619,95.833l0,0.374c0,0 0.156,-0.153 0.191,-0.187c0.034,0.033 0.19,0.187 0.19,0.187l0,-0.374c0,-14.413 63.866,-63.269 47.619,-95.833c-16.235,-32.541 -45.832,-2.277 -47.809,-0.199c-1.289,-1.354 -14.284,-14.656 -27.732,-14.766l0,0Z" style="fill:url(#_Linear2);stroke:url(#_Linear3);stroke-width:0.24px;"/><path id="path8171" d="M12.151,32.963c-1.139,-0.009 -2.295,0.574 -3.192,2.349c-2.584,5.11 7.631,12.39 7.571,15.038l0,0.059c0,0 0.024,-0.024 0.03,-0.03c0.005,0.006 0.03,0.03 0.03,0.03l0,-0.059c0,-2.262 10.154,-9.928 7.571,-15.038c-2.581,-5.107 -7.287,-0.357 -7.601,-0.031c-0.205,-0.213 -2.271,-2.3 -4.409,-2.318l0,0Z" style="fill:url(#_Linear4);stroke:url(#_Linear5);stroke-width:0.04px;"/><path id="path5021" d="M122.551,162.563c-1.139,-0.009 -2.295,0.574 -3.192,2.349c-2.584,5.11 7.631,12.39 7.571,15.038l0,0.059c0,0 0.024,-0.024 0.03,-0.03c0.005,0.006 0.03,0.03 0.03,0.03l0,-0.059c0,-2.262 10.154,-9.928 7.571,-15.038c-2.581,-5.107 -7.287,-0.357 -7.601,-0.031c-0.205,-0.213 -2.271,-2.3 -4.409,-2.318l0,0Z" style="fill:url(#_Linear6);stroke:url(#_Linear7);stroke-width:0.04px;"/></g><g id="Red-Numbers"><g opacity="0.94"><g id="text4292"><path d="M13.002,28.228l0,-1.89c0.932,0.422 1.819,0.633 2.662,0.633c0.926,0 1.653,-0.308 2.182,-0.923c0.53,-0.616 0.794,-1.465 0.794,-2.546c0,-2.385 -1.454,-3.577 -4.364,-3.577c-0.329,0 -0.675,0.025 -1.036,0.075l0,-7.735l7.121,0l0,1.848l-5.476,0l0,4.189c1.806,0 3.216,0.47 4.231,1.408c1.014,0.938 1.521,2.238 1.521,3.899c0,1.547 -0.461,2.759 -1.384,3.636c-0.922,0.878 -2.201,1.316 -3.836,1.316c-0.71,0 -1.515,-0.111 -2.415,-0.333Z" style="fill:#960000;fill-rule:nonzero;"/><path d="M123.257,157.951l0,-1.891c0.932,0.423 1.819,0.634 2.662,0.634c0.926,0 1.653,-0.308 2.182,-0.924c0.53,-0.616 0.794,-1.464 0.794,-2.546c0,-2.385 -1.454,-3.577 -4.364,-3.577c-0.329,0 -0.675,0.025 -1.036,0.075l0,-7.734l7.121,0l0,1.847l-5.476,0l0,4.19c1.806,0 3.216,0.469 4.231,1.407c1.014,0.938 1.521,2.238 1.521,3.9c0,1.546 -0.461,2.759 -1.384,3.636c-0.922,0.877 -2.201,1.316 -3.836,1.316c-0.71,0 -1.515,-0.111 -2.415,-0.333Z" style="fill:#960000;fill-rule:nonzero;"/></g></g></g><g id="text4596"><path d="M64.148,109.095l0,-3.712c2.067,0.83 4.036,1.244 5.906,1.244c2.053,0 3.667,-0.604 4.841,-1.814c1.174,-1.209 1.762,-2.875 1.762,-4.999c0,-4.683 -3.228,-7.024 -9.682,-7.024c-0.732,0 -1.498,0.049 -2.3,0.148l0,-15.188l15.8,0l0,3.628l-12.15,0l0,8.227c4.007,0 7.136,0.921 9.386,2.763c2.25,1.842 3.375,4.395 3.375,7.657c0,3.038 -1.023,5.418 -3.069,7.14c-2.046,1.723 -4.883,2.584 -8.511,2.584c-1.575,0 -3.361,-0.218 -5.358,-0.654Z" style="fill:url(#_Linear8);fill-rule:nonzero;"/></g><defs><radialGradient id="_Radial1" cx="0" cy="0" r="1" gradientUnits="userSpaceOnUse" gradientTransform="matrix(126.562,97.7279,-71.6611,95.2942,71.6758,96.2223)"><stop offset="0%" style="stop-color:#fff;stop-opacity:1"/><stop offset="100%" style="stop-color:#dcdcdc;stop-opacity:1"/></radialGradient><linearGradient id="_Linear2" x1="0" y1="0" x2="1" y2="0" gradientUnits="userSpaceOnUse" gradientTransform="matrix(2.39999,91.3969,-91.3969,2.39999,72.2852,45.6257)"><stop offset="0%" style="stop-color:#e00000;stop-opacity:1"/><stop offset="100%" style="stop-color:#560000;stop-opacity:1"/></linearGradient><linearGradient id="_Linear3" x1="0" y1="0" x2="1" y2="0" gradientUnits="userSpaceOnUse" gradientTransform="matrix(2.39999,91.3969,-91.3969,2.39999,72.2852,45.6257)"><stop offset="0%" style="stop-color:#e00000;stop-opacity:1"/><stop offset="100%" style="stop-color:#560000;stop-opacity:1"/></linearGradient><linearGradient id="_Linear4" x1="0" y1="0" x2="1" y2="0" gradientUnits="userSpaceOnUse" gradientTransform="matrix(0.381581,14.342,-14.342,0.381581,16.5901,33.0472)"><stop offset="0%" style="stop-color:#e00000;stop-opacity:1"/><stop offset="100%" style="stop-color:#560000;stop-opacity:1"/></linearGradient><linearGradient id="_Linear5" x1="0" y1="0" x2="1" y2="0" gradientUnits="userSpaceOnUse" gradientTransform="matrix(0.381581,14.342,-14.342,0.381581,16.5901,33.0472)"><stop offset="0%" style="stop-color:#e00000;stop-opacity:1"/><stop offset="100%" style="stop-color:#560000;stop-opacity:1"/></linearGradient><linearGradient id="_Linear6" x1="0" y1="0" x2="1" y2="0" gradientUnits="userSpaceOnUse" gradientTransform="matrix(0.381581,14.342,-14.342,0.381581,126.99,162.647)"><stop offset="0%" style="stop-color:#e00000;stop-opacity:1"/><stop offset="100%" style="stop-color:#560000;stop-opacity:1"/></linearGradient><linearGradient id="_Linear7" x1="0" y1="0" x2="1" y2="0" gradientUnits="userSpaceOnUse" gradientTransform="matrix(0.381581,14.342,-14.342,0.381581,126.99,162.647)"><stop offset="0%" style="stop-color:#e00000;stop-opacity:1"/><stop offset="100%" style="stop-color:#560000;stop-opacity:1"/></linearGradient><linearGradient id="_Linear8" x1="0" y1="0" x2="1" y2="0" gradientUnits="userSpaceOnUse" gradientTransform="matrix(0.0983952,31.9224,-31.9224,0.0983952,128.055,186.486)"><stop offset="0%" style="stop-color:#fff;stop-opacity:1"/><stop offset="100%" style="stop-color:#dcdcdc;stop-opacity:1"/></linearGradient></defs></svg>