<?xml version="1.0" encoding="UTF-8" standalone="no"?><!DOCTYPE svg PUBLIC "-//W3C//DTD SVG 1.1//EN" "http://www.w3.org/Graphics/SVG/1.1/DTD/svg11.dtd"><svg width="100%" height="100%" viewBox="0 0 144 193" version="1.1" xmlns="http://www.w3.org/2000/svg" xmlns:xlink="http://www.w3.org/1999/xlink" xml:space="preserve" style="fill-rule:evenodd;clip-rule:evenodd;"><path id="Card-background" d="M143.967,10.046c0.018,-5.299 -4.269,-9.614 -9.568,-9.63l-124.799,-0.386c-5.298,-0.017 -9.615,4.272 -9.632,9.57l-0.583,172.799c-0.018,5.298 4.269,9.613 9.567,9.63l124.8,0.386c5.298,0.016 9.614,-4.272 9.632,-9.57l0.583,-172.799Z" style="fill:url(#_Radial1);stroke:#646464;stroke-width:0.22px;"/><g id="Spades"><path id="path7857" d="M72.206,40.322c-12,33.6 -42.425,50.471 -42.879,70.08c0,26.4 28.813,23.808 38.079,11.52c4.8,12 -5.073,21.255 -9.6,28.8l28.8,0c-4.526,-7.545 -14.4,-16.8 -9.6,-28.8c9.267,12.288 38.08,14.88 38.08,-11.52c-0.454,-19.609 -30.88,-36.48 -42.88,-70.08Z" style="fill:url(#_Linear2);stroke:#000;stroke-width:0.24px;"/><path id="path7954" d="M16.429,31.082c-2.288,6.108 -8.091,9.175 -8.177,12.739c0,4.799 5.495,4.328 7.262,2.094c0.915,2.182 -0.968,3.864 -1.831,5.236l5.493,0c-0.864,-1.372 -2.747,-3.054 -1.831,-5.236c1.767,2.234 7.262,2.705 7.262,-2.094c-0.087,-3.564 -5.889,-6.631 -8.178,-12.739Z" style="fill:url(#_Linear3);stroke:#000;stroke-width:0.04px;"/><path id="path4963" d="M126.829,160.202c-2.288,6.108 -8.091,9.175 -8.177,12.739c0,4.799 5.495,4.328 7.262,2.094c0.915,2.182 -0.968,3.864 -1.831,5.236l5.493,0c-0.864,-1.372 -2.747,-3.054 -1.831,-5.236c1.767,2.234 7.262,2.705 7.262,-2.094c-0.087,-3.564 -5.889,-6.631 -8.178,-12.739l0,0Z" style="fill:url(#_Linear4);stroke:#000;stroke-width:0.04px;"/></g><g id="text4596"><path d="M64.148,109.815l0,-3.712c2.067,0.83 4.036,1.244 5.906,1.244c2.053,0 3.667,-0.604 4.841,-1.814c1.174,-1.209 1.762,-2.875 1.762,-4.999c0,-4.683 -3.228,-7.024 -9.682,-7.024c-0.732,0 -1.498,0.049 -2.3,0.148l0,-15.188l15.8,0l0,3.628l-12.15,0l0,8.227c4.007,0 7.136,0.921 9.386,2.763c2.25,1.842 3.375,4.395 3.375,7.657c0,3.038 -1.023,5.418 -3.069,7.14c-2.046,1.723 -4.883,2.584 -8.511,2.584c-1.575,0 -3.361,-0.218 -5.358,-0.654Z" style="fill:url(#_Linear5);fill-rule:nonzero;"/><path d="M12.253,27.283l0,-1.891c1.052,0.423 2.055,0.634 3.008,0.634c1.045,0 1.867,-0.308 2.465,-0.924c0.598,-0.616 0.897,-1.464 0.897,-2.546c0,-2.384 -1.644,-3.577 -4.931,-3.577c-0.372,0 -0.763,0.025 -1.171,0.075l0,-7.734l8.046,0l0,1.848l-6.187,0l0,4.189c2.041,0 3.634,0.469 4.78,1.407c1.146,0.938 1.719,2.238 1.719,3.9c0,1.547 -0.521,2.759 -1.563,3.636c-1.042,0.877 -2.487,1.316 -4.335,1.316c-0.802,0 -1.711,-0.111 -2.728,-0.333Z" style="fill-rule:nonzero;"/><path d="M122.151,155.777l0,-1.891c1.053,0.423 2.056,0.634 3.008,0.634c1.046,0 1.868,-0.308 2.466,-0.924c0.598,-0.616 0.897,-1.465 0.897,-2.546c0,-2.385 -1.644,-3.577 -4.931,-3.577c-0.372,0 -0.763,0.025 -1.171,0.075l0,-7.734l8.046,0l0,1.847l-6.188,0l0,4.19c2.041,0 3.635,0.469 4.781,1.407c1.146,0.938 1.718,2.238 1.718,3.899c0,1.547 -0.521,2.759 -1.563,3.637c-1.042,0.877 -2.486,1.316 -4.334,1.316c-0.802,0 -1.712,-0.111 -2.729,-0.333Z" style="fill-rule:nonzero;"/></g><defs><radialGradient id="_Radial1" cx="0" cy="0" r="1" gradientUnits="userSpaceOnUse" gradientTransform="matrix(126.562,97.7279,-71.6611,95.2942,71.6758,96.2223)"><stop offset="0%" style="stop-color:#fff;stop-opacity:1"/><stop offset="100%" style="stop-color:#dcdcdc;stop-opacity:1"/></radialGradient><linearGradient id="_Linear2" x1="0" y1="0" x2="1" y2="0" gradientUnits="userSpaceOnUse" gradientTransform="matrix(4.55569e-15,74.4,-74.4,4.55569e-15,72.2064,40.4417)"><stop offset="0%" style="stop-color:#737373;stop-opacity:1"/><stop offset="100%" style="stop-color:#000;stop-opacity:1"/></linearGradient><linearGradient id="_Linear3" x1="0" y1="0" x2="1" y2="0" gradientUnits="userSpaceOnUse" gradientTransform="matrix(8.28143e-16,13.5246,-13.5246,8.28143e-16,16.4293,31.1036)"><stop offset="0%" style="stop-color:#737373;stop-opacity:1"/><stop offset="100%" style="stop-color:#000;stop-opacity:1"/></linearGradient><linearGradient id="_Linear4" x1="0" y1="0" x2="1" y2="0" gradientUnits="userSpaceOnUse" gradientTransform="matrix(8.28143e-16,13.5246,-13.5246,8.28143e-16,126.829,160.224)"><stop offset="0%" style="stop-color:#737373;stop-opacity:1"/><stop offset="100%" style="stop-color:#000;stop-opacity:1"/></linearGradient><linearGradient id="_Linear5" x1="0" y1="0" x2="1" y2="0" gradientUnits="userSpaceOnUse" gradientTransform="matrix(0.0983952,31.9224,-31.9224,0.0983952,128.055,187.206)"><stop offset="0%" style="stop-color:#fff;stop-opacity:1"/><stop offset="100%" style="stop-color:#dcdcdc;stop-opacity:1"/></linearGradient></defs></svg>