<?xml version="1.0" encoding="UTF-8" standalone="no"?><!DOCTYPE svg PUBLIC "-//W3C//DTD SVG 1.1//EN" "http://www.w3.org/Graphics/SVG/1.1/DTD/svg11.dtd"><svg width="100%" height="100%" viewBox="0 0 144 193" version="1.1" xmlns="http://www.w3.org/2000/svg" xmlns:xlink="http://www.w3.org/1999/xlink" xml:space="preserve" style="fill-rule:evenodd;clip-rule:evenodd;"><path id="Card-background" d="M143.967,10.046c0.018,-5.299 -4.269,-9.614 -9.568,-9.63l-124.799,-0.386c-5.298,-0.017 -9.615,4.272 -9.632,9.57l-0.583,172.799c-0.018,5.298 4.269,9.613 9.567,9.63l124.8,0.386c5.298,0.016 9.614,-4.272 9.632,-9.57l0.583,-172.799Z" style="fill:url(#_Radial1);stroke:#646464;stroke-width:0.22px;"/><g id="Hearts"><path id="path7647" d="M44.363,45.092c-7.165,-0.059 -14.434,3.653 -20.078,14.965c-16.247,32.564 48,78.956 47.619,95.833l0,0.374c0,0 0.156,-0.153 0.191,-0.187c0.034,0.033 0.19,0.187 0.19,0.187l0,-0.374c0,-14.413 63.866,-63.269 47.619,-95.833c-16.235,-32.541 -45.832,-2.277 -47.809,-0.199c-1.289,-1.354 -14.284,-14.656 -27.732,-14.766l0,0Z" style="fill:url(#_Linear2);stroke:url(#_Linear3);stroke-width:0.24px;"/><path id="path8171" d="M12.151,32.963c-1.139,-0.009 -2.295,0.574 -3.192,2.349c-2.584,5.11 7.631,12.39 7.571,15.038l0,0.059c0,0 0.024,-0.024 0.03,-0.03c0.005,0.006 0.03,0.03 0.03,0.03l0,-0.059c0,-2.262 10.154,-9.928 7.571,-15.038c-2.581,-5.107 -7.287,-0.357 -7.601,-0.031c-0.205,-0.213 -2.271,-2.3 -4.409,-2.318l0,0Z" style="fill:url(#_Linear4);stroke:url(#_Linear5);stroke-width:0.04px;"/><path id="path5021" d="M122.551,162.563c-1.139,-0.009 -2.295,0.574 -3.192,2.349c-2.584,5.11 7.631,12.39 7.571,15.038l0,0.059c0,0 0.024,-0.024 0.03,-0.03c0.005,0.006 0.03,0.03 0.03,0.03l0,-0.059c0,-2.262 10.154,-9.928 7.571,-15.038c-2.581,-5.107 -7.287,-0.357 -7.601,-0.031c-0.205,-0.213 -2.271,-2.3 -4.409,-2.318l0,0Z" style="fill:url(#_Linear6);stroke:url(#_Linear7);stroke-width:0.04px;"/></g><g id="Red-Numbers"><g opacity="0.94"><g id="text4292"><path d="M13.981,19.925c0.894,-1.311 2.019,-1.966 3.376,-1.966c1.229,0 2.236,0.46 3.018,1.38c0.783,0.92 1.175,2.1 1.175,3.54c0,1.654 -0.439,3.015 -1.317,4.082c-0.878,1.067 -1.992,1.6 -3.342,1.6c-1.553,0 -2.767,-0.705 -3.642,-2.116c-0.874,-1.411 -1.312,-3.369 -1.312,-5.876c0,-2.757 0.503,-4.898 1.507,-6.424c1.005,-1.525 2.42,-2.288 4.245,-2.288c0.837,0 1.883,0.201 3.138,0.602l0,1.847c-1.325,-0.573 -2.409,-0.859 -3.252,-0.859c-2.396,0 -3.594,2.159 -3.594,6.478Zm5.686,3.426c0,-1.203 -0.239,-2.148 -0.718,-2.836c-0.478,-0.687 -1.142,-1.031 -1.992,-1.031c-0.792,0 -1.473,0.301 -2.044,0.902c-0.57,0.602 -0.856,1.325 -0.856,2.17c0,1.332 0.271,2.401 0.813,3.207c0.542,0.806 1.26,1.208 2.154,1.208c0.805,0 1.447,-0.327 1.925,-0.983c0.479,-0.655 0.718,-1.534 0.718,-2.637Z" style="fill:#960000;fill-rule:nonzero;"/><path d="M124.236,149.647c0.894,-1.311 2.019,-1.966 3.376,-1.966c1.229,0 2.236,0.46 3.018,1.381c0.783,0.92 1.175,2.1 1.175,3.539c0,1.654 -0.439,3.015 -1.317,4.082c-0.878,1.067 -1.992,1.601 -3.342,1.601c-1.553,0 -2.767,-0.706 -3.642,-2.116c-0.874,-1.411 -1.312,-3.37 -1.312,-5.876c0,-2.758 0.503,-4.899 1.507,-6.424c1.005,-1.526 2.42,-2.288 4.245,-2.288c0.837,0 1.883,0.2 3.138,0.601l0,1.848c-1.325,-0.573 -2.409,-0.86 -3.252,-0.86c-2.396,0 -3.594,2.16 -3.594,6.478Zm5.686,3.427c0,-1.203 -0.239,-2.149 -0.718,-2.836c-0.478,-0.688 -1.142,-1.031 -1.992,-1.031c-0.792,0 -1.473,0.3 -2.044,0.902c-0.57,0.601 -0.856,1.325 -0.856,2.17c0,1.332 0.271,2.401 0.813,3.206c0.542,0.806 1.26,1.209 2.154,1.209c0.805,0 1.447,-0.328 1.925,-0.983c0.479,-0.655 0.718,-1.534 0.718,-2.637Z" style="fill:#960000;fill-rule:nonzero;"/></g></g></g><g id="text4596"><path d="M66.321,92.79c1.982,-2.574 4.479,-3.86 7.488,-3.86c2.728,0 4.96,0.903 6.697,2.71c1.737,1.807 2.605,4.124 2.605,6.951c0,3.248 -0.974,5.92 -2.921,8.015c-1.948,2.096 -4.419,3.143 -7.415,3.143c-3.445,0 -6.138,-1.385 -8.079,-4.155c-1.94,-2.771 -2.911,-6.617 -2.911,-11.539c0,-5.414 1.115,-9.618 3.344,-12.614c2.229,-2.995 5.368,-4.493 9.418,-4.493c1.856,0 4.177,0.394 6.961,1.182l0,3.628c-2.939,-1.125 -5.344,-1.688 -7.214,-1.688c-5.316,0 -7.973,4.24 -7.973,12.72Zm12.614,6.729c0,-2.363 -0.531,-4.219 -1.593,-5.569c-1.062,-1.35 -2.535,-2.025 -4.419,-2.025c-1.758,0 -3.27,0.591 -4.535,1.772c-1.266,1.181 -1.899,2.601 -1.899,4.261c0,2.615 0.602,4.714 1.804,6.296c1.202,1.582 2.795,2.373 4.778,2.373c1.786,0 3.209,-0.643 4.271,-1.93c1.062,-1.286 1.593,-3.013 1.593,-5.178Z" style="fill:url(#_Linear8);fill-rule:nonzero;"/></g><defs><radialGradient id="_Radial1" cx="0" cy="0" r="1" gradientUnits="userSpaceOnUse" gradientTransform="matrix(126.562,97.7279,-71.6611,95.2942,71.6758,96.2223)"><stop offset="0%" style="stop-color:#fff;stop-opacity:1"/><stop offset="100%" style="stop-color:#dcdcdc;stop-opacity:1"/></radialGradient><linearGradient id="_Linear2" x1="0" y1="0" x2="1" y2="0" gradientUnits="userSpaceOnUse" gradientTransform="matrix(2.39999,91.3969,-91.3969,2.39999,72.2852,45.6257)"><stop offset="0%" style="stop-color:#e00000;stop-opacity:1"/><stop offset="100%" style="stop-color:#560000;stop-opacity:1"/></linearGradient><linearGradient id="_Linear3" x1="0" y1="0" x2="1" y2="0" gradientUnits="userSpaceOnUse" gradientTransform="matrix(2.39999,91.3969,-91.3969,2.39999,72.2852,45.6257)"><stop offset="0%" style="stop-color:#e00000;stop-opacity:1"/><stop offset="100%" style="stop-color:#560000;stop-opacity:1"/></linearGradient><linearGradient id="_Linear4" x1="0" y1="0" x2="1" y2="0" gradientUnits="userSpaceOnUse" gradientTransform="matrix(0.381581,14.342,-14.342,0.381581,16.5901,33.0472)"><stop offset="0%" style="stop-color:#e00000;stop-opacity:1"/><stop offset="100%" style="stop-color:#560000;stop-opacity:1"/></linearGradient><linearGradient id="_Linear5" x1="0" y1="0" x2="1" y2="0" gradientUnits="userSpaceOnUse" gradientTransform="matrix(0.381581,14.342,-14.342,0.381581,16.5901,33.0472)"><stop offset="0%" style="stop-color:#e00000;stop-opacity:1"/><stop offset="100%" style="stop-color:#560000;stop-opacity:1"/></linearGradient><linearGradient id="_Linear6" x1="0" y1="0" x2="1" y2="0" gradientUnits="userSpaceOnUse" gradientTransform="matrix(0.381581,14.342,-14.342,0.381581,126.99,162.647)"><stop offset="0%" style="stop-color:#e00000;stop-opacity:1"/><stop offset="100%" style="stop-color:#560000;stop-opacity:1"/></linearGradient><linearGradient id="_Linear7" x1="0" y1="0" x2="1" y2="0" gradientUnits="userSpaceOnUse" gradientTransform="matrix(0.381581,14.342,-14.342,0.381581,126.99,162.647)"><stop offset="0%" style="stop-color:#e00000;stop-opacity:1"/><stop offset="100%" style="stop-color:#560000;stop-opacity:1"/></linearGradient><linearGradient id="_Linear8" x1="0" y1="0" x2="1" y2="0" gradientUnits="userSpaceOnUse" gradientTransform="matrix(0.0983952,31.9224,-31.9224,0.0983952,128.055,186.486)"><stop offset="0%" style="stop-color:#fff;stop-opacity:1"/><stop offset="100%" style="stop-color:#dcdcdc;stop-opacity:1"/></linearGradient></defs></svg>