<?xml version="1.0" encoding="UTF-8" standalone="no"?><!DOCTYPE svg PUBLIC "-//W3C//DTD SVG 1.1//EN" "http://www.w3.org/Graphics/SVG/1.1/DTD/svg11.dtd"><svg width="100%" height="100%" viewBox="0 0 144 193" version="1.1" xmlns="http://www.w3.org/2000/svg" xmlns:xlink="http://www.w3.org/1999/xlink" xml:space="preserve" style="fill-rule:evenodd;clip-rule:evenodd;"><path id="Card-background" d="M143.967,10.046c0.018,-5.299 -4.269,-9.614 -9.568,-9.63l-124.799,-0.386c-5.298,-0.017 -9.615,4.272 -9.632,9.57l-0.583,172.799c-0.018,5.298 4.269,9.613 9.567,9.63l124.8,0.386c5.298,0.016 9.614,-4.272 9.632,-9.57l0.583,-172.799Z" style="fill:url(#_Radial1);stroke:#646464;stroke-width:0.22px;"/><g id="Spades"><path id="path7857" d="M72.206,40.322c-12,33.6 -42.425,50.471 -42.879,70.08c0,26.4 28.813,23.808 38.079,11.52c4.8,12 -5.073,21.255 -9.6,28.8l28.8,0c-4.526,-7.545 -14.4,-16.8 -9.6,-28.8c9.267,12.288 38.08,14.88 38.08,-11.52c-0.454,-19.609 -30.88,-36.48 -42.88,-70.08Z" style="fill:url(#_Linear2);stroke:#000;stroke-width:0.24px;"/><path id="path7954" d="M16.429,31.082c-2.288,6.108 -8.091,9.175 -8.177,12.739c0,4.799 5.495,4.328 7.262,2.094c0.915,2.182 -0.968,3.864 -1.831,5.236l5.493,0c-0.864,-1.372 -2.747,-3.054 -1.831,-5.236c1.767,2.234 7.262,2.705 7.262,-2.094c-0.087,-3.564 -5.889,-6.631 -8.178,-12.739Z" style="fill:url(#_Linear3);stroke:#000;stroke-width:0.04px;"/><path id="path4963" d="M126.829,160.202c-2.288,6.108 -8.091,9.175 -8.177,12.739c0,4.799 5.495,4.328 7.262,2.094c0.915,2.182 -0.968,3.864 -1.831,5.236l5.493,0c-0.864,-1.372 -2.747,-3.054 -1.831,-5.236c1.767,2.234 7.262,2.705 7.262,-2.094c-0.087,-3.564 -5.889,-6.631 -8.178,-12.739l0,0Z" style="fill:url(#_Linear4);stroke:#000;stroke-width:0.04px;"/></g><g id="text4596"><path d="M66.321,93.51c1.982,-2.574 4.479,-3.86 7.488,-3.86c2.728,0 4.96,0.903 6.697,2.71c1.737,1.807 2.605,4.124 2.605,6.951c0,3.248 -0.974,5.92 -2.921,8.015c-1.948,2.096 -4.419,3.143 -7.415,3.143c-3.445,0 -6.138,-1.385 -8.079,-4.155c-1.94,-2.771 -2.911,-6.617 -2.911,-11.539c0,-5.414 1.115,-9.618 3.344,-12.614c2.229,-2.995 5.368,-4.493 9.418,-4.493c1.856,0 4.177,0.394 6.961,1.182l0,3.628c-2.939,-1.125 -5.344,-1.688 -7.214,-1.688c-5.316,0 -7.973,4.24 -7.973,12.72Zm12.614,6.729c0,-2.363 -0.531,-4.219 -1.593,-5.569c-1.062,-1.35 -2.535,-2.025 -4.419,-2.025c-1.758,0 -3.27,0.591 -4.535,1.772c-1.266,1.181 -1.899,2.601 -1.899,4.261c0,2.615 0.602,4.714 1.804,6.296c1.202,1.582 2.795,2.373 4.778,2.373c1.786,0 3.209,-0.643 4.271,-1.93c1.062,-1.286 1.593,-3.013 1.593,-5.178Z" style="fill:url(#_Linear5);fill-rule:nonzero;"/><path d="M13.359,18.979c1.01,-1.31 2.281,-1.966 3.814,-1.966c1.389,0 2.526,0.46 3.41,1.381c0.885,0.92 1.327,2.1 1.327,3.539c0,1.655 -0.496,3.015 -1.488,4.082c-0.992,1.067 -2.25,1.601 -3.776,1.601c-1.754,0 -3.126,-0.706 -4.114,-2.116c-0.988,-1.411 -1.482,-3.37 -1.482,-5.876c0,-2.757 0.567,-4.899 1.702,-6.424c1.135,-1.526 2.734,-2.288 4.797,-2.288c0.945,0 2.127,0.2 3.545,0.601l0,1.848c-1.497,-0.573 -2.722,-0.859 -3.674,-0.859c-2.707,0 -4.061,2.159 -4.061,6.477Zm6.424,3.427c0,-1.203 -0.27,-2.149 -0.811,-2.836c-0.541,-0.688 -1.291,-1.031 -2.251,-1.031c-0.895,0 -1.665,0.301 -2.309,0.902c-0.645,0.602 -0.967,1.325 -0.967,2.17c0,1.332 0.306,2.401 0.919,3.207c0.612,0.805 1.423,1.208 2.433,1.208c0.909,0 1.634,-0.328 2.175,-0.983c0.541,-0.655 0.811,-1.534 0.811,-2.637Z" style="fill-rule:nonzero;"/><path d="M123.258,147.473c1.01,-1.311 2.281,-1.966 3.813,-1.966c1.39,0 2.527,0.46 3.411,1.38c0.884,0.921 1.327,2.101 1.327,3.54c0,1.654 -0.496,3.015 -1.488,4.082c-0.992,1.067 -2.251,1.601 -3.776,1.601c-1.755,0 -3.126,-0.706 -4.114,-2.117c-0.989,-1.41 -1.483,-3.369 -1.483,-5.876c0,-2.757 0.568,-4.898 1.703,-6.423c1.135,-1.526 2.734,-2.288 4.796,-2.288c0.946,0 2.127,0.2 3.545,0.601l0,1.848c-1.496,-0.573 -2.721,-0.86 -3.674,-0.86c-2.707,0 -4.06,2.16 -4.06,6.478Zm6.424,3.427c0,-1.203 -0.271,-2.149 -0.811,-2.836c-0.541,-0.688 -1.291,-1.032 -2.251,-1.032c-0.895,0 -1.665,0.301 -2.309,0.903c-0.645,0.601 -0.967,1.325 -0.967,2.17c0,1.332 0.306,2.401 0.918,3.206c0.613,0.806 1.424,1.209 2.433,1.209c0.91,0 1.635,-0.328 2.176,-0.983c0.54,-0.655 0.811,-1.534 0.811,-2.637Z" style="fill-rule:nonzero;"/></g><defs><radialGradient id="_Radial1" cx="0" cy="0" r="1" gradientUnits="userSpaceOnUse" gradientTransform="matrix(126.562,97.7279,-71.6611,95.2942,71.6758,96.2223)"><stop offset="0%" style="stop-color:#fff;stop-opacity:1"/><stop offset="100%" style="stop-color:#dcdcdc;stop-opacity:1"/></radialGradient><linearGradient id="_Linear2" x1="0" y1="0" x2="1" y2="0" gradientUnits="userSpaceOnUse" gradientTransform="matrix(4.55569e-15,74.4,-74.4,4.55569e-15,72.2064,40.4417)"><stop offset="0%" style="stop-color:#737373;stop-opacity:1"/><stop offset="100%" style="stop-color:#000;stop-opacity:1"/></linearGradient><linearGradient id="_Linear3" x1="0" y1="0" x2="1" y2="0" gradientUnits="userSpaceOnUse" gradientTransform="matrix(8.28143e-16,13.5246,-13.5246,8.28143e-16,16.4293,31.1036)"><stop offset="0%" style="stop-color:#737373;stop-opacity:1"/><stop offset="100%" style="stop-color:#000;stop-opacity:1"/></linearGradient><linearGradient id="_Linear4" x1="0" y1="0" x2="1" y2="0" gradientUnits="userSpaceOnUse" gradientTransform="matrix(8.28143e-16,13.5246,-13.5246,8.28143e-16,126.829,160.224)"><stop offset="0%" style="stop-color:#737373;stop-opacity:1"/><stop offset="100%" style="stop-color:#000;stop-opacity:1"/></linearGradient><linearGradient id="_Linear5" x1="0" y1="0" x2="1" y2="0" gradientUnits="userSpaceOnUse" gradientTransform="matrix(0.0983952,31.9224,-31.9224,0.0983952,128.055,187.206)"><stop offset="0%" style="stop-color:#fff;stop-opacity:1"/><stop offset="100%" style="stop-color:#dcdcdc;stop-opacity:1"/></linearGradient></defs></svg>