<?xml version="1.0" encoding="UTF-8" standalone="no"?><!DOCTYPE svg PUBLIC "-//W3C//DTD SVG 1.1//EN" "http://www.w3.org/Graphics/SVG/1.1/DTD/svg11.dtd"><svg width="100%" height="100%" viewBox="0 0 144 193" version="1.1" xmlns="http://www.w3.org/2000/svg" xmlns:xlink="http://www.w3.org/1999/xlink" xml:space="preserve" style="fill-rule:evenodd;clip-rule:evenodd;"><path id="Card-background" d="M143.997,9.6c0.002,-5.298 -4.272,-9.6 -9.538,-9.6l-124.918,0c-5.266,0 -9.542,4.302 -9.544,9.6l-0.048,172.8c-0.001,5.298 4.273,9.6 9.539,9.6l124.917,0c5.266,0 9.543,-4.302 9.544,-9.6l0.048,-172.8Z" style="fill:url(#_Radial1);stroke:#646464;stroke-width:0.22px;"/><g id="Spades"><path id="path7857" d="M72.206,40.322c-12,33.6 -42.425,50.471 -42.879,70.08c0,26.4 28.813,23.808 38.079,11.52c4.8,12 -5.073,21.255 -9.6,28.8l28.8,0c-4.526,-7.545 -14.4,-16.8 -9.6,-28.8c9.267,12.288 38.08,14.88 38.08,-11.52c-0.454,-19.609 -30.88,-36.48 -42.88,-70.08Z" style="fill:url(#_Linear2);stroke:#000;stroke-width:0.24px;"/><path id="path7954" d="M16.338,31.082c-2.289,6.108 -8.091,9.175 -8.178,12.739c0,4.799 5.495,4.328 7.262,2.094c0.916,2.182 -0.967,3.864 -1.831,5.236l5.493,0c-0.863,-1.372 -2.746,-3.054 -1.831,-5.236c1.767,2.234 7.262,2.705 7.262,-2.094c-0.086,-3.564 -5.889,-6.631 -8.177,-12.739Z" style="fill:url(#_Linear3);stroke:#000;stroke-width:0.04px;"/><path id="path4963" d="M127.789,161.791c-2.288,-6.108 -8.091,-9.175 -8.177,-12.74c0,-4.799 5.495,-4.328 7.262,-2.094c0.915,-2.181 -0.968,-3.864 -1.831,-5.235l5.493,0c-0.864,1.371 -2.747,3.054 -1.831,5.235c1.767,-2.234 7.262,-2.705 7.262,2.094c-0.087,3.565 -5.889,6.632 -8.178,12.74l0,0Z" style="fill:url(#_Linear4);stroke:#000;stroke-width:0.04px;"/></g><g id="Black-Text"><path d="M12.608,16.317l2.041,0l0,-2.06l3.779,0l-4.814,12.197l2.275,0l4.824,-12.197l0,-2.041l-8.105,0l0,4.101Z" style="fill:#010101;fill-rule:nonzero;"/><path d="M131.759,175.584l-2.041,0l0,2.061l-3.78,0l4.815,-12.198l-2.275,0l-4.825,12.198l0,2.041l8.106,0l0,-4.102Z" style="fill:#030303;fill-rule:nonzero;"/></g><g id="Center-Text" transform="matrix(0.233905,0,0,0.218311,72.0368,112.825)"><path d="M-41.601,-111.438l22.438,0l0,-22.652l41.547,0l-52.927,134.09l25.014,0l53.035,-134.09l0,-22.438l-89.107,0l0,45.09Z" style="fill:none;"/><path d="M-41.601,-111.438l22.438,0l0,-22.652l41.547,0l-52.927,134.09l25.014,0l53.035,-134.09l0,-22.438l-89.107,0l0,45.09Z" style="fill:#fff;fill-rule:nonzero;"/></g><defs><radialGradient id="_Radial1" cx="0" cy="0" r="1" gradientUnits="userSpaceOnUse" gradientTransform="matrix(126.864,97.3356,-71.3658,95.5156,71.9734,96)"><stop offset="0%" style="stop-color:#fff;stop-opacity:1"/><stop offset="100%" style="stop-color:#dcdcdc;stop-opacity:1"/></radialGradient><linearGradient id="_Linear2" x1="0" y1="0" x2="1" y2="0" gradientUnits="userSpaceOnUse" gradientTransform="matrix(4.55569e-15,74.4,-74.4,4.55569e-15,72.2064,40.4417)"><stop offset="0%" style="stop-color:#737373;stop-opacity:1"/><stop offset="100%" style="stop-color:#000;stop-opacity:1"/></linearGradient><linearGradient id="_Linear3" x1="0" y1="0" x2="1" y2="0" gradientUnits="userSpaceOnUse" gradientTransform="matrix(8.28143e-16,13.5246,-13.5246,8.28143e-16,16.3377,31.1036)"><stop offset="0%" style="stop-color:#737373;stop-opacity:1"/><stop offset="100%" style="stop-color:#000;stop-opacity:1"/></linearGradient><linearGradient id="_Linear4" x1="0" y1="0" x2="1" y2="0" gradientUnits="userSpaceOnUse" gradientTransform="matrix(-0.0780731,9.14317,-9.14317,-0.0780731,127.93,141.645)"><stop offset="0%" style="stop-color:#737373;stop-opacity:1"/><stop offset="100%" style="stop-color:#000;stop-opacity:1"/></linearGradient></defs></svg>