<?xml version="1.0" encoding="UTF-8" standalone="no"?><!DOCTYPE svg PUBLIC "-//W3C//DTD SVG 1.1//EN" "http://www.w3.org/Graphics/SVG/1.1/DTD/svg11.dtd"><svg width="100%" height="100%" viewBox="0 0 144 193" version="1.1" xmlns="http://www.w3.org/2000/svg" xmlns:xlink="http://www.w3.org/1999/xlink" xml:space="preserve" style="fill-rule:evenodd;clip-rule:evenodd;"><path id="Card-background" d="M143.967,10.046c0.018,-5.299 -4.269,-9.614 -9.568,-9.63l-124.799,-0.386c-5.298,-0.017 -9.615,4.272 -9.632,9.57l-0.583,172.799c-0.018,5.298 4.269,9.613 9.567,9.63l124.8,0.386c5.298,0.016 9.614,-4.272 9.632,-9.57l0.583,-172.799Z" style="fill:url(#_Radial1);stroke:#646464;stroke-width:0.22px;"/><g id="Clubs"><path id="path7930" d="M72.995,40.95c-14.746,0 -26.88,11.538 -26.88,25.56c0,0 0,0 0,0c0.012,6.15 2.358,12.095 6.605,16.734c-1.232,-0.186 -2.477,-0.284 -3.725,-0.294c-13.825,0 -25.2,10.833 -25.2,24c0,13.166 11.375,24 25.2,24c7.316,-0.006 14.279,-3.045 19.059,-8.32c3.954,11.554 -5.529,20.529 -9.939,27.88l28.8,0c-4.437,-7.395 -14.006,-16.432 -9.868,-28.086c4.778,5.394 11.818,8.516 19.228,8.526c13.824,0 25.2,-10.834 25.2,-24c0,-13.167 -11.376,-24 -25.2,-24c-0.963,0.009 -1.923,0.072 -2.878,0.186c4.175,-4.628 6.474,-10.528 6.478,-16.626c0,0 0,0 0,0c0,-14.022 -12.134,-25.56 -26.88,-25.56l0,0Z" style="fill:url(#_Linear2);stroke:#000;stroke-width:0.24px;"/><path id="path7975" d="M16.982,31.272c-2.53,0 -4.612,2.056 -4.612,4.554c0.002,1.096 0.405,2.155 1.133,2.981c-0.211,-0.033 -0.425,-0.051 -0.639,-0.052c-2.371,0 -4.323,1.93 -4.323,4.275c0,0 0,0 0,0c0,2.346 1.952,4.276 4.323,4.276c0,0 0,0 0,0c1.255,-0.001 2.45,-0.543 3.27,-1.482c0.678,2.058 -0.948,3.657 -1.705,4.966l4.941,0c-0.761,-1.317 -2.403,-2.927 -1.693,-5.003c0.82,0.961 2.027,1.517 3.299,1.519c0,0 0,0 0,0c2.371,0 4.323,-1.93 4.323,-4.276c0,0 0,0 0,0c0,-2.345 -1.952,-4.275 -4.323,-4.275c-0.165,0.001 -0.33,0.012 -0.494,0.033c0.716,-0.825 1.111,-1.876 1.111,-2.962c0,-2.498 -2.081,-4.554 -4.611,-4.554l0,0Z" style="fill:url(#_Linear3);stroke:#000;stroke-width:0.04px;"/><path id="path4821" d="M126.902,160.872c-2.53,0 -4.612,2.056 -4.612,4.554c0.002,1.096 0.405,2.155 1.133,2.981c-0.211,-0.033 -0.425,-0.051 -0.639,-0.052c-2.371,0 -4.323,1.93 -4.323,4.275c0,0 0,0 0,0c0,2.346 1.952,4.276 4.323,4.276c0,0 0,0 0,0c1.255,-0.001 2.45,-0.543 3.27,-1.482c0.678,2.058 -0.948,3.657 -1.705,4.966l4.941,0c-0.761,-1.317 -2.403,-2.927 -1.693,-5.003c0.82,0.961 2.027,1.517 3.299,1.519c0,0 0,0 0,0c2.371,0 4.323,-1.93 4.323,-4.276c0,0 0,0 0,0c0,-2.345 -1.952,-4.275 -4.323,-4.275c-0.165,0.001 -0.33,0.012 -0.494,0.033c0.716,-0.825 1.111,-1.876 1.111,-2.962c0,-2.498 -2.081,-4.554 -4.611,-4.554l0,0Z" style="fill:url(#_Linear4);stroke:#000;stroke-width:0.04px;"/></g><g id="text4596"><path d="M68.829,94.607c-3.052,-2.123 -4.577,-4.472 -4.577,-7.045c0,-2.363 0.864,-4.282 2.594,-5.759c1.73,-1.476 3.987,-2.215 6.771,-2.215c2.574,0 4.658,0.626 6.254,1.878c1.597,1.251 2.395,2.876 2.395,4.872c0,3.024 -1.941,5.78 -5.822,8.269c4.711,2.306 7.066,5.281 7.066,8.923c0,2.615 -0.988,4.746 -2.964,6.391c-1.975,1.646 -4.524,2.468 -7.646,2.468c-3.066,0 -5.544,-0.777 -7.436,-2.331c-1.891,-1.554 -2.837,-3.596 -2.837,-6.127c0,-3.741 2.068,-6.849 6.202,-9.324Zm5.294,-1.308c2.911,-1.912 4.367,-4.043 4.367,-6.391c0,-1.252 -0.485,-2.261 -1.456,-3.027c-0.97,-0.766 -2.25,-1.15 -3.839,-1.15c-1.532,0 -2.777,0.377 -3.733,1.129c-0.957,0.752 -1.435,1.726 -1.435,2.921c0,1.168 0.433,2.212 1.298,3.133c0.864,0.921 2.464,2.049 4.798,3.385Zm-3.037,2.996c-1.673,1.293 -2.809,2.422 -3.407,3.385c-0.597,0.964 -0.896,2.162 -0.896,3.597c0,1.786 0.576,3.231 1.73,4.334c1.153,1.104 2.671,1.656 4.556,1.656c1.814,0 3.294,-0.471 4.44,-1.413c1.146,-0.942 1.719,-2.166 1.719,-3.67c0,-1.21 -0.355,-2.233 -1.065,-3.069c-0.71,-0.837 -2.085,-1.86 -4.124,-3.07l-2.953,-1.75Z" style="fill:url(#_Linear5);fill-rule:nonzero;"/><path d="M14.637,18.08c-1.554,-1.081 -2.331,-2.277 -2.331,-3.588c0,-1.203 0.441,-2.18 1.322,-2.932c0.881,-0.752 2.03,-1.128 3.448,-1.128c1.311,0 2.372,0.318 3.185,0.956c0.813,0.637 1.219,1.464 1.219,2.481c0,1.54 -0.988,2.944 -2.965,4.211c2.399,1.175 3.599,2.689 3.599,4.544c0,1.332 -0.503,2.417 -1.509,3.255c-1.006,0.838 -2.304,1.257 -3.894,1.257c-1.561,0 -2.824,-0.396 -3.787,-1.187c-0.963,-0.791 -1.445,-1.832 -1.445,-3.121c0,-1.905 1.053,-3.487 3.158,-4.748Zm2.697,-0.666c1.482,-0.974 2.223,-2.059 2.223,-3.255c0,-0.637 -0.247,-1.151 -0.741,-1.541c-0.494,-0.39 -1.146,-0.586 -1.955,-0.586c-0.78,0 -1.414,0.192 -1.901,0.575c-0.487,0.383 -0.731,0.879 -0.731,1.488c0,0.594 0.22,1.126 0.661,1.595c0.44,0.469 1.255,1.044 2.444,1.724Zm-1.547,1.526c-0.852,0.658 -1.431,1.233 -1.735,1.724c-0.304,0.49 -0.457,1.101 -0.457,1.831c0,0.91 0.294,1.646 0.881,2.208c0.588,0.562 1.361,0.843 2.321,0.843c0.923,0 1.677,-0.24 2.261,-0.72c0.584,-0.48 0.875,-1.103 0.875,-1.869c0,-0.616 -0.18,-1.137 -0.542,-1.563c-0.362,-0.426 -1.062,-0.947 -2.1,-1.563l-1.504,-0.891Z" style="fill-rule:nonzero;"/><path d="M124.776,147.534c-1.554,-1.081 -2.331,-2.277 -2.331,-3.588c0,-1.203 0.441,-2.181 1.321,-2.933c0.881,-0.751 2.031,-1.127 3.449,-1.127c1.31,0 2.372,0.318 3.185,0.956c0.813,0.637 1.219,1.464 1.219,2.481c0,1.54 -0.988,2.943 -2.965,4.211c2.399,1.174 3.599,2.689 3.599,4.544c0,1.332 -0.503,2.417 -1.509,3.255c-1.007,0.838 -2.305,1.257 -3.895,1.257c-1.561,0 -2.823,-0.396 -3.786,-1.187c-0.963,-0.792 -1.445,-1.832 -1.445,-3.121c0,-1.905 1.053,-3.488 3.158,-4.748Zm2.697,-0.666c1.482,-0.974 2.223,-2.059 2.223,-3.255c0,-0.637 -0.247,-1.151 -0.741,-1.541c-0.494,-0.391 -1.146,-0.586 -1.955,-0.586c-0.781,0 -1.415,0.192 -1.902,0.575c-0.486,0.383 -0.73,0.879 -0.73,1.488c0,0.594 0.22,1.126 0.661,1.595c0.44,0.469 1.255,1.044 2.444,1.724Zm-1.547,1.525c-0.853,0.659 -1.431,1.234 -1.735,1.724c-0.305,0.491 -0.457,1.102 -0.457,1.832c0,0.91 0.294,1.645 0.881,2.208c0.587,0.562 1.361,0.843 2.32,0.843c0.924,0 1.678,-0.24 2.262,-0.72c0.583,-0.48 0.875,-1.103 0.875,-1.869c0,-0.616 -0.181,-1.137 -0.542,-1.563c-0.362,-0.426 -1.062,-0.947 -2.1,-1.563l-1.504,-0.892Z" style="fill-rule:nonzero;"/></g><defs><radialGradient id="_Radial1" cx="0" cy="0" r="1" gradientUnits="userSpaceOnUse" gradientTransform="matrix(126.562,97.7279,-71.6611,95.2942,71.6758,96.2223)"><stop offset="0%" style="stop-color:#fff;stop-opacity:1"/><stop offset="100%" style="stop-color:#dcdcdc;stop-opacity:1"/></radialGradient><linearGradient id="_Linear2" x1="0" y1="0" x2="1" y2="0" gradientUnits="userSpaceOnUse" gradientTransform="matrix(-0.96,74.4,-74.4,-0.96,73.4748,40.2296)"><stop offset="0%" style="stop-color:#737373;stop-opacity:1"/><stop offset="100%" style="stop-color:#000;stop-opacity:1"/></linearGradient><linearGradient id="_Linear3" x1="0" y1="0" x2="1" y2="0" gradientUnits="userSpaceOnUse" gradientTransform="matrix(-0.164698,13.2543,-13.2543,-0.164698,17.0641,31.1441)"><stop offset="0%" style="stop-color:#737373;stop-opacity:1"/><stop offset="100%" style="stop-color:#000;stop-opacity:1"/></linearGradient><linearGradient id="_Linear4" x1="0" y1="0" x2="1" y2="0" gradientUnits="userSpaceOnUse" gradientTransform="matrix(-0.164698,13.2543,-13.2543,-0.164698,126.984,160.744)"><stop offset="0%" style="stop-color:#737373;stop-opacity:1"/><stop offset="100%" style="stop-color:#000;stop-opacity:1"/></linearGradient><linearGradient id="_Linear5" x1="0" y1="0" x2="1" y2="0" gradientUnits="userSpaceOnUse" gradientTransform="matrix(0.0983952,31.9224,-31.9224,0.0983952,131.175,189.126)"><stop offset="0%" style="stop-color:#fff;stop-opacity:1"/><stop offset="100%" style="stop-color:#dcdcdc;stop-opacity:1"/></linearGradient></defs></svg>