<?xml version="1.0" encoding="UTF-8" standalone="no"?><!DOCTYPE svg PUBLIC "-//W3C//DTD SVG 1.1//EN" "http://www.w3.org/Graphics/SVG/1.1/DTD/svg11.dtd"><svg width="100%" height="100%" viewBox="0 0 144 193" version="1.1" xmlns="http://www.w3.org/2000/svg" xmlns:xlink="http://www.w3.org/1999/xlink" xml:space="preserve" style="fill-rule:evenodd;clip-rule:evenodd;"><path id="Card-background" d="M143.967,10.046c0.018,-5.299 -4.269,-9.614 -9.568,-9.63l-124.799,-0.386c-5.298,-0.017 -9.615,4.272 -9.632,9.57l-0.583,172.799c-0.018,5.298 4.269,9.613 9.567,9.63l124.8,0.386c5.298,0.016 9.614,-4.272 9.632,-9.57l0.583,-172.799Z" style="fill:url(#_Radial1);stroke:#646464;stroke-width:0.22px;"/><g id="Hearts"><path id="path7647" d="M44.363,45.092c-7.165,-0.059 -14.434,3.653 -20.078,14.965c-16.247,32.564 48,78.956 47.619,95.833l0,0.374c0,0 0.156,-0.153 0.191,-0.187c0.034,0.033 0.19,0.187 0.19,0.187l0,-0.374c0,-14.413 63.866,-63.269 47.619,-95.833c-16.235,-32.541 -45.832,-2.277 -47.809,-0.199c-1.289,-1.354 -14.284,-14.656 -27.732,-14.766l0,0Z" style="fill:url(#_Linear2);stroke:url(#_Linear3);stroke-width:0.24px;"/><path id="path8171" d="M12.151,32.963c-1.139,-0.009 -2.295,0.574 -3.192,2.349c-2.584,5.11 7.631,12.39 7.571,15.038l0,0.059c0,0 0.024,-0.024 0.03,-0.03c0.005,0.006 0.03,0.03 0.03,0.03l0,-0.059c0,-2.262 10.154,-9.928 7.571,-15.038c-2.581,-5.107 -7.287,-0.357 -7.601,-0.031c-0.205,-0.213 -2.271,-2.3 -4.409,-2.318l0,0Z" style="fill:url(#_Linear4);stroke:url(#_Linear5);stroke-width:0.04px;"/><path id="path5021" d="M122.551,162.563c-1.139,-0.009 -2.295,0.574 -3.192,2.349c-2.584,5.11 7.631,12.39 7.571,15.038l0,0.059c0,0 0.024,-0.024 0.03,-0.03c0.005,0.006 0.03,0.03 0.03,0.03l0,-0.059c0,-2.262 10.154,-9.928 7.571,-15.038c-2.581,-5.107 -7.287,-0.357 -7.601,-0.031c-0.205,-0.213 -2.271,-2.3 -4.409,-2.318l0,0Z" style="fill:url(#_Linear6);stroke:url(#_Linear7);stroke-width:0.04px;"/></g><g id="Red-Numbers"><g opacity="0.94"><g id="text4292"><path d="M15.113,19.506c-1.376,-1.082 -2.063,-2.278 -2.063,-3.588c0,-1.203 0.389,-2.181 1.169,-2.933c0.78,-0.752 1.797,-1.128 3.052,-1.128c1.16,0 2.1,0.319 2.819,0.956c0.72,0.638 1.079,1.465 1.079,2.482c0,1.539 -0.874,2.943 -2.624,4.211c2.124,1.174 3.185,2.689 3.185,4.544c0,1.332 -0.445,2.416 -1.336,3.254c-0.89,0.838 -2.039,1.257 -3.446,1.257c-1.382,0 -2.499,-0.395 -3.352,-1.187c-0.852,-0.791 -1.278,-1.831 -1.278,-3.12c0,-1.905 0.931,-3.488 2.795,-4.748Zm2.386,-0.666c1.312,-0.974 1.968,-2.059 1.968,-3.255c0,-0.638 -0.218,-1.152 -0.656,-1.542c-0.437,-0.39 -1.014,-0.585 -1.73,-0.585c-0.691,0 -1.252,0.191 -1.683,0.574c-0.431,0.384 -0.646,0.879 -0.646,1.488c0,0.595 0.194,1.126 0.584,1.595c0.39,0.469 1.111,1.044 2.163,1.725Zm-1.369,1.525c-0.754,0.659 -1.266,1.233 -1.535,1.724c-0.27,0.491 -0.404,1.101 -0.404,1.832c0,0.909 0.259,1.645 0.779,2.207c0.52,0.562 1.205,0.843 2.054,0.843c0.818,0 1.485,-0.24 2.001,-0.719c0.517,-0.48 0.775,-1.103 0.775,-1.869c0,-0.616 -0.16,-1.137 -0.48,-1.563c-0.32,-0.427 -0.94,-0.948 -1.859,-1.563l-1.331,-0.892Z" style="fill:#960000;fill-rule:nonzero;"/><path d="M125.368,149.228c-1.376,-1.081 -2.063,-2.277 -2.063,-3.588c0,-1.203 0.389,-2.18 1.169,-2.932c0.78,-0.752 1.797,-1.128 3.052,-1.128c1.16,0 2.1,0.318 2.819,0.956c0.72,0.637 1.079,1.464 1.079,2.481c0,1.54 -0.874,2.943 -2.624,4.211c2.124,1.175 3.185,2.689 3.185,4.544c0,1.332 -0.445,2.417 -1.336,3.255c-0.89,0.838 -2.039,1.257 -3.446,1.257c-1.382,0 -2.499,-0.396 -3.352,-1.187c-0.852,-0.792 -1.278,-1.832 -1.278,-3.121c0,-1.905 0.931,-3.488 2.795,-4.748Zm2.386,-0.666c1.312,-0.974 1.968,-2.059 1.968,-3.255c0,-0.637 -0.218,-1.151 -0.656,-1.541c-0.437,-0.391 -1.014,-0.586 -1.73,-0.586c-0.691,0 -1.252,0.192 -1.683,0.575c-0.431,0.383 -0.646,0.879 -0.646,1.488c0,0.594 0.194,1.126 0.584,1.595c0.39,0.469 1.111,1.044 2.163,1.724Zm-1.369,1.525c-0.754,0.659 -1.266,1.234 -1.535,1.725c-0.27,0.49 -0.404,1.101 -0.404,1.831c0,0.91 0.259,1.645 0.779,2.208c0.52,0.562 1.205,0.843 2.054,0.843c0.818,0 1.485,-0.24 2.001,-0.72c0.517,-0.48 0.775,-1.103 0.775,-1.869c0,-0.616 -0.16,-1.137 -0.48,-1.563c-0.32,-0.426 -0.94,-0.947 -1.859,-1.563l-1.331,-0.892Z" style="fill:#960000;fill-rule:nonzero;"/></g></g></g><g id="text4596"><path d="M68.831,91.967c-3.052,-2.123 -4.578,-4.472 -4.578,-7.045c0,-2.363 0.865,-4.282 2.595,-5.759c1.73,-1.476 3.987,-2.215 6.771,-2.215c2.574,0 4.658,0.626 6.254,1.878c1.596,1.251 2.395,2.876 2.395,4.872c0,3.024 -1.941,5.78 -5.822,8.269c4.711,2.306 7.066,5.281 7.066,8.923c0,2.615 -0.988,4.746 -2.964,6.391c-1.975,1.646 -4.524,2.468 -7.646,2.468c-3.066,0 -5.544,-0.777 -7.436,-2.331c-1.891,-1.554 -2.837,-3.596 -2.837,-6.127c0,-3.741 2.067,-6.849 6.202,-9.324Zm5.294,-1.308c2.911,-1.912 4.367,-4.043 4.367,-6.391c0,-1.252 -0.485,-2.261 -1.456,-3.027c-0.97,-0.766 -2.25,-1.15 -3.839,-1.15c-1.533,0 -2.777,0.377 -3.733,1.129c-0.957,0.752 -1.435,1.726 -1.435,2.921c0,1.168 0.433,2.212 1.297,3.133c0.865,0.921 2.465,2.049 4.799,3.385Zm-3.037,2.996c-1.674,1.293 -2.809,2.422 -3.407,3.385c-0.597,0.964 -0.896,2.162 -0.896,3.597c0,1.786 0.576,3.231 1.729,4.334c1.154,1.104 2.672,1.656 4.557,1.656c1.814,0 3.294,-0.471 4.44,-1.413c1.146,-0.942 1.719,-2.166 1.719,-3.67c0,-1.21 -0.355,-2.233 -1.065,-3.069c-0.71,-0.837 -2.085,-1.86 -4.124,-3.07l-2.953,-1.75Z" style="fill:url(#_Linear8);fill-rule:nonzero;"/></g><defs><radialGradient id="_Radial1" cx="0" cy="0" r="1" gradientUnits="userSpaceOnUse" gradientTransform="matrix(126.562,97.7279,-71.6611,95.2942,71.6758,96.2223)"><stop offset="0%" style="stop-color:#fff;stop-opacity:1"/><stop offset="100%" style="stop-color:#dcdcdc;stop-opacity:1"/></radialGradient><linearGradient id="_Linear2" x1="0" y1="0" x2="1" y2="0" gradientUnits="userSpaceOnUse" gradientTransform="matrix(2.39999,91.3969,-91.3969,2.39999,72.2852,45.6257)"><stop offset="0%" style="stop-color:#e00000;stop-opacity:1"/><stop offset="100%" style="stop-color:#560000;stop-opacity:1"/></linearGradient><linearGradient id="_Linear3" x1="0" y1="0" x2="1" y2="0" gradientUnits="userSpaceOnUse" gradientTransform="matrix(2.39999,91.3969,-91.3969,2.39999,72.2852,45.6257)"><stop offset="0%" style="stop-color:#e00000;stop-opacity:1"/><stop offset="100%" style="stop-color:#560000;stop-opacity:1"/></linearGradient><linearGradient id="_Linear4" x1="0" y1="0" x2="1" y2="0" gradientUnits="userSpaceOnUse" gradientTransform="matrix(0.381581,14.342,-14.342,0.381581,16.5901,33.0472)"><stop offset="0%" style="stop-color:#e00000;stop-opacity:1"/><stop offset="100%" style="stop-color:#560000;stop-opacity:1"/></linearGradient><linearGradient id="_Linear5" x1="0" y1="0" x2="1" y2="0" gradientUnits="userSpaceOnUse" gradientTransform="matrix(0.381581,14.342,-14.342,0.381581,16.5901,33.0472)"><stop offset="0%" style="stop-color:#e00000;stop-opacity:1"/><stop offset="100%" style="stop-color:#560000;stop-opacity:1"/></linearGradient><linearGradient id="_Linear6" x1="0" y1="0" x2="1" y2="0" gradientUnits="userSpaceOnUse" gradientTransform="matrix(0.381581,14.342,-14.342,0.381581,126.99,162.647)"><stop offset="0%" style="stop-color:#e00000;stop-opacity:1"/><stop offset="100%" style="stop-color:#560000;stop-opacity:1"/></linearGradient><linearGradient id="_Linear7" x1="0" y1="0" x2="1" y2="0" gradientUnits="userSpaceOnUse" gradientTransform="matrix(0.381581,14.342,-14.342,0.381581,126.99,162.647)"><stop offset="0%" style="stop-color:#e00000;stop-opacity:1"/><stop offset="100%" style="stop-color:#560000;stop-opacity:1"/></linearGradient><linearGradient id="_Linear8" x1="0" y1="0" x2="1" y2="0" gradientUnits="userSpaceOnUse" gradientTransform="matrix(0.0983952,31.9224,-31.9224,0.0983952,128.055,186.486)"><stop offset="0%" style="stop-color:#fff;stop-opacity:1"/><stop offset="100%" style="stop-color:#dcdcdc;stop-opacity:1"/></linearGradient></defs></svg>