<?xml version="1.0" encoding="UTF-8" standalone="no"?><!DOCTYPE svg PUBLIC "-//W3C//DTD SVG 1.1//EN" "http://www.w3.org/Graphics/SVG/1.1/DTD/svg11.dtd"><svg width="100%" height="100%" viewBox="0 0 144 193" version="1.1" xmlns="http://www.w3.org/2000/svg" xmlns:xlink="http://www.w3.org/1999/xlink" xml:space="preserve" style="fill-rule:evenodd;clip-rule:evenodd;"><path id="Card-background" d="M143.967,10.046c0.018,-5.299 -4.269,-9.614 -9.568,-9.63l-124.799,-0.386c-5.298,-0.017 -9.615,4.272 -9.632,9.57l-0.583,172.799c-0.018,5.298 4.269,9.613 9.567,9.63l124.8,0.386c5.298,0.016 9.614,-4.272 9.632,-9.57l0.583,-172.799Z" style="fill:url(#_Radial1);stroke:#646464;stroke-width:0.22px;"/><g id="Spades"><path id="path7857" d="M72.206,40.322c-12,33.6 -42.425,50.471 -42.879,70.08c0,26.4 28.813,23.808 38.079,11.52c4.8,12 -5.073,21.255 -9.6,28.8l28.8,0c-4.526,-7.545 -14.4,-16.8 -9.6,-28.8c9.267,12.288 38.08,14.88 38.08,-11.52c-0.454,-19.609 -30.88,-36.48 -42.88,-70.08Z" style="fill:url(#_Linear2);stroke:#000;stroke-width:0.24px;"/><path id="path7954" d="M16.429,31.082c-2.288,6.108 -8.091,9.175 -8.177,12.739c0,4.799 5.495,4.328 7.262,2.094c0.915,2.182 -0.968,3.864 -1.831,5.236l5.493,0c-0.864,-1.372 -2.747,-3.054 -1.831,-5.236c1.767,2.234 7.262,2.705 7.262,-2.094c-0.087,-3.564 -5.889,-6.631 -8.178,-12.739Z" style="fill:url(#_Linear3);stroke:#000;stroke-width:0.04px;"/><path id="path4963" d="M126.829,160.202c-2.288,6.108 -8.091,9.175 -8.177,12.739c0,4.799 5.495,4.328 7.262,2.094c0.915,2.182 -0.968,3.864 -1.831,5.236l5.493,0c-0.864,-1.372 -2.747,-3.054 -1.831,-5.236c1.767,2.234 7.262,2.705 7.262,-2.094c-0.087,-3.564 -5.889,-6.631 -8.178,-12.739l0,0Z" style="fill:url(#_Linear4);stroke:#000;stroke-width:0.04px;"/></g><g id="text4596"><path d="M68.831,92.687c-3.052,-2.123 -4.578,-4.472 -4.578,-7.045c0,-2.363 0.865,-4.282 2.595,-5.759c1.73,-1.476 3.987,-2.215 6.771,-2.215c2.574,0 4.658,0.626 6.254,1.878c1.596,1.251 2.395,2.876 2.395,4.872c0,3.024 -1.941,5.78 -5.822,8.269c4.711,2.306 7.066,5.281 7.066,8.923c0,2.615 -0.988,4.746 -2.964,6.391c-1.975,1.646 -4.524,2.468 -7.646,2.468c-3.066,0 -5.544,-0.777 -7.436,-2.331c-1.891,-1.554 -2.837,-3.596 -2.837,-6.127c0,-3.741 2.067,-6.849 6.202,-9.324Zm5.294,-1.308c2.911,-1.912 4.367,-4.043 4.367,-6.391c0,-1.252 -0.485,-2.261 -1.456,-3.027c-0.97,-0.766 -2.25,-1.15 -3.839,-1.15c-1.533,0 -2.777,0.377 -3.733,1.129c-0.957,0.752 -1.435,1.726 -1.435,2.921c0,1.168 0.433,2.212 1.297,3.133c0.865,0.921 2.465,2.049 4.799,3.385Zm-3.037,2.996c-1.674,1.293 -2.809,2.422 -3.407,3.385c-0.597,0.964 -0.896,2.162 -0.896,3.597c0,1.786 0.576,3.231 1.729,4.334c1.154,1.104 2.672,1.656 4.557,1.656c1.814,0 3.294,-0.471 4.44,-1.413c1.146,-0.942 1.719,-2.166 1.719,-3.67c0,-1.21 -0.355,-2.233 -1.065,-3.069c-0.71,-0.837 -2.085,-1.86 -4.124,-3.07l-2.953,-1.75Z" style="fill:url(#_Linear5);fill-rule:nonzero;"/><path d="M14.637,18.56c-1.554,-1.081 -2.331,-2.277 -2.331,-3.588c0,-1.203 0.441,-2.18 1.322,-2.932c0.881,-0.752 2.03,-1.128 3.448,-1.128c1.311,0 2.372,0.318 3.185,0.956c0.813,0.637 1.219,1.464 1.219,2.481c0,1.54 -0.988,2.944 -2.965,4.211c2.399,1.175 3.599,2.689 3.599,4.544c0,1.332 -0.503,2.417 -1.509,3.255c-1.006,0.838 -2.304,1.257 -3.894,1.257c-1.561,0 -2.824,-0.396 -3.787,-1.187c-0.963,-0.791 -1.445,-1.832 -1.445,-3.121c0,-1.905 1.053,-3.487 3.158,-4.748Zm2.697,-0.666c1.482,-0.974 2.223,-2.059 2.223,-3.255c0,-0.637 -0.247,-1.151 -0.741,-1.541c-0.494,-0.39 -1.146,-0.586 -1.955,-0.586c-0.78,0 -1.414,0.192 -1.901,0.575c-0.487,0.383 -0.731,0.879 -0.731,1.488c0,0.594 0.22,1.126 0.661,1.595c0.44,0.469 1.255,1.044 2.444,1.724Zm-1.547,1.526c-0.852,0.658 -1.431,1.233 -1.735,1.724c-0.304,0.49 -0.457,1.101 -0.457,1.831c0,0.91 0.294,1.646 0.881,2.208c0.588,0.562 1.361,0.843 2.321,0.843c0.923,0 1.677,-0.24 2.261,-0.72c0.584,-0.48 0.875,-1.103 0.875,-1.869c0,-0.616 -0.18,-1.137 -0.542,-1.563c-0.362,-0.426 -1.062,-0.947 -2.1,-1.563l-1.504,-0.891Z" style="fill-rule:nonzero;"/><path d="M124.536,147.054c-1.554,-1.081 -2.331,-2.277 -2.331,-3.588c0,-1.203 0.441,-2.181 1.321,-2.933c0.881,-0.751 2.031,-1.127 3.449,-1.127c1.31,0 2.372,0.318 3.185,0.956c0.813,0.637 1.219,1.464 1.219,2.481c0,1.54 -0.988,2.943 -2.965,4.211c2.399,1.174 3.599,2.689 3.599,4.544c0,1.332 -0.503,2.417 -1.509,3.255c-1.007,0.838 -2.305,1.257 -3.895,1.257c-1.561,0 -2.823,-0.396 -3.786,-1.187c-0.963,-0.792 -1.445,-1.832 -1.445,-3.121c0,-1.905 1.053,-3.488 3.158,-4.748Zm2.697,-0.666c1.482,-0.974 2.223,-2.059 2.223,-3.255c0,-0.637 -0.247,-1.151 -0.741,-1.541c-0.494,-0.391 -1.146,-0.586 -1.955,-0.586c-0.781,0 -1.415,0.192 -1.902,0.575c-0.486,0.383 -0.73,0.879 -0.73,1.488c0,0.594 0.22,1.126 0.661,1.595c0.44,0.469 1.255,1.044 2.444,1.724Zm-1.547,1.525c-0.853,0.659 -1.431,1.234 -1.735,1.724c-0.305,0.491 -0.457,1.102 -0.457,1.832c0,0.91 0.294,1.645 0.881,2.208c0.587,0.562 1.361,0.843 2.32,0.843c0.924,0 1.678,-0.24 2.262,-0.72c0.583,-0.48 0.875,-1.103 0.875,-1.869c0,-0.616 -0.181,-1.137 -0.542,-1.563c-0.362,-0.426 -1.062,-0.947 -2.1,-1.563l-1.504,-0.892Z" style="fill-rule:nonzero;"/></g><defs><radialGradient id="_Radial1" cx="0" cy="0" r="1" gradientUnits="userSpaceOnUse" gradientTransform="matrix(126.562,97.7279,-71.6611,95.2942,71.6758,96.2223)"><stop offset="0%" style="stop-color:#fff;stop-opacity:1"/><stop offset="100%" style="stop-color:#dcdcdc;stop-opacity:1"/></radialGradient><linearGradient id="_Linear2" x1="0" y1="0" x2="1" y2="0" gradientUnits="userSpaceOnUse" gradientTransform="matrix(4.55569e-15,74.4,-74.4,4.55569e-15,72.2064,40.4417)"><stop offset="0%" style="stop-color:#737373;stop-opacity:1"/><stop offset="100%" style="stop-color:#000;stop-opacity:1"/></linearGradient><linearGradient id="_Linear3" x1="0" y1="0" x2="1" y2="0" gradientUnits="userSpaceOnUse" gradientTransform="matrix(8.28143e-16,13.5246,-13.5246,8.28143e-16,16.4293,31.1036)"><stop offset="0%" style="stop-color:#737373;stop-opacity:1"/><stop offset="100%" style="stop-color:#000;stop-opacity:1"/></linearGradient><linearGradient id="_Linear4" x1="0" y1="0" x2="1" y2="0" gradientUnits="userSpaceOnUse" gradientTransform="matrix(8.28143e-16,13.5246,-13.5246,8.28143e-16,126.829,160.224)"><stop offset="0%" style="stop-color:#737373;stop-opacity:1"/><stop offset="100%" style="stop-color:#000;stop-opacity:1"/></linearGradient><linearGradient id="_Linear5" x1="0" y1="0" x2="1" y2="0" gradientUnits="userSpaceOnUse" gradientTransform="matrix(0.0983952,31.9224,-31.9224,0.0983952,128.055,187.206)"><stop offset="0%" style="stop-color:#fff;stop-opacity:1"/><stop offset="100%" style="stop-color:#dcdcdc;stop-opacity:1"/></linearGradient></defs></svg>