<?xml version="1.0" encoding="UTF-8" standalone="no"?><!DOCTYPE svg PUBLIC "-//W3C//DTD SVG 1.1//EN" "http://www.w3.org/Graphics/SVG/1.1/DTD/svg11.dtd"><svg width="100%" height="100%" viewBox="0 0 144 193" version="1.1" xmlns="http://www.w3.org/2000/svg" xmlns:xlink="http://www.w3.org/1999/xlink" xml:space="preserve" style="fill-rule:evenodd;clip-rule:evenodd;"><path id="Card-background" d="M143.967,10.046c0.018,-5.299 -4.269,-9.614 -9.568,-9.63l-124.799,-0.386c-5.298,-0.017 -9.615,4.272 -9.632,9.57l-0.583,172.799c-0.018,5.298 4.269,9.613 9.567,9.63l124.8,0.386c5.298,0.016 9.614,-4.272 9.632,-9.57l0.583,-172.799Z" style="fill:url(#_Radial1);stroke:#646464;stroke-width:0.22px;"/><g id="Clubs"><path id="path7930" d="M72.995,40.95c-14.746,0 -26.88,11.538 -26.88,25.56c0,0 0,0 0,0c0.012,6.15 2.358,12.095 6.605,16.734c-1.232,-0.186 -2.477,-0.284 -3.725,-0.294c-13.825,0 -25.2,10.833 -25.2,24c0,13.166 11.375,24 25.2,24c7.316,-0.006 14.279,-3.045 19.059,-8.32c3.954,11.554 -5.529,20.529 -9.939,27.88l28.8,0c-4.437,-7.395 -14.006,-16.432 -9.868,-28.086c4.778,5.394 11.818,8.516 19.228,8.526c13.824,0 25.2,-10.834 25.2,-24c0,-13.167 -11.376,-24 -25.2,-24c-0.963,0.009 -1.923,0.072 -2.878,0.186c4.175,-4.628 6.474,-10.528 6.478,-16.626c0,0 0,0 0,0c0,-14.022 -12.134,-25.56 -26.88,-25.56l0,0Z" style="fill:url(#_Linear2);stroke:#000;stroke-width:0.24px;"/><path id="path7975" d="M16.982,31.272c-2.53,0 -4.612,2.056 -4.612,4.554c0.002,1.096 0.405,2.155 1.133,2.981c-0.211,-0.033 -0.425,-0.051 -0.639,-0.052c-2.371,0 -4.323,1.93 -4.323,4.275c0,0 0,0 0,0c0,2.346 1.952,4.276 4.323,4.276c0,0 0,0 0,0c1.255,-0.001 2.45,-0.543 3.27,-1.482c0.678,2.058 -0.948,3.657 -1.705,4.966l4.941,0c-0.761,-1.317 -2.403,-2.927 -1.693,-5.003c0.82,0.961 2.027,1.517 3.299,1.519c0,0 0,0 0,0c2.371,0 4.323,-1.93 4.323,-4.276c0,0 0,0 0,0c0,-2.345 -1.952,-4.275 -4.323,-4.275c-0.165,0.001 -0.33,0.012 -0.494,0.033c0.716,-0.825 1.111,-1.876 1.111,-2.962c0,-2.498 -2.081,-4.554 -4.611,-4.554l0,0Z" style="fill:url(#_Linear3);stroke:#000;stroke-width:0.04px;"/><path id="path4821" d="M126.902,160.872c-2.53,0 -4.612,2.056 -4.612,4.554c0.002,1.096 0.405,2.155 1.133,2.981c-0.211,-0.033 -0.425,-0.051 -0.639,-0.052c-2.371,0 -4.323,1.93 -4.323,4.275c0,0 0,0 0,0c0,2.346 1.952,4.276 4.323,4.276c0,0 0,0 0,0c1.255,-0.001 2.45,-0.543 3.27,-1.482c0.678,2.058 -0.948,3.657 -1.705,4.966l4.941,0c-0.761,-1.317 -2.403,-2.927 -1.693,-5.003c0.82,0.961 2.027,1.517 3.299,1.519c0,0 0,0 0,0c2.371,0 4.323,-1.93 4.323,-4.276c0,0 0,0 0,0c0,-2.345 -1.952,-4.275 -4.323,-4.275c-0.165,0.001 -0.33,0.012 -0.494,0.033c0.716,-0.825 1.111,-1.876 1.111,-2.962c0,-2.498 -2.081,-4.554 -4.611,-4.554l0,0Z" style="fill:url(#_Linear4);stroke:#000;stroke-width:0.04px;"/></g><g id="text4596"><path d="M64.05,109.499l0,-3.523c2.644,0.914 4.894,1.371 6.75,1.371c2.588,0 4.609,-1.1 6.065,-3.301c1.455,-2.201 2.183,-5.263 2.183,-9.186c-2.109,2.601 -4.507,3.902 -7.193,3.902c-2.63,0 -4.858,-0.967 -6.687,-2.9c-1.828,-1.934 -2.742,-4.293 -2.742,-7.077c0,-3.192 0.974,-5.84 2.922,-7.942c1.947,-2.102 4.398,-3.153 7.351,-3.153c3.389,0 6.061,1.36 8.016,4.081c1.954,2.721 2.932,6.444 2.932,11.169c0,5.372 -1.192,9.637 -3.576,12.794c-2.383,3.157 -5.607,4.735 -9.671,4.735c-1.632,0 -3.748,-0.323 -6.35,-0.97Zm2.532,-21.537c0,2.419 0.538,4.324 1.613,5.717c1.076,1.392 2.549,2.088 4.42,2.088c1.757,0 3.259,-0.598 4.503,-1.793c1.245,-1.195 1.867,-2.637 1.867,-4.324c0,-2.658 -0.601,-4.799 -1.804,-6.423c-1.202,-1.625 -2.781,-2.437 -4.735,-2.437c-1.814,0 -3.245,0.644 -4.293,1.93c-1.047,1.287 -1.571,3.034 -1.571,5.242Z" style="fill:url(#_Linear5);fill-rule:nonzero;"/><path d="M12.561,27.122l0,-1.794c1.346,0.465 2.492,0.698 3.437,0.698c1.318,0 2.348,-0.56 3.089,-1.681c0.741,-1.121 1.112,-2.68 1.112,-4.678c-1.075,1.325 -2.296,1.987 -3.664,1.987c-1.339,0 -2.474,-0.492 -3.405,-1.477c-0.931,-0.985 -1.396,-2.186 -1.396,-3.604c0,-1.626 0.496,-2.974 1.487,-4.045c0.992,-1.07 2.24,-1.605 3.744,-1.605c1.726,0 3.087,0.692 4.082,2.078c0.996,1.386 1.493,3.282 1.493,5.688c0,2.736 -0.607,4.908 -1.82,6.515c-1.214,1.608 -2.856,2.412 -4.926,2.412c-0.83,0 -1.908,-0.165 -3.233,-0.494Zm1.289,-10.968c0,1.232 0.274,2.202 0.822,2.911c0.548,0.709 1.298,1.064 2.25,1.064c0.895,0 1.66,-0.305 2.294,-0.914c0.633,-0.608 0.95,-1.342 0.95,-2.202c0,-1.353 -0.306,-2.444 -0.918,-3.271c-0.612,-0.827 -1.416,-1.24 -2.412,-1.24c-0.924,0 -1.652,0.327 -2.186,0.983c-0.533,0.655 -0.8,1.545 -0.8,2.669Z" style="fill-rule:nonzero;"/><path d="M122.7,156.095l0,-1.793c1.346,0.465 2.492,0.698 3.437,0.698c1.318,0 2.347,-0.561 3.088,-1.681c0.742,-1.121 1.112,-2.681 1.112,-4.679c-1.074,1.325 -2.295,1.988 -3.663,1.988c-1.339,0 -2.474,-0.493 -3.405,-1.477c-0.931,-0.985 -1.397,-2.186 -1.397,-3.604c0,-1.626 0.496,-2.974 1.488,-4.045c0.992,-1.07 2.24,-1.606 3.744,-1.606c1.726,0 3.086,0.693 4.082,2.079c0.995,1.386 1.493,3.282 1.493,5.688c0,2.736 -0.607,4.907 -1.821,6.515c-1.214,1.608 -2.855,2.412 -4.925,2.412c-0.831,0 -1.909,-0.165 -3.233,-0.495Zm1.289,-10.967c0,1.231 0.274,2.202 0.821,2.911c0.548,0.709 1.298,1.063 2.251,1.063c0.895,0 1.66,-0.304 2.293,-0.913c0.634,-0.608 0.951,-1.343 0.951,-2.202c0,-1.353 -0.306,-2.444 -0.918,-3.271c-0.613,-0.827 -1.417,-1.241 -2.412,-1.241c-0.924,0 -1.653,0.328 -2.186,0.983c-0.534,0.656 -0.8,1.545 -0.8,2.67Z" style="fill-rule:nonzero;"/></g><defs><radialGradient id="_Radial1" cx="0" cy="0" r="1" gradientUnits="userSpaceOnUse" gradientTransform="matrix(126.562,97.7279,-71.6611,95.2942,71.6758,96.2223)"><stop offset="0%" style="stop-color:#fff;stop-opacity:1"/><stop offset="100%" style="stop-color:#dcdcdc;stop-opacity:1"/></radialGradient><linearGradient id="_Linear2" x1="0" y1="0" x2="1" y2="0" gradientUnits="userSpaceOnUse" gradientTransform="matrix(-0.96,74.4,-74.4,-0.96,73.4748,40.2296)"><stop offset="0%" style="stop-color:#737373;stop-opacity:1"/><stop offset="100%" style="stop-color:#000;stop-opacity:1"/></linearGradient><linearGradient id="_Linear3" x1="0" y1="0" x2="1" y2="0" gradientUnits="userSpaceOnUse" gradientTransform="matrix(-0.164698,13.2543,-13.2543,-0.164698,17.0641,31.1441)"><stop offset="0%" style="stop-color:#737373;stop-opacity:1"/><stop offset="100%" style="stop-color:#000;stop-opacity:1"/></linearGradient><linearGradient id="_Linear4" x1="0" y1="0" x2="1" y2="0" gradientUnits="userSpaceOnUse" gradientTransform="matrix(-0.164698,13.2543,-13.2543,-0.164698,126.984,160.744)"><stop offset="0%" style="stop-color:#737373;stop-opacity:1"/><stop offset="100%" style="stop-color:#000;stop-opacity:1"/></linearGradient><linearGradient id="_Linear5" x1="0" y1="0" x2="1" y2="0" gradientUnits="userSpaceOnUse" gradientTransform="matrix(0.0983952,31.9224,-31.9224,0.0983952,128.295,187.206)"><stop offset="0%" style="stop-color:#fff;stop-opacity:1"/><stop offset="100%" style="stop-color:#dcdcdc;stop-opacity:1"/></linearGradient></defs></svg>