<?xml version="1.0" encoding="UTF-8" standalone="no"?><!DOCTYPE svg PUBLIC "-//W3C//DTD SVG 1.1//EN" "http://www.w3.org/Graphics/SVG/1.1/DTD/svg11.dtd"><svg width="100%" height="100%" viewBox="0 0 144 193" version="1.1" xmlns="http://www.w3.org/2000/svg" xmlns:xlink="http://www.w3.org/1999/xlink" xml:space="preserve" style="fill-rule:evenodd;clip-rule:evenodd;"><path id="Card-background" d="M143.967,10.046c0.018,-5.299 -4.269,-9.614 -9.568,-9.63l-124.799,-0.386c-5.298,-0.017 -9.615,4.272 -9.632,9.57l-0.583,172.799c-0.018,5.298 4.269,9.613 9.567,9.63l124.8,0.386c5.298,0.016 9.614,-4.272 9.632,-9.57l0.583,-172.799Z" style="fill:url(#_Radial1);stroke:#646464;stroke-width:0.22px;"/><g id="Diamonds"><path id="rect3362" d="M72.532,155.313l42.966,-59.646l-43.202,-59.975l-42.966,59.646l43.202,59.975Z" style="fill:url(#_Linear2);stroke:#640000;stroke-width:0.17px;"/><path id="rect6977" d="M16.885,51.744l7.157,-9.959l-7.196,-10.014l-7.157,9.959l7.196,10.014Z" style="fill:url(#_Linear3);stroke:#640000;stroke-width:0.03px;"/><path id="rect4360" d="M127.285,180.864l7.158,-9.959l-7.197,-10.014l-7.157,9.959l7.196,10.014Z" style="fill:url(#_Linear4);stroke:#640000;stroke-width:0.03px;"/></g><g id="Red-Numbers"><g opacity="0.94"><g id="text4292"><path d="M13.57,28.067l0,-1.794c1.192,0.466 2.206,0.698 3.042,0.698c1.167,0 2.078,-0.56 2.734,-1.681c0.656,-1.121 0.984,-2.68 0.984,-4.678c-0.951,1.325 -2.031,1.987 -3.242,1.987c-1.185,0 -2.19,-0.492 -3.014,-1.477c-0.824,-0.984 -1.236,-2.186 -1.236,-3.604c0,-1.625 0.439,-2.974 1.317,-4.044c0.878,-1.071 1.982,-1.606 3.313,-1.606c1.528,0 2.732,0.693 3.613,2.078c0.881,1.386 1.322,3.282 1.322,5.688c0,2.736 -0.537,4.908 -1.612,6.516c-1.074,1.607 -2.527,2.411 -4.359,2.411c-0.735,0 -1.689,-0.164 -2.862,-0.494Zm1.141,-10.968c0,1.232 0.242,2.202 0.727,2.911c0.485,0.709 1.149,1.064 1.992,1.064c0.792,0 1.469,-0.304 2.03,-0.913c0.561,-0.609 0.842,-1.343 0.842,-2.202c0,-1.354 -0.271,-2.444 -0.813,-3.271c-0.542,-0.827 -1.254,-1.241 -2.135,-1.241c-0.818,0 -1.463,0.328 -1.935,0.983c-0.472,0.655 -0.708,1.545 -0.708,2.669Z" style="fill:#960000;fill-rule:nonzero;"/><path d="M123.825,157.79l0,-1.794c1.192,0.465 2.206,0.698 3.042,0.698c1.167,0 2.078,-0.561 2.734,-1.681c0.656,-1.121 0.984,-2.68 0.984,-4.678c-0.951,1.324 -2.031,1.987 -3.242,1.987c-1.185,0 -2.19,-0.493 -3.014,-1.477c-0.824,-0.985 -1.236,-2.186 -1.236,-3.604c0,-1.626 0.439,-2.974 1.317,-4.045c0.878,-1.07 1.982,-1.606 3.313,-1.606c1.528,0 2.732,0.693 3.613,2.079c0.881,1.386 1.322,3.282 1.322,5.688c0,2.736 -0.537,4.907 -1.612,6.515c-1.074,1.608 -2.527,2.412 -4.359,2.412c-0.735,0 -1.689,-0.165 -2.862,-0.494Zm1.141,-10.968c0,1.232 0.242,2.202 0.727,2.911c0.485,0.709 1.149,1.063 1.992,1.063c0.792,0 1.469,-0.304 2.03,-0.913c0.561,-0.608 0.842,-1.342 0.842,-2.202c0,-1.353 -0.271,-2.444 -0.813,-3.271c-0.542,-0.827 -1.254,-1.241 -2.135,-1.241c-0.818,0 -1.463,0.328 -1.935,0.983c-0.472,0.656 -0.708,1.545 -0.708,2.67Z" style="fill:#960000;fill-rule:nonzero;"/></g></g></g><g id="text4596"><path d="M64.53,108.779l0,-3.523c2.644,0.914 4.894,1.371 6.75,1.371c2.588,0 4.609,-1.1 6.065,-3.301c1.455,-2.201 2.183,-5.263 2.183,-9.186c-2.109,2.601 -4.507,3.902 -7.193,3.902c-2.63,0 -4.858,-0.967 -6.687,-2.9c-1.828,-1.934 -2.742,-4.293 -2.742,-7.077c0,-3.192 0.974,-5.84 2.922,-7.942c1.947,-2.102 4.398,-3.153 7.351,-3.153c3.389,0 6.061,1.36 8.016,4.081c1.954,2.721 2.932,6.444 2.932,11.169c0,5.372 -1.192,9.637 -3.576,12.794c-2.383,3.157 -5.607,4.735 -9.671,4.735c-1.632,0 -3.748,-0.323 -6.35,-0.97Zm2.532,-21.537c0,2.419 0.538,4.324 1.613,5.717c1.076,1.392 2.549,2.088 4.42,2.088c1.757,0 3.259,-0.598 4.503,-1.793c1.245,-1.195 1.867,-2.637 1.867,-4.324c0,-2.658 -0.601,-4.799 -1.804,-6.423c-1.202,-1.625 -2.781,-2.437 -4.735,-2.437c-1.814,0 -3.245,0.644 -4.293,1.93c-1.047,1.287 -1.571,3.034 -1.571,5.242Z" style="fill:url(#_Linear5);fill-rule:nonzero;"/></g><defs><radialGradient id="_Radial1" cx="0" cy="0" r="1" gradientUnits="userSpaceOnUse" gradientTransform="matrix(126.562,97.7279,-71.6611,95.2942,71.6758,96.2223)"><stop offset="0%" style="stop-color:#fff;stop-opacity:1"/><stop offset="100%" style="stop-color:#dcdcdc;stop-opacity:1"/></radialGradient><linearGradient id="_Linear2" x1="0" y1="0" x2="1" y2="0" gradientUnits="userSpaceOnUse" gradientTransform="matrix(-1.01374,121.856,-87.7783,-1.4073,71.9048,35.3332)"><stop offset="0%" style="stop-color:#e00000;stop-opacity:1"/><stop offset="100%" style="stop-color:#810000;stop-opacity:1"/></linearGradient><linearGradient id="_Linear3" x1="0" y1="0" x2="1" y2="0" gradientUnits="userSpaceOnUse" gradientTransform="matrix(-0.168869,20.3461,-14.6221,-0.234974,16.7807,31.711)"><stop offset="0%" style="stop-color:#e00000;stop-opacity:1"/><stop offset="100%" style="stop-color:#810000;stop-opacity:1"/></linearGradient><linearGradient id="_Linear4" x1="0" y1="0" x2="1" y2="0" gradientUnits="userSpaceOnUse" gradientTransform="matrix(-0.168869,20.3461,-14.6221,-0.234974,127.181,160.831)"><stop offset="0%" style="stop-color:#e00000;stop-opacity:1"/><stop offset="100%" style="stop-color:#810000;stop-opacity:1"/></linearGradient><linearGradient id="_Linear5" x1="0" y1="0" x2="1" y2="0" gradientUnits="userSpaceOnUse" gradientTransform="matrix(0.0983952,31.9224,-31.9224,0.0983952,128.775,186.486)"><stop offset="0%" style="stop-color:#fff;stop-opacity:1"/><stop offset="100%" style="stop-color:#dcdcdc;stop-opacity:1"/></linearGradient></defs></svg>