<?xml version="1.0" encoding="UTF-8" standalone="no"?><!DOCTYPE svg PUBLIC "-//W3C//DTD SVG 1.1//EN" "http://www.w3.org/Graphics/SVG/1.1/DTD/svg11.dtd"><svg width="100%" height="100%" viewBox="0 0 144 193" version="1.1" xmlns="http://www.w3.org/2000/svg" xmlns:xlink="http://www.w3.org/1999/xlink" xml:space="preserve" style="fill-rule:evenodd;clip-rule:evenodd;"><path id="Card-background" d="M143.997,9.6c0.002,-5.298 -4.272,-9.6 -9.538,-9.6l-124.918,0c-5.266,0 -9.542,4.302 -9.544,9.6l-0.048,172.8c-0.001,5.298 4.273,9.6 9.539,9.6l124.917,0c5.266,0 9.543,-4.302 9.544,-9.6l0.048,-172.8Z" style="fill:url(#_Radial1);stroke:#646464;stroke-width:0.22px;"/><g id="Hearts"><path id="path7647" d="M44.333,45.091c-7.348,-0.057 -14.803,3.568 -20.591,14.617c-16.662,31.808 49.225,77.122 48.834,93.606l0,0.365c0,0 0.161,-0.149 0.196,-0.182c0.035,0.032 0.195,0.182 0.195,0.182l0,-0.365c0,-14.078 65.496,-61.798 48.834,-93.606c-16.649,-31.784 -47.001,-2.223 -49.029,-0.194c-1.322,-1.322 -14.649,-14.315 -28.439,-14.423l0,0Z" style="fill:url(#_Linear2);stroke:url(#_Linear3);stroke-width:0.24px;"/><path id="path8171" d="M11.911,32.963c-1.139,-0.009 -2.295,0.574 -3.192,2.349c-2.584,5.11 7.631,12.39 7.571,15.038l0,0.059c0,0 0.024,-0.024 0.03,-0.03c0.005,0.006 0.03,0.03 0.03,0.03l0,-0.059c0,-2.262 10.154,-9.928 7.571,-15.038c-2.581,-5.107 -7.287,-0.357 -7.601,-0.031c-0.205,-0.213 -2.271,-2.3 -4.409,-2.318l0,0Z" style="fill:url(#_Linear4);stroke:url(#_Linear5);stroke-width:0.04px;"/><path id="path5021" d="M123.271,159.365c-1.139,0.009 -2.295,-0.573 -3.192,-2.349c-2.584,-5.11 7.631,-12.389 7.571,-15.038l0,-0.058c0,0 0.024,0.024 0.03,0.029c0.005,-0.005 0.03,-0.029 0.03,-0.029l0,0.058c0,2.262 10.154,9.928 7.571,15.038c-2.581,5.107 -7.287,0.358 -7.601,0.032c-0.205,0.212 -2.271,2.299 -4.409,2.317l0,0Z" style="fill:url(#_Linear6);stroke:url(#_Linear7);stroke-width:0.04px;"/></g><g id="Red-Text"><path d="M12.354,17.499c-0.013,1.367 0.306,2.366 0.957,2.998c0.651,0.651 1.439,0.97 2.363,0.957c0.84,0.013 1.745,-0.134 2.715,-0.44l0,1.338c-0.039,1.439 -0.706,2.165 -2.002,2.178c-0.918,0 -1.536,-0.397 -1.855,-1.191l-2.1,0c0.215,1.035 0.694,1.826 1.436,2.373c0.735,0.56 1.575,0.846 2.519,0.859c1.107,-0.013 2.048,-0.371 2.822,-1.074c0.788,-0.71 1.195,-1.719 1.221,-3.028l0,-6.279c-0.026,-1.315 -0.433,-2.327 -1.221,-3.037c-0.774,-0.703 -1.715,-1.055 -2.822,-1.055c-1.074,0 -1.998,0.352 -2.773,1.055c-0.827,0.71 -1.247,1.722 -1.26,3.037l0,1.309Zm2.041,-1.182c0.026,-1.426 0.69,-2.152 1.992,-2.178c1.296,0.026 1.963,0.752 2.002,2.178l0,1.162c-0.039,1.439 -0.706,2.165 -2.002,2.178c-1.302,-0.013 -1.966,-0.739 -1.992,-2.178l0,-1.162Z" style="fill:#a30000;fill-rule:nonzero;"/><path d="M132.013,174.402c0.013,-1.367 -0.306,-2.366 -0.957,-2.998c-0.651,-0.651 -1.439,-0.97 -2.364,-0.957c-0.839,-0.013 -1.744,0.134 -2.714,0.44l0,-1.338c0.039,-1.439 0.706,-2.165 2.001,-2.178c0.918,0 1.537,0.397 1.856,1.192l2.1,0c-0.215,-1.036 -0.694,-1.827 -1.436,-2.373c-0.736,-0.56 -1.575,-0.847 -2.52,-0.86c-1.106,0.013 -2.047,0.371 -2.822,1.074c-0.788,0.71 -1.194,1.719 -1.22,3.028l0,6.279c0.026,1.315 0.432,2.328 1.22,3.037c0.775,0.703 1.716,1.055 2.822,1.055c1.075,0 1.999,-0.352 2.774,-1.055c0.827,-0.709 1.247,-1.722 1.26,-3.037l0,-1.309Zm-2.041,1.182c-0.026,1.426 -0.69,2.152 -1.993,2.178c-1.295,-0.026 -1.962,-0.752 -2.001,-2.178l0,-1.162c0.039,-1.439 0.706,-2.165 2.001,-2.178c1.303,0.013 1.967,0.739 1.993,2.178l0,1.162Z" style="fill:#a30000;fill-rule:nonzero;"/></g><g id="Center-Text" transform="matrix(0.233905,0,0,0.218311,72.7568,112.825)"><path d="M-44.393,-98.448c-0.143,15.031 3.364,26.017 10.521,32.959c7.158,7.158 15.818,10.665 25.981,10.522c9.233,0.143 19.182,-1.468 29.846,-4.832l0,14.709c-0.43,15.817 -7.766,23.797 -22.009,23.94c-10.091,0 -16.891,-4.365 -20.398,-13.097l-23.082,0c2.362,11.38 7.623,20.076 15.782,26.088c8.088,6.155 17.32,9.304 27.698,9.447c12.168,-0.143 22.51,-4.079 31.027,-11.809c8.66,-7.801 13.133,-18.895 13.42,-33.281l0,-69.032c-0.287,-14.457 -4.76,-25.587 -13.42,-33.388c-8.517,-7.73 -18.859,-11.595 -31.027,-11.595c-11.809,0 -21.972,3.865 -30.489,11.595c-9.09,7.801 -13.706,18.931 -13.85,33.388l0,14.386Zm22.438,-12.99c0.287,-15.674 7.587,-23.654 21.901,-23.941c14.243,0.287 21.579,8.267 22.009,23.941l0,12.776c-0.43,15.817 -7.766,23.798 -22.009,23.941c-14.314,-0.143 -21.614,-8.124 -21.901,-23.941l0,-12.776Z" style="fill:none;"/><path d="M-44.393,-98.448c-0.143,15.031 3.364,26.017 10.521,32.959c7.158,7.158 15.818,10.665 25.981,10.522c9.233,0.143 19.182,-1.468 29.846,-4.832l0,14.709c-0.43,15.817 -7.766,23.797 -22.009,23.94c-10.091,0 -16.891,-4.365 -20.398,-13.097l-23.082,0c2.362,11.38 7.623,20.076 15.782,26.088c8.088,6.155 17.32,9.304 27.698,9.447c12.168,-0.143 22.51,-4.079 31.027,-11.809c8.66,-7.801 13.133,-18.895 13.42,-33.281l0,-69.032c-0.287,-14.457 -4.76,-25.587 -13.42,-33.388c-8.517,-7.73 -18.859,-11.595 -31.027,-11.595c-11.809,0 -21.972,3.865 -30.489,11.595c-9.09,7.801 -13.706,18.931 -13.85,33.388l0,14.386Zm22.438,-12.99c0.287,-15.674 7.587,-23.654 21.901,-23.941c14.243,0.287 21.579,8.267 22.009,23.941l0,12.776c-0.43,15.817 -7.766,23.798 -22.009,23.941c-14.314,-0.143 -21.614,-8.124 -21.901,-23.941l0,-12.776Z" style="fill:#fff;fill-rule:nonzero;"/></g><defs><radialGradient id="_Radial1" cx="0" cy="0" r="1" gradientUnits="userSpaceOnUse" gradientTransform="matrix(126.864,97.3356,-71.3658,95.5156,71.9734,96)"><stop offset="0%" style="stop-color:#fff;stop-opacity:1"/><stop offset="100%" style="stop-color:#dcdcdc;stop-opacity:1"/></radialGradient><linearGradient id="_Linear2" x1="0" y1="0" x2="1" y2="0" gradientUnits="userSpaceOnUse" gradientTransform="matrix(2.46125,89.2726,-93.7296,2.34421,72.9672,45.6127)"><stop offset="0%" style="stop-color:#e00000;stop-opacity:1"/><stop offset="100%" style="stop-color:#560000;stop-opacity:1"/></linearGradient><linearGradient id="_Linear3" x1="0" y1="0" x2="1" y2="0" gradientUnits="userSpaceOnUse" gradientTransform="matrix(2.46125,89.2726,-93.7296,2.34421,72.9672,45.6127)"><stop offset="0%" style="stop-color:#e00000;stop-opacity:1"/><stop offset="100%" style="stop-color:#560000;stop-opacity:1"/></linearGradient><linearGradient id="_Linear4" x1="0" y1="0" x2="1" y2="0" gradientUnits="userSpaceOnUse" gradientTransform="matrix(0.381581,14.342,-14.342,0.381581,16.3501,33.0472)"><stop offset="0%" style="stop-color:#e00000;stop-opacity:1"/><stop offset="100%" style="stop-color:#560000;stop-opacity:1"/></linearGradient><linearGradient id="_Linear5" x1="0" y1="0" x2="1" y2="0" gradientUnits="userSpaceOnUse" gradientTransform="matrix(0.381581,14.342,-14.342,0.381581,16.3501,33.0472)"><stop offset="0%" style="stop-color:#e00000;stop-opacity:1"/><stop offset="100%" style="stop-color:#560000;stop-opacity:1"/></linearGradient><linearGradient id="_Linear6" x1="0" y1="0" x2="1" y2="0" gradientUnits="userSpaceOnUse" gradientTransform="matrix(0.381581,-14.342,-14.342,-0.381581,127.71,159.281)"><stop offset="0%" style="stop-color:#e00000;stop-opacity:1"/><stop offset="100%" style="stop-color:#560000;stop-opacity:1"/></linearGradient><linearGradient id="_Linear7" x1="0" y1="0" x2="1" y2="0" gradientUnits="userSpaceOnUse" gradientTransform="matrix(0.381581,-14.342,-14.342,-0.381581,127.71,159.281)"><stop offset="0%" style="stop-color:#e00000;stop-opacity:1"/><stop offset="100%" style="stop-color:#560000;stop-opacity:1"/></linearGradient></defs></svg>