<?xml version="1.0" encoding="UTF-8" standalone="no"?><!DOCTYPE svg PUBLIC "-//W3C//DTD SVG 1.1//EN" "http://www.w3.org/Graphics/SVG/1.1/DTD/svg11.dtd"><svg width="100%" height="100%" viewBox="0 0 144 193" version="1.1" xmlns="http://www.w3.org/2000/svg" xmlns:xlink="http://www.w3.org/1999/xlink" xml:space="preserve" style="fill-rule:evenodd;clip-rule:evenodd;"><path id="Card-background" d="M143.997,9.6c0.002,-5.298 -4.272,-9.6 -9.538,-9.6l-124.918,0c-5.266,0 -9.542,4.302 -9.544,9.6l-0.048,172.8c-0.001,5.298 4.273,9.6 9.539,9.6l124.917,0c5.266,0 9.543,-4.302 9.544,-9.6l0.048,-172.8Z" style="fill:url(#_Radial1);stroke:#646464;stroke-width:0.22px;"/><g id="Clubs"><path id="path7975" d="M127.714,160.956c-2.53,0 -4.612,-2.055 -4.612,-4.553c0.002,-1.096 0.405,-2.155 1.134,-2.981c-0.212,0.033 -0.425,0.05 -0.64,0.052c-2.371,0 -4.323,-1.93 -4.323,-4.275c0,0 0,0 0,0c0,-2.346 1.952,-4.276 4.323,-4.276c0,0 0,0 0,0c1.256,0.001 2.45,0.542 3.27,1.482c0.679,-2.058 -0.948,-3.657 -1.705,-4.967l4.941,0c-0.761,1.318 -2.403,2.928 -1.693,5.004c0.82,-0.961 2.028,-1.517 3.299,-1.519c0,0 0,0 0,0c2.372,0 4.323,1.93 4.323,4.276c0,0 0,0 0,0c0,2.345 -1.951,4.275 -4.323,4.275c-0.165,-0.002 -0.33,-0.013 -0.494,-0.033c0.716,0.825 1.111,1.876 1.111,2.962c0,2.498 -2.081,4.553 -4.611,4.553l0,0Z" style="fill:url(#_Linear2);stroke:#000;stroke-width:0.04px;"/><path id="path7930" d="M72.995,40.95c-14.746,0 -26.88,11.538 -26.88,25.56c0,0 0,0 0,0c0.012,6.15 2.358,12.095 6.605,16.734c-1.232,-0.186 -2.477,-0.284 -3.725,-0.294c-13.825,0 -25.2,10.833 -25.2,24c0,13.166 11.375,24 25.2,24c7.316,-0.006 14.279,-3.045 19.059,-8.32c3.954,11.554 -5.529,20.529 -9.939,27.88l28.8,0c-4.437,-7.395 -14.006,-16.432 -9.868,-28.086c4.778,5.394 11.818,8.516 19.228,8.526c13.824,0 25.2,-10.834 25.2,-24c0,-13.167 -11.376,-24 -25.2,-24c-0.963,0.009 -1.923,0.072 -2.878,0.186c4.175,-4.628 6.474,-10.528 6.478,-16.626c0,0 0,0 0,0c0,-14.022 -12.134,-25.56 -26.88,-25.56l0,0Z" style="fill:url(#_Linear3);stroke:#000;stroke-width:0.24px;"/><path id="path79751" d="M16.502,31.272c-2.53,0 -4.612,2.056 -4.612,4.554c0.002,1.096 0.405,2.155 1.133,2.981c-0.211,-0.033 -0.425,-0.051 -0.639,-0.052c-2.371,0 -4.323,1.93 -4.323,4.275c0,0 0,0 0,0c0,2.346 1.952,4.276 4.323,4.276c0,0 0,0 0,0c1.255,-0.001 2.45,-0.543 3.27,-1.482c0.678,2.058 -0.948,3.657 -1.705,4.966l4.941,0c-0.761,-1.317 -2.403,-2.927 -1.693,-5.003c0.82,0.961 2.027,1.517 3.299,1.519c0,0 0,0 0,0c2.371,0 4.323,-1.93 4.323,-4.276c0,0 0,0 0,0c0,-2.345 -1.952,-4.275 -4.323,-4.275c-0.165,0.001 -0.33,0.012 -0.494,0.033c0.716,-0.825 1.111,-1.876 1.111,-2.962c0,-2.498 -2.081,-4.554 -4.611,-4.554l0,0Z" style="fill:url(#_Linear4);stroke:#000;stroke-width:0.04px;"/></g><g id="Black-Text"><path d="M14.317,21.356l2.06,-6.22l0.04,0l2.06,6.22l-4.16,0Zm5.879,5.098l2.275,0l-5.176,-14.238l-1.806,0l-5.176,14.238l2.285,0l1.094,-3.184l5.4,0l1.104,3.184Z" style="fill:#010101;fill-rule:nonzero;"/><path d="M130.05,170.545l-2.061,6.221l-0.039,0l-2.06,-6.221l4.16,0Zm-5.879,-5.098l-2.275,0l5.175,14.239l1.807,0l5.176,-14.239l-2.285,0l-1.094,3.184l-5.401,0l-1.103,-3.184Z" style="fill:#030303;fill-rule:nonzero;"/></g><g id="Center-Text" transform="matrix(0.233905,0,0,0.218311,72.0368,112.825)"><path d="M-22.814,-56.041l22.653,-68.387l0.429,0l22.653,68.387l-45.735,0Zm64.63,56.041l25.015,0l-56.9,-156.528l-19.862,0l-56.9,156.528l25.122,0l12.024,-34.999l59.37,0l12.131,34.999Z" style="fill:none;"/><path d="M-22.814,-56.041l22.653,-68.387l0.429,0l22.653,68.387l-45.735,0Zm64.63,56.041l25.015,0l-56.9,-156.528l-19.862,0l-56.9,156.528l25.122,0l12.024,-34.999l59.37,0l12.131,34.999Z" style="fill:#fff;fill-rule:nonzero;"/></g><defs><radialGradient id="_Radial1" cx="0" cy="0" r="1" gradientUnits="userSpaceOnUse" gradientTransform="matrix(126.864,97.3356,-71.3658,95.5156,71.9734,96)"><stop offset="0%" style="stop-color:#fff;stop-opacity:1"/><stop offset="100%" style="stop-color:#dcdcdc;stop-opacity:1"/></radialGradient><linearGradient id="_Linear2" x1="0" y1="0" x2="1" y2="0" gradientUnits="userSpaceOnUse" gradientTransform="matrix(0.0338068,11.641,-11.641,0.0338068,127.842,142.222)"><stop offset="0%" style="stop-color:#737373;stop-opacity:1"/><stop offset="100%" style="stop-color:#000;stop-opacity:1"/></linearGradient><linearGradient id="_Linear3" x1="0" y1="0" x2="1" y2="0" gradientUnits="userSpaceOnUse" gradientTransform="matrix(-0.96,74.4,-74.4,-0.96,73.4748,40.2296)"><stop offset="0%" style="stop-color:#737373;stop-opacity:1"/><stop offset="100%" style="stop-color:#000;stop-opacity:1"/></linearGradient><linearGradient id="_Linear4" x1="0" y1="0" x2="1" y2="0" gradientUnits="userSpaceOnUse" gradientTransform="matrix(-0.164698,13.2543,-13.2543,-0.164698,16.5841,31.1441)"><stop offset="0%" style="stop-color:#737373;stop-opacity:1"/><stop offset="100%" style="stop-color:#000;stop-opacity:1"/></linearGradient></defs></svg>