<?xml version="1.0" encoding="UTF-8" standalone="no"?><!DOCTYPE svg PUBLIC "-//W3C//DTD SVG 1.1//EN" "http://www.w3.org/Graphics/SVG/1.1/DTD/svg11.dtd"><svg width="100%" height="100%" viewBox="0 0 144 193" version="1.1" xmlns="http://www.w3.org/2000/svg" xmlns:xlink="http://www.w3.org/1999/xlink" xml:space="preserve" style="fill-rule:evenodd;clip-rule:evenodd;"><path id="Card-background" d="M143.967,10.046c0.018,-5.299 -4.269,-9.614 -9.568,-9.63l-124.799,-0.386c-5.298,-0.017 -9.615,4.272 -9.632,9.57l-0.583,172.799c-0.018,5.298 4.269,9.613 9.567,9.63l124.8,0.386c5.298,0.016 9.614,-4.272 9.632,-9.57l0.583,-172.799Z" style="fill:url(#_Radial1);stroke:#646464;stroke-width:0.22px;"/><g id="Diamonds"><path id="rect3362" d="M72.532,155.313l42.966,-59.646l-43.202,-59.975l-42.966,59.646l43.202,59.975Z" style="fill:url(#_Linear2);stroke:#640000;stroke-width:0.17px;"/><path id="rect6977" d="M16.885,51.744l7.157,-9.959l-7.196,-10.014l-7.157,9.959l7.196,10.014Z" style="fill:url(#_Linear3);stroke:#640000;stroke-width:0.03px;"/><path id="rect4360" d="M127.285,180.864l7.158,-9.959l-7.197,-10.014l-7.157,9.959l7.196,10.014Z" style="fill:url(#_Linear4);stroke:#640000;stroke-width:0.03px;"/></g><g id="Red-Numbers"><g opacity="0.94"><g id="text4292"><path d="M13.446,29.344l0,-1.998c0.761,0.279 1.433,0.419 2.016,0.419c0.761,0 1.292,-0.245 1.593,-0.736c0.301,-0.49 0.451,-1.348 0.451,-2.573l0,-13.964l1.997,0l0,13.889c0,3.459 -1.448,5.189 -4.345,5.189c-0.444,0 -1.014,-0.075 -1.712,-0.226Z" style="fill:#960000;fill-rule:nonzero;"/><path d="M123.7,157.96l0,-1.998c0.761,0.28 1.433,0.419 2.016,0.419c0.76,0 1.291,-0.245 1.592,-0.736c0.302,-0.49 0.452,-1.348 0.452,-2.572l0,-13.965l1.997,0l0,13.889c0,3.459 -1.449,5.189 -4.345,5.189c-0.444,0 -1.015,-0.075 -1.712,-0.226Z" style="fill:#960000;fill-rule:nonzero;"/></g></g></g><g id="text4596"><path d="M64.594,115.49l0,-3.924c1.688,0.549 3.178,0.823 4.472,0.823c1.688,0 2.865,-0.482 3.533,-1.445c0.668,-0.963 1.002,-2.647 1.002,-5.052l0,-27.422l4.43,0l0,27.274c0,6.792 -3.213,10.189 -9.64,10.189c-0.984,0 -2.25,-0.148 -3.797,-0.443Z" style="fill:url(#_Linear5);fill-rule:nonzero;"/></g><defs><radialGradient id="_Radial1" cx="0" cy="0" r="1" gradientUnits="userSpaceOnUse" gradientTransform="matrix(126.562,97.7279,-71.6611,95.2942,71.6758,96.2223)"><stop offset="0%" style="stop-color:#fff;stop-opacity:1"/><stop offset="100%" style="stop-color:#dcdcdc;stop-opacity:1"/></radialGradient><linearGradient id="_Linear2" x1="0" y1="0" x2="1" y2="0" gradientUnits="userSpaceOnUse" gradientTransform="matrix(-1.01374,121.856,-87.7783,-1.4073,71.9048,35.3332)"><stop offset="0%" style="stop-color:#e00000;stop-opacity:1"/><stop offset="100%" style="stop-color:#810000;stop-opacity:1"/></linearGradient><linearGradient id="_Linear3" x1="0" y1="0" x2="1" y2="0" gradientUnits="userSpaceOnUse" gradientTransform="matrix(-0.168869,20.3461,-14.6221,-0.234974,16.7807,31.711)"><stop offset="0%" style="stop-color:#e00000;stop-opacity:1"/><stop offset="100%" style="stop-color:#810000;stop-opacity:1"/></linearGradient><linearGradient id="_Linear4" x1="0" y1="0" x2="1" y2="0" gradientUnits="userSpaceOnUse" gradientTransform="matrix(-0.168869,20.3461,-14.6221,-0.234974,127.181,160.831)"><stop offset="0%" style="stop-color:#e00000;stop-opacity:1"/><stop offset="100%" style="stop-color:#810000;stop-opacity:1"/></linearGradient><linearGradient id="_Linear5" x1="0" y1="0" x2="1" y2="0" gradientUnits="userSpaceOnUse" gradientTransform="matrix(0.0983952,31.9224,-31.9224,0.0983952,130.695,187.206)"><stop offset="0%" style="stop-color:#fff;stop-opacity:1"/><stop offset="100%" style="stop-color:#dcdcdc;stop-opacity:1"/></linearGradient></defs></svg>