<?xml version="1.0" encoding="UTF-8" standalone="no"?><!DOCTYPE svg PUBLIC "-//W3C//DTD SVG 1.1//EN" "http://www.w3.org/Graphics/SVG/1.1/DTD/svg11.dtd"><svg width="100%" height="100%" viewBox="0 0 144 193" version="1.1" xmlns="http://www.w3.org/2000/svg" xmlns:xlink="http://www.w3.org/1999/xlink" xml:space="preserve" style="fill-rule:evenodd;clip-rule:evenodd;"><path id="Card-background" d="M143.997,9.6c0.002,-5.298 -4.272,-9.6 -9.538,-9.6l-124.918,0c-5.266,0 -9.542,4.302 -9.544,9.6l-0.048,172.8c-0.001,5.298 4.273,9.6 9.539,9.6l124.917,0c5.266,0 9.543,-4.302 9.544,-9.6l0.048,-172.8Z" style="fill:url(#_Radial1);stroke:#646464;stroke-width:0.22px;"/><g id="Spades"><path id="path7857" d="M72.206,40.322c-12,33.6 -42.425,50.471 -42.879,70.08c0,26.4 28.813,23.808 38.079,11.52c4.8,12 -5.073,21.255 -9.6,28.8l28.8,0c-4.526,-7.545 -14.4,-16.8 -9.6,-28.8c9.267,12.288 38.08,14.88 38.08,-11.52c-0.454,-19.609 -30.88,-36.48 -42.88,-70.08Z" style="fill:url(#_Linear2);stroke:#000;stroke-width:0.24px;"/><path id="path7954" d="M16.338,31.082c-2.289,6.108 -8.091,9.175 -8.178,12.739c0,4.799 5.495,4.328 7.262,2.094c0.916,2.182 -0.967,3.864 -1.831,5.236l5.493,0c-0.863,-1.372 -2.746,-3.054 -1.831,-5.236c1.767,2.234 7.262,2.705 7.262,-2.094c-0.086,-3.564 -5.889,-6.631 -8.177,-12.739Z" style="fill:url(#_Linear3);stroke:#000;stroke-width:0.04px;"/><path id="path4963" d="M127.789,161.791c-2.288,-6.108 -8.091,-9.175 -8.177,-12.74c0,-4.799 5.495,-4.328 7.262,-2.094c0.915,-2.181 -0.968,-3.864 -1.831,-5.235l5.493,0c-0.864,1.371 -2.747,3.054 -1.831,5.235c1.767,-2.234 7.262,-2.705 7.262,2.094c-0.087,3.565 -5.889,6.632 -8.178,12.74l0,0Z" style="fill:url(#_Linear4);stroke:#000;stroke-width:0.04px;"/></g><g id="Black-Text"><path d="M13.34,23.456l-1.738,1.26c0.814,1.197 2.048,1.816 3.701,1.855c1.198,-0.013 2.25,-0.42 3.155,-1.221c0.911,-0.781 1.38,-1.888 1.406,-3.32l0,-9.814l-2.158,0l0,9.599c0,0.482 -0.075,0.882 -0.225,1.201c-0.143,0.332 -0.342,0.599 -0.596,0.801c-0.521,0.41 -1.067,0.609 -1.64,0.596c-0.43,0 -0.804,-0.101 -1.123,-0.303c-0.319,-0.169 -0.58,-0.387 -0.782,-0.654Z" style="fill:#010101;fill-rule:nonzero;"/><path d="M131.026,168.445l1.739,-1.259c-0.814,-1.198 -2.048,-1.817 -3.702,-1.856c-1.197,0.013 -2.249,0.42 -3.154,1.221c-0.911,0.781 -1.38,1.888 -1.406,3.32l0,9.815l2.158,0l0,-9.6c0,-0.482 0.075,-0.882 0.225,-1.201c0.143,-0.332 0.342,-0.599 0.595,-0.801c0.521,-0.41 1.068,-0.609 1.641,-0.596c0.43,0 0.804,0.101 1.123,0.303c0.319,0.169 0.58,0.387 0.781,0.654Z" style="fill:#030303;fill-rule:nonzero;"/></g><g id="Center-Text" transform="matrix(0.233905,0,0,0.218311,72.7568,112.825)"><path d="M-33.549,-32.959l-19.11,13.849c8.946,13.17 22.509,19.969 40.689,20.398c13.169,-0.143 24.728,-4.616 34.676,-13.419c10.02,-8.589 15.174,-20.756 15.46,-36.502l0,-107.895l-23.726,0l0,105.533c0,5.296 -0.823,9.698 -2.47,13.205c-1.574,3.65 -3.757,6.585 -6.548,8.803c-5.726,4.509 -11.738,6.692 -18.037,6.549c-4.723,0 -8.839,-1.109 -12.346,-3.328c-3.507,-1.861 -6.37,-4.259 -8.588,-7.193Z" style="fill:none;"/><path d="M-33.549,-32.959l-19.11,13.849c8.946,13.17 22.509,19.969 40.689,20.398c13.169,-0.143 24.728,-4.616 34.676,-13.419c10.02,-8.589 15.174,-20.756 15.46,-36.502l0,-107.895l-23.726,0l0,105.533c0,5.296 -0.823,9.698 -2.47,13.205c-1.574,3.65 -3.757,6.585 -6.548,8.803c-5.726,4.509 -11.738,6.692 -18.037,6.549c-4.723,0 -8.839,-1.109 -12.346,-3.328c-3.507,-1.861 -6.37,-4.259 -8.588,-7.193Z" style="fill:#fff;fill-rule:nonzero;"/></g><defs><radialGradient id="_Radial1" cx="0" cy="0" r="1" gradientUnits="userSpaceOnUse" gradientTransform="matrix(126.864,97.3356,-71.3658,95.5156,71.9734,96)"><stop offset="0%" style="stop-color:#fff;stop-opacity:1"/><stop offset="100%" style="stop-color:#dcdcdc;stop-opacity:1"/></radialGradient><linearGradient id="_Linear2" x1="0" y1="0" x2="1" y2="0" gradientUnits="userSpaceOnUse" gradientTransform="matrix(4.55569e-15,74.4,-74.4,4.55569e-15,72.2064,40.4417)"><stop offset="0%" style="stop-color:#737373;stop-opacity:1"/><stop offset="100%" style="stop-color:#000;stop-opacity:1"/></linearGradient><linearGradient id="_Linear3" x1="0" y1="0" x2="1" y2="0" gradientUnits="userSpaceOnUse" gradientTransform="matrix(8.28143e-16,13.5246,-13.5246,8.28143e-16,16.3377,31.1036)"><stop offset="0%" style="stop-color:#737373;stop-opacity:1"/><stop offset="100%" style="stop-color:#000;stop-opacity:1"/></linearGradient><linearGradient id="_Linear4" x1="0" y1="0" x2="1" y2="0" gradientUnits="userSpaceOnUse" gradientTransform="matrix(8.28143e-16,-13.5246,-13.5246,-8.28143e-16,127.789,161.769)"><stop offset="0%" style="stop-color:#737373;stop-opacity:1"/><stop offset="100%" style="stop-color:#000;stop-opacity:1"/></linearGradient></defs></svg>