<?xml version="1.0" encoding="UTF-8" standalone="no"?><!DOCTYPE svg PUBLIC "-//W3C//DTD SVG 1.1//EN" "http://www.w3.org/Graphics/SVG/1.1/DTD/svg11.dtd"><svg width="100%" height="100%" viewBox="0 0 144 193" version="1.1" xmlns="http://www.w3.org/2000/svg" xmlns:xlink="http://www.w3.org/1999/xlink" xml:space="preserve" style="fill-rule:evenodd;clip-rule:evenodd;"><path id="Card-background" d="M143.967,10.046c0.018,-5.299 -4.269,-9.614 -9.568,-9.63l-124.799,-0.386c-5.298,-0.017 -9.615,4.272 -9.632,9.57l-0.583,172.799c-0.018,5.298 4.269,9.613 9.567,9.63l124.8,0.386c5.298,0.016 9.614,-4.272 9.632,-9.57l0.583,-172.799Z" style="fill:url(#_Radial1);stroke:#646464;stroke-width:0.22px;"/><g id="Clubs"><path id="path7930" d="M72.995,40.95c-14.746,0 -26.88,11.538 -26.88,25.56c0,0 0,0 0,0c0.012,6.15 2.358,12.095 6.605,16.734c-1.232,-0.186 -2.477,-0.284 -3.725,-0.294c-13.825,0 -25.2,10.833 -25.2,24c0,13.166 11.375,24 25.2,24c7.316,-0.006 14.279,-3.045 19.059,-8.32c3.954,11.554 -5.529,20.529 -9.939,27.88l28.8,0c-4.437,-7.395 -14.006,-16.432 -9.868,-28.086c4.778,5.394 11.818,8.516 19.228,8.526c13.824,0 25.2,-10.834 25.2,-24c0,-13.167 -11.376,-24 -25.2,-24c-0.963,0.009 -1.923,0.072 -2.878,0.186c4.175,-4.628 6.474,-10.528 6.478,-16.626c0,0 0,0 0,0c0,-14.022 -12.134,-25.56 -26.88,-25.56l0,0Z" style="fill:url(#_Linear2);stroke:#000;stroke-width:0.24px;"/><path id="path7975" d="M16.982,31.272c-2.53,0 -4.612,2.056 -4.612,4.554c0.002,1.096 0.405,2.155 1.133,2.981c-0.211,-0.033 -0.425,-0.051 -0.639,-0.052c-2.371,0 -4.323,1.93 -4.323,4.275c0,0 0,0 0,0c0,2.346 1.952,4.276 4.323,4.276c0,0 0,0 0,0c1.255,-0.001 2.45,-0.543 3.27,-1.482c0.678,2.058 -0.948,3.657 -1.705,4.966l4.941,0c-0.761,-1.317 -2.403,-2.927 -1.693,-5.003c0.82,0.961 2.027,1.517 3.299,1.519c0,0 0,0 0,0c2.371,0 4.323,-1.93 4.323,-4.276c0,0 0,0 0,0c0,-2.345 -1.952,-4.275 -4.323,-4.275c-0.165,0.001 -0.33,0.012 -0.494,0.033c0.716,-0.825 1.111,-1.876 1.111,-2.962c0,-2.498 -2.081,-4.554 -4.611,-4.554l0,0Z" style="fill:url(#_Linear3);stroke:#000;stroke-width:0.04px;"/><path id="path4821" d="M126.902,160.872c-2.53,0 -4.612,2.056 -4.612,4.554c0.002,1.096 0.405,2.155 1.133,2.981c-0.211,-0.033 -0.425,-0.051 -0.639,-0.052c-2.371,0 -4.323,1.93 -4.323,4.275c0,0 0,0 0,0c0,2.346 1.952,4.276 4.323,4.276c0,0 0,0 0,0c1.255,-0.001 2.45,-0.543 3.27,-1.482c0.678,2.058 -0.948,3.657 -1.705,4.966l4.941,0c-0.761,-1.317 -2.403,-2.927 -1.693,-5.003c0.82,0.961 2.027,1.517 3.299,1.519c0,0 0,0 0,0c2.371,0 4.323,-1.93 4.323,-4.276c0,0 0,0 0,0c0,-2.345 -1.952,-4.275 -4.323,-4.275c-0.165,0.001 -0.33,0.012 -0.494,0.033c0.716,-0.825 1.111,-1.876 1.111,-2.962c0,-2.498 -2.081,-4.554 -4.611,-4.554l0,0Z" style="fill:url(#_Linear4);stroke:#000;stroke-width:0.04px;"/></g><g id="text4596"><path d="M87.52,117.853c-4.908,-1.59 -9.021,-3.481 -12.34,-5.675c-1.322,0.141 -2.341,0.211 -3.059,0.211c-4.19,0 -7.597,-1.519 -10.22,-4.556c-2.622,-3.038 -3.933,-6.982 -3.933,-11.834c0,-4.978 1.325,-8.954 3.976,-11.928c2.65,-2.974 6.191,-4.461 10.62,-4.461c4.444,0 7.988,1.49 10.632,4.471c2.643,2.982 3.965,6.975 3.965,11.982c0,7.172 -2.665,12.136 -7.994,14.892c3.586,1.575 7.305,2.7 11.158,3.375l-2.805,3.523Zm-15.082,-8.775c3.192,0 5.66,-1.147 7.404,-3.439c1.743,-2.292 2.615,-5.533 2.615,-9.724c0,-4.064 -0.872,-7.246 -2.615,-9.545c-1.744,-2.299 -4.17,-3.449 -7.278,-3.449c-3.107,0 -5.533,1.15 -7.277,3.449c-1.744,2.299 -2.616,5.495 -2.616,9.587c0,4.078 0.865,7.285 2.595,9.619c1.73,2.334 4.12,3.502 7.172,3.502Z" style="fill:url(#_Linear5);fill-rule:nonzero;"/><path d="M24.155,29.918c-2.499,-0.809 -4.594,-1.772 -6.284,-2.89c-0.673,0.072 -1.193,0.108 -1.558,0.108c-2.134,0 -3.869,-0.774 -5.204,-2.32c-1.336,-1.547 -2.004,-3.556 -2.004,-6.027c0,-2.535 0.675,-4.56 2.025,-6.075c1.35,-1.514 3.153,-2.271 5.409,-2.271c2.263,0 4.068,0.759 5.414,2.277c1.346,1.518 2.019,3.552 2.019,6.101c0,3.653 -1.357,6.181 -4.071,7.584c1.826,0.803 3.721,1.375 5.683,1.719l-1.429,1.794Zm-7.681,-4.469c1.626,0 2.883,-0.583 3.771,-1.751c0.888,-1.167 1.332,-2.818 1.332,-4.952c0,-2.069 -0.444,-3.69 -1.332,-4.861c-0.888,-1.171 -2.123,-1.756 -3.706,-1.756c-1.583,0 -2.818,0.585 -3.706,1.756c-0.888,1.171 -1.332,2.799 -1.332,4.883c0,2.077 0.44,3.709 1.321,4.898c0.881,1.189 2.098,1.783 3.652,1.783Z" style="fill-rule:nonzero;"/><path d="M134.294,159.372c-2.5,-0.809 -4.594,-1.773 -6.284,-2.89c-0.674,0.072 -1.193,0.108 -1.558,0.108c-2.134,0 -3.869,-0.774 -5.205,-2.321c-1.335,-1.547 -2.003,-3.555 -2.003,-6.026c0,-2.535 0.675,-4.56 2.025,-6.075c1.35,-1.514 3.153,-2.272 5.409,-2.272c2.263,0 4.067,0.759 5.414,2.278c1.346,1.518 2.019,3.552 2.019,6.101c0,3.653 -1.357,6.181 -4.071,7.584c1.826,0.802 3.72,1.375 5.683,1.719l-1.429,1.794Zm-7.681,-4.469c1.626,0 2.883,-0.584 3.771,-1.751c0.888,-1.167 1.332,-2.818 1.332,-4.952c0,-2.07 -0.444,-3.69 -1.332,-4.861c-0.888,-1.171 -2.124,-1.756 -3.706,-1.756c-1.583,0 -2.818,0.585 -3.706,1.756c-0.888,1.171 -1.332,2.798 -1.332,4.882c0,2.077 0.44,3.71 1.321,4.899c0.881,1.189 2.098,1.783 3.652,1.783Z" style="fill-rule:nonzero;"/></g><defs><radialGradient id="_Radial1" cx="0" cy="0" r="1" gradientUnits="userSpaceOnUse" gradientTransform="matrix(126.562,97.7279,-71.6611,95.2942,71.6758,96.2223)"><stop offset="0%" style="stop-color:#fff;stop-opacity:1"/><stop offset="100%" style="stop-color:#dcdcdc;stop-opacity:1"/></radialGradient><linearGradient id="_Linear2" x1="0" y1="0" x2="1" y2="0" gradientUnits="userSpaceOnUse" gradientTransform="matrix(-0.96,74.4,-74.4,-0.96,73.4748,40.2296)"><stop offset="0%" style="stop-color:#737373;stop-opacity:1"/><stop offset="100%" style="stop-color:#000;stop-opacity:1"/></linearGradient><linearGradient id="_Linear3" x1="0" y1="0" x2="1" y2="0" gradientUnits="userSpaceOnUse" gradientTransform="matrix(-0.164698,13.2543,-13.2543,-0.164698,17.0641,31.1441)"><stop offset="0%" style="stop-color:#737373;stop-opacity:1"/><stop offset="100%" style="stop-color:#000;stop-opacity:1"/></linearGradient><linearGradient id="_Linear4" x1="0" y1="0" x2="1" y2="0" gradientUnits="userSpaceOnUse" gradientTransform="matrix(-0.164698,13.2543,-13.2543,-0.164698,126.984,160.744)"><stop offset="0%" style="stop-color:#737373;stop-opacity:1"/><stop offset="100%" style="stop-color:#000;stop-opacity:1"/></linearGradient><linearGradient id="_Linear5" x1="0" y1="0" x2="1" y2="0" gradientUnits="userSpaceOnUse" gradientTransform="matrix(0.0983952,31.9224,-31.9224,0.0983952,128.055,189.126)"><stop offset="0%" style="stop-color:#fff;stop-opacity:1"/><stop offset="100%" style="stop-color:#dcdcdc;stop-opacity:1"/></linearGradient></defs></svg>