<?xml version="1.0" encoding="UTF-8" standalone="no"?><!DOCTYPE svg PUBLIC "-//W3C//DTD SVG 1.1//EN" "http://www.w3.org/Graphics/SVG/1.1/DTD/svg11.dtd"><svg width="100%" height="100%" viewBox="0 0 144 193" version="1.1" xmlns="http://www.w3.org/2000/svg" xmlns:xlink="http://www.w3.org/1999/xlink" xml:space="preserve" style="fill-rule:evenodd;clip-rule:evenodd;"><path id="Card-background" d="M143.967,10.046c0.018,-5.299 -4.269,-9.614 -9.568,-9.63l-124.799,-0.386c-5.298,-0.017 -9.615,4.272 -9.632,9.57l-0.583,172.799c-0.018,5.298 4.269,9.613 9.567,9.63l124.8,0.386c5.298,0.016 9.614,-4.272 9.632,-9.57l0.583,-172.799Z" style="fill:url(#_Radial1);stroke:#646464;stroke-width:0.22px;"/><g id="Hearts"><path id="path7647" d="M44.363,45.092c-7.165,-0.059 -14.434,3.653 -20.078,14.965c-16.247,32.564 48,78.956 47.619,95.833l0,0.374c0,0 0.156,-0.153 0.191,-0.187c0.034,0.033 0.19,0.187 0.19,0.187l0,-0.374c0,-14.413 63.866,-63.269 47.619,-95.833c-16.235,-32.541 -45.832,-2.277 -47.809,-0.199c-1.289,-1.354 -14.284,-14.656 -27.732,-14.766l0,0Z" style="fill:url(#_Linear2);stroke:url(#_Linear3);stroke-width:0.24px;"/><path id="path8171" d="M12.151,32.963c-1.139,-0.009 -2.295,0.574 -3.192,2.349c-2.584,5.11 7.631,12.39 7.571,15.038l0,0.059c0,0 0.024,-0.024 0.03,-0.03c0.005,0.006 0.03,0.03 0.03,0.03l0,-0.059c0,-2.262 10.154,-9.928 7.571,-15.038c-2.581,-5.107 -7.287,-0.357 -7.601,-0.031c-0.205,-0.213 -2.271,-2.3 -4.409,-2.318l0,0Z" style="fill:url(#_Linear4);stroke:url(#_Linear5);stroke-width:0.04px;"/><path id="path5021" d="M122.551,162.563c-1.139,-0.009 -2.295,0.574 -3.192,2.349c-2.584,5.11 7.631,12.39 7.571,15.038l0,0.059c0,0 0.024,-0.024 0.03,-0.03c0.005,0.006 0.03,0.03 0.03,0.03l0,-0.059c0,-2.262 10.154,-9.928 7.571,-15.038c-2.581,-5.107 -7.287,-0.357 -7.601,-0.031c-0.205,-0.213 -2.271,-2.3 -4.409,-2.318l0,0Z" style="fill:url(#_Linear6);stroke:url(#_Linear7);stroke-width:0.04px;"/></g><g id="Red-Numbers"><g opacity="0.94"><g id="text4292"><path d="M22.784,30.383c-2.212,-0.809 -4.066,-1.772 -5.562,-2.889c-0.596,0.071 -1.056,0.107 -1.379,0.107c-1.889,0 -3.424,-0.773 -4.606,-2.32c-1.182,-1.547 -1.774,-3.556 -1.774,-6.026c0,-2.536 0.598,-4.561 1.793,-6.075c1.195,-1.515 2.79,-2.272 4.787,-2.272c2.003,0 3.6,0.759 4.792,2.277c1.191,1.518 1.787,3.552 1.787,6.102c0,3.652 -1.201,6.18 -3.603,7.584c1.616,0.802 3.293,1.375 5.029,1.719l-1.264,1.793Zm-6.798,-4.468c1.439,0 2.551,-0.584 3.337,-1.751c0.786,-1.168 1.179,-2.818 1.179,-4.952c0,-2.07 -0.393,-3.69 -1.179,-4.861c-0.786,-1.171 -1.879,-1.757 -3.28,-1.757c-1.401,0 -2.494,0.586 -3.28,1.757c-0.786,1.171 -1.179,2.798 -1.179,4.882c0,2.077 0.39,3.71 1.169,4.898c0.78,1.189 1.857,1.784 3.233,1.784Z" style="fill:#960000;fill-rule:nonzero;"/><path d="M132.799,159.626c-2.212,-0.809 -4.066,-1.773 -5.562,-2.89c-0.596,0.072 -1.056,0.108 -1.379,0.108c-1.889,0 -3.424,-0.774 -4.606,-2.321c-1.182,-1.546 -1.774,-3.555 -1.774,-6.026c0,-2.535 0.598,-4.56 1.793,-6.075c1.195,-1.514 2.79,-2.272 4.787,-2.272c2.003,0 3.6,0.759 4.792,2.278c1.191,1.518 1.787,3.552 1.787,6.101c0,3.653 -1.201,6.181 -3.603,7.584c1.616,0.802 3.293,1.375 5.029,1.719l-1.264,1.794Zm-6.798,-4.469c1.439,0 2.551,-0.583 3.337,-1.751c0.786,-1.167 1.179,-2.818 1.179,-4.952c0,-2.07 -0.393,-3.69 -1.179,-4.861c-0.786,-1.171 -1.879,-1.756 -3.28,-1.756c-1.401,0 -2.494,0.585 -3.28,1.756c-0.786,1.171 -1.179,2.799 -1.179,4.883c0,2.076 0.39,3.709 1.169,4.898c0.78,1.189 1.857,1.783 3.233,1.783Z" style="fill:#960000;fill-rule:nonzero;"/></g></g></g><g id="text4596"><path d="M87.28,115.213c-4.908,-1.59 -9.021,-3.481 -12.34,-5.675c-1.322,0.141 -2.341,0.211 -3.059,0.211c-4.19,0 -7.597,-1.519 -10.22,-4.556c-2.622,-3.038 -3.933,-6.982 -3.933,-11.834c0,-4.978 1.325,-8.954 3.976,-11.928c2.65,-2.974 6.191,-4.461 10.62,-4.461c4.444,0 7.988,1.49 10.632,4.471c2.643,2.982 3.965,6.975 3.965,11.982c0,7.172 -2.665,12.136 -7.994,14.892c3.586,1.575 7.305,2.7 11.158,3.375l-2.805,3.523Zm-15.082,-8.775c3.192,0 5.66,-1.147 7.404,-3.439c1.743,-2.292 2.615,-5.533 2.615,-9.724c0,-4.064 -0.872,-7.246 -2.615,-9.545c-1.744,-2.299 -4.17,-3.449 -7.278,-3.449c-3.107,0 -5.533,1.15 -7.277,3.449c-1.744,2.299 -2.616,5.495 -2.616,9.587c0,4.078 0.865,7.285 2.595,9.619c1.73,2.334 4.12,3.502 7.172,3.502Z" style="fill:url(#_Linear8);fill-rule:nonzero;"/></g><defs><radialGradient id="_Radial1" cx="0" cy="0" r="1" gradientUnits="userSpaceOnUse" gradientTransform="matrix(126.562,97.7279,-71.6611,95.2942,71.6758,96.2223)"><stop offset="0%" style="stop-color:#fff;stop-opacity:1"/><stop offset="100%" style="stop-color:#dcdcdc;stop-opacity:1"/></radialGradient><linearGradient id="_Linear2" x1="0" y1="0" x2="1" y2="0" gradientUnits="userSpaceOnUse" gradientTransform="matrix(2.39999,91.3969,-91.3969,2.39999,72.2852,45.6257)"><stop offset="0%" style="stop-color:#e00000;stop-opacity:1"/><stop offset="100%" style="stop-color:#560000;stop-opacity:1"/></linearGradient><linearGradient id="_Linear3" x1="0" y1="0" x2="1" y2="0" gradientUnits="userSpaceOnUse" gradientTransform="matrix(2.39999,91.3969,-91.3969,2.39999,72.2852,45.6257)"><stop offset="0%" style="stop-color:#e00000;stop-opacity:1"/><stop offset="100%" style="stop-color:#560000;stop-opacity:1"/></linearGradient><linearGradient id="_Linear4" x1="0" y1="0" x2="1" y2="0" gradientUnits="userSpaceOnUse" gradientTransform="matrix(0.381581,14.342,-14.342,0.381581,16.5901,33.0472)"><stop offset="0%" style="stop-color:#e00000;stop-opacity:1"/><stop offset="100%" style="stop-color:#560000;stop-opacity:1"/></linearGradient><linearGradient id="_Linear5" x1="0" y1="0" x2="1" y2="0" gradientUnits="userSpaceOnUse" gradientTransform="matrix(0.381581,14.342,-14.342,0.381581,16.5901,33.0472)"><stop offset="0%" style="stop-color:#e00000;stop-opacity:1"/><stop offset="100%" style="stop-color:#560000;stop-opacity:1"/></linearGradient><linearGradient id="_Linear6" x1="0" y1="0" x2="1" y2="0" gradientUnits="userSpaceOnUse" gradientTransform="matrix(0.381581,14.342,-14.342,0.381581,126.99,162.647)"><stop offset="0%" style="stop-color:#e00000;stop-opacity:1"/><stop offset="100%" style="stop-color:#560000;stop-opacity:1"/></linearGradient><linearGradient id="_Linear7" x1="0" y1="0" x2="1" y2="0" gradientUnits="userSpaceOnUse" gradientTransform="matrix(0.381581,14.342,-14.342,0.381581,126.99,162.647)"><stop offset="0%" style="stop-color:#e00000;stop-opacity:1"/><stop offset="100%" style="stop-color:#560000;stop-opacity:1"/></linearGradient><linearGradient id="_Linear8" x1="0" y1="0" x2="1" y2="0" gradientUnits="userSpaceOnUse" gradientTransform="matrix(0.0983952,31.9224,-31.9224,0.0983952,127.815,186.486)"><stop offset="0%" style="stop-color:#fff;stop-opacity:1"/><stop offset="100%" style="stop-color:#dcdcdc;stop-opacity:1"/></linearGradient></defs></svg>