<?xml version="1.0" encoding="UTF-8" standalone="no"?><!DOCTYPE svg PUBLIC "-//W3C//DTD SVG 1.1//EN" "http://www.w3.org/Graphics/SVG/1.1/DTD/svg11.dtd"><svg width="100%" height="100%" viewBox="0 0 144 193" version="1.1" xmlns="http://www.w3.org/2000/svg" xmlns:xlink="http://www.w3.org/1999/xlink" xml:space="preserve" style="fill-rule:evenodd;clip-rule:evenodd;"><path id="Card-background" d="M143.967,10.046c0.018,-5.299 -4.269,-9.614 -9.568,-9.63l-124.799,-0.386c-5.298,-0.017 -9.615,4.272 -9.632,9.57l-0.583,172.799c-0.018,5.298 4.269,9.613 9.567,9.63l124.8,0.386c5.298,0.016 9.614,-4.272 9.632,-9.57l0.583,-172.799Z" style="fill:url(#_Radial1);stroke:#646464;stroke-width:0.22px;"/><g id="Spades"><path id="path7857" d="M72.206,40.322c-12,33.6 -42.425,50.471 -42.879,70.08c0,26.4 28.813,23.808 38.079,11.52c4.8,12 -5.073,21.255 -9.6,28.8l28.8,0c-4.526,-7.545 -14.4,-16.8 -9.6,-28.8c9.267,12.288 38.08,14.88 38.08,-11.52c-0.454,-19.609 -30.88,-36.48 -42.88,-70.08Z" style="fill:url(#_Linear2);stroke:#000;stroke-width:0.24px;"/><path id="path7954" d="M16.429,31.082c-2.288,6.108 -8.091,9.175 -8.177,12.739c0,4.799 5.495,4.328 7.262,2.094c0.915,2.182 -0.968,3.864 -1.831,5.236l5.493,0c-0.864,-1.372 -2.747,-3.054 -1.831,-5.236c1.767,2.234 7.262,2.705 7.262,-2.094c-0.087,-3.564 -5.889,-6.631 -8.178,-12.739Z" style="fill:url(#_Linear3);stroke:#000;stroke-width:0.04px;"/><path id="path4963" d="M126.829,160.202c-2.288,6.108 -8.091,9.175 -8.177,12.739c0,4.799 5.495,4.328 7.262,2.094c0.915,2.182 -0.968,3.864 -1.831,5.236l5.493,0c-0.864,-1.372 -2.747,-3.054 -1.831,-5.236c1.767,2.234 7.262,2.705 7.262,-2.094c-0.087,-3.564 -5.889,-6.631 -8.178,-12.739l0,0Z" style="fill:url(#_Linear4);stroke:#000;stroke-width:0.04px;"/></g><g id="text4596"><path d="M87.52,115.933c-4.908,-1.59 -9.021,-3.481 -12.34,-5.675c-1.322,0.141 -2.341,0.211 -3.059,0.211c-4.19,0 -7.597,-1.519 -10.22,-4.556c-2.622,-3.038 -3.933,-6.982 -3.933,-11.834c0,-4.978 1.325,-8.954 3.976,-11.928c2.65,-2.974 6.191,-4.461 10.62,-4.461c4.444,0 7.988,1.49 10.632,4.471c2.643,2.982 3.965,6.975 3.965,11.982c0,7.172 -2.665,12.136 -7.994,14.892c3.586,1.575 7.305,2.7 11.158,3.375l-2.805,3.523Zm-15.082,-8.775c3.192,0 5.66,-1.147 7.404,-3.439c1.743,-2.292 2.615,-5.533 2.615,-9.724c0,-4.064 -0.872,-7.246 -2.615,-9.545c-1.744,-2.299 -4.17,-3.449 -7.278,-3.449c-3.107,0 -5.533,1.15 -7.277,3.449c-1.744,2.299 -2.616,5.495 -2.616,9.587c0,4.078 0.865,7.285 2.595,9.619c1.73,2.334 4.12,3.502 7.172,3.502Z" style="fill:url(#_Linear5);fill-rule:nonzero;"/><path d="M24.155,30.398c-2.499,-0.809 -4.594,-1.772 -6.284,-2.89c-0.673,0.072 -1.193,0.108 -1.558,0.108c-2.134,0 -3.869,-0.774 -5.204,-2.32c-1.336,-1.547 -2.004,-3.556 -2.004,-6.027c0,-2.535 0.675,-4.56 2.025,-6.075c1.35,-1.514 3.153,-2.271 5.409,-2.271c2.263,0 4.068,0.759 5.414,2.277c1.346,1.518 2.019,3.552 2.019,6.101c0,3.653 -1.357,6.181 -4.071,7.584c1.826,0.803 3.721,1.375 5.683,1.719l-1.429,1.794Zm-7.681,-4.469c1.626,0 2.883,-0.583 3.771,-1.751c0.888,-1.167 1.332,-2.818 1.332,-4.952c0,-2.069 -0.444,-3.69 -1.332,-4.861c-0.888,-1.171 -2.123,-1.756 -3.706,-1.756c-1.583,0 -2.818,0.585 -3.706,1.756c-0.888,1.171 -1.332,2.799 -1.332,4.883c0,2.077 0.44,3.709 1.321,4.898c0.881,1.189 2.098,1.783 3.652,1.783Z" style="fill-rule:nonzero;"/><path d="M134.054,158.892c-2.5,-0.809 -4.594,-1.773 -6.284,-2.89c-0.674,0.072 -1.193,0.108 -1.558,0.108c-2.134,0 -3.869,-0.774 -5.205,-2.321c-1.335,-1.547 -2.003,-3.555 -2.003,-6.026c0,-2.535 0.675,-4.56 2.025,-6.075c1.35,-1.514 3.153,-2.272 5.409,-2.272c2.263,0 4.067,0.759 5.414,2.278c1.346,1.518 2.019,3.552 2.019,6.101c0,3.653 -1.357,6.181 -4.071,7.584c1.826,0.802 3.72,1.375 5.683,1.719l-1.429,1.794Zm-7.681,-4.469c1.626,0 2.883,-0.584 3.771,-1.751c0.888,-1.167 1.332,-2.818 1.332,-4.952c0,-2.07 -0.444,-3.69 -1.332,-4.861c-0.888,-1.171 -2.124,-1.756 -3.706,-1.756c-1.583,0 -2.818,0.585 -3.706,1.756c-0.888,1.171 -1.332,2.798 -1.332,4.882c0,2.077 0.44,3.71 1.321,4.899c0.881,1.189 2.098,1.783 3.652,1.783Z" style="fill-rule:nonzero;"/></g><defs><radialGradient id="_Radial1" cx="0" cy="0" r="1" gradientUnits="userSpaceOnUse" gradientTransform="matrix(126.562,97.7279,-71.6611,95.2942,71.6758,96.2223)"><stop offset="0%" style="stop-color:#fff;stop-opacity:1"/><stop offset="100%" style="stop-color:#dcdcdc;stop-opacity:1"/></radialGradient><linearGradient id="_Linear2" x1="0" y1="0" x2="1" y2="0" gradientUnits="userSpaceOnUse" gradientTransform="matrix(4.55569e-15,74.4,-74.4,4.55569e-15,72.2064,40.4417)"><stop offset="0%" style="stop-color:#737373;stop-opacity:1"/><stop offset="100%" style="stop-color:#000;stop-opacity:1"/></linearGradient><linearGradient id="_Linear3" x1="0" y1="0" x2="1" y2="0" gradientUnits="userSpaceOnUse" gradientTransform="matrix(8.28143e-16,13.5246,-13.5246,8.28143e-16,16.4293,31.1036)"><stop offset="0%" style="stop-color:#737373;stop-opacity:1"/><stop offset="100%" style="stop-color:#000;stop-opacity:1"/></linearGradient><linearGradient id="_Linear4" x1="0" y1="0" x2="1" y2="0" gradientUnits="userSpaceOnUse" gradientTransform="matrix(8.28143e-16,13.5246,-13.5246,8.28143e-16,126.829,160.224)"><stop offset="0%" style="stop-color:#737373;stop-opacity:1"/><stop offset="100%" style="stop-color:#000;stop-opacity:1"/></linearGradient><linearGradient id="_Linear5" x1="0" y1="0" x2="1" y2="0" gradientUnits="userSpaceOnUse" gradientTransform="matrix(0.0983952,31.9224,-31.9224,0.0983952,128.055,187.206)"><stop offset="0%" style="stop-color:#fff;stop-opacity:1"/><stop offset="100%" style="stop-color:#dcdcdc;stop-opacity:1"/></linearGradient></defs></svg>