<?xml version="1.0" encoding="UTF-8" standalone="no"?><!DOCTYPE svg PUBLIC "-//W3C//DTD SVG 1.1//EN" "http://www.w3.org/Graphics/SVG/1.1/DTD/svg11.dtd"><svg width="100%" height="100%" viewBox="0 0 144 193" version="1.1" xmlns="http://www.w3.org/2000/svg" xmlns:xlink="http://www.w3.org/1999/xlink" xml:space="preserve" style="fill-rule:evenodd;clip-rule:evenodd;"><path id="Card-background" d="M143.967,10.046c0.018,-5.299 -4.269,-9.614 -9.568,-9.63l-124.799,-0.386c-5.298,-0.017 -9.615,4.272 -9.632,9.57l-0.583,172.799c-0.018,5.298 4.269,9.613 9.567,9.63l124.8,0.386c5.298,0.016 9.614,-4.272 9.632,-9.57l0.583,-172.799Z" style="fill:url(#_Radial1);stroke:#646464;stroke-width:0.22px;"/><g id="Clubs"><path id="path7930" d="M72.995,40.95c-14.746,0 -26.88,11.538 -26.88,25.56c0,0 0,0 0,0c0.012,6.15 2.358,12.095 6.605,16.734c-1.232,-0.186 -2.477,-0.284 -3.725,-0.294c-13.825,0 -25.2,10.833 -25.2,24c0,13.166 11.375,24 25.2,24c7.316,-0.006 14.279,-3.045 19.059,-8.32c3.954,11.554 -5.529,20.529 -9.939,27.88l28.8,0c-4.437,-7.395 -14.006,-16.432 -9.868,-28.086c4.778,5.394 11.818,8.516 19.228,8.526c13.824,0 25.2,-10.834 25.2,-24c0,-13.167 -11.376,-24 -25.2,-24c-0.963,0.009 -1.923,0.072 -2.878,0.186c4.175,-4.628 6.474,-10.528 6.478,-16.626c0,0 0,0 0,0c0,-14.022 -12.134,-25.56 -26.88,-25.56l0,0Z" style="fill:url(#_Linear2);stroke:#000;stroke-width:0.24px;"/><path id="path7975" d="M16.982,31.272c-2.53,0 -4.612,2.056 -4.612,4.554c0.002,1.096 0.405,2.155 1.133,2.981c-0.211,-0.033 -0.425,-0.051 -0.639,-0.052c-2.371,0 -4.323,1.93 -4.323,4.275c0,0 0,0 0,0c0,2.346 1.952,4.276 4.323,4.276c0,0 0,0 0,0c1.255,-0.001 2.45,-0.543 3.27,-1.482c0.678,2.058 -0.948,3.657 -1.705,4.966l4.941,0c-0.761,-1.317 -2.403,-2.927 -1.693,-5.003c0.82,0.961 2.027,1.517 3.299,1.519c0,0 0,0 0,0c2.371,0 4.323,-1.93 4.323,-4.276c0,0 0,0 0,0c0,-2.345 -1.952,-4.275 -4.323,-4.275c-0.165,0.001 -0.33,0.012 -0.494,0.033c0.716,-0.825 1.111,-1.876 1.111,-2.962c0,-2.498 -2.081,-4.554 -4.611,-4.554l0,0Z" style="fill:url(#_Linear3);stroke:#000;stroke-width:0.04px;"/><path id="path4821" d="M126.902,160.872c-2.53,0 -4.612,2.056 -4.612,4.554c0.002,1.096 0.405,2.155 1.133,2.981c-0.211,-0.033 -0.425,-0.051 -0.639,-0.052c-2.371,0 -4.323,1.93 -4.323,4.275c0,0 0,0 0,0c0,2.346 1.952,4.276 4.323,4.276c0,0 0,0 0,0c1.255,-0.001 2.45,-0.543 3.27,-1.482c0.678,2.058 -0.948,3.657 -1.705,4.966l4.941,0c-0.761,-1.317 -2.403,-2.927 -1.693,-5.003c0.82,0.961 2.027,1.517 3.299,1.519c0,0 0,0 0,0c2.371,0 4.323,-1.93 4.323,-4.276c0,0 0,0 0,0c0,-2.345 -1.952,-4.275 -4.323,-4.275c-0.165,0.001 -0.33,0.012 -0.494,0.033c0.716,-0.825 1.111,-1.876 1.111,-2.962c0,-2.498 -2.081,-4.554 -4.611,-4.554l0,0Z" style="fill:url(#_Linear4);stroke:#000;stroke-width:0.04px;"/></g><g id="text4983"><g id="g4992"><path d="M6.707,28.225l0,-1.59l3.18,0l0,-12.547l-3.18,0.795l0,-1.633l5.307,-1.321l0,14.706l3.18,0l0,1.59l-8.487,0Z" style="fill-rule:nonzero;"/><path d="M21.336,28.622c-1.64,0 -2.967,-0.772 -3.98,-2.315c-1.013,-1.543 -1.52,-3.557 -1.52,-6.042c0,-2.507 0.51,-4.523 1.531,-6.048c1.02,-1.526 2.365,-2.288 4.033,-2.288c1.669,0 3.014,0.762 4.034,2.288c1.021,1.525 1.531,3.53 1.531,6.015c0,2.55 -0.51,4.586 -1.531,6.107c-1.02,1.522 -2.386,2.283 -4.098,2.283Zm0.021,-1.59c2.242,0 3.363,-2.277 3.363,-6.832c0,-4.454 -1.107,-6.681 -3.32,-6.681c-2.205,0 -3.308,2.248 -3.308,6.746c0,4.511 1.088,6.767 3.265,6.767Z" style="fill-rule:nonzero;"/></g><g id="g49921"><path d="M116.387,157.825l0,-1.59l3.18,0l0,-12.547l-3.18,0.795l0,-1.633l5.307,-1.321l0,14.706l3.18,0l0,1.59l-8.487,0Z" style="fill-rule:nonzero;"/><path d="M131.016,158.222c-1.64,0 -2.967,-0.772 -3.98,-2.315c-1.013,-1.543 -1.52,-3.557 -1.52,-6.042c0,-2.507 0.51,-4.523 1.531,-6.048c1.02,-1.526 2.365,-2.288 4.033,-2.288c1.669,0 3.014,0.762 4.034,2.288c1.021,1.525 1.531,3.53 1.531,6.015c0,2.55 -0.51,4.586 -1.531,6.107c-1.02,1.522 -2.386,2.283 -4.098,2.283Zm0.021,-1.59c2.242,0 3.363,-2.277 3.363,-6.832c0,-4.454 -1.107,-6.681 -3.32,-6.681c-2.205,0 -3.308,2.248 -3.308,6.746c0,4.511 1.088,6.767 3.265,6.767Z" style="fill-rule:nonzero;"/></g><path d="M54.771,108.777l0,-2.89l5.781,0l0,-22.813l-5.781,1.445l0,-2.968l9.648,-2.403l0,26.739l5.781,0l0,2.89l-15.429,0Z" style="fill:#fff;fill-rule:nonzero;"/><path d="M82.968,109.5c-2.982,0 -5.394,-1.403 -7.236,-4.209c-1.843,-2.806 -2.764,-6.468 -2.764,-10.986c0,-4.558 0.928,-8.223 2.783,-10.997c1.856,-2.773 4.3,-4.16 7.334,-4.16c3.034,0 5.479,1.387 7.334,4.16c1.856,2.774 2.783,6.42 2.783,10.938c0,4.635 -0.927,8.337 -2.783,11.103c-1.855,2.767 -4.339,4.151 -7.451,4.151Zm0.039,-2.891c4.076,0 6.113,-4.14 6.113,-12.422c0,-8.099 -2.011,-12.148 -6.035,-12.148c-4.01,0 -6.015,4.088 -6.015,12.266c0,8.203 1.979,12.304 5.937,12.304Z" style="fill:#fff;fill-rule:nonzero;"/></g><defs><radialGradient id="_Radial1" cx="0" cy="0" r="1" gradientUnits="userSpaceOnUse" gradientTransform="matrix(126.562,97.7279,-71.6611,95.2942,71.6758,96.2223)"><stop offset="0%" style="stop-color:#fff;stop-opacity:1"/><stop offset="100%" style="stop-color:#dcdcdc;stop-opacity:1"/></radialGradient><linearGradient id="_Linear2" x1="0" y1="0" x2="1" y2="0" gradientUnits="userSpaceOnUse" gradientTransform="matrix(-0.96,74.4,-74.4,-0.96,73.4748,40.2296)"><stop offset="0%" style="stop-color:#737373;stop-opacity:1"/><stop offset="100%" style="stop-color:#000;stop-opacity:1"/></linearGradient><linearGradient id="_Linear3" x1="0" y1="0" x2="1" y2="0" gradientUnits="userSpaceOnUse" gradientTransform="matrix(-0.164698,13.2543,-13.2543,-0.164698,17.0641,31.1441)"><stop offset="0%" style="stop-color:#737373;stop-opacity:1"/><stop offset="100%" style="stop-color:#000;stop-opacity:1"/></linearGradient><linearGradient id="_Linear4" x1="0" y1="0" x2="1" y2="0" gradientUnits="userSpaceOnUse" gradientTransform="matrix(-0.164698,13.2543,-13.2543,-0.164698,126.984,160.744)"><stop offset="0%" style="stop-color:#737373;stop-opacity:1"/><stop offset="100%" style="stop-color:#000;stop-opacity:1"/></linearGradient></defs></svg>