<?xml version="1.0" encoding="UTF-8" standalone="no"?><!DOCTYPE svg PUBLIC "-//W3C//DTD SVG 1.1//EN" "http://www.w3.org/Graphics/SVG/1.1/DTD/svg11.dtd"><svg width="100%" height="100%" viewBox="0 0 144 193" version="1.1" xmlns="http://www.w3.org/2000/svg" xmlns:xlink="http://www.w3.org/1999/xlink" xml:space="preserve" style="fill-rule:evenodd;clip-rule:evenodd;"><path id="Card-background" d="M143.997,9.6c0.002,-5.298 -4.272,-9.6 -9.538,-9.6l-124.918,0c-5.266,0 -9.542,4.302 -9.544,9.6l-0.048,172.8c-0.001,5.298 4.273,9.6 9.539,9.6l124.917,0c5.266,0 9.543,-4.302 9.544,-9.6l0.048,-172.8Z" style="fill:url(#_Radial1);stroke:#646464;stroke-width:0.22px;"/><g id="Diamonds"><path id="rect3362" d="M72.532,155.313l42.966,-59.646l-43.202,-59.975l-42.966,59.646l43.202,59.975Z" style="fill:url(#_Linear2);stroke:url(#_Linear3);stroke-width:0.14px;"/><path id="rect6977" d="M16.405,51.744l7.157,-9.959l-7.196,-10.014l-7.157,9.959l7.196,10.014Z" style="fill:url(#_Linear4);stroke:#640000;stroke-width:0.03px;"/><path id="rect4360" d="M127.765,141.451l7.158,9.959l-7.197,10.014l-7.157,-9.959l7.196,-10.014Z" style="fill:url(#_Linear5);stroke:#640000;stroke-width:0.03px;"/></g><g id="Red-Text"><path d="M11.919,14.374l0,12.08l2.041,0l0,-14.238l-2.041,0l-2.021,1.474l0,2.168l2.021,-1.484Z" style="fill:#a30000;fill-rule:nonzero;"/><path d="M21.939,22.352c-0.039,1.439 -0.706,2.165 -2.002,2.178c-1.302,-0.013 -1.966,-0.739 -1.992,-2.178l0,-6.035c0.026,-1.426 0.69,-2.152 1.992,-2.178c1.296,0.026 1.963,0.752 2.002,2.178l0,6.035Zm-6.035,0.117c0.013,1.309 0.433,2.318 1.26,3.028c0.774,0.703 1.699,1.061 2.773,1.074c1.107,-0.013 2.048,-0.371 2.822,-1.074c0.788,-0.71 1.195,-1.719 1.221,-3.028l0,-6.279c-0.026,-1.315 -0.433,-2.327 -1.221,-3.037c-0.774,-0.703 -1.715,-1.055 -2.822,-1.055c-1.074,0 -1.999,0.352 -2.773,1.055c-0.827,0.71 -1.247,1.722 -1.26,3.037l0,6.279Z" style="fill:#a30000;fill-rule:nonzero;"/><path d="M132.447,177.527l0,-12.08l-2.041,0l0,14.239l2.041,0l2.022,-1.475l0,-2.168l-2.022,1.484Z" style="fill:#a30000;fill-rule:nonzero;"/><path d="M122.428,169.549c0.039,-1.439 0.706,-2.165 2.002,-2.178c1.302,0.013 1.966,0.739 1.992,2.178l0,6.035c-0.026,1.426 -0.69,2.152 -1.992,2.178c-1.296,-0.026 -1.963,-0.752 -2.002,-2.178l0,-6.035Zm6.035,-0.117c-0.013,-1.309 -0.433,-2.318 -1.26,-3.028c-0.775,-0.703 -1.699,-1.061 -2.773,-1.074c-1.107,0.013 -2.048,0.371 -2.823,1.074c-0.787,0.71 -1.194,1.719 -1.22,3.028l0,6.279c0.026,1.315 0.433,2.328 1.22,3.037c0.775,0.703 1.716,1.055 2.823,1.055c1.074,0 1.998,-0.352 2.773,-1.055c0.827,-0.709 1.247,-1.722 1.26,-3.037l0,-6.279Z" style="fill:#a30000;fill-rule:nonzero;"/></g><g id="Center-Text" transform="matrix(0.233905,0,0,0.218311,72.0368,112.825)"><path d="M-49.17,-132.802l0,132.802l22.438,0l0,-156.528l-22.438,0l-22.223,16.211l0,23.833l22.223,-16.318Z" style="fill:none;"/><path d="M60.979,-45.09c-0.429,15.817 -7.765,23.797 -22.008,23.94c-14.314,-0.143 -21.615,-8.123 -21.901,-23.94l0,-66.348c0.286,-15.674 7.587,-23.654 21.901,-23.941c14.243,0.287 21.579,8.267 22.008,23.941l0,66.348Zm-66.347,1.288c0.143,14.386 4.76,25.48 13.849,33.281c8.517,7.73 18.681,11.666 30.49,11.809c12.167,-0.143 22.509,-4.079 31.027,-11.809c8.66,-7.801 13.133,-18.895 13.419,-33.281l0,-69.032c-0.286,-14.457 -4.759,-25.587 -13.419,-33.388c-8.518,-7.73 -18.86,-11.595 -31.027,-11.595c-11.809,0 -21.973,3.865 -30.49,11.595c-9.089,7.801 -13.706,18.931 -13.849,33.388l0,69.032Z" style="fill:none;"/><path d="M-49.17,-132.802l0,132.802l22.438,0l0,-156.528l-22.438,0l-22.223,16.211l0,23.833l22.223,-16.318Z" style="fill:#fff;fill-rule:nonzero;"/><path d="M60.979,-45.09c-0.429,15.817 -7.765,23.797 -22.008,23.94c-14.314,-0.143 -21.615,-8.123 -21.901,-23.94l0,-66.348c0.286,-15.674 7.587,-23.654 21.901,-23.941c14.243,0.287 21.579,8.267 22.008,23.941l0,66.348Zm-66.347,1.288c0.143,14.386 4.76,25.48 13.849,33.281c8.517,7.73 18.681,11.666 30.49,11.809c12.167,-0.143 22.509,-4.079 31.027,-11.809c8.66,-7.801 13.133,-18.895 13.419,-33.281l0,-69.032c-0.286,-14.457 -4.759,-25.587 -13.419,-33.388c-8.518,-7.73 -18.86,-11.595 -31.027,-11.595c-11.809,0 -21.973,3.865 -30.49,11.595c-9.089,7.801 -13.706,18.931 -13.849,33.388l0,69.032Z" style="fill:#fff;fill-rule:nonzero;"/></g><defs><radialGradient id="_Radial1" cx="0" cy="0" r="1" gradientUnits="userSpaceOnUse" gradientTransform="matrix(126.864,97.3356,-71.3658,95.5156,71.9734,96)"><stop offset="0%" style="stop-color:#fff;stop-opacity:1"/><stop offset="100%" style="stop-color:#dcdcdc;stop-opacity:1"/></radialGradient><linearGradient id="_Linear2" x1="0" y1="0" x2="1" y2="0" gradientUnits="userSpaceOnUse" gradientTransform="matrix(0.649222,119.114,-119.114,0.649222,72.0282,35.4239)"><stop offset="0%" style="stop-color:#e00000;stop-opacity:1"/><stop offset="100%" style="stop-color:#560000;stop-opacity:1"/></linearGradient><linearGradient id="_Linear3" x1="0" y1="0" x2="1" y2="0" gradientUnits="userSpaceOnUse" gradientTransform="matrix(-54.8234,-72.2122,52.0178,-76.1069,-50.1075,185.702)"><stop offset="0%" style="stop-color:#e00000;stop-opacity:1"/><stop offset="100%" style="stop-color:#560000;stop-opacity:1"/></linearGradient><linearGradient id="_Linear4" x1="0" y1="0" x2="1" y2="0" gradientUnits="userSpaceOnUse" gradientTransform="matrix(-0.168869,20.3461,-14.6221,-0.234974,16.3007,31.711)"><stop offset="0%" style="stop-color:#e00000;stop-opacity:1"/><stop offset="100%" style="stop-color:#810000;stop-opacity:1"/></linearGradient><linearGradient id="_Linear5" x1="0" y1="0" x2="1" y2="0" gradientUnits="userSpaceOnUse" gradientTransform="matrix(-0.168869,-20.3461,-14.6221,0.234974,127.661,161.484)"><stop offset="0%" style="stop-color:#e00000;stop-opacity:1"/><stop offset="100%" style="stop-color:#810000;stop-opacity:1"/></linearGradient></defs></svg>