<?xml version="1.0" encoding="UTF-8" standalone="no"?><!DOCTYPE svg PUBLIC "-//W3C//DTD SVG 1.1//EN" "http://www.w3.org/Graphics/SVG/1.1/DTD/svg11.dtd"><svg width="100%" height="100%" viewBox="0 0 144 193" version="1.1" xmlns="http://www.w3.org/2000/svg" xmlns:xlink="http://www.w3.org/1999/xlink" xml:space="preserve" style="fill-rule:evenodd;clip-rule:evenodd;"><path id="Card-background" d="M143.967,10.046c0.018,-5.299 -4.269,-9.614 -9.568,-9.63l-124.799,-0.386c-5.298,-0.017 -9.615,4.272 -9.632,9.57l-0.583,172.799c-0.018,5.298 4.269,9.613 9.567,9.63l124.8,0.386c5.298,0.016 9.614,-4.272 9.632,-9.57l0.583,-172.799Z" style="fill:url(#_Radial1);stroke:#646464;stroke-width:0.22px;"/><g id="Hearts"><path id="path7647" d="M44.363,45.092c-7.165,-0.059 -14.434,3.653 -20.078,14.965c-16.247,32.564 48,78.956 47.619,95.833l0,0.374c0,0 0.156,-0.153 0.191,-0.187c0.034,0.033 0.19,0.187 0.19,0.187l0,-0.374c0,-14.413 63.866,-63.269 47.619,-95.833c-16.235,-32.541 -45.832,-2.277 -47.809,-0.199c-1.289,-1.354 -14.284,-14.656 -27.732,-14.766l0,0Z" style="fill:url(#_Linear2);stroke:url(#_Linear3);stroke-width:0.24px;"/><path id="path8171" d="M12.151,32.963c-1.139,-0.009 -2.295,0.574 -3.192,2.349c-2.584,5.11 7.631,12.39 7.571,15.038l0,0.059c0,0 0.024,-0.024 0.03,-0.03c0.005,0.006 0.03,0.03 0.03,0.03l0,-0.059c0,-2.262 10.154,-9.928 7.571,-15.038c-2.581,-5.107 -7.287,-0.357 -7.601,-0.031c-0.205,-0.213 -2.271,-2.3 -4.409,-2.318l0,0Z" style="fill:url(#_Linear4);stroke:url(#_Linear5);stroke-width:0.04px;"/><path id="path5021" d="M122.551,162.563c-1.139,-0.009 -2.295,0.574 -3.192,2.349c-2.584,5.11 7.631,12.39 7.571,15.038l0,0.059c0,0 0.024,-0.024 0.03,-0.03c0.005,0.006 0.03,0.03 0.03,0.03l0,-0.059c0,-2.262 10.154,-9.928 7.571,-15.038c-2.581,-5.107 -7.287,-0.357 -7.601,-0.031c-0.205,-0.213 -2.271,-2.3 -4.409,-2.318l0,0Z" style="fill:url(#_Linear6);stroke:url(#_Linear7);stroke-width:0.04px;"/></g><g id="_10"><g id="g4992"><path d="M6.707,28.225l0,-1.59l3.18,0l0,-12.547l-3.18,0.795l0,-1.633l5.307,-1.321l0,14.706l3.18,0l0,1.59l-8.487,0Z" style="fill:#960000;fill-rule:nonzero;"/><path d="M21.336,28.622c-1.64,0 -2.967,-0.772 -3.98,-2.315c-1.013,-1.543 -1.52,-3.557 -1.52,-6.042c0,-2.507 0.51,-4.523 1.531,-6.048c1.02,-1.526 2.365,-2.288 4.033,-2.288c1.669,0 3.014,0.762 4.034,2.288c1.021,1.525 1.531,3.53 1.531,6.015c0,2.55 -0.51,4.586 -1.531,6.107c-1.02,1.522 -2.386,2.283 -4.098,2.283Zm0.021,-1.59c2.242,0 3.363,-2.277 3.363,-6.832c0,-4.454 -1.107,-6.681 -3.32,-6.681c-2.205,0 -3.308,2.248 -3.308,6.746c0,4.511 1.088,6.767 3.265,6.767Z" style="fill:#960000;fill-rule:nonzero;"/></g><g id="g49921"><path d="M116.387,157.825l0,-1.59l3.18,0l0,-12.547l-3.18,0.795l0,-1.633l5.307,-1.321l0,14.706l3.18,0l0,1.59l-8.487,0Z" style="fill:#960000;fill-rule:nonzero;"/><path d="M131.016,158.222c-1.64,0 -2.967,-0.772 -3.98,-2.315c-1.013,-1.543 -1.52,-3.557 -1.52,-6.042c0,-2.507 0.51,-4.523 1.531,-6.048c1.02,-1.526 2.365,-2.288 4.033,-2.288c1.669,0 3.014,0.762 4.034,2.288c1.021,1.525 1.531,3.53 1.531,6.015c0,2.55 -0.51,4.586 -1.531,6.107c-1.02,1.522 -2.386,2.283 -4.098,2.283Zm0.021,-1.59c2.242,0 3.363,-2.277 3.363,-6.832c0,-4.454 -1.107,-6.681 -3.32,-6.681c-2.205,0 -3.308,2.248 -3.308,6.746c0,4.511 1.088,6.767 3.265,6.767Z" style="fill:#960000;fill-rule:nonzero;"/></g><path d="M54.771,108.777l0,-2.89l5.781,0l0,-22.813l-5.781,1.445l0,-2.968l9.648,-2.403l0,26.739l5.781,0l0,2.89l-15.429,0Z" style="fill:#fff;fill-rule:nonzero;"/><path d="M82.968,109.5c-2.982,0 -5.394,-1.403 -7.236,-4.209c-1.843,-2.806 -2.764,-6.468 -2.764,-10.986c0,-4.558 0.928,-8.223 2.783,-10.997c1.856,-2.773 4.3,-4.16 7.334,-4.16c3.034,0 5.479,1.387 7.334,4.16c1.856,2.774 2.783,6.42 2.783,10.938c0,4.635 -0.927,8.337 -2.783,11.103c-1.855,2.767 -4.339,4.151 -7.451,4.151Zm0.039,-2.891c4.076,0 6.113,-4.14 6.113,-12.422c0,-8.099 -2.011,-12.148 -6.035,-12.148c-4.01,0 -6.015,4.088 -6.015,12.266c0,8.203 1.979,12.304 5.937,12.304Z" style="fill:#fff;fill-rule:nonzero;"/></g><defs><radialGradient id="_Radial1" cx="0" cy="0" r="1" gradientUnits="userSpaceOnUse" gradientTransform="matrix(126.562,97.7279,-71.6611,95.2942,71.6758,96.2223)"><stop offset="0%" style="stop-color:#fff;stop-opacity:1"/><stop offset="100%" style="stop-color:#dcdcdc;stop-opacity:1"/></radialGradient><linearGradient id="_Linear2" x1="0" y1="0" x2="1" y2="0" gradientUnits="userSpaceOnUse" gradientTransform="matrix(2.39999,91.3969,-91.3969,2.39999,72.2852,45.6257)"><stop offset="0%" style="stop-color:#e00000;stop-opacity:1"/><stop offset="100%" style="stop-color:#560000;stop-opacity:1"/></linearGradient><linearGradient id="_Linear3" x1="0" y1="0" x2="1" y2="0" gradientUnits="userSpaceOnUse" gradientTransform="matrix(2.39999,91.3969,-91.3969,2.39999,72.2852,45.6257)"><stop offset="0%" style="stop-color:#e00000;stop-opacity:1"/><stop offset="100%" style="stop-color:#560000;stop-opacity:1"/></linearGradient><linearGradient id="_Linear4" x1="0" y1="0" x2="1" y2="0" gradientUnits="userSpaceOnUse" gradientTransform="matrix(0.381581,14.342,-14.342,0.381581,16.5901,33.0472)"><stop offset="0%" style="stop-color:#e00000;stop-opacity:1"/><stop offset="100%" style="stop-color:#560000;stop-opacity:1"/></linearGradient><linearGradient id="_Linear5" x1="0" y1="0" x2="1" y2="0" gradientUnits="userSpaceOnUse" gradientTransform="matrix(0.381581,14.342,-14.342,0.381581,16.5901,33.0472)"><stop offset="0%" style="stop-color:#e00000;stop-opacity:1"/><stop offset="100%" style="stop-color:#560000;stop-opacity:1"/></linearGradient><linearGradient id="_Linear6" x1="0" y1="0" x2="1" y2="0" gradientUnits="userSpaceOnUse" gradientTransform="matrix(0.381581,14.342,-14.342,0.381581,126.99,162.647)"><stop offset="0%" style="stop-color:#e00000;stop-opacity:1"/><stop offset="100%" style="stop-color:#560000;stop-opacity:1"/></linearGradient><linearGradient id="_Linear7" x1="0" y1="0" x2="1" y2="0" gradientUnits="userSpaceOnUse" gradientTransform="matrix(0.381581,14.342,-14.342,0.381581,126.99,162.647)"><stop offset="0%" style="stop-color:#e00000;stop-opacity:1"/><stop offset="100%" style="stop-color:#560000;stop-opacity:1"/></linearGradient></defs></svg>