<?xml version="1.0" encoding="UTF-8" standalone="no"?><!DOCTYPE svg PUBLIC "-//W3C//DTD SVG 1.1//EN" "http://www.w3.org/Graphics/SVG/1.1/DTD/svg11.dtd"><svg width="100%" height="100%" viewBox="0 0 133 96" version="1.1" xmlns="http://www.w3.org/2000/svg" xmlns:xlink="http://www.w3.org/1999/xlink" xml:space="preserve" xmlns:serif="http://www.serif.com/" style="fill-rule:evenodd;clip-rule:evenodd;"><g><path id="Card-background" d="M72.467,4.8c0,-2.649 -2.15,-4.8 -4.799,-4.8l-62.843,0c-2.649,0 -4.8,2.151 -4.801,4.8l-0.024,86.4c-0.001,2.649 2.15,4.8 4.799,4.8l62.842,0c2.649,0 4.801,-2.151 4.802,-4.8l0.024,-86.4l0,0Z" style="fill:url(#_Radial1);stroke:#646464;stroke-width:0.11px;"/><path id="path7930" d="M36.496,20.475c-7.373,0 -13.44,5.769 -13.44,12.78c0.006,3.075 1.179,6.047 3.303,8.367c-0.616,-0.093 -1.239,-0.142 -1.863,-0.147c-6.912,0 -12.6,5.416 -12.6,12c0,6.583 5.688,12 12.6,12c3.658,-0.003 7.14,-1.523 9.53,-4.16c1.977,5.777 -2.765,10.264 -4.97,13.94l14.4,0c-2.218,-3.698 -7.003,-8.216 -4.934,-14.043c2.389,2.697 5.909,4.258 9.614,4.263c6.912,0 12.6,-5.417 12.6,-12c0,-6.584 -5.688,-12 -12.6,-12c-0.481,0.005 -0.961,0.036 -1.439,0.093c2.088,-2.314 3.237,-5.264 3.239,-8.313c0,-7.011 -6.067,-12.78 -13.44,-12.78l0,0Z" style="fill:url(#_Linear2);stroke:#000;stroke-width:0.12px;"/><path id="path7975" d="M8.25,15.636c-1.265,0 -2.306,1.028 -2.306,2.277c0.001,0.548 0.202,1.078 0.566,1.491c-0.105,-0.017 -0.212,-0.026 -0.319,-0.026c-1.186,0 -2.162,0.965 -2.162,2.137c0,1.173 0.976,2.138 2.162,2.138c0.627,0 1.225,-0.271 1.635,-0.741c0.339,1.029 -0.474,1.828 -0.853,2.483l2.471,0c-0.381,-0.659 -1.202,-1.463 -0.847,-2.502c0.41,0.481 1.014,0.759 1.65,0.76c1.185,0 2.161,-0.965 2.161,-2.138c0,-1.172 -0.976,-2.137 -2.161,-2.137c-0.083,0 -0.165,0.006 -0.247,0.016c0.358,-0.412 0.555,-0.938 0.555,-1.481c0,-1.249 -1.04,-2.277 -2.305,-2.277Z" style="fill:url(#_Linear3);stroke:#000;stroke-width:0.02px;"/><path id="path79751" d="M63.856,80.478c-1.265,0 -2.306,-1.028 -2.306,-2.277c0.001,-0.548 0.202,-1.077 0.567,-1.49c-0.106,0.016 -0.213,0.025 -0.32,0.026c-1.186,0 -2.162,-0.965 -2.162,-2.138c0,-1.173 0.976,-2.138 2.162,-2.138c0.628,0.001 1.225,0.271 1.635,0.741c0.339,-1.029 -0.474,-1.828 -0.853,-2.483l2.471,0c-0.381,0.659 -1.202,1.464 -0.847,2.502c0.41,-0.481 1.014,-0.759 1.65,-0.76c1.186,0 2.161,0.965 2.161,2.138c0,1.173 -0.975,2.138 -2.161,2.138c-0.083,-0.001 -0.165,-0.007 -0.247,-0.017c0.358,0.413 0.555,0.938 0.555,1.481c0,1.249 -1.04,2.277 -2.305,2.277l0,0Z" style="fill:url(#_Linear4);stroke:#000;stroke-width:0.02px;"/><path d="M5.797,13.227l1.079,0l0,-2.168l1.25,-1.313l1.939,3.481l1.279,0l-2.519,-4.311l2.28,-2.808l-1.279,0l-2.93,3.667l-0.02,0l0,-3.667l-1.079,0l0,7.119Z" style="fill:#090707;fill-rule:nonzero;"/><path d="M66.384,82.724l-1.08,-0.001l0,2.169l-1.25,1.313l-1.938,-3.481l-1.279,0l2.519,4.311l-2.28,2.808l1.279,0l2.93,-3.667l0.019,0l0,3.667l1.08,0l0,-7.119l0,-0.001Z" style="fill-rule:nonzero;"/><g id="Suits"><path d="M30.212,54.733l2.775,-0.001l0,-5.203l3.214,-3.152l4.985,8.355l3.289,0.001l-6.478,-10.348l5.863,-6.738l-3.289,0l-7.534,8.8l-0.05,0l0,-8.8l-2.775,0l0,17.085Z" style="fill:none;"/><path d="M30.212,54.733l2.775,-0.001l0,-5.203l3.214,-3.152l4.985,8.355l3.289,0.001l-6.478,-10.348l5.863,-6.738l-3.289,0l-7.534,8.8l-0.05,0l0,-8.8l-2.775,0l0,17.085Z" style="fill:#fff;fill-rule:nonzero;"/></g></g><g><path id="Card-background1" serif:id="Card-background" d="M132.967,4.8c0,-2.649 -2.15,-4.8 -4.799,-4.8l-62.843,0c-2.649,0 -4.8,2.151 -4.801,4.8l-0.024,86.4c-0.001,2.649 2.15,4.8 4.799,4.8l62.842,0c2.649,0 4.801,-2.151 4.802,-4.8l0.024,-86.4l0,0Z" style="fill:url(#_Radial5);stroke:#646464;stroke-width:0.11px;"/><path id="path7647" d="M82.68,22.546c-3.582,-0.029 -7.217,1.826 -10.039,7.483c-8.123,16.282 24,39.478 23.81,47.916l0,0.187c0,0 0.078,-0.077 0.095,-0.094c0.017,0.017 0.095,0.094 0.095,0.094l0,-0.187c0,-7.207 31.933,-31.635 23.81,-47.917c-8.118,-16.27 -22.916,-1.138 -23.905,-0.099c-0.644,-0.677 -7.142,-7.328 -13.866,-7.383l0,0Z" style="fill:url(#_Linear6);stroke:url(#_Linear7);stroke-width:0.12px;"/><path id="path8171" d="M66.454,16.482c-0.569,-0.005 -1.147,0.287 -1.596,1.174c-1.292,2.555 3.816,6.195 3.786,7.519l0,0.029c0,0 0.012,-0.012 0.015,-0.015c0.002,0.003 0.015,0.015 0.015,0.015l0,-0.029c0,-1.131 5.077,-4.964 3.785,-7.519c-1.29,-2.553 -3.643,-0.178 -3.8,-0.015c-0.103,-0.107 -1.136,-1.15 -2.205,-1.159l0,0Z" style="fill:url(#_Linear8);stroke:url(#_Linear9);stroke-width:0.02px;"/><path id="path5021" d="M122.134,79.683c-0.569,0.004 -1.147,-0.287 -1.596,-1.175c-1.292,-2.555 3.816,-6.195 3.786,-7.519l0,-0.029c0,0 0.012,0.012 0.015,0.014c0.002,-0.002 0.015,-0.014 0.015,-0.014l0,0.029c0,1.131 5.077,4.964 3.785,7.519c-1.29,2.553 -3.643,0.179 -3.8,0.016c-0.103,0.106 -1.136,1.15 -2.205,1.159l0,-0.001Z" style="fill:url(#_Linear10);stroke:url(#_Linear11);stroke-width:0.02px;"/><path d="M66.617,13.227l4.058,0l0,-1.021l-2.72,0.001l2.29,-2.871c0.287,-0.365 0.43,-0.782 0.43,-1.25c-0.007,-0.586 -0.204,-1.07 -0.591,-1.451c-0.381,-0.384 -0.877,-0.579 -1.489,-0.586c-0.547,0.007 -1.008,0.199 -1.382,0.577c-0.371,0.387 -0.57,0.877 -0.596,1.469l1.016,0c0.036,-0.325 0.15,-0.577 0.342,-0.756c0.185,-0.18 0.418,-0.269 0.698,-0.269c0.316,0.006 0.56,0.109 0.732,0.308c0.166,0.198 0.249,0.431 0.249,0.698c0,0.101 -0.013,0.208 -0.039,0.322c-0.039,0.121 -0.112,0.251 -0.22,0.391l-2.778,3.476l0,0.962Z" style="fill:#a30000;fill-rule:nonzero;"/><path d="M126.564,82.724l-4.058,-0.001l0,1.021l2.72,0l-2.29,2.871c-0.287,0.365 -0.43,0.782 -0.43,1.251c0.007,0.585 0.204,1.069 0.591,1.45c0.381,0.383 0.877,0.579 1.489,0.585c0.547,-0.006 1.008,-0.198 1.382,-0.575c0.371,-0.388 0.57,-0.878 0.596,-1.47l-1.016,0c-0.036,0.325 -0.15,0.578 -0.342,0.757c-0.185,0.179 -0.418,0.268 -0.698,0.268c-0.316,-0.006 -0.56,-0.109 -0.732,-0.307c-0.166,-0.199 -0.249,-0.432 -0.249,-0.699c0,-0.101 0.013,-0.208 0.039,-0.322c0.039,-0.12 0.112,-0.251 0.219,-0.391l2.779,-3.476l0,-0.962l0,0Z" style="fill:#a30000;fill-rule:nonzero;"/><g id="Suits1" serif:id="Suits"><path d="M91.534,54.733l10.434,-0.001l0,-2.449l-6.993,0l5.888,-6.89c0.737,-0.875 1.105,-1.875 1.105,-3c-0.016,-1.407 -0.523,-2.567 -1.519,-3.481c-0.979,-0.922 -2.256,-1.39 -3.83,-1.406c-1.406,0.016 -2.59,0.476 -3.553,1.383c-0.954,0.929 -1.465,2.105 -1.532,3.527l2.612,0c0.092,-0.781 0.385,-1.387 0.879,-1.816c0.477,-0.43 1.076,-0.645 1.795,-0.645c0.812,0.016 1.44,0.262 1.884,0.738c0.427,0.477 0.64,1.036 0.64,1.676c0,0.242 -0.033,0.5 -0.1,0.774c-0.101,0.289 -0.289,0.601 -0.565,0.937l-7.145,8.344l0,2.308Z" style="fill:none;"/><path d="M91.534,54.733l10.434,-0.001l0,-2.449l-6.993,0l5.888,-6.89c0.737,-0.875 1.105,-1.875 1.105,-3c-0.016,-1.407 -0.523,-2.567 -1.519,-3.481c-0.979,-0.922 -2.256,-1.39 -3.83,-1.406c-1.406,0.016 -2.59,0.476 -3.553,1.383c-0.954,0.929 -1.465,2.105 -1.532,3.527l2.612,0c0.092,-0.781 0.385,-1.387 0.879,-1.816c0.477,-0.43 1.076,-0.645 1.795,-0.645c0.812,0.016 1.44,0.262 1.884,0.738c0.427,0.477 0.64,1.036 0.64,1.676c0,0.242 -0.033,0.5 -0.1,0.774c-0.101,0.289 -0.289,0.601 -0.565,0.937l-7.145,8.344l0,2.308Z" style="fill:#fff;fill-rule:nonzero;"/></g></g><defs><radialGradient id="_Radial1" cx="0" cy="0" r="1" gradientUnits="userSpaceOnUse" gradientTransform="matrix(63.822,48.6678,-35.9021,47.7578,36.2331,48)"><stop offset="0" style="stop-color:#fff;stop-opacity:1"/><stop offset="1" style="stop-color:#dcdcdc;stop-opacity:1"/></radialGradient><linearGradient id="_Linear2" x1="0" y1="0" x2="1" y2="0" gradientUnits="userSpaceOnUse" gradientTransform="matrix(-0.48,37.2,-37.2,-0.48,36.7359,20.1148)"><stop offset="0" style="stop-color:#737373;stop-opacity:1"/><stop offset="1" style="stop-color:#000;stop-opacity:1"/></linearGradient><linearGradient id="_Linear3" x1="0" y1="0" x2="1" y2="0" gradientUnits="userSpaceOnUse" gradientTransform="matrix(-0.082349,6.62715,-6.62715,-0.082349,8.29055,15.5721)"><stop offset="0" style="stop-color:#737373;stop-opacity:1"/><stop offset="1" style="stop-color:#000;stop-opacity:1"/></linearGradient><linearGradient id="_Linear4" x1="0" y1="0" x2="1" y2="0" gradientUnits="userSpaceOnUse" gradientTransform="matrix(-0.082349,-6.62715,6.62715,-0.082349,63.8965,80.5425)"><stop offset="0" style="stop-color:#737373;stop-opacity:1"/><stop offset="1" style="stop-color:#000;stop-opacity:1"/></linearGradient><radialGradient id="_Radial5" cx="0" cy="0" r="1" gradientUnits="userSpaceOnUse" gradientTransform="matrix(63.822,48.6678,-35.9021,47.7578,96.7331,48)"><stop offset="0" style="stop-color:#fff;stop-opacity:1"/><stop offset="1" style="stop-color:#dcdcdc;stop-opacity:1"/></radialGradient><linearGradient id="_Linear6" x1="0" y1="0" x2="1" y2="0" gradientUnits="userSpaceOnUse" gradientTransform="matrix(1.19999,45.6985,-45.6985,1.19999,96.6411,22.8129)"><stop offset="0" style="stop-color:#e00000;stop-opacity:1"/><stop offset="1" style="stop-color:#560000;stop-opacity:1"/></linearGradient><linearGradient id="_Linear7" x1="0" y1="0" x2="1" y2="0" gradientUnits="userSpaceOnUse" gradientTransform="matrix(1.19999,45.6985,-45.6985,1.19999,96.6411,22.8129)"><stop offset="0" style="stop-color:#e00000;stop-opacity:1"/><stop offset="1" style="stop-color:#560000;stop-opacity:1"/></linearGradient><linearGradient id="_Linear8" x1="0" y1="0" x2="1" y2="0" gradientUnits="userSpaceOnUse" gradientTransform="matrix(0.190791,7.171,-7.171,0.190791,68.6736,16.5236)"><stop offset="0" style="stop-color:#e00000;stop-opacity:1"/><stop offset="1" style="stop-color:#560000;stop-opacity:1"/></linearGradient><linearGradient id="_Linear9" x1="0" y1="0" x2="1" y2="0" gradientUnits="userSpaceOnUse" gradientTransform="matrix(0.190791,7.171,-7.171,0.190791,68.6736,16.5236)"><stop offset="0" style="stop-color:#e00000;stop-opacity:1"/><stop offset="1" style="stop-color:#560000;stop-opacity:1"/></linearGradient><linearGradient id="_Linear10" x1="0" y1="0" x2="1" y2="0" gradientUnits="userSpaceOnUse" gradientTransform="matrix(0.19079,-7.171,7.171,0.19079,124.354,79.6405)"><stop offset="0" style="stop-color:#e00000;stop-opacity:1"/><stop offset="1" style="stop-color:#560000;stop-opacity:1"/></linearGradient><linearGradient id="_Linear11" x1="0" y1="0" x2="1" y2="0" gradientUnits="userSpaceOnUse" gradientTransform="matrix(0.19079,-7.171,7.171,0.19079,124.354,79.6405)"><stop offset="0" style="stop-color:#e00000;stop-opacity:1"/><stop offset="1" style="stop-color:#560000;stop-opacity:1"/></linearGradient></defs></svg>