<?xml version="1.0" encoding="UTF-8" standalone="no"?><!DOCTYPE svg PUBLIC "-//W3C//DTD SVG 1.1//EN" "http://www.w3.org/Graphics/SVG/1.1/DTD/svg11.dtd"><svg width="100%" height="100%" viewBox="0 0 1170 700" version="1.1" xmlns="http://www.w3.org/2000/svg" xmlns:xlink="http://www.w3.org/1999/xlink" xml:space="preserve" xmlns:serif="http://www.serif.com/" style="fill-rule:evenodd;clip-rule:evenodd;stroke-linejoin:round;stroke-miterlimit:1.41421;"><g><rect x="-4.672" y="557.606" width="1173.74" height="157.96" style="fill:#b3b8bb;"/><g><path d="M329.948,365.297l-48.493,-31.482l-13.861,0.619l-14.491,-19.055l-14.1,14.074l-44.106,7.692l-64.387,56.659l-11.894,101.511l-4.71,120.124l163.641,3.613l92.147,-5.244l257.49,26.703l77.623,-12.056l29.537,-18.786l-46.184,-26.505l-24.559,-4.758l-28.294,-26.922l-29.626,-28.247l-25.809,2.496l-14.797,-1.221l-29.047,-1.985l-38.63,-16.446l-52.659,-55.731l-40.092,-54.095l-22.958,-34.666l-15.701,0.993l-24.117,-3.898l-11.923,6.613Z" style="fill:#dcdcdc;"/><path d="M543.832,608.96l-19.845,-32.552l-47.249,-48.543l54.972,23.847l12.122,57.248Z" style="fill:#c2c9cc;"/><path d="M423.671,491.409l-32.394,-54.928l-34.7,-26.167l21.64,-26.141l45.454,107.236Z" style="fill:#c2c9cc;"/><path d="M516.457,629.712l-68.455,-59.088l-37.185,-37.957l-52.293,-32.805l-25.947,-37.524l-28.303,-44.984l-26.427,-42.579l-25.958,-57.183l-0.828,30.275l-6.323,35.071l19.007,22.067l0,17.789l18.068,11.089l-6.645,12.744l7.92,21.494l-19.319,-18.503l-16.592,-14.538l-9.424,-18.026l-14.093,-26.099l-21.361,-13.941l-33.045,24.257l-3.42,37.717l148.442,168.479l202.181,22.245Z" style="fill:#c2c9cc;"/></g><g><g><path d="M954.789,426.376l48.494,-31.481l13.86,0.618l14.491,-19.054l14.1,14.073l44.106,7.692l64.387,56.659l11.894,101.511l4.71,120.124l-163.641,3.613l-92.147,-5.244l-257.49,26.703l-77.623,-12.056l-29.537,-18.786l46.184,-26.505l24.559,-4.757l28.294,-26.923l29.626,-28.247l17.762,-6.432l8.538,-19.77l66.651,-26.532l66.009,2.425l42.074,-76.673l22.958,-34.665l15.701,0.992l24.117,-3.898l11.923,6.613Z" style="fill:#dcdcdc;"/><path d="M699.985,588.908l30.614,22.721l44.05,51.464l-18.754,-56.912l-55.91,-17.273Z" style="fill:#c2c9cc;"/><path d="M861.066,552.488l32.395,-54.928l34.699,-26.166l-21.64,-26.142l-45.454,107.236Z" style="fill:#c2c9cc;"/><path d="M768.28,690.791l81.069,-133.093l24.571,36.048l52.294,-32.805l25.946,-37.524l28.303,-44.984l26.427,-42.579l25.958,-57.183l0.828,30.275l6.323,35.071l6.985,34.116l14.093,-26.099l21.362,-13.94l33.044,24.256l3.421,37.717l26.238,157.351l-174.681,11.129l-202.181,22.244Z" style="fill:#c2c9cc;"/></g></g></g></svg>