<?xml version="1.0" encoding="UTF-8" standalone="no"?><!DOCTYPE svg PUBLIC "-//W3C//DTD SVG 1.1//EN" "http://www.w3.org/Graphics/SVG/1.1/DTD/svg11.dtd"><svg width="100%" height="100%" viewBox="0 0 1003 600" version="1.1" xmlns="http://www.w3.org/2000/svg" xmlns:xlink="http://www.w3.org/1999/xlink" xml:space="preserve" xmlns:serif="http://www.serif.com/" style="fill-rule:evenodd;clip-rule:evenodd;stroke-linejoin:round;stroke-miterlimit:1.41421;"><g><rect x="-4.672" y="503.606" width="1007.19" height="95.597" style="fill:#b3b8bb;"/><g><path d="M279.948,270.297l-48.493,-31.482l-13.861,0.619l-14.491,-19.055l-14.1,14.074l-44.106,7.692l-64.387,56.659l-11.894,101.511l-4.71,120.124l163.641,3.613l92.147,-5.244l257.49,26.703l77.623,-12.056l29.537,-18.786l-46.184,-26.505l-24.559,-4.758l-28.294,-26.922l-29.626,-28.247l-25.809,2.496l-14.797,-1.221l-29.047,-1.985l-38.63,-16.446l-52.659,-55.731l-40.092,-54.095l-22.958,-34.666l-15.701,0.993l-24.117,-3.898l-11.923,6.613Z" style="fill:#dcdcdc;"/><path d="M493.832,513.96l-19.845,-32.552l-47.249,-48.543l54.972,23.847l12.122,57.248Z" style="fill:#c2c9cc;"/><path d="M373.671,396.409l-32.394,-54.928l-34.7,-26.167l21.64,-26.141l45.454,107.236Z" style="fill:#c2c9cc;"/><path d="M466.457,534.712l-68.455,-59.088l-37.185,-37.957l-52.293,-32.805l-25.947,-37.524l-28.303,-44.984l-26.427,-42.579l-25.958,-57.183l-0.828,30.275l-6.323,35.071l19.007,22.067l0,17.789l18.068,11.089l-6.645,12.744l7.92,21.494l-19.319,-18.503l-16.592,-14.538l-9.424,-18.026l-14.093,-26.099l-21.361,-13.941l-33.045,24.257l-3.42,37.717l148.442,168.479l202.181,22.245Z" style="fill:#c2c9cc;"/></g></g></svg>