<?xml version="1.0" encoding="UTF-8" standalone="no"?><!DOCTYPE svg PUBLIC "-//W3C//DTD SVG 1.1//EN" "http://www.w3.org/Graphics/SVG/1.1/DTD/svg11.dtd"><svg width="100%" height="100%" viewBox="0 0 1170 700" version="1.1" xmlns="http://www.w3.org/2000/svg" xmlns:xlink="http://www.w3.org/1999/xlink" xml:space="preserve" xmlns:serif="http://www.serif.com/" style="fill-rule:evenodd;clip-rule:evenodd;stroke-linejoin:round;stroke-miterlimit:1.41421;"><g><path d="M26.112,403.117l141.476,-125.505l79.042,73.412l92.68,79.74l7.042,206.303l-334.043,1.007l13.803,-234.957Z" style="fill:#fff;"/><path d="M125.268,341.567l-41.857,10.884l76.997,-68.103l-11.288,33.714l-23.852,23.505Z" style="fill:#c2c9cc;"/><path d="M296.004,353.738l35.623,-36.722l7.933,-14.303l40.586,-44.177l27.744,-19.335l34.382,-53.74l7.561,-7.187l5.994,1.216l9.489,-17.5c0,0 7.342,4.955 14.239,-1.649c16.771,-16.059 97.945,-81.207 97.945,-81.207c0,0 14.32,-7.599 19.986,-3.891c9.382,6.14 68.384,46.284 68.384,46.284l8.975,21.51c33.811,28.861 74.139,35.425 107.66,51.441l21.841,0.614l71.435,52.314l29.172,12.765l66.987,69.689l6.646,15.738l66.207,59.591c19.034,36.465 84.302,73.706 83.522,109.217c-1.396,63.492 -83.262,117.297 -88.411,121.685l-327.852,9.714l-160.618,3.08l-96.541,-10.526l-338.392,0.958l100.97,-174.504l78.533,-111.075Z" style="fill:#fff;"/><g><path d="M576.001,80.464l13.051,27.445l-0.924,18.091l-6.686,22.989l-15.506,18.547l-16.066,24.831l7.94,31.524l-42.764,4.06l12.708,5.7l1.419,6.235l12.115,-3.665l3.593,25.654l31.578,44.97l8.637,10.854l4.124,38.964l19.057,41.681l-23.448,28.992l-56.114,-106.958l-16.866,-12.103l-14.496,14.674l20.135,32.478l12.338,16.525l-48.208,-2.141l18.577,31.481l-16.448,5.386l6.577,13.574l-18.807,-11.913l2.768,29.318l-20.164,-22.119l-10.579,4.488l-147.307,-6.402l2.696,-62.173l35.401,-36.651l4.83,-14.047l38.932,-41.165l28.887,-19.417l38.04,-59.936l8.334,-1.228l9.46,-18.267l10.841,3.412l102.345,-83.688Z" style="fill:#c2c9cc;fill-opacity:0.415686;"/><path d="M703.598,173.262c11.471,18.566 17.762,32.057 11.801,33.54l-30.251,-15.573l18.45,-17.967Z" style="fill:#c2c9cc;fill-opacity:0.415686;"/><path d="M810.096,357.936c10.063,21.889 65.634,106.548 59.672,108.031l-61.427,-75.521l1.755,-32.51Z" style="fill:#c2c9cc;fill-opacity:0.415686;"/><path d="M879.567,328.432c7.632,16.601 28.018,39.555 39.621,55.936c5.241,7.399 21.491,51.736 20.051,52.095l-36.745,-62.981l-35.753,-36.46l12.826,-8.59Z" style="fill:#c2c9cc;fill-opacity:0.415686;"/><path d="M644.764,238.986l29.386,70.35l15.648,0.338l15.351,13.056l26.323,-5.555l-17.53,15.297l4.577,16.204l-18.951,27.774l9.258,19.019l-2.645,21.499l-57.332,50.384l-6.426,-4.217l-22.401,24.409l4.038,19.05l14.306,11.868l1.81,17.998l0.228,32.343l-149.496,-26.356l13.713,-44.051l28.46,-13.536l4.753,-15.402l-8.08,-31.541l-20.572,-11.347l19.465,-40.741l36.912,52.904l16.246,-8.55l32.557,-21.011l15.456,-16.639l-5.192,-5.909l-2.22,-12.742l6.887,-5.735l-3.827,-17.531l-8.178,-15.167l-2.083,-14.521l-9.086,-9.229l6.92,-21.653l31.725,-51.06Z" style="fill:#c2c9cc;fill-opacity:0.415686;"/><path d="M768.597,596.335l2.573,-63.078l-25.751,-48.112l-32.022,22.292l18.992,28.799l34.384,78.834l1.824,-18.735Z" style="fill:#c2c9cc;fill-opacity:0.415686;"/><path d="M677.988,482.996l-18.582,19.167l4.664,15.483l43.134,34.673l23.757,66.511l17.472,10.845l-23.845,-71.378l-12.879,-29.067l-33.721,-46.234Z" style="fill:#c2c9cc;fill-opacity:0.415686;"/><path d="M802.174,198.323l-15.319,-1.375l-16.429,9.312l-17.581,-8.486l-1.625,17.467l-23.843,11.956l2.585,11.294l-13.332,11.273l-2.962,28.966l6.611,7.987l-1.628,10.119l7.372,8.272l20.579,-7.744l12.129,4.25l9.566,-1.137l17.778,10.575l-3.111,-34.168l6.229,-6.956l-1.496,-11.214l63.677,63.763l16.421,-1.47l-23.39,-25.602l-7.129,-28.692l-21.935,-10.943l-14.71,-10.737l-2.29,-10.74l18.464,6.178l-14.631,-42.148Z" style="fill:#c2c9cc;fill-opacity:0.415686;"/></g></g></svg>