<?xml version="1.0" encoding="UTF-8" standalone="no"?><!DOCTYPE svg PUBLIC "-//W3C//DTD SVG 1.1//EN" "http://www.w3.org/Graphics/SVG/1.1/DTD/svg11.dtd"><svg width="100%" height="100%" viewBox="0 0 100 100" version="1.1" xmlns="http://www.w3.org/2000/svg" xmlns:xlink="http://www.w3.org/1999/xlink" xml:space="preserve" xmlns:serif="http://www.serif.com/" style="fill-rule:evenodd;clip-rule:evenodd;stroke-linejoin:round;stroke-miterlimit:1.41421;"><g><path d="M1.26,0c0,0 5.993,9.813 9.591,14.284c8.912,11.072 23.613,23.954 40.52,36.653c6.727,5.053 16.973,13.498 17.931,13.142c3.173,-1.18 3.861,-6.888 3.861,-6.888l3.822,-0.4c0,0 0.296,5.147 -1.36,7.291c-3.742,4.845 -8.382,8.914 -9.407,12.561c-4.116,14.638 11.166,21.36 17.79,18.401c8.799,-3.93 11.952,-15.613 11.952,-15.613l4.04,1.182c0,0 -3.546,11.442 -9.768,15.558c-8.748,5.786 -13.979,3.859 -18.699,1.69c-4.655,-2.14 -8.929,-7.991 -10.124,-12.41c-1.193,-4.413 0.396,-9.748 0.215,-9.851c-19.723,-11.154 -36.519,-23.64 -50.458,-40.194c-16.375,-19.448 -9.906,-35.406 -9.906,-35.406Z" style="fill:#8393a7;"/><path d="M70.302,76.408c-0.375,-0.718 2.005,-4.173 2.78,-4.016c4.375,0.881 13.51,7.39 15.81,11.894c0.835,1.637 -1.704,5.087 -2.794,4.756c-6.608,-2.011 -13.451,-8.142 -15.796,-12.634Z" style="fill:#8393a7;"/><path d="M29.698,76.408c0.375,-0.718 -2.005,-4.173 -2.78,-4.016c-4.375,0.881 -13.51,7.39 -15.81,11.894c-0.835,1.637 1.704,5.087 2.794,4.756c6.608,-2.011 13.451,-8.142 15.796,-12.634Z" style="fill:#9c0000;"/><path d="M47.344,70.303c-2.919,1.805 -5.908,3.567 -8.968,5.297c-0.181,0.103 1.408,5.438 0.215,9.851c-1.195,4.419 -5.469,10.27 -10.124,12.41c-4.72,2.169 -9.951,4.096 -18.699,-1.69c-6.222,-4.116 -9.768,-15.558 -9.768,-15.558l4.04,-1.182c0,0 3.153,11.683 11.952,15.613c6.624,2.959 21.906,-3.763 17.79,-18.401c-1.025,-3.647 -5.665,-7.716 -9.407,-12.561c-1.656,-2.144 -1.36,-7.291 -1.36,-7.291l3.822,0.4c0,0 0.688,5.708 3.861,6.888c0.359,0.133 2.025,-0.972 4.323,-2.671c3.969,3.082 8.077,6.038 12.323,8.895Zm4.83,-22.057c15.408,-11.818 28.692,-23.671 36.975,-33.962c3.598,-4.471 9.591,-14.284 9.591,-14.284c0,0 6.469,15.958 -9.906,35.406c-7.166,8.511 -15.088,15.947 -23.775,22.679c-3.686,-2.759 -8.117,-6.14 -12.885,-9.839Z" style="fill:#9c0000;"/></g></svg>