<?xml version="1.0" encoding="UTF-8" standalone="no"?><!DOCTYPE svg PUBLIC "-//W3C//DTD SVG 1.1//EN" "http://www.w3.org/Graphics/SVG/1.1/DTD/svg11.dtd"><svg width="100%" height="100%" viewBox="0 0 78 100" version="1.1" xmlns="http://www.w3.org/2000/svg" xmlns:xlink="http://www.w3.org/1999/xlink" xml:space="preserve" style="fill-rule:evenodd;clip-rule:evenodd;stroke-linejoin:round;stroke-miterlimit:1.41421;"><g id="Layer1"><rect x="-0.086" y="0" width="78" height="100" style="fill:#ffce4a;"/></g><path d="M32.087,87.847l0,-8.854l-8.903,0l0,8.854l8.903,0Zm11.173,0l0,-8.854l-8.904,0l0,8.854l8.904,0Zm11.172,0l0,-8.854l-8.902,0l0,8.854l8.902,0Zm-33.518,-11.111l0,-8.854l-8.903,0l0,8.854l8.903,0Zm44.692,0l0,-8.854l-8.904,0l0,8.854l8.904,0Zm-44.692,-11.111l0,-8.854l-8.903,0l0,8.854l8.903,0Zm11.173,0l0,-8.854l-8.903,0l0,8.854l8.903,0Zm33.519,0l0,-8.854l-8.904,0l0,8.854l8.904,0Zm-44.692,-11.111l0,-8.854l-8.903,0l0,8.854l8.903,0Zm22.346,0l0,-8.854l-8.904,0l0,8.854l8.904,0Zm22.346,0l0,-8.854l-8.904,0l0,8.854l8.904,0Zm-44.692,-11.111l0,-8.854l-8.903,0l0,8.854l8.903,0Zm33.518,0l0,-8.854l-8.902,0l0,8.854l8.902,0Zm11.174,0l0,-8.854l-8.904,0l0,8.854l8.904,0Zm-44.692,-11.111l0,-8.854l-8.903,0l0,8.854l8.903,0Zm44.692,0l0,-8.854l-8.904,0l0,8.854l8.904,0Zm-33.519,-11.111l0,-8.855l-8.903,0l0,8.855l8.903,0Zm11.173,0l0,-8.855l-8.904,0l0,8.855l8.904,0Zm11.172,0l0,-8.855l-8.902,0l0,8.855l8.902,0Zm-54.641,78.819l0,-100l78.209,0l0,100l-78.209,0l0,0Z" style="fill:#172a55;fill-rule:nonzero;"/></svg>