<?xml version="1.0" encoding="UTF-8" standalone="no"?><!DOCTYPE svg PUBLIC "-//W3C//DTD SVG 1.1//EN" "http://www.w3.org/Graphics/SVG/1.1/DTD/svg11.dtd"><svg width="100%" height="100%" viewBox="0 0 78 100" version="1.1" xmlns="http://www.w3.org/2000/svg" xmlns:xlink="http://www.w3.org/1999/xlink" xml:space="preserve" style="fill-rule:evenodd;clip-rule:evenodd;stroke-linejoin:round;stroke-miterlimit:1.41421;"><rect id="Layer1" x="-0.086" y="0" width="78" height="100" style="fill:#ffce4a;"/><path d="M32.684,87.847l0,-8.854l-9.038,0l0,8.854l9.038,0Zm11.342,0l0,-8.854l-9.038,0l0,8.854l9.038,0Zm11.342,0l0,-8.854l-9.038,0l0,8.854l9.038,0Zm-11.342,-11.111l0,-8.854l-9.038,0l0,8.854l9.038,0Zm0,-11.111l0,-8.854l-9.038,0l0,8.854l9.038,0Zm0,-11.111l0,-8.854l-9.038,0l0,8.854l9.038,0Zm0,-11.111l0,-8.854l-9.038,0l0,8.854l9.038,0Zm-11.342,-11.111l0,-8.854l-9.038,0l0,8.854l9.038,0Zm11.342,0l0,-8.854l-9.038,0l0,8.854l9.038,0Zm0,-11.111l0,-8.855l-9.038,0l0,8.855l9.038,0Zm-44.127,78.819l0,-100l79.393,0l0,100l-79.393,0Z" style="fill:#172a55;fill-rule:nonzero;"/></svg>