<?xml version="1.0" encoding="UTF-8" standalone="no"?><!DOCTYPE svg PUBLIC "-//W3C//DTD SVG 1.1//EN" "http://www.w3.org/Graphics/SVG/1.1/DTD/svg11.dtd"><svg width="100%" height="100%" viewBox="0 0 78 100" version="1.1" xmlns="http://www.w3.org/2000/svg" xmlns:xlink="http://www.w3.org/1999/xlink" xml:space="preserve" style="fill-rule:evenodd;clip-rule:evenodd;stroke-linejoin:round;stroke-miterlimit:1.41421;"><rect id="Layer1" x="-0.086" y="0" width="78" height="100" style="fill:#ffce4a;"/><path d="M31.743,87.847l0,-8.854l-9.026,0l0,8.854l9.026,0Zm11.328,0l0,-8.854l-9.027,0l0,8.854l9.027,0Zm11.327,0l0,-8.854l-9.026,0l0,8.854l9.026,0Zm-33.982,-11.111l0,-8.854l-9.027,0l0,8.854l9.027,0Zm45.31,0l0,-8.854l-9.027,0l0,8.854l9.027,0Zm0,-11.111l0,-8.854l-9.027,0l0,8.854l9.027,0Zm-22.655,-11.111l0,-8.854l-9.027,0l0,8.854l9.027,0Zm11.327,0l0,-8.854l-9.026,0l0,8.854l9.026,0Zm11.328,-11.111l0,-8.854l-9.027,0l0,8.854l9.027,0Zm-45.31,-11.111l0,-8.854l-9.027,0l0,8.854l9.027,0Zm45.31,0l0,-8.854l-9.027,0l0,8.854l9.027,0Zm-33.983,-11.111l0,-8.855l-9.026,0l0,8.855l9.026,0Zm11.328,0l0,-8.855l-9.027,0l0,8.855l9.027,0Zm11.327,0l0,-8.855l-9.026,0l0,8.855l9.026,0Zm-55.398,78.819l0,-100l79.292,0l0,100l-79.292,0l0,0Z" style="fill:#172a55;fill-rule:nonzero;"/></svg>