<?xml version="1.0" encoding="UTF-8" standalone="no"?><!DOCTYPE svg PUBLIC "-//W3C//DTD SVG 1.1//EN" "http://www.w3.org/Graphics/SVG/1.1/DTD/svg11.dtd"><svg width="100%" height="100%" viewBox="0 0 78 100" version="1.1" xmlns="http://www.w3.org/2000/svg" xmlns:xlink="http://www.w3.org/1999/xlink" xml:space="preserve" style="fill-rule:evenodd;clip-rule:evenodd;stroke-linejoin:round;stroke-miterlimit:1.41421;"><path d="M32.21,87.847l0,-8.854l-8.88,0l0,8.854l8.88,0Zm11.143,0l0,-8.854l-8.88,0l0,8.854l8.88,0Zm11.143,0l0,-8.854l-8.88,0l0,8.854l8.88,0Zm-11.143,-11.111l0,-8.854l-8.88,0l0,8.854l8.88,0Zm0,-11.111l0,-8.854l-8.88,0l0,8.854l8.88,0Zm0,-11.111l0,-8.854l-8.88,0l0,8.854l8.88,0Zm0,-11.111l0,-8.854l-8.88,0l0,8.854l8.88,0Zm-11.143,-11.111l0,-8.854l-8.88,0l0,8.854l8.88,0Zm11.143,0l0,-8.854l-8.88,0l0,8.854l8.88,0Zm0,-11.111l0,-8.855l-8.88,0l0,8.855l8.88,0Zm-43.353,78.819l0,-100l78,0l0,100l-78,0Z" style="fill:#172a55;fill-rule:nonzero;"/></svg>