<?xml version="1.0" encoding="UTF-8" standalone="no"?><!DOCTYPE svg PUBLIC "-//W3C//DTD SVG 1.1//EN" "http://www.w3.org/Graphics/SVG/1.1/DTD/svg11.dtd"><svg width="100%" height="100%" viewBox="0 0 144 193" version="1.1" xmlns="http://www.w3.org/2000/svg" xmlns:xlink="http://www.w3.org/1999/xlink" xml:space="preserve" style="fill-rule:evenodd;clip-rule:evenodd;"><path id="Card-background" d="M143.997,9.6c0.002,-5.298 -4.272,-9.6 -9.538,-9.6l-124.918,0c-5.266,0 -9.542,4.302 -9.544,9.6l-0.048,172.8c-0.001,5.298 4.273,9.6 9.539,9.6l124.917,0c5.266,0 9.543,-4.302 9.544,-9.6l0.048,-172.8Z" style="fill:url(#_Radial1);stroke:#646464;stroke-width:0.22px;"/><g id="Clubs"><path id="path7975" d="M127.714,160.956c-2.53,0 -4.612,-2.055 -4.612,-4.553c0.002,-1.096 0.405,-2.155 1.134,-2.981c-0.212,0.033 -0.425,0.05 -0.64,0.052c-2.371,0 -4.323,-1.93 -4.323,-4.275c0,0 0,0 0,0c0,-2.346 1.952,-4.276 4.323,-4.276c0,0 0,0 0,0c1.256,0.001 2.45,0.542 3.27,1.482c0.679,-2.058 -0.948,-3.657 -1.705,-4.967l4.941,0c-0.761,1.318 -2.403,2.928 -1.693,5.004c0.82,-0.961 2.028,-1.517 3.299,-1.519c0,0 0,0 0,0c2.372,0 4.323,1.93 4.323,4.276c0,0 0,0 0,0c0,2.345 -1.951,4.275 -4.323,4.275c-0.165,-0.002 -0.33,-0.013 -0.494,-0.033c0.716,0.825 1.111,1.876 1.111,2.962c0,2.498 -2.081,4.553 -4.611,4.553l0,0Z" style="fill:url(#_Linear2);stroke:#000;stroke-width:0.04px;"/><path id="path7930" d="M72.995,40.95c-14.746,0 -26.88,11.538 -26.88,25.56c0,0 0,0 0,0c0.012,6.15 2.358,12.095 6.605,16.734c-1.232,-0.186 -2.477,-0.284 -3.725,-0.294c-13.825,0 -25.2,10.833 -25.2,24c0,13.166 11.375,24 25.2,24c7.316,-0.006 14.279,-3.045 19.059,-8.32c3.954,11.554 -5.529,20.529 -9.939,27.88l28.8,0c-4.437,-7.395 -14.006,-16.432 -9.868,-28.086c4.778,5.394 11.818,8.516 19.228,8.526c13.824,0 25.2,-10.834 25.2,-24c0,-13.167 -11.376,-24 -25.2,-24c-0.963,0.009 -1.923,0.072 -2.878,0.186c4.175,-4.628 6.474,-10.528 6.478,-16.626c0,0 0,0 0,0c0,-14.022 -12.134,-25.56 -26.88,-25.56l0,0Z" style="fill:url(#_Linear3);stroke:#000;stroke-width:0.24px;"/><path id="path79751" d="M16.502,31.272c-2.53,0 -4.612,2.056 -4.612,4.554c0.002,1.096 0.405,2.155 1.133,2.981c-0.211,-0.033 -0.425,-0.051 -0.639,-0.052c-2.371,0 -4.323,1.93 -4.323,4.275c0,0 0,0 0,0c0,2.346 1.952,4.276 4.323,4.276c0,0 0,0 0,0c1.255,-0.001 2.45,-0.543 3.27,-1.482c0.678,2.058 -0.948,3.657 -1.705,4.966l4.941,0c-0.761,-1.317 -2.403,-2.927 -1.693,-5.003c0.82,0.961 2.027,1.517 3.299,1.519c0,0 0,0 0,0c2.371,0 4.323,-1.93 4.323,-4.276c0,0 0,0 0,0c0,-2.345 -1.952,-4.275 -4.323,-4.275c-0.165,0.001 -0.33,0.012 -0.494,0.033c0.716,-0.825 1.111,-1.876 1.111,-2.962c0,-2.498 -2.081,-4.554 -4.611,-4.554l0,0Z" style="fill:url(#_Linear4);stroke:#000;stroke-width:0.04px;"/></g><g id="Black-Text"><path d="M12.354,22.469c0.013,1.309 0.433,2.318 1.26,3.028c0.775,0.703 1.699,1.061 2.773,1.074c1.107,-0.013 2.048,-0.371 2.822,-1.074c0.788,-0.71 1.195,-1.719 1.221,-3.028l0,-1.298c0.013,-1.374 -0.299,-2.38 -0.937,-3.018c-0.651,-0.625 -1.446,-0.937 -2.383,-0.937c-0.84,-0.013 -1.745,0.133 -2.715,0.439l0,-1.338c0.026,-1.426 0.69,-2.152 1.992,-2.178c0.925,0.013 1.546,0.411 1.865,1.192l2.1,0c-0.202,-1.048 -0.667,-1.852 -1.396,-2.412c-0.749,-0.547 -1.605,-0.821 -2.569,-0.821c-1.074,0 -1.998,0.352 -2.773,1.055c-0.827,0.71 -1.247,1.722 -1.26,3.037l0,6.279Zm2.041,-1.279c0.026,-1.426 0.69,-2.152 1.992,-2.178c1.296,0.026 1.963,0.752 2.002,2.178l0,1.162c-0.039,1.439 -0.706,2.165 -2.002,2.178c-1.302,-0.013 -1.966,-0.739 -1.992,-2.178l0,-1.162Z" style="fill:#010101;fill-rule:nonzero;"/><path d="M132.013,169.432c-0.013,-1.309 -0.433,-2.318 -1.26,-3.028c-0.775,-0.703 -1.699,-1.061 -2.774,-1.074c-1.106,0.013 -2.047,0.371 -2.822,1.074c-0.788,0.71 -1.194,1.719 -1.22,3.028l0,1.299c-0.013,1.373 0.299,2.379 0.937,3.017c0.651,0.625 1.445,0.938 2.383,0.938c0.84,0.013 1.745,-0.134 2.715,-0.44l0,1.338c-0.026,1.426 -0.69,2.152 -1.993,2.178c-0.924,-0.013 -1.546,-0.41 -1.865,-1.192l-2.099,0c0.201,1.049 0.667,1.853 1.396,2.413c0.749,0.546 1.605,0.82 2.568,0.82c1.075,0 1.999,-0.352 2.774,-1.055c0.827,-0.709 1.247,-1.722 1.26,-3.037l0,-6.279Zm-2.041,1.279c-0.026,1.426 -0.69,2.152 -1.993,2.178c-1.295,-0.026 -1.962,-0.752 -2.001,-2.178l0,-1.162c0.039,-1.439 0.706,-2.165 2.001,-2.178c1.303,0.013 1.967,0.739 1.993,2.178l0,1.162Z" style="fill:#030303;fill-rule:nonzero;"/></g><g id="Center-Text" transform="matrix(0.233905,0,0,0.218311,72.0368,112.825)"><path d="M-44.393,-43.802c0.144,14.386 4.76,25.48 13.85,33.281c8.517,7.73 18.68,11.666 30.489,11.809c12.168,-0.143 22.51,-4.079 31.027,-11.809c8.66,-7.801 13.133,-18.895 13.42,-33.281l0,-14.279c0.143,-15.102 -3.293,-26.159 -10.307,-33.174c-7.157,-6.87 -15.889,-10.306 -26.195,-10.306c-9.233,-0.143 -19.182,1.467 -29.846,4.831l0,-14.708c0.287,-15.674 7.587,-23.654 21.901,-23.941c10.164,0.143 16.999,4.509 20.506,13.098l23.082,0c-2.219,-11.523 -7.336,-20.362 -15.352,-26.518c-8.231,-6.012 -17.643,-9.018 -28.236,-9.018c-11.809,0 -21.972,3.865 -30.489,11.595c-9.09,7.801 -13.706,18.931 -13.85,33.388l0,69.032Zm22.438,-14.064c0.287,-15.674 7.587,-23.655 21.901,-23.941c14.243,0.286 21.579,8.267 22.009,23.941l0,12.776c-0.43,15.817 -7.766,23.797 -22.009,23.94c-14.314,-0.143 -21.614,-8.123 -21.901,-23.94l0,-12.776Z" style="fill:none;"/><path d="M-44.393,-43.802c0.144,14.386 4.76,25.48 13.85,33.281c8.517,7.73 18.68,11.666 30.489,11.809c12.168,-0.143 22.51,-4.079 31.027,-11.809c8.66,-7.801 13.133,-18.895 13.42,-33.281l0,-14.279c0.143,-15.102 -3.293,-26.159 -10.307,-33.174c-7.157,-6.87 -15.889,-10.306 -26.195,-10.306c-9.233,-0.143 -19.182,1.467 -29.846,4.831l0,-14.708c0.287,-15.674 7.587,-23.654 21.901,-23.941c10.164,0.143 16.999,4.509 20.506,13.098l23.082,0c-2.219,-11.523 -7.336,-20.362 -15.352,-26.518c-8.231,-6.012 -17.643,-9.018 -28.236,-9.018c-11.809,0 -21.972,3.865 -30.489,11.595c-9.09,7.801 -13.706,18.931 -13.85,33.388l0,69.032Zm22.438,-14.064c0.287,-15.674 7.587,-23.655 21.901,-23.941c14.243,0.286 21.579,8.267 22.009,23.941l0,12.776c-0.43,15.817 -7.766,23.797 -22.009,23.94c-14.314,-0.143 -21.614,-8.123 -21.901,-23.94l0,-12.776Z" style="fill:#fff;fill-rule:nonzero;"/></g><defs><radialGradient id="_Radial1" cx="0" cy="0" r="1" gradientUnits="userSpaceOnUse" gradientTransform="matrix(126.864,97.3356,-71.3658,95.5156,71.9734,96)"><stop offset="0%" style="stop-color:#fff;stop-opacity:1"/><stop offset="100%" style="stop-color:#dcdcdc;stop-opacity:1"/></radialGradient><linearGradient id="_Linear2" x1="0" y1="0" x2="1" y2="0" gradientUnits="userSpaceOnUse" gradientTransform="matrix(0.0338068,11.641,-11.641,0.0338068,127.842,142.222)"><stop offset="0%" style="stop-color:#737373;stop-opacity:1"/><stop offset="100%" style="stop-color:#000;stop-opacity:1"/></linearGradient><linearGradient id="_Linear3" x1="0" y1="0" x2="1" y2="0" gradientUnits="userSpaceOnUse" gradientTransform="matrix(-0.96,74.4,-74.4,-0.96,73.4748,40.2296)"><stop offset="0%" style="stop-color:#737373;stop-opacity:1"/><stop offset="100%" style="stop-color:#000;stop-opacity:1"/></linearGradient><linearGradient id="_Linear4" x1="0" y1="0" x2="1" y2="0" gradientUnits="userSpaceOnUse" gradientTransform="matrix(-0.164698,13.2543,-13.2543,-0.164698,16.5841,31.1441)"><stop offset="0%" style="stop-color:#737373;stop-opacity:1"/><stop offset="100%" style="stop-color:#000;stop-opacity:1"/></linearGradient></defs></svg>