<?xml version="1.0" encoding="UTF-8" standalone="no"?><!DOCTYPE svg PUBLIC "-//W3C//DTD SVG 1.1//EN" "http://www.w3.org/Graphics/SVG/1.1/DTD/svg11.dtd"><svg width="100%" height="100%" viewBox="0 0 144 193" version="1.1" xmlns="http://www.w3.org/2000/svg" xmlns:xlink="http://www.w3.org/1999/xlink" xml:space="preserve" style="fill-rule:evenodd;clip-rule:evenodd;"><path id="Card-background" d="M143.997,9.6c0.002,-5.298 -4.272,-9.6 -9.538,-9.6l-124.918,0c-5.266,0 -9.542,4.302 -9.544,9.6l-0.048,172.8c-0.001,5.298 4.273,9.6 9.539,9.6l124.917,0c5.266,0 9.543,-4.302 9.544,-9.6l0.048,-172.8Z" style="fill:url(#_Radial1);stroke:#646464;stroke-width:0.22px;"/><g id="Hearts"><path id="path7647" d="M44.333,45.091c-7.348,-0.057 -14.803,3.568 -20.591,14.617c-16.662,31.808 49.225,77.122 48.834,93.606l0,0.365c0,0 0.161,-0.149 0.196,-0.182c0.035,0.032 0.195,0.182 0.195,0.182l0,-0.365c0,-14.078 65.496,-61.798 48.834,-93.606c-16.649,-31.784 -47.001,-2.223 -49.029,-0.194c-1.322,-1.322 -14.649,-14.315 -28.439,-14.423l0,0Z" style="fill:url(#_Linear2);stroke:url(#_Linear3);stroke-width:0.24px;"/><path id="path8171" d="M11.911,32.963c-1.139,-0.009 -2.295,0.574 -3.192,2.349c-2.584,5.11 7.631,12.39 7.571,15.038l0,0.059c0,0 0.024,-0.024 0.03,-0.03c0.005,0.006 0.03,0.03 0.03,0.03l0,-0.059c0,-2.262 10.154,-9.928 7.571,-15.038c-2.581,-5.107 -7.287,-0.357 -7.601,-0.031c-0.205,-0.213 -2.271,-2.3 -4.409,-2.318l0,0Z" style="fill:url(#_Linear4);stroke:url(#_Linear5);stroke-width:0.04px;"/><path id="path5021" d="M123.271,159.365c-1.139,0.009 -2.295,-0.573 -3.192,-2.349c-2.584,-5.11 7.631,-12.389 7.571,-15.038l0,-0.058c0,0 0.024,0.024 0.03,0.029c0.005,-0.005 0.03,-0.029 0.03,-0.029l0,0.058c0,2.262 10.154,9.928 7.571,15.038c-2.581,5.107 -7.287,0.358 -7.601,0.032c-0.205,0.212 -2.271,2.299 -4.409,2.317l0,0Z" style="fill:url(#_Linear6);stroke:url(#_Linear7);stroke-width:0.04px;"/></g><g id="Red-Text"><path d="M13.34,23.456l-1.738,1.26c0.814,1.197 2.048,1.816 3.701,1.855c1.198,-0.013 2.25,-0.42 3.155,-1.221c0.911,-0.781 1.38,-1.888 1.406,-3.32l0,-9.814l-2.158,0l0,9.599c0,0.482 -0.075,0.882 -0.225,1.201c-0.143,0.332 -0.342,0.599 -0.596,0.801c-0.521,0.41 -1.067,0.609 -1.64,0.596c-0.43,0 -0.804,-0.101 -1.123,-0.303c-0.319,-0.169 -0.58,-0.387 -0.782,-0.654Z" style="fill:#a30000;fill-rule:nonzero;"/><path d="M131.026,168.445l1.739,-1.259c-0.814,-1.198 -2.048,-1.817 -3.702,-1.856c-1.197,0.013 -2.249,0.42 -3.154,1.221c-0.911,0.781 -1.38,1.888 -1.406,3.32l0,9.815l2.158,0l0,-9.6c0,-0.482 0.075,-0.882 0.225,-1.201c0.143,-0.332 0.342,-0.599 0.595,-0.801c0.521,-0.41 1.068,-0.609 1.641,-0.596c0.43,0 0.804,0.101 1.123,0.303c0.319,0.169 0.58,0.387 0.781,0.654Z" style="fill:#a30000;fill-rule:nonzero;"/></g><g id="Center-Text" transform="matrix(0.233905,0,0,0.218311,72.0368,112.825)"><path d="M-33.549,-32.959l-19.11,13.849c8.946,13.17 22.509,19.969 40.689,20.398c13.169,-0.143 24.728,-4.616 34.676,-13.419c10.02,-8.589 15.174,-20.756 15.46,-36.502l0,-107.895l-23.726,0l0,105.533c0,5.296 -0.823,9.698 -2.47,13.205c-1.574,3.65 -3.757,6.585 -6.548,8.803c-5.726,4.509 -11.738,6.692 -18.037,6.549c-4.723,0 -8.839,-1.109 -12.346,-3.328c-3.507,-1.861 -6.37,-4.259 -8.588,-7.193Z" style="fill:none;"/><path d="M-33.549,-32.959l-19.11,13.849c8.946,13.17 22.509,19.969 40.689,20.398c13.169,-0.143 24.728,-4.616 34.676,-13.419c10.02,-8.589 15.174,-20.756 15.46,-36.502l0,-107.895l-23.726,0l0,105.533c0,5.296 -0.823,9.698 -2.47,13.205c-1.574,3.65 -3.757,6.585 -6.548,8.803c-5.726,4.509 -11.738,6.692 -18.037,6.549c-4.723,0 -8.839,-1.109 -12.346,-3.328c-3.507,-1.861 -6.37,-4.259 -8.588,-7.193Z" style="fill:#fff;fill-rule:nonzero;"/></g><defs><radialGradient id="_Radial1" cx="0" cy="0" r="1" gradientUnits="userSpaceOnUse" gradientTransform="matrix(126.864,97.3356,-71.3658,95.5156,71.9734,96)"><stop offset="0%" style="stop-color:#fff;stop-opacity:1"/><stop offset="100%" style="stop-color:#dcdcdc;stop-opacity:1"/></radialGradient><linearGradient id="_Linear2" x1="0" y1="0" x2="1" y2="0" gradientUnits="userSpaceOnUse" gradientTransform="matrix(2.46125,89.2726,-93.7296,2.34421,72.9672,45.6127)"><stop offset="0%" style="stop-color:#e00000;stop-opacity:1"/><stop offset="100%" style="stop-color:#560000;stop-opacity:1"/></linearGradient><linearGradient id="_Linear3" x1="0" y1="0" x2="1" y2="0" gradientUnits="userSpaceOnUse" gradientTransform="matrix(2.46125,89.2726,-93.7296,2.34421,72.9672,45.6127)"><stop offset="0%" style="stop-color:#e00000;stop-opacity:1"/><stop offset="100%" style="stop-color:#560000;stop-opacity:1"/></linearGradient><linearGradient id="_Linear4" x1="0" y1="0" x2="1" y2="0" gradientUnits="userSpaceOnUse" gradientTransform="matrix(0.381581,14.342,-14.342,0.381581,16.3501,33.0472)"><stop offset="0%" style="stop-color:#e00000;stop-opacity:1"/><stop offset="100%" style="stop-color:#560000;stop-opacity:1"/></linearGradient><linearGradient id="_Linear5" x1="0" y1="0" x2="1" y2="0" gradientUnits="userSpaceOnUse" gradientTransform="matrix(0.381581,14.342,-14.342,0.381581,16.3501,33.0472)"><stop offset="0%" style="stop-color:#e00000;stop-opacity:1"/><stop offset="100%" style="stop-color:#560000;stop-opacity:1"/></linearGradient><linearGradient id="_Linear6" x1="0" y1="0" x2="1" y2="0" gradientUnits="userSpaceOnUse" gradientTransform="matrix(0.0377273,11.834,-11.834,0.0377273,127.9,143.425)"><stop offset="0%" style="stop-color:#e00000;stop-opacity:1"/><stop offset="100%" style="stop-color:#560000;stop-opacity:1"/></linearGradient><linearGradient id="_Linear7" x1="0" y1="0" x2="1" y2="0" gradientUnits="userSpaceOnUse" gradientTransform="matrix(0.381581,-14.342,-14.342,-0.381581,127.71,159.281)"><stop offset="0%" style="stop-color:#e00000;stop-opacity:1"/><stop offset="100%" style="stop-color:#560000;stop-opacity:1"/></linearGradient></defs></svg>