<?xml version="1.0" encoding="UTF-8" standalone="no"?><!DOCTYPE svg PUBLIC "-//W3C//DTD SVG 1.1//EN" "http://www.w3.org/Graphics/SVG/1.1/DTD/svg11.dtd"><svg width="100%" height="100%" viewBox="0 0 200 42" version="1.1" xmlns="http://www.w3.org/2000/svg" xmlns:xlink="http://www.w3.org/1999/xlink" xml:space="preserve" style="fill-rule:evenodd;clip-rule:evenodd;stroke-linejoin:round;stroke-miterlimit:1.41421;"><path id="New-Message" d="M76,3c-5.524,0 -10,3.667 -10,8.143c0,2.714 1.571,5.047 4.095,6.524c-0.333,1.666 -2.143,3.428 -2.143,3.428c0,0 3.096,0.381 5.381,-1.905c0,0 2.667,0.096 3.619,0.048c5.524,-0.143 9.048,-3.667 9.048,-8.143c0,-4.476 -4.476,-8.095 -10,-8.095Zm0.952,15.286c-0.857,0 -4,-0.048 -4.047,-0.096c-0.381,0.619 -2.334,2.048 -3.286,1.953c0.667,-0.715 1.476,-2.667 1.429,-3.048c-0.334,-0.19 -0.619,-0.381 -0.953,-0.571c-1.952,-1.334 -3.19,-3.286 -3.19,-5.476c0,-3.953 4.047,-7.191 9.047,-7.191c5,0 9.048,3.238 9.048,7.191c0,3.952 -3.048,7.238 -8.048,7.238Z" style="fill:#8193a6;fill-rule:nonzero;stroke:#8193a6;stroke-width:0.5px;"/><path id="New-Message1" d="M76,23c-5.524,0 -10,3.667 -10,8.143c0,2.714 1.571,5.047 4.095,6.524c-0.333,1.666 -2.143,3.428 -2.143,3.428c0,0 3.096,0.381 5.381,-1.905c0,0 2.667,0.096 3.619,0.048c5.524,-0.143 9.048,-3.667 9.048,-8.143c0,-4.476 -4.476,-8.095 -10,-8.095Zm0.952,15.286c-0.857,0 -4,-0.048 -4.047,-0.096c-0.381,0.619 -2.334,2.048 -3.286,1.953c0.667,-0.715 1.476,-2.667 1.429,-3.048c-0.334,-0.19 -0.619,-0.381 -0.953,-0.571c-1.952,-1.334 -3.19,-3.286 -3.19,-5.476c0,-3.953 4.047,-7.191 9.047,-7.191c5,0 9.048,3.238 9.048,7.191c0,3.952 -3.048,7.238 -8.048,7.238Z" style="fill:#fff;fill-rule:nonzero;"/><path id="Game-Icon" d="M9.669,9.375c0.063,0.218 0.084,0.438 0.062,0.664l-0.063,0.343c-0.031,0.111 -0.071,0.223 -0.12,0.337c-0.001,0.004 -0.003,0.008 -0.005,0.011l-1.529,3.1c-0.028,0.058 -0.08,0.101 -0.142,0.119l-0.001,0c-0.062,0.018 -0.129,0.009 -0.184,-0.025l-2.953,-1.806c-0.002,-0.001 -0.005,-0.003 -0.006,-0.004c-0.107,-0.071 -0.2,-0.148 -0.289,-0.229l-0.238,-0.253c-0.135,-0.176 -0.233,-0.371 -0.296,-0.583c-0.262,-0.905 0.204,-1.85 1.051,-2.208l0.114,-0.044c0.429,-0.149 0.899,-0.136 1.319,0.043c0.263,-0.383 0.649,-0.633 1.096,-0.745l0.12,-0.022c0.904,-0.149 1.801,0.4 2.064,1.302m7.839,-8.102l0.016,13.579c0.032,1.252 -0.943,1.218 -1.155,1.218l-2.168,0.053c0.24,0.635 0.041,1.39 -0.815,1.691l-7.68,2.107c-0.204,0.06 -1.392,0.392 -1.947,-0.961l-3.691,-12.972c-0.335,-1.018 0.662,-1.323 0.866,-1.382l5.724,-1.683l0.026,-1.633c0,-0.212 0.026,-1.301 1.253,-1.29c0,0 8.103,0.019 8.181,0.018c1.438,-0.031 1.391,1.258 1.39,1.255Zm-5.377,15.411c0,0 0.841,-0.383 0.481,-1.51c-0.671,-2.102 -3.306,-11.078 -3.316,-11.108c-0.304,-0.938 -1.295,-0.522 -1.335,-0.522c-0.073,0.001 -5.975,1.896 -6.057,1.924c-0.924,0.312 -0.374,1.486 -0.373,1.52c0.003,0.12 2.338,8.528 3.073,10.606c0.337,0.954 1.435,0.854 1.435,0.854m9.605,-3.593c0.798,-0.011 0.768,-0.361 0.786,-0.714c0.109,-2.075 -0.135,-11.739 -0.135,-11.739c0,0 0.029,-1.07 -1.013,-1.099c-0.396,-0.011 -6.614,-0.056 -6.626,-0.056c-1.08,0.043 -0.795,1.31 -0.795,1.31l0.757,-0.211c0.203,-0.059 1.362,-0.377 1.737,0.594l0.634,2.129l0.599,-0.655c0.044,-0.048 0.106,-0.075 0.171,-0.075l0.001,0c0.065,0 0.128,0.028 0.172,0.076l2.351,2.58c0.071,0.105 0.155,0.201 0.22,0.309l0.16,0.312c0.429,1.106 -0.346,2.353 -1.517,2.49l-0.122,0.011c-0.202,0.01 -0.377,-0.011 -0.588,-0.069l0.422,1.451c0.479,0.007 1.048,-0.16 1.048,-0.16l0,0.528l-0.941,0l0.907,3.034c0,0 1.328,-0.04 1.772,-0.046Z" style="fill:#8193a6;fill-rule:nonzero;"/><path id="Game-Icon1" d="M9.669,30.375c0.063,0.218 0.084,0.438 0.062,0.664l-0.063,0.343c-0.031,0.111 -0.071,0.223 -0.12,0.337c-0.001,0.004 -0.003,0.008 -0.005,0.011l-1.529,3.1c-0.028,0.058 -0.08,0.101 -0.142,0.119l-0.001,0c-0.062,0.018 -0.129,0.009 -0.184,-0.025l-2.953,-1.806c-0.002,-0.001 -0.005,-0.003 -0.006,-0.004c-0.107,-0.071 -0.2,-0.148 -0.289,-0.229l-0.238,-0.253c-0.135,-0.176 -0.233,-0.371 -0.296,-0.583c-0.262,-0.905 0.204,-1.85 1.051,-2.208l0.114,-0.044c0.429,-0.149 0.899,-0.136 1.319,0.043c0.263,-0.383 0.649,-0.633 1.096,-0.745l0.12,-0.022c0.904,-0.149 1.801,0.4 2.064,1.302m7.839,-8.102l0.016,13.579c0.032,1.252 -0.943,1.218 -1.155,1.218l-2.168,0.053c0.24,0.635 0.041,1.39 -0.815,1.691l-7.68,2.107c-0.204,0.06 -1.392,0.392 -1.947,-0.961l-3.691,-12.972c-0.335,-1.018 0.662,-1.323 0.866,-1.382l5.724,-1.683l0.026,-1.633c0,-0.212 0.026,-1.301 1.253,-1.29c0,0 8.103,0.019 8.181,0.018c1.438,-0.031 1.391,1.258 1.39,1.255Zm-5.377,15.411c0,0 0.841,-0.383 0.481,-1.51c-0.671,-2.102 -3.306,-11.078 -3.316,-11.108c-0.304,-0.938 -1.295,-0.522 -1.335,-0.522c-0.073,0.001 -5.975,1.896 -6.057,1.924c-0.924,0.312 -0.374,1.486 -0.373,1.52c0.003,0.12 2.338,8.528 3.073,10.606c0.337,0.954 1.435,0.854 1.435,0.854m9.605,-3.593c0.798,-0.011 0.768,-0.361 0.786,-0.714c0.109,-2.075 -0.135,-11.739 -0.135,-11.739c0,0 0.029,-1.07 -1.013,-1.099c-0.396,-0.011 -6.614,-0.056 -6.626,-0.056c-1.08,0.043 -0.795,1.31 -0.795,1.31l0.757,-0.211c0.203,-0.059 1.362,-0.377 1.737,0.594l0.634,2.129l0.599,-0.655c0.044,-0.048 0.106,-0.075 0.171,-0.075l0.001,0c0.065,0 0.128,0.028 0.172,0.076l2.351,2.58c0.071,0.105 0.155,0.201 0.22,0.309l0.16,0.312c0.429,1.106 -0.346,2.353 -1.517,2.49l-0.122,0.011c-0.202,0.01 -0.377,-0.011 -0.588,-0.069l0.422,1.451c0.479,0.007 1.048,-0.16 1.048,-0.16l0,0.528l-0.941,0l0.907,3.034c0,0 1.328,-0.04 1.772,-0.046Z" style="fill:#fff;fill-rule:nonzero;"/><g id="Table-Icon"><path d="M30.675,11.371l1.521,0l0,0.543l0.522,0l0,-0.543l0.29,0l0,-0.493l-0.29,0l0,-1.048l-0.522,0l0,1.048l-0.953,0l1.233,-2.611l-0.583,0l-1.218,2.611l0,0.493Z" style="fill:#8193a6;fill-rule:nonzero;"/><path d="M41.55,13.227l0,5.706c0,0.283 -0.113,0.554 -0.313,0.754c-0.2,0.201 -0.471,0.313 -0.754,0.313c-3.409,0 -14.008,0 -17.416,0c-0.283,0 -0.554,-0.112 -0.754,-0.313c-0.201,-0.2 -0.313,-0.471 -0.313,-0.754c0,-3.468 0,-14.398 0,-17.866c0,-0.283 0.112,-0.554 0.313,-0.754c0.2,-0.201 0.471,-0.313 0.754,-0.313c3.408,0 14.007,0 17.416,0c0.283,0 0.554,0.112 0.754,0.313c0.2,0.2 0.313,0.471 0.313,0.754l0,5.697l-19.541,0l0,6.463l19.541,0l0,-6.463l0.023,0l0,6.463l-0.023,0Zm-10.772,5.306l2.078,0l0,-0.523l-1.393,0l1.173,-1.471c0.147,-0.186 0.22,-0.4 0.22,-0.64c-0.003,-0.3 -0.104,-0.548 -0.303,-0.743c-0.195,-0.196 -0.449,-0.296 -0.763,-0.3c-0.28,0.004 -0.516,0.102 -0.707,0.295c-0.19,0.199 -0.292,0.45 -0.305,0.753l0.52,0c0.018,-0.167 0.076,-0.296 0.175,-0.388c0.095,-0.091 0.214,-0.137 0.357,-0.137c0.162,0.003 0.287,0.056 0.376,0.157c0.085,0.102 0.127,0.221 0.127,0.358c0,0.052 -0.006,0.107 -0.02,0.165c-0.02,0.062 -0.057,0.129 -0.112,0.2l-1.423,1.781l0,0.493Zm0.016,-14.34c0.003,0.329 0.114,0.591 0.333,0.788c0.208,0.202 0.467,0.305 0.778,0.308c0.311,-0.003 0.575,-0.106 0.79,-0.308c0.212,-0.197 0.319,-0.459 0.322,-0.788c-0.003,-0.351 -0.146,-0.625 -0.43,-0.82c0.109,-0.095 0.197,-0.204 0.265,-0.328c0.065,-0.115 0.098,-0.251 0.098,-0.41c-0.003,-0.303 -0.103,-0.554 -0.298,-0.753c-0.193,-0.196 -0.442,-0.296 -0.747,-0.3c-0.301,0.004 -0.546,0.104 -0.736,0.3c-0.202,0.199 -0.304,0.45 -0.307,0.753c0,0.159 0.035,0.295 0.107,0.41c0.062,0.124 0.147,0.233 0.255,0.328c-0.283,0.195 -0.427,0.469 -0.43,0.82Zm0.523,-0.005c0.003,-0.17 0.063,-0.308 0.18,-0.415c0.112,-0.105 0.247,-0.159 0.408,-0.162c0.165,0.003 0.303,0.057 0.415,0.162c0.113,0.107 0.171,0.245 0.175,0.415c-0.004,0.167 -0.062,0.304 -0.175,0.411c-0.112,0.111 -0.25,0.167 -0.415,0.167c-0.161,0 -0.296,-0.056 -0.408,-0.167c-0.117,-0.107 -0.177,-0.244 -0.18,-0.411Zm0.067,-1.563c0.004,-0.173 0.058,-0.304 0.163,-0.392c0.103,-0.085 0.222,-0.128 0.358,-0.128c0.14,0 0.261,0.043 0.365,0.128c0.101,0.088 0.154,0.219 0.157,0.392c-0.003,0.169 -0.056,0.297 -0.157,0.385c-0.104,0.092 -0.225,0.138 -0.365,0.138c-0.136,0 -0.255,-0.046 -0.358,-0.138c-0.105,-0.088 -0.159,-0.216 -0.163,-0.385Z" style="fill:#8193a6;"/></g><g id="Table-Icon1"><path d="M30.675,32.371l1.521,0l0,0.543l0.522,0l0,-0.543l0.29,0l0,-0.493l-0.29,0l0,-1.048l-0.522,0l0,1.048l-0.953,0l1.233,-2.611l-0.583,0l-1.218,2.611l0,0.493Z" style="fill:#fff;fill-rule:nonzero;"/><path d="M41.55,34.227l0,5.706c0,0.283 -0.113,0.554 -0.313,0.754c-0.2,0.201 -0.471,0.313 -0.754,0.313c-3.409,0 -14.008,0 -17.416,0c-0.283,0 -0.554,-0.112 -0.754,-0.313c-0.201,-0.2 -0.313,-0.471 -0.313,-0.754c0,-3.468 0,-14.398 0,-17.866c0,-0.283 0.112,-0.554 0.313,-0.754c0.2,-0.201 0.471,-0.313 0.754,-0.313c3.408,0 14.007,0 17.416,0c0.283,0 0.554,0.112 0.754,0.313c0.2,0.2 0.313,0.471 0.313,0.754l0,5.697l-19.541,0l0,6.463l19.541,0l0,-6.463l0.023,0l0,6.463l-0.023,0Zm-10.772,5.306l2.078,0l0,-0.523l-1.393,0l1.173,-1.471c0.147,-0.186 0.22,-0.4 0.22,-0.64c-0.003,-0.3 -0.104,-0.548 -0.303,-0.743c-0.195,-0.196 -0.449,-0.296 -0.763,-0.3c-0.28,0.004 -0.516,0.102 -0.707,0.295c-0.19,0.199 -0.292,0.45 -0.305,0.753l0.52,0c0.018,-0.167 0.076,-0.296 0.175,-0.388c0.095,-0.091 0.214,-0.137 0.357,-0.137c0.162,0.003 0.287,0.056 0.376,0.157c0.085,0.102 0.127,0.221 0.127,0.358c0,0.052 -0.006,0.107 -0.02,0.165c-0.02,0.062 -0.057,0.129 -0.112,0.2l-1.423,1.781l0,0.493Zm0.016,-14.34c0.003,0.329 0.114,0.591 0.333,0.788c0.208,0.202 0.467,0.305 0.778,0.308c0.311,-0.003 0.575,-0.106 0.79,-0.308c0.212,-0.197 0.319,-0.459 0.322,-0.788c-0.003,-0.351 -0.146,-0.625 -0.43,-0.82c0.109,-0.095 0.197,-0.204 0.265,-0.328c0.065,-0.115 0.098,-0.251 0.098,-0.41c-0.003,-0.303 -0.103,-0.554 -0.298,-0.753c-0.193,-0.196 -0.442,-0.296 -0.747,-0.3c-0.301,0.004 -0.546,0.104 -0.736,0.3c-0.202,0.199 -0.304,0.45 -0.307,0.753c0,0.159 0.035,0.295 0.107,0.41c0.062,0.124 0.147,0.233 0.255,0.328c-0.283,0.195 -0.427,0.469 -0.43,0.82Zm0.523,-0.005c0.003,-0.17 0.063,-0.308 0.18,-0.415c0.112,-0.105 0.247,-0.159 0.408,-0.162c0.165,0.003 0.303,0.057 0.415,0.162c0.113,0.107 0.171,0.245 0.175,0.415c-0.004,0.167 -0.062,0.304 -0.175,0.411c-0.112,0.111 -0.25,0.167 -0.415,0.167c-0.161,0 -0.296,-0.056 -0.408,-0.167c-0.117,-0.107 -0.177,-0.244 -0.18,-0.411Zm0.067,-1.563c0.004,-0.173 0.058,-0.304 0.163,-0.392c0.103,-0.085 0.222,-0.128 0.358,-0.128c0.14,0 0.261,0.043 0.365,0.128c0.101,0.088 0.154,0.219 0.157,0.392c-0.003,0.169 -0.056,0.297 -0.157,0.385c-0.104,0.092 -0.225,0.138 -0.365,0.138c-0.136,0 -0.255,-0.046 -0.358,-0.138c-0.105,-0.088 -0.159,-0.216 -0.163,-0.385Z" style="fill:#fff;"/></g><g id="Chips-Icon"><path d="M63.767,7.81c0.255,0.352 0.149,2.021 0.149,2.407c0,2.186 -4.386,3.961 -9.788,3.961c-5.402,0 -9.788,-1.775 -9.788,-3.961c0,-0.551 -0.275,-2.221 0,-2.407" style="fill:none;stroke:#8193a6;stroke-width:1px;stroke-linecap:round;stroke-miterlimit:1.5;"/><path d="M44.498,10.929c-0.246,0.213 -0.158,0.687 -0.158,1.238c0,2.186 4.386,3.962 9.788,3.962c5.402,0 9.788,-1.776 9.788,-3.962c0,-0.108 0.066,-0.579 -0.16,-1.238" style="fill:none;stroke:#8193a6;stroke-width:1px;stroke-linecap:round;stroke-miterlimit:1.5;"/><path d="M63.756,12.883c0.226,0.659 0.16,1.37 0.16,1.478c0,1.168 -1.252,2.219 -3.241,2.944c-1.735,0.632 -4.031,1.018 -6.547,1.018c-5.402,0 -9.788,-1.776 -9.788,-3.962c0,-0.551 -0.087,-1.265 0.16,-1.478" style="fill:none;stroke:#8193a6;stroke-width:1px;stroke-linecap:round;stroke-miterlimit:1.5;"/><path d="M54,4c5.519,0 10,1.774 10,3.96c0,2.186 -4.481,3.96 -10,3.96c-5.519,0 -10,-1.774 -10,-3.96c0,-2.186 4.481,-3.96 10,-3.96Zm3.631,2.415l-9.369,2.267l0.985,0.973l11.043,-2.673l-0.985,-0.972l-2.12,-0.686l-1.682,0.407l2.128,0.684Z" style="fill:#8193a6;"/></g><g id="Chips-Icon1"><path d="M63.767,28.81c0.255,0.352 0.149,2.021 0.149,2.407c0,2.186 -4.386,3.961 -9.788,3.961c-5.402,0 -9.788,-1.775 -9.788,-3.961c0,-0.551 -0.275,-2.221 0,-2.407" style="fill:none;stroke:#fff;stroke-width:1px;stroke-linecap:round;stroke-miterlimit:1.5;"/><path d="M44.498,31.929c-0.246,0.213 -0.158,0.687 -0.158,1.238c0,2.186 4.386,3.962 9.788,3.962c5.402,0 9.788,-1.776 9.788,-3.962c0,-0.108 0.066,-0.579 -0.16,-1.238" style="fill:none;stroke:#fff;stroke-width:1px;stroke-linecap:round;stroke-miterlimit:1.5;"/><path d="M63.756,33.883c0.226,0.659 0.16,1.37 0.16,1.478c0,1.168 -1.252,2.219 -3.241,2.944c-1.735,0.632 -4.031,1.018 -6.547,1.018c-5.402,0 -9.788,-1.776 -9.788,-3.962c0,-0.551 -0.087,-1.265 0.16,-1.478" style="fill:none;stroke:#fff;stroke-width:1px;stroke-linecap:round;stroke-miterlimit:1.5;"/><path d="M54,25c5.519,0 10,1.774 10,3.96c0,2.186 -4.481,3.96 -10,3.96c-5.519,0 -10,-1.774 -10,-3.96c0,-2.186 4.481,-3.96 10,-3.96Zm3.631,2.415l-9.369,2.267l0.985,0.973l11.043,-2.673l-0.985,-0.972l-2.12,-0.686l-1.682,0.407l2.128,0.684Z" style="fill:#fff;"/></g><path id="Book-Icon" d="M105.916,20l-14.999,0c-0.691,0 -1.25,-0.56 -1.25,-1.25l0,-2.083l0.833,0c0.92,0 1.667,-0.746 1.667,-1.667c0,-0.92 -0.747,-1.666 -1.667,-1.666l-0.833,0l0,-1.667l0.833,0c0.92,0 1.667,-0.746 1.667,-1.667c0,-0.92 -0.747,-1.667 -1.667,-1.667l-0.833,0l0,-1.666l0.833,0c0.92,0 1.667,-0.747 1.667,-1.667c0,-0.92 -0.747,-1.667 -1.667,-1.667l-0.833,0l0,-2.083c0,-0.69 0.559,-1.25 1.25,-1.25l8.75,0l0,9.167l2.5,-2.5l2.5,2.5l0,-9.167l1.249,0c0.691,0 1.251,0.56 1.251,1.25l0,17.5c0,0.69 -0.56,1.25 -1.251,1.25Zm-14.583,-15c0,0.46 -0.373,0.833 -0.833,0.833l-1.667,0c-0.46,0 -0.833,-0.373 -0.833,-0.833c0,-0.46 0.373,-0.833 0.833,-0.833l1.667,0c0.46,0 0.833,0.373 0.833,0.833Zm-2.5,4.167l1.667,0c0.46,0 0.833,0.373 0.833,0.833c0,0.46 -0.373,0.833 -0.833,0.833l-1.667,0c-0.46,0 -0.833,-0.373 -0.833,-0.833c0,-0.46 0.373,-0.833 0.833,-0.833Zm0,5l1.667,0c0.46,0 0.833,0.373 0.833,0.833c0,0.46 -0.373,0.833 -0.833,0.833l-1.667,0c-0.46,0 -0.833,-0.373 -0.833,-0.833c0,-0.46 0.373,-0.833 0.833,-0.833Z" style="fill:#8193a6;"/><path id="Book-Icon1" d="M105.916,41l-14.999,0c-0.691,0 -1.25,-0.56 -1.25,-1.25l0,-2.083l0.833,0c0.92,0 1.667,-0.746 1.667,-1.667c0,-0.92 -0.747,-1.666 -1.667,-1.666l-0.833,0l0,-1.667l0.833,0c0.92,0 1.667,-0.746 1.667,-1.667c0,-0.92 -0.747,-1.667 -1.667,-1.667l-0.833,0l0,-1.666l0.833,0c0.92,0 1.667,-0.747 1.667,-1.667c0,-0.92 -0.747,-1.667 -1.667,-1.667l-0.833,0l0,-2.083c0,-0.69 0.559,-1.25 1.25,-1.25l8.75,0l0,9.167l2.5,-2.5l2.5,2.5l0,-9.167l1.249,0c0.691,0 1.251,0.56 1.251,1.25l0,17.5c0,0.69 -0.56,1.25 -1.251,1.25Zm-14.583,-15c0,0.46 -0.373,0.833 -0.833,0.833l-1.667,0c-0.46,0 -0.833,-0.373 -0.833,-0.833c0,-0.46 0.373,-0.833 0.833,-0.833l1.667,0c0.46,0 0.833,0.373 0.833,0.833Zm-2.5,4.167l1.667,0c0.46,0 0.833,0.373 0.833,0.833c0,0.46 -0.373,0.833 -0.833,0.833l-1.667,0c-0.46,0 -0.833,-0.373 -0.833,-0.833c0,-0.46 0.373,-0.833 0.833,-0.833Zm0,5l1.667,0c0.46,0 0.833,0.373 0.833,0.833c0,0.46 -0.373,0.833 -0.833,0.833l-1.667,0c-0.46,0 -0.833,-0.373 -0.833,-0.833c0,-0.46 0.373,-0.833 0.833,-0.833Z" style="fill:#fff;"/><path id="User-Icon" d="M126.625,20.315c-1.514,0.252 -3.295,0.32 -6.67,0.32c-3.374,0 -5.155,-0.068 -6.669,-0.32c-2.121,-0.353 -3.331,-1.109 -3.331,-2.38c0,-1.679 2.16,-4.019 5.163,-5.374c1.214,1.84 2.928,3.074 4.837,3.074c1.91,0 3.624,-1.234 4.837,-3.074c3.003,1.355 5.163,3.695 5.163,5.374c0,1.271 -1.209,2.027 -3.33,2.38Zm-6.67,-6.347c-2.768,0 -5,-3.674 -5,-7.45c0,-3.515 2.088,-5.882 5,-5.882c2.913,0 5.001,2.367 5.001,5.882c0,3.776 -2.232,7.45 -5.001,7.45Z" style="fill:#8393a7;"/><path id="User-Icon1" d="M126.625,40.679c-1.514,0.253 -3.295,0.32 -6.67,0.32c-3.374,0 -5.155,-0.067 -6.669,-0.32c-2.121,-0.353 -3.331,-1.109 -3.331,-2.38c0,-1.678 2.16,-4.019 5.163,-5.374c1.214,1.84 2.928,3.074 4.837,3.074c1.91,0 3.624,-1.234 4.837,-3.074c3.003,1.355 5.163,3.696 5.163,5.374c0,1.271 -1.209,2.027 -3.33,2.38Zm-6.67,-6.346c-2.768,0 -5,-3.675 -5,-7.451c0,-3.515 2.088,-5.882 5,-5.882c2.913,0 5.001,2.367 5.001,5.882c0,3.776 -2.232,7.451 -5.001,7.451Z" style="fill:#fff;"/></svg>