<?xml version="1.0" encoding="UTF-8" standalone="no"?><!DOCTYPE svg PUBLIC "-//W3C//DTD SVG 1.1//EN" "http://www.w3.org/Graphics/SVG/1.1/DTD/svg11.dtd"><svg width="100%" height="100%" viewBox="0 0 144 193" version="1.1" xmlns="http://www.w3.org/2000/svg" xmlns:xlink="http://www.w3.org/1999/xlink" xml:space="preserve" style="fill-rule:evenodd;clip-rule:evenodd;"><path id="Card-background" d="M143.997,9.6c0.002,-5.298 -4.272,-9.6 -9.538,-9.6l-124.918,0c-5.266,0 -9.542,4.302 -9.544,9.6l-0.048,172.8c-0.001,5.298 4.273,9.6 9.539,9.6l124.917,0c5.266,0 9.543,-4.302 9.544,-9.6l0.048,-172.8Z" style="fill:url(#_Radial1);stroke:#646464;stroke-width:0.22px;"/><path id="Spades" d="M72.61,26.672c-15.08,42.224 -53.316,63.427 -53.887,88.068c0,33.177 36.21,29.92 47.855,14.477c6.032,15.081 -6.376,26.712 -12.065,36.193l36.193,0c-5.689,-9.481 -18.096,-21.112 -12.064,-36.193c11.645,15.443 47.854,18.7 47.854,-14.477c-0.571,-24.641 -38.806,-45.844 -53.886,-88.068Z" style="fill:url(#_Linear2);stroke:#000;stroke-width:0.3px;"/><g id="Center-Text" transform="matrix(0.233905,0,0,0.218311,72.7568,119.065)"><path d="M23.404,-37.218c-5.821,4.867 -13.599,7.301 -23.332,7.301c-7.444,0 -13.838,-1.575 -19.182,-4.724c-5.439,-2.672 -9.829,-6.155 -13.169,-10.449c-4.104,-4.486 -6.823,-10.355 -8.159,-17.607c-1.527,-7.253 -2.291,-21.138 -2.291,-41.655c0,-20.518 0.764,-34.498 2.291,-41.942c1.336,-7.061 4.055,-12.835 8.159,-17.32c3.34,-4.294 7.73,-7.873 13.169,-10.736c5.344,-2.767 11.738,-4.246 19.182,-4.437c7.539,0.191 14.075,1.67 19.61,4.437c5.249,2.863 9.448,6.442 12.597,10.736c4.104,4.485 6.919,10.259 8.446,17.32c1.431,7.444 2.147,21.424 2.147,41.942c0,22.044 -1.002,36.597 -3.006,43.659l-24.335,-19.325l-18.752,21.615l26.625,21.185Zm25.909,20.756l26.339,21.186l18.752,-21.758l-27.484,-21.901c2.863,-4.772 4.915,-11.452 6.155,-20.04c0.954,-8.589 1.432,-23.715 1.432,-45.377c0,-24.239 -0.621,-40.462 -1.861,-48.669c-1.336,-8.207 -3.77,-14.84 -7.301,-19.897c-4.867,-9.639 -12.787,-18.227 -23.762,-25.766c-11.069,-7.635 -24.907,-11.547 -41.511,-11.738c-16.414,0.191 -30.108,4.103 -41.083,11.738c-11.165,7.539 -19.277,16.127 -24.334,25.766c-3.15,5.057 -5.488,11.69 -7.014,19.897c-1.432,8.207 -2.148,24.43 -2.148,48.669c0,23.857 0.716,39.985 2.148,48.383c0.763,4.485 1.717,8.207 2.862,11.165c1.241,2.863 2.625,5.869 4.152,9.018c5.057,9.638 13.169,18.132 24.334,25.48c10.975,7.634 24.669,11.642 41.083,12.024c20.517,-0.382 36.931,-6.442 49.241,-18.18Z" style="fill:none;"/><path d="M23.404,-37.218c-5.821,4.867 -13.599,7.301 -23.332,7.301c-7.444,0 -13.838,-1.575 -19.182,-4.724c-5.439,-2.672 -9.829,-6.155 -13.169,-10.449c-4.104,-4.486 -6.823,-10.355 -8.159,-17.607c-1.527,-7.253 -2.291,-21.138 -2.291,-41.655c0,-20.518 0.764,-34.498 2.291,-41.942c1.336,-7.061 4.055,-12.835 8.159,-17.32c3.34,-4.294 7.73,-7.873 13.169,-10.736c5.344,-2.767 11.738,-4.246 19.182,-4.437c7.539,0.191 14.075,1.67 19.61,4.437c5.249,2.863 9.448,6.442 12.597,10.736c4.104,4.485 6.919,10.259 8.446,17.32c1.431,7.444 2.147,21.424 2.147,41.942c0,22.044 -1.002,36.597 -3.006,43.659l-24.335,-19.325l-18.752,21.615l26.625,21.185Zm25.909,20.756l26.339,21.186l18.752,-21.758l-27.484,-21.901c2.863,-4.772 4.915,-11.452 6.155,-20.04c0.954,-8.589 1.432,-23.715 1.432,-45.377c0,-24.239 -0.621,-40.462 -1.861,-48.669c-1.336,-8.207 -3.77,-14.84 -7.301,-19.897c-4.867,-9.639 -12.787,-18.227 -23.762,-25.766c-11.069,-7.635 -24.907,-11.547 -41.511,-11.738c-16.414,0.191 -30.108,4.103 -41.083,11.738c-11.165,7.539 -19.277,16.127 -24.334,25.766c-3.15,5.057 -5.488,11.69 -7.014,19.897c-1.432,8.207 -2.148,24.43 -2.148,48.669c0,23.857 0.716,39.985 2.148,48.383c0.763,4.485 1.717,8.207 2.862,11.165c1.241,2.863 2.625,5.869 4.152,9.018c5.057,9.638 13.169,18.132 24.334,25.48c10.975,7.634 24.669,11.642 41.083,12.024c20.517,-0.382 36.931,-6.442 49.241,-18.18Z" style="fill:#fff;fill-rule:nonzero;"/></g><defs><radialGradient id="_Radial1" cx="0" cy="0" r="1" gradientUnits="userSpaceOnUse" gradientTransform="matrix(126.864,97.3356,-71.3658,95.5156,71.9734,96)"><stop offset="0%" style="stop-color:#fff;stop-opacity:1"/><stop offset="100%" style="stop-color:#dcdcdc;stop-opacity:1"/></radialGradient><linearGradient id="_Linear2" x1="0" y1="0" x2="1" y2="0" gradientUnits="userSpaceOnUse" gradientTransform="matrix(5.72508e-15,93.4976,-93.4976,5.72508e-15,72.6098,26.8226)"><stop offset="0%" style="stop-color:#737373;stop-opacity:1"/><stop offset="100%" style="stop-color:#000;stop-opacity:1"/></linearGradient></defs></svg>