<?xml version="1.0" encoding="UTF-8" standalone="no"?><!DOCTYPE svg PUBLIC "-//W3C//DTD SVG 1.1//EN" "http://www.w3.org/Graphics/SVG/1.1/DTD/svg11.dtd"><svg width="100%" height="100%" viewBox="0 0 20 20" version="1.1" xmlns="http://www.w3.org/2000/svg" xmlns:xlink="http://www.w3.org/1999/xlink" xml:space="preserve" xmlns:serif="http://www.serif.com/" style="fill-rule:evenodd;clip-rule:evenodd;stroke-linejoin:round;stroke-miterlimit:1.41421;"><path id="Loupe-Icon" serif:id="Loupe Icon" d="M19.631,19.63c-0.493,0.493 -1.29,0.493 -1.783,0l-3.865,-3.865c-1.46,1.09 -3.266,1.744 -5.228,1.744c-4.835,0 -8.755,-3.919 -8.755,-8.755c0,-4.835 3.92,-8.754 8.755,-8.754c4.835,0 8.755,3.919 8.755,8.754c0,1.963 -0.654,3.769 -1.745,5.229l3.866,3.864c0.492,0.493 0.492,1.291 0,1.783Zm-10.876,-17.129c-3.454,0 -6.254,2.8 -6.254,6.253c0,3.454 2.8,6.254 6.254,6.254c3.453,0 6.253,-2.8 6.253,-6.254c0,-3.453 -2.8,-6.253 -6.253,-6.253Z" style="fill:#8393a7;"/></svg>